<?xml version="1.0" standalone="no"?>
<!DOCTYPE svg PUBLIC "-//W3C//DTD SVG 1.1//EN" "http://www.w3.org/Graphics/SVG/1.1/DTD/svg11.dtd" >
<svg xmlns="http://www.w3.org/2000/svg" width="100%" height="100%">
<metadata>
Created by FontXChange 20110222 at Fri Aug  2 11:07:57 2013
 By Viktor Solovey
Copyright (c) 2011 by Jan Tonellato. All rights reserved.
</metadata>
<defs>
<font id="Novecentowide-DemiBold" horiz-adv-x="698" >
  <font-face 
    font-family="Novecentowide"
    font-weight="650"
    font-stretch="expanded"
    units-per-em="1000"
    panose-1="0 0 7 5 0 0 0 0 0 0"
    ascent="850"
    descent="-150"
    x-height="700"
    cap-height="700"
    bbox="-230 -279 1312 963"
    underline-thickness="125"
    underline-position="-69"
    unicode-range="U+0020-25CA"
  />
<missing-glyph horiz-adv-x="666" 
d="M83 85v530q0 39 24 62t61 23h330q37 0 61 -23t24 -62v-530q0 -40 -23.5 -62.5t-61.5 -22.5h-330q-38 0 -61.5 22.5t-23.5 62.5zM180 20h306q38 0 56 17.5t18 58.5v508q0 41 -20 58.5t-64 17.5h-286q-47 0 -65.5 -17t-18.5 -59v-508q0 -76 74 -76zM459 561l92 -93
l-125 -125l125 -126l-93 -92l-125 125l-124 -124l-93 93l124 124l-124 124l92 92l125 -123z" />
    <glyph glyph-name=".notdef" horiz-adv-x="666" 
d="M83 85v530q0 39 24 62t61 23h330q37 0 61 -23t24 -62v-530q0 -40 -23.5 -62.5t-61.5 -22.5h-330q-38 0 -61.5 22.5t-23.5 62.5zM180 20h306q38 0 56 17.5t18 58.5v508q0 41 -20 58.5t-64 17.5h-286q-47 0 -65.5 -17t-18.5 -59v-508q0 -76 74 -76zM459 561l92 -93
l-125 -125l125 -126l-93 -92l-125 125l-124 -124l-93 93l124 124l-124 124l92 92l125 -123z" />
    <glyph glyph-name=".null" horiz-adv-x="0" 
 />
    <glyph glyph-name="nonmarkingreturn" horiz-adv-x="333" 
 />
    <glyph glyph-name="space" unicode=" " horiz-adv-x="250" 
 />
    <glyph glyph-name="exclam" unicode="!" horiz-adv-x="305" 
d="M83 219v481h139v-481h-139zM83 0v157h139v-157h-139z" />
    <glyph glyph-name="quotedbl" unicode="&#x22;" horiz-adv-x="547" 
d="M83 483v217h131v-217h-131zM333 483v217h131v-217h-131z" />
    <glyph glyph-name="numbersign" unicode="#" horiz-adv-x="908" 
d="M815 431h-107l-81 -163h107l-63 -120h-103l-73 -148h-145l76 148h-160l-73 -148h-144l76 148h-97l63 120h95l83 163h-97l64 121h95l76 148h133l-73 -148h165l76 148h133l-73 -148h110zM487 268l83 163h-163l-81 -163h161z" />
    <glyph glyph-name="dollar" unicode="$" horiz-adv-x="608" 
d="M571 524l-134 -37q-12 50 -51 78t-88 28q-47 0 -76 -20.5t-29 -52.5q0 -9 2.5 -17t9 -15.5t12 -13t17.5 -12t19.5 -10.5t24 -10t25.5 -9l28.5 -9.5l28.5 -9.5q45 -16 78.5 -31.5t68.5 -41t53.5 -61t18.5 -80.5q0 -79 -54 -135t-145 -73v-82h-139v83q-81 16 -136.5 69
t-79.5 134l134 36q12 -51 54 -86.5t104 -35.5q54 0 84 23.5t30 60.5q0 17 -8.5 31.5t-19 24t-33 20t-38 16t-47.5 15.5t-48 16q-40 14 -66 26.5t-57.5 35.5t-47.5 56.5t-16 76.5q0 69 53 124t138 72v82h139v-85q71 -18 122 -66.5t69 -114.5z" />
    <glyph glyph-name="percent" unicode="%" horiz-adv-x="884" 
d="M190 304q-79 0 -129 57t-50 144t50 145t129 58t128.5 -57.5t49.5 -145.5q0 -87 -49.5 -144t-128.5 -57zM149 0l494 700h91l-493 -700h-92zM190 397q38 0 61.5 31.5t23.5 76.5q0 46 -23.5 77.5t-61.5 31.5t-61.5 -31.5t-23.5 -77.5q0 -45 23.5 -76.5t61.5 -31.5zM695 -8
q-79 0 -129 57.5t-50 144.5t50 144.5t129 57.5t128.5 -57.5t49.5 -144.5t-49.5 -144.5t-128.5 -57.5zM695 86q38 0 61.5 31t23.5 77t-23.5 77.5t-61.5 31.5t-61.5 -31.5t-23.5 -77.5t23.5 -77t61.5 -31z" />
    <glyph glyph-name="ampersand" unicode="&#x26;" horiz-adv-x="709" 
d="M703 414v-109h-125v-67q0 -112 -68 -182t-208 -70q-119 0 -191.5 60t-72.5 158q0 61 41 105t100 52v1q-48 6 -89 45.5t-41 103.5q0 86 64.5 144.5t180.5 58.5q98 0 165 -52.5t88 -145.5l-117 -33q-18 58 -48.5 85.5t-84.5 27.5t-78.5 -28.5t-24.5 -61.5q0 -40 30 -66
t87 -26h392zM446 245v60h-144q-61 0 -94.5 -26t-33.5 -72q0 -44 36 -72.5t92 -28.5q74 0 109 33.5t35 105.5z" />
    <glyph glyph-name="quotesingle" unicode="'" horiz-adv-x="297" 
d="M83 483v217h131v-217h-131z" />
    <glyph glyph-name="parenleft" unicode="(" horiz-adv-x="383" 
d="M324 831l36 -132q-98 -31 -140.5 -117.5t-42.5 -237.5t43 -237.5t140 -117.5l-36 -131q-286 95 -286 486q0 392 286 487z" />
    <glyph glyph-name="parenright" unicode=")" horiz-adv-x="383" 
d="M59 831l-36 -132q98 -31 140.5 -117.5t42.5 -237.5t-43 -237.5t-140 -117.5l36 -131q286 95 286 486q0 392 -286 487z" />
    <glyph glyph-name="asterisk" unicode="*" horiz-adv-x="513" 
d="M403 624l27 -84l-105 -30l67 -89l-72 -53l-64 93l-62 -93l-73 53l67 89l-105 30l27 84l102 -34v110h87v-110z" />
    <glyph glyph-name="plus" unicode="+" 
d="M578 412v-114h-167v-173h-122v173h-168v114h167v171h122v-171h168z" />
    <glyph glyph-name="comma" unicode="," horiz-adv-x="258" 
d="M113 -11l13 4l-13 2q-20 2 -36.5 19t-16.5 44q0 28 20.5 48t49.5 20t48.5 -21.5t19.5 -56.5q0 -45 -29 -94t-73 -86h-52q25 17 47 56t22 65z" />
    <glyph glyph-name="hyphen" unicode="-" horiz-adv-x="622" 
d="M83 412h456v-114h-456v114z" />
    <glyph glyph-name="period" unicode="." horiz-adv-x="258" 
d="M129 -12q-29 0 -49 20t-20 49q0 28 20 48t49 20q28 0 48.5 -20t20.5 -48q0 -29 -20 -49t-49 -20z" />
    <glyph glyph-name="slash" unicode="/" horiz-adv-x="503" 
d="M6 0l358 700h133l-346 -700h-145z" />
    <glyph glyph-name="zero" unicode="0" horiz-adv-x="717" 
d="M358 714q146 0 233.5 -104.5t87.5 -259.5t-87.5 -259.5t-233.5 -104.5t-233 104.5t-87 259.5t87 259.5t233 104.5zM358 577q-87 0 -131 -63.5t-44 -163.5t44 -163.5t131 -63.5q86 0 131.5 63.5t45.5 163.5t-45.5 163.5t-131.5 63.5z" />
    <glyph glyph-name="one" unicode="1" horiz-adv-x="450" 
d="M270 700h97v-700h-139v383q0 21 1 50t1 46l1 17h-1l-8 -10q-9 -9 -23 -24.5t-25 -26.5l-50 -50l-86 83z" />
    <glyph glyph-name="two" unicode="2" horiz-adv-x="599" 
d="M178 488l-128 34q26 88 94.5 140t166.5 52q110 0 179.5 -64t69.5 -161q0 -61 -30 -113t-56 -74.5t-85 -64.5q-6 -5 -9 -7q-28 -21 -64.5 -47t-57.5 -41l-20 -15l1 -1h4q4 0 11 0.5t17 1t24 1t29.5 1t35 0.5h39.5h161v-130h-505v114q100 86 298 258q66 56 66 117
q0 43 -31 72.5t-81 29.5q-51 0 -83 -30t-46 -73z" />
    <glyph glyph-name="three" unicode="3" horiz-adv-x="608" 
d="M175 487l-125 34q23 89 92 141t169 52q117 0 182.5 -57.5t65.5 -143.5q0 -65 -45 -106.5t-95 -43.5v-1q61 -1 106 -43t45 -113q0 -97 -72.5 -158.5t-185.5 -61.5q-100 0 -177.5 55.5t-96.5 140.5l126 35q12 -48 49.5 -77t92.5 -29q53 0 86.5 28.5t33.5 73.5
q0 43 -33.5 67.5t-90.5 24.5h-60v110h60q55 0 84 23.5t29 65.5q0 37 -29.5 62t-82.5 25q-95 0 -128 -104z" />
    <glyph glyph-name="four" unicode="4" horiz-adv-x="648" 
d="M609 264v-121h-82v-143h-131v143h-358v103l376 454h113v-436h82zM291 264h105v85v32t0.5 32.5t1 30t0.5 26.5t0.5 21t0.5 14v5h-1l-10 -14q-11 -14 -29 -37.5t-31 -39.5l-86 -101q-14 -17 -25.5 -30.5t-16.5 -18.5l-4 -5v-1q1 0 16 0.5t37 0.5h42z" />
    <glyph glyph-name="five" unicode="5" horiz-adv-x="609" 
d="M209 428l1 -1q33 31 103 31q110 0 183.5 -65t73.5 -166q0 -103 -73.5 -172t-183.5 -69q-102 0 -173 52.5t-90 129.5l127 34q12 -41 44.5 -68.5t86.5 -27.5q52 0 86.5 35t34.5 88t-35 87.5t-86 34.5q-87 0 -113 -62l-120 33l62 378h390v-130h-288l-8 -43
q-6 -31 -11.5 -55.5t-8 -33.5t-2.5 -10z" />
    <glyph glyph-name="six" unicode="6" horiz-adv-x="601" 
d="M453 700l-199 -263l1 -1q32 32 84 32q108 0 173.5 -70.5t65.5 -173.5q0 -105 -77 -171.5t-194 -66.5q-115 0 -192 67.5t-77 178.5q0 72 28 132.5t88 140.5l148 195h151zM312 108q59 0 96 35t37 89q1 54 -36 88t-97 34t-96.5 -34t-36.5 -88q0 -55 37 -89.5t96 -34.5z" />
    <glyph glyph-name="seven" unicode="7" horiz-adv-x="569" 
d="M31 700h524v-81l-347 -619h-149l240 423q18 32 41 69t36 58l14 21l-1 1h-7q-6 0 -17 -0.5t-23.5 -1t-26 -0.5h-24.5h-260v130z" />
    <glyph glyph-name="eight" unicode="8" horiz-adv-x="607" 
d="M421 373v-1q59 -12 103.5 -59t44.5 -116q0 -91 -74.5 -151t-190.5 -61q-116 1 -191 61t-75 151q0 69 45 116.5t103 58.5v1q-36 6 -76 49t-40 105q0 80 66 133.5t168 53.5q101 0 167.5 -54t66.5 -133q0 -62 -40.5 -105t-76.5 -49zM188 520q0 -39 32.5 -63.5t83.5 -24.5
t83 25t32 63q0 41 -32.5 67t-82.5 26q-51 0 -83.5 -26t-32.5 -67zM171 201q0 -48 37 -77t96 -29q60 0 96.5 29.5t36.5 76.5t-37 75.5t-96 28.5q-60 0 -96.5 -29t-36.5 -75z" />
    <glyph glyph-name="nine" unicode="9" horiz-adv-x="604" 
d="M121 0l228 262l-1 1q-27 -31 -82 -31q-116 0 -179.5 69t-63.5 173q0 108 77 174t195 66q116 0 193.5 -66.5t77.5 -179.5q0 -134 -124 -278l-162 -190h-159zM292 591q-59 0 -96.5 -33.5t-37.5 -90.5t38 -89.5t96 -32.5q59 0 96.5 34t37.5 88q0 58 -38 91t-96 33z" />
    <glyph glyph-name="colon" unicode=":" horiz-adv-x="258" 
d="M129 285q-29 0 -49 20t-20 49q0 28 20 48t49 20q28 0 48.5 -20t20.5 -48q0 -29 -20 -49t-49 -20zM129 -12q-29 0 -49 20t-20 49q0 28 20 48t49 20q28 0 48.5 -20t20.5 -48q0 -29 -20 -49t-49 -20z" />
    <glyph glyph-name="semicolon" unicode=";" horiz-adv-x="275" 
d="M145 285q-29 0 -49 20t-20 49q0 28 20 48t49 20q28 0 48.5 -20t20.5 -48q0 -29 -20 -49t-49 -20zM129 -12l13 4l-13 2q-20 2 -36.5 19t-16.5 44q0 28 20.5 48t49.5 20t48.5 -21.5t19.5 -56.5q0 -45 -29 -94t-73 -86h-52q25 17 47 56t22 65z" />
    <glyph glyph-name="less" unicode="&#x3c;" 
d="M572 122l-283 245l283 244h-162l-295 -244l295 -245h162z" />
    <glyph glyph-name="equal" unicode="=" 
d="M121 515h457v-114h-457v114zM121 293h457v-114h-457v114z" />
    <glyph glyph-name="greater" unicode="&#x3e;" 
d="M126 122l283 245l-283 244h162l295 -244l-295 -245h-162z" />
    <glyph glyph-name="question" unicode="?" horiz-adv-x="584" 
d="M215 219v121q113 61 150 91.5t37 70.5q0 34 -25.5 61.5t-81.5 27.5q-57 0 -89.5 -25t-50.5 -79l-117 33q22 90 92 142t170 52q117 0 182 -58t65 -145q0 -35 -12 -65t-26.5 -50t-45 -42t-50 -33.5t-58.5 -31.5v-70h-140zM215 0v157h140v-157h-140z" />
    <glyph glyph-name="at" unicode="@" horiz-adv-x="800" 
d="M476 526h90v-251q0 -69 47 -69q35 0 51 40.5t16 100.5q0 126 -79.5 208.5t-201.5 82.5q-121 0 -200 -82.5t-79 -208.5q0 -125 79 -207.5t200 -82.5q57 0 98.5 12.5t58.5 24.5t18 12l62 -31q0 -3 -8.5 -12t-28.5 -22.5t-46 -25.5t-67 -20.5t-87 -8.5q-156 0 -258.5 103
t-102.5 258q0 159 102 263t259 104t260 -104t103 -263q0 -52 -15 -97.5t-53 -78.5t-93 -33q-40 0 -71.5 24t-38.5 60l-1 1q-12 -31 -48 -55.5t-75 -24.5q-80 0 -129 54.5t-49 142.5q0 91 51 147t134 56q41 0 68 -19.5t33 -34.5h1v37zM476 335v22q1 49 -26 70.5t-63 21.5
q-38 0 -66.5 -27.5t-27.5 -78.5t28.5 -77t65.5 -26q33 0 60.5 24.5t28.5 70.5z" />
    <glyph glyph-name="A" unicode="A" horiz-adv-x="719" 
d="M563 0l-52 134h-303l-52 -134h-150l288 700h131l288 -700h-150zM256 257h207l-69 177q-6 17 -14.5 41.5t-13.5 40.5l-6 15h-1l-5 -15q-6 -16 -14.5 -40.5t-14.5 -41.5z" />
    <glyph glyph-name="B" unicode="B" horiz-adv-x="656" 
d="M83 700h290q92 0 150.5 -52t58.5 -129q0 -48 -30 -88t-67 -51v-1q52 -12 94 -61t42 -108q0 -93 -62.5 -151.5t-181.5 -58.5h-294v700zM222 421h123q42 0 69.5 23.5t27.5 57.5q0 35 -27 57.5t-70 22.5h-123v-161zM222 118h142q50 0 80.5 27t30.5 71t-32 71t-80 27h-141
v-196z" />
    <glyph glyph-name="C" unicode="C" horiz-adv-x="756" 
d="M719 529l-142 -37q-28 39 -76 62t-100 23q-98 0 -158 -63.5t-60 -163.5q0 -101 61.5 -163t156.5 -62q59 0 110.5 28.5t78.5 74.5l140 -37q-44 -94 -132 -149.5t-197 -55.5q-152 0 -257.5 103.5t-105.5 260.5t105.5 260.5t257.5 103.5q102 0 186.5 -50t131.5 -135z" />
    <glyph glyph-name="D" unicode="D" horiz-adv-x="785" 
d="M83 700h302q153 0 257.5 -99t104.5 -254q0 -154 -104 -250.5t-256 -96.5h-304v700zM222 130h165q91 0 153.5 59t62.5 158t-63.5 161t-154.5 62h-163v-440z" />
    <glyph glyph-name="E" unicode="E" horiz-adv-x="652" 
d="M222 130h362v-130h-501v700h495v-130h-356v-149h281v-122h-281v-169z" />
    <glyph glyph-name="F" unicode="F" horiz-adv-x="603" 
d="M568 570h-346v-171h271v-125h-271v-274h-139v700h485v-130z" />
    <glyph glyph-name="G" unicode="G" horiz-adv-x="793" 
d="M614 73h-1q-31 -35 -89.5 -61t-122.5 -26q-152 0 -257.5 103.5t-105.5 260.5t105.5 260.5t257.5 103.5q103 -1 186.5 -50.5t131.5 -134.5l-142 -37q-28 39 -76 62t-100 23q-98 0 -158 -63.5t-60 -163.5q0 -103 63.5 -165.5t162.5 -62.5q82 0 133.5 36t71.5 84v30h-194
v113h313v-385h-120v17.5v15v12t0.5 9.5t0.5 7v5.5v3.5v2v1z" />
    <glyph glyph-name="H" unicode="H" horiz-adv-x="747" 
d="M525 700h139v-700h-139v289h-303v-289h-139v700h139v-280h303v280z" />
    <glyph glyph-name="I" unicode="I" horiz-adv-x="305" 
d="M222 0h-139v700h139v-700z" />
    <glyph glyph-name="J" unicode="J" horiz-adv-x="671" 
d="M464 700h139v-396q0 -151 -83 -234.5t-225 -83.5q-98 0 -175.5 50t-108.5 129l137 37q20 -41 58 -63.5t89 -22.5q80 0 124.5 48.5t44.5 133.5v402z" />
    <glyph glyph-name="K" unicode="K" horiz-adv-x="718" 
d="M694 0h-165l-229 314l-78 -78v-236h-139v700h139v-138q0 -49 -0.5 -92t-0.5 -50v-15h1l10 11q11 11 36.5 37.5t53.5 54.5l192 192h171l-293 -294z" />
    <glyph glyph-name="L" unicode="L" horiz-adv-x="588" 
d="M222 130h346v-130h-485v700h139v-570z" />
    <glyph glyph-name="M" unicode="M" horiz-adv-x="848" 
d="M634 700h131v-700h-137v219q0 64 1.5 127t2.5 92v29h-1l-13 -21q-13 -22 -28.5 -49.5t-20.5 -35.5l-109 -188h-72l-109 188q-5 8 -21 35t-29 49l-13 22h-1l1 -29q1 -29 2.5 -92t1.5 -127v-219h-137v700h131l145 -240q24 -39 40 -67t20 -36l4 -8h1l4 8q4 8 20 36t40 67z
" />
    <glyph glyph-name="N" unicode="N" horiz-adv-x="776" 
d="M554 700h139v-700h-131l-199 270q-27 37 -63 87t-57 79l-21 30h-1v-31.5t0.5 -84.5t0.5 -124v-226h-139v700h131l203 -273q21 -27 55.5 -74.5t57.5 -80.5l24 -33h1v34t-0.5 85.5t-0.5 112.5v229z" />
    <glyph glyph-name="O" unicode="O" horiz-adv-x="803" 
d="M38 350q0 157 105.5 260.5t257.5 103.5q153 0 258.5 -103.5t105.5 -260.5t-105.5 -260.5t-258.5 -103.5q-152 0 -257.5 103.5t-105.5 260.5zM183 350q0 -100 61 -163.5t157 -63.5q97 0 158 63.5t61 163.5q0 101 -61 164t-158 63q-96 0 -157 -63t-61 -164z" />
    <glyph glyph-name="P" unicode="P" horiz-adv-x="633" 
d="M83 700h250q126 0 198 -62.5t72 -171.5q0 -110 -72 -172.5t-198 -62.5h-111v-231h-139v700zM222 361h108q61 0 95 28t34 77t-34.5 76.5t-94.5 27.5h-108v-209z" />
    <glyph glyph-name="Q" unicode="Q" horiz-adv-x="803" 
d="M330 -132v125q-127 24 -209.5 122t-82.5 235q0 157 105.5 260.5t257.5 103.5q153 0 258.5 -103.5t105.5 -260.5q0 -138 -83.5 -236.5t-212.5 -121.5v-124h-139zM401 123q97 0 158 63.5t61 163.5q0 101 -61 164t-158 63q-96 0 -157 -63t-61 -164q0 -100 61 -163.5
t157 -63.5z" />
    <glyph glyph-name="R" unicode="R" horiz-adv-x="666" 
d="M631 0h-156l-139 239h-8h-106v-239h-139v700h245q128 0 201.5 -63.5t73.5 -170.5q0 -147 -132 -201zM222 570v-207h124q55 0 84 30t29 73q0 44 -29.5 74t-83.5 30h-124z" />
    <glyph glyph-name="S" unicode="S" horiz-adv-x="608" 
d="M571 524l-134 -37q-12 50 -51 78t-88 28q-47 0 -76 -20.5t-29 -52.5q0 -9 2.5 -17t9 -15.5t12 -13t17.5 -12t19.5 -10.5t24 -10t25.5 -9l28.5 -9.5l28.5 -9.5q45 -16 78.5 -31.5t68.5 -41t53.5 -61t18.5 -80.5q0 -94 -74.5 -154t-193.5 -60q-108 0 -182.5 56.5
t-103.5 153.5l134 36q12 -51 54 -86.5t104 -35.5q54 0 84 23.5t30 60.5q0 17 -8.5 31.5t-19 24t-33 20t-38 16t-47.5 15.5t-48 16q-40 14 -66 26.5t-57.5 35.5t-47.5 56.5t-16 76.5q0 83 73.5 142.5t182.5 59.5q97 0 169.5 -53t95.5 -137z" />
    <glyph glyph-name="T" unicode="T" horiz-adv-x="605" 
d="M14 700h577v-130h-220v-570h-139v570h-218v130z" />
    <glyph glyph-name="U" unicode="U" horiz-adv-x="740" 
d="M532 700h140v-396q0 -152 -81 -235t-221 -83q-141 0 -221.5 83t-80.5 235v396h139v-394q0 -190 163 -190q162 0 162 190v394z" />
    <glyph glyph-name="V" unicode="V" horiz-adv-x="719" 
d="M560 700h152l-279 -700h-148l-279 700h152l161 -424q10 -29 20 -60.5t15 -45.5l5 -15h1l4 15q5 14 15 45t21 61z" />
    <glyph glyph-name="W" unicode="W" horiz-adv-x="1027" 
d="M858 700h147l-220 -700h-129l-108 338q-11 35 -19.5 66t-11.5 44l-3 14h-1l-3 -14q-3 -13 -11 -44t-19 -66l-108 -338h-130l-220 700h148l110 -378q7 -27 14 -55.5t10 -40.5l4 -13h1l3 13q4 13 12.5 40.5t18.5 55.5l106 303h129l106 -303q10 -28 18.5 -55.5t11.5 -40.5
l4 -13h1l3 13q4 12 11 40.5t15 55.5z" />
    <glyph glyph-name="X" unicode="X" horiz-adv-x="682" 
d="M342 242h-1l-10 -16q-10 -17 -23 -38t-18 -29l-112 -159h-166l245 359l-231 341h167l108 -161q4 -7 14 -24t18 -31l8 -13h1l8 13q7 14 17 31t14 24l108 161h168l-232 -341l245 -359h-166l-112 159q-5 8 -17.5 29t-22.5 38z" />
    <glyph glyph-name="Y" unicode="Y" horiz-adv-x="701" 
d="M532 700h157l-270 -379v-321h-138v321l-269 379h156l144 -201q35 -52 38 -52h1q3 0 38 52z" />
    <glyph glyph-name="Z" unicode="Z" horiz-adv-x="705" 
d="M645 700v-130l-336 -378q-13 -14 -28.5 -30.5t-23.5 -25.5l-8 -8l1 -1h3q3 0 8 0.5t11.5 0.5t15.5 0.5t19 1t21.5 0.5h23.5h293v-130h-585v130l347 383q10 11 25.5 25.5t25.5 23.5l10 9l-1 1h-7q-6 0 -16.5 -0.5t-23.5 -1t-28 -0.5h-28h-294v130h575z" />
    <glyph glyph-name="bracketleft" unicode="[" horiz-adv-x="373" 
d="M223 726v-747h134v-131h-274v1008h274v-130h-134z" />
    <glyph glyph-name="backslash" unicode="\" horiz-adv-x="503" 
d="M497 0l-358 700h-133l347 -700h144z" />
    <glyph glyph-name="bracketright" unicode="]" horiz-adv-x="376" 
d="M153 726v-747h-134v-131h274v1008h-274v-130h134z" />
    <glyph glyph-name="asciicircum" unicode="^" horiz-adv-x="634" 
d="M551 477l-61 -55l-173 177l-172 -177l-62 55l234 235z" />
    <glyph glyph-name="underscore" unicode="_" horiz-adv-x="776" 
d="M83 0h610v-110h-610v110z" />
    <glyph glyph-name="grave" unicode="`" horiz-adv-x="316" 
d="M244 731l-238 103l48 95l231 -124z" />
    <glyph glyph-name="a" unicode="a" horiz-adv-x="719" 
d="M563 0l-52 134h-303l-52 -134h-150l288 700h131l288 -700h-150zM256 257h207l-69 177q-6 17 -14.5 41.5t-13.5 40.5l-6 15h-1l-5 -15q-6 -16 -14.5 -40.5t-14.5 -41.5z" />
    <glyph glyph-name="b" unicode="b" horiz-adv-x="656" 
d="M83 700h290q92 0 150.5 -52t58.5 -129q0 -48 -30 -88t-67 -51v-1q52 -12 94 -61t42 -108q0 -93 -62.5 -151.5t-181.5 -58.5h-294v700zM222 421h123q42 0 69.5 23.5t27.5 57.5q0 35 -27 57.5t-70 22.5h-123v-161zM222 118h142q50 0 80.5 27t30.5 71t-32 71t-80 27h-141
v-196z" />
    <glyph glyph-name="c" unicode="c" horiz-adv-x="756" 
d="M719 529l-142 -37q-28 39 -76 62t-100 23q-98 0 -158 -63.5t-60 -163.5q0 -101 61.5 -163t156.5 -62q59 0 110.5 28.5t78.5 74.5l140 -37q-44 -94 -132 -149.5t-197 -55.5q-152 0 -257.5 103.5t-105.5 260.5t105.5 260.5t257.5 103.5q102 0 186.5 -50t131.5 -135z" />
    <glyph glyph-name="d" unicode="d" horiz-adv-x="785" 
d="M83 700h302q153 0 257.5 -99t104.5 -254q0 -154 -104 -250.5t-256 -96.5h-304v700zM222 130h165q91 0 153.5 59t62.5 158t-63.5 161t-154.5 62h-163v-440z" />
    <glyph glyph-name="e" unicode="e" horiz-adv-x="652" 
d="M222 130h362v-130h-501v700h495v-130h-356v-149h281v-122h-281v-169z" />
    <glyph glyph-name="f" unicode="f" horiz-adv-x="603" 
d="M568 570h-346v-171h271v-125h-271v-274h-139v700h485v-130z" />
    <glyph glyph-name="g" unicode="g" horiz-adv-x="793" 
d="M614 73h-1q-31 -35 -89.5 -61t-122.5 -26q-152 0 -257.5 103.5t-105.5 260.5t105.5 260.5t257.5 103.5q103 -1 186.5 -50.5t131.5 -134.5l-142 -37q-28 39 -76 62t-100 23q-98 0 -158 -63.5t-60 -163.5q0 -103 63.5 -165.5t162.5 -62.5q82 0 133.5 36t71.5 84v30h-194
v113h313v-385h-120v17.5v15v12t0.5 9.5t0.5 7v5.5v3.5v2v1z" />
    <glyph glyph-name="h" unicode="h" horiz-adv-x="747" 
d="M525 700h139v-700h-139v289h-303v-289h-139v700h139v-280h303v280z" />
    <glyph glyph-name="i" unicode="i" horiz-adv-x="305" 
d="M222 0h-139v700h139v-700z" />
    <glyph glyph-name="j" unicode="j" horiz-adv-x="671" 
d="M464 700h139v-396q0 -151 -83 -234.5t-225 -83.5q-98 0 -175.5 50t-108.5 129l137 37q20 -41 58 -63.5t89 -22.5q80 0 124.5 48.5t44.5 133.5v402z" />
    <glyph glyph-name="k" unicode="k" horiz-adv-x="718" 
d="M694 0h-165l-229 314l-78 -78v-236h-139v700h139v-138q0 -49 -0.5 -92t-0.5 -50v-15h1l10 11q11 11 36.5 37.5t53.5 54.5l192 192h171l-293 -294z" />
    <glyph glyph-name="l" unicode="l" horiz-adv-x="588" 
d="M222 130h346v-130h-485v700h139v-570z" />
    <glyph glyph-name="m" unicode="m" horiz-adv-x="848" 
d="M634 700h131v-700h-137v219q0 64 1.5 127t2.5 92v29h-1l-13 -21q-13 -22 -28.5 -49.5t-20.5 -35.5l-109 -188h-72l-109 188q-5 8 -21 35t-29 49l-13 22h-1l1 -29q1 -29 2.5 -92t1.5 -127v-219h-137v700h131l145 -240q24 -39 40 -67t20 -36l4 -8h1l4 8q4 8 20 36t40 67z
" />
    <glyph glyph-name="n" unicode="n" horiz-adv-x="776" 
d="M554 700h139v-700h-131l-199 270q-27 37 -63 87t-57 79l-21 30h-1v-31.5t0.5 -84.5t0.5 -124v-226h-139v700h131l203 -273q21 -27 55.5 -74.5t57.5 -80.5l24 -33h1v34t-0.5 85.5t-0.5 112.5v229z" />
    <glyph glyph-name="o" unicode="o" horiz-adv-x="803" 
d="M38 350q0 157 105.5 260.5t257.5 103.5q153 0 258.5 -103.5t105.5 -260.5t-105.5 -260.5t-258.5 -103.5q-152 0 -257.5 103.5t-105.5 260.5zM183 350q0 -100 61 -163.5t157 -63.5q97 0 158 63.5t61 163.5q0 101 -61 164t-158 63q-96 0 -157 -63t-61 -164z" />
    <glyph glyph-name="p" unicode="p" horiz-adv-x="633" 
d="M83 700h250q126 0 198 -62.5t72 -171.5q0 -110 -72 -172.5t-198 -62.5h-111v-231h-139v700zM222 361h108q61 0 95 28t34 77t-34.5 76.5t-94.5 27.5h-108v-209z" />
    <glyph glyph-name="q" unicode="q" horiz-adv-x="803" 
d="M330 -132v125q-127 24 -209.5 122t-82.5 235q0 157 105.5 260.5t257.5 103.5q153 0 258.5 -103.5t105.5 -260.5q0 -138 -83.5 -236.5t-212.5 -121.5v-124h-139zM401 123q97 0 158 63.5t61 163.5q0 101 -61 164t-158 63q-96 0 -157 -63t-61 -164q0 -100 61 -163.5
t157 -63.5z" />
    <glyph glyph-name="r" unicode="r" horiz-adv-x="666" 
d="M631 0h-156l-139 239h-8h-106v-239h-139v700h245q128 0 201.5 -63.5t73.5 -170.5q0 -147 -132 -201zM222 570v-207h124q55 0 84 30t29 73q0 44 -29.5 74t-83.5 30h-124z" />
    <glyph glyph-name="s" unicode="s" horiz-adv-x="608" 
d="M571 524l-134 -37q-12 50 -51 78t-88 28q-47 0 -76 -20.5t-29 -52.5q0 -9 2.5 -17t9 -15.5t12 -13t17.5 -12t19.5 -10.5t24 -10t25.5 -9l28.5 -9.5l28.5 -9.5q45 -16 78.5 -31.5t68.5 -41t53.5 -61t18.5 -80.5q0 -94 -74.5 -154t-193.5 -60q-108 0 -182.5 56.5
t-103.5 153.5l134 36q12 -51 54 -86.5t104 -35.5q54 0 84 23.5t30 60.5q0 17 -8.5 31.5t-19 24t-33 20t-38 16t-47.5 15.5t-48 16q-40 14 -66 26.5t-57.5 35.5t-47.5 56.5t-16 76.5q0 83 73.5 142.5t182.5 59.5q97 0 169.5 -53t95.5 -137z" />
    <glyph glyph-name="t" unicode="t" horiz-adv-x="605" 
d="M14 700h577v-130h-220v-570h-139v570h-218v130z" />
    <glyph glyph-name="u" unicode="u" horiz-adv-x="740" 
d="M532 700h140v-396q0 -152 -81 -235t-221 -83q-141 0 -221.5 83t-80.5 235v396h139v-394q0 -190 163 -190q162 0 162 190v394z" />
    <glyph glyph-name="v" unicode="v" horiz-adv-x="719" 
d="M560 700h152l-279 -700h-148l-279 700h152l161 -424q10 -29 20 -60.5t15 -45.5l5 -15h1l4 15q5 14 15 45t21 61z" />
    <glyph glyph-name="w" unicode="w" horiz-adv-x="1027" 
d="M858 700h147l-220 -700h-129l-108 338q-11 35 -19.5 66t-11.5 44l-3 14h-1l-3 -14q-3 -13 -11 -44t-19 -66l-108 -338h-130l-220 700h148l110 -378q7 -27 14 -55.5t10 -40.5l4 -13h1l3 13q4 13 12.5 40.5t18.5 55.5l106 303h129l106 -303q10 -28 18.5 -55.5t11.5 -40.5
l4 -13h1l3 13q4 12 11 40.5t15 55.5z" />
    <glyph glyph-name="x" unicode="x" horiz-adv-x="682" 
d="M342 242h-1l-10 -16q-10 -17 -23 -38t-18 -29l-112 -159h-166l245 359l-231 341h167l108 -161q4 -7 14 -24t18 -31l8 -13h1l8 13q7 14 17 31t14 24l108 161h168l-232 -341l245 -359h-166l-112 159q-5 8 -17.5 29t-22.5 38z" />
    <glyph glyph-name="y" unicode="y" horiz-adv-x="701" 
d="M532 700h157l-270 -379v-321h-138v321l-269 379h156l144 -201q35 -52 38 -52h1q3 0 38 52z" />
    <glyph glyph-name="z" unicode="z" horiz-adv-x="705" 
d="M645 700v-130l-336 -378q-13 -14 -28.5 -30.5t-23.5 -25.5l-8 -8l1 -1h3q3 0 8 0.5t11.5 0.5t15.5 0.5t19 1t21.5 0.5h23.5h293v-130h-585v130l347 383q10 11 25.5 25.5t25.5 23.5l10 9l-1 1h-7q-6 0 -16.5 -0.5t-23.5 -1t-28 -0.5h-28h-294v130h575z" />
    <glyph glyph-name="braceleft" unicode="{" horiz-adv-x="433" 
d="M287 591v-79q0 -38 -5 -68t-12 -46.5t-15.5 -27.5t-13.5 -14.5t-8 -3.5q3 0 8 -4t13.5 -15t15.5 -27.5t12 -46.5t5 -68v-78q0 -90 36.5 -121t97.5 -31v-130q-132 0 -202.5 69.5t-70.5 191.5v106q0 38 -6.5 67.5t-16.5 45t-19.5 25.5t-15.5 13l-7 3q3 1 7 3t15.5 12.5
t20 25.5t15.5 45t7 68v106q0 122 70.5 191.5t202.5 69.5v-130q-61 0 -97.5 -31t-36.5 -121z" />
    <glyph glyph-name="bar" unicode="|" horiz-adv-x="277" 
d="M194 -74h-111v849h111v-849z" />
    <glyph glyph-name="braceright" unicode="}" horiz-adv-x="433" 
d="M146 591v-79q0 -38 5 -68t12 -46.5t15.5 -27.5t13.5 -14.5t8 -3.5q-3 0 -8 -4t-13.5 -15t-15.5 -27.5t-12 -46.5t-5 -68v-78q0 -90 -36.5 -121t-97.5 -31v-130q132 0 202.5 69.5t70.5 191.5v106q0 38 6.5 67.5t16.5 45t19.5 25.5t16.5 13l6 3q-3 1 -7 3t-15.5 12.5
t-20 25.5t-15.5 45t-7 68v106q0 122 -70.5 191.5t-202.5 69.5v-130q61 0 97.5 -31t36.5 -121z" />
    <glyph glyph-name="asciitilde" unicode="~" 
d="M514 426l116 -31q-9 -67 -57 -100.5t-106 -33.5q-50 0 -116.5 33t-89.5 33q-36 0 -51.5 -18t-16.5 -43l-115 30q10 67 58 100.5t106 33.5q49 0 116 -33t89 -33q35 0 51 18.5t16 43.5z" />
    <glyph glyph-name="Euro" unicode="&#x20ac;" horiz-adv-x="802" 
d="M637 227l139 -35q-43 -94 -131 -149t-197 -55q-122 0 -217 69.5t-129 183.5h-64v92h49v17v17h-48v91h63q34 114 128.5 184t217.5 70q102 0 186 -49.5t130 -134.5l-141 -35q-28 39 -74 61.5t-100 22.5q-65 0 -118.5 -32t-81.5 -87h210v-91h-235q-1 -6 -1 -17t1 -17h235
v-92h-209q29 -54 82 -85t117 -31q60 0 110.5 27.5t77.5 74.5z" />
    <glyph glyph-name="quotesinglbase" unicode="&#x201a;" horiz-adv-x="321" 
d="M153 -11l13 4l-13 2q-21 3 -37.5 19.5t-16.5 43.5q0 28 20.5 48t49.5 20t49 -21.5t20 -56.5q0 -45 -29.5 -94.5t-72.5 -85.5h-53q25 18 47.5 56.5t22.5 64.5z" />
    <glyph glyph-name="quotedblbase" unicode="&#x201e;" horiz-adv-x="531" 
d="M153 -11l13 4l-13 2q-21 3 -37.5 19.5t-16.5 43.5q0 28 20.5 48t49.5 20t49 -21.5t20 -56.5q0 -45 -29 -94t-73 -86h-53q25 18 47.5 56.5t22.5 64.5zM363 -11l13 4l-13 2q-21 3 -37.5 19.5t-16.5 43.5q0 28 20.5 48t49.5 20t49 -21.5t20 -56.5q0 -45 -29 -94t-73 -86h-53
q25 18 47.5 56.5t22.5 64.5z" />
    <glyph glyph-name="ellipsis" unicode="&#x2026;" horiz-adv-x="764" 
d="M117 -13q-24 0 -40.5 16.5t-16.5 40.5q0 23 17 39.5t40 16.5t40 -16.5t17 -39.5q0 -24 -17 -40.5t-40 -16.5zM377 -13q-24 0 -40.5 16.5t-16.5 40.5q0 23 17 39.5t40 16.5t40 -16.5t17 -39.5q0 -24 -17 -40.5t-40 -16.5zM647 -13q-24 0 -40.5 16.5t-16.5 40.5
q0 23 17 39.5t40 16.5t40 -16.5t17 -39.5q0 -24 -17 -40.5t-40 -16.5z" />
    <glyph glyph-name="dagger" unicode="&#x2020;" horiz-adv-x="517" 
d="M503 532v-118h-184v-110q0 -73 -4 -148.5t-7.5 -115.5t-4.5 -40h-90q-1 0 -5 40t-8 115.5t-4 148.5v110h-182v118h182v168h123v-168h184z" />
    <glyph glyph-name="daggerdbl" unicode="&#x2021;" horiz-adv-x="517" 
d="M319 414v-110v-4h184v-118h-187q-2 -48 -5 -92.5t-5 -67t-3 -22.5h-90q-1 0 -3.5 22.5t-5.5 67.5t-5 92h-185v118h182v4v110h-182v118h182v168h123v-168h184v-118h-184z" />
    <glyph glyph-name="circumflex" unicode="&#x2c6;" horiz-adv-x="378" 
d="M-11 800l187 159l186 -159l-67 -69l-119 99l-119 -99z" />
    <glyph glyph-name="perthousand" unicode="&#x2030;" horiz-adv-x="1350" 
d="M217 304q-79 0 -129 57t-50 144t50 145t129 58t128.5 -57.5t49.5 -145.5q0 -87 -49.5 -144t-128.5 -57zM176 0l494 700h91l-493 -700h-92zM217 397q38 0 61.5 31.5t23.5 76.5q0 46 -23.5 77.5t-61.5 31.5t-61.5 -31.5t-23.5 -77.5q0 -45 23.5 -76.5t61.5 -31.5zM722 -8
q-79 0 -129 57.5t-50 144.5t50 144.5t129 57.5t128.5 -57.5t49.5 -144.5t-49.5 -144.5t-128.5 -57.5zM1134 -8q-79 0 -129 57.5t-50 144.5t50 144.5t129 57.5t128.5 -57.5t49.5 -144.5t-49.5 -144.5t-128.5 -57.5zM722 86q38 0 61.5 31t23.5 77t-23.5 77.5t-61.5 31.5
t-61.5 -31.5t-23.5 -77.5t23.5 -77t61.5 -31zM1134 86q38 0 61.5 31t23.5 77t-23.5 77.5t-61.5 31.5t-61.5 -31.5t-23.5 -77.5t23.5 -77t61.5 -31z" />
    <glyph glyph-name="Scaron" unicode="&#x160;" horiz-adv-x="608" 
d="M128 883l187 -159l186 159l-67 69l-119 -99l-119 99zM571 524l-134 -37q-12 50 -51 78t-88 28q-47 0 -76 -20.5t-29 -52.5q0 -9 2.5 -17t9 -15.5t12 -13t17.5 -12t19.5 -10.5t24 -10t25.5 -9l28.5 -9.5l28.5 -9.5q45 -16 78.5 -31.5t68.5 -41t53.5 -61t18.5 -80.5
q0 -94 -74.5 -154t-193.5 -60q-108 0 -182.5 56.5t-103.5 153.5l134 36q12 -51 54 -86.5t104 -35.5q54 0 84 23.5t30 60.5q0 17 -8.5 31.5t-19 24t-33 20t-38 16t-47.5 15.5t-48 16q-40 14 -66 26.5t-57.5 35.5t-47.5 56.5t-16 76.5q0 83 73.5 142.5t182.5 59.5
q97 0 169.5 -53t95.5 -137z" />
    <glyph glyph-name="guilsinglleft" unicode="&#x2039;" horiz-adv-x="478" 
d="M319 586l-236 -234l235 -235l77 77l-164 158l163 158z" />
    <glyph glyph-name="OE" unicode="&#x152;" horiz-adv-x="1045" 
d="M616 130h361v-130h-497q-28 -4 -89 -4q-150 0 -251.5 100t-101.5 254t101.5 254t251.5 100q59 0 89 -4h491v-130h-355v-149h281v-122h-281v-169zM480 149v402q-35 16 -89 16q-94 0 -151 -59t-57 -158q0 -98 57 -157.5t151 -59.5q54 0 89 16z" />
    <glyph glyph-name="Zcaron" unicode="&#x17d;" horiz-adv-x="705" 
d="M173 883l187 -159l186 159l-67 69l-119 -99l-119 99zM645 700v-130l-336 -378q-13 -14 -28.5 -30.5t-23.5 -25.5l-8 -8l1 -1h3q3 0 8 0.5t11.5 0.5t15.5 0.5t19 1t21.5 0.5h23.5h293v-130h-585v130l347 383q10 11 25.5 25.5t25.5 23.5l10 9l-1 1h-7q-6 0 -16.5 -0.5
t-23.5 -1t-28 -0.5h-28h-294v130h575z" />
    <glyph glyph-name="quoteleft" unicode="&#x2018;" horiz-adv-x="321" 
d="M168 591l-13 -4l13 -1q21 -3 37.5 -19.5t16.5 -43.5q0 -29 -20.5 -49t-49.5 -20t-49 22t-20 57q0 45 29.5 94.5t72.5 84.5h53q-25 -17 -47.5 -56t-22.5 -65z" />
    <glyph glyph-name="quoteright" unicode="&#x2019;" horiz-adv-x="321" 
d="M153 575l13 4l-13 2q-21 3 -37.5 19.5t-16.5 43.5q0 28 20.5 48t49.5 20t49 -21.5t20 -56.5q0 -45 -29.5 -94.5t-72.5 -85.5h-53q25 18 47.5 56.5t22.5 64.5z" />
    <glyph glyph-name="quotedblleft" unicode="&#x201c;" horiz-adv-x="535" 
d="M168 591l-13 -4l13 -1q21 -3 37.5 -19.5t16.5 -43.5q0 -29 -20.5 -49t-49.5 -20t-49 22t-20 57q0 45 29.5 94.5t72.5 84.5h53q-25 -17 -47.5 -56t-22.5 -65zM383 591l-14 -4l14 -1q20 -3 36.5 -20t16.5 -43q0 -29 -20.5 -49t-49.5 -20t-48.5 22t-19.5 57q0 45 29.5 94.5
t72.5 84.5h52q-25 -17 -47 -56t-22 -65z" />
    <glyph glyph-name="quotedblright" unicode="&#x201d;" horiz-adv-x="535" 
d="M153 575l13 4l-13 2q-21 3 -37.5 19.5t-16.5 43.5q0 28 20.5 48t49.5 20t49 -21.5t20 -56.5q0 -45 -29.5 -94.5t-72.5 -85.5h-53q25 18 47.5 56.5t22.5 64.5zM367 575l13 4l-13 2q-21 2 -37 19t-16 44q0 28 20.5 48t49.5 20q28 0 48 -22t20 -56q0 -45 -29.5 -94.5
t-72.5 -85.5h-52q25 18 47 56.5t22 64.5z" />
    <glyph glyph-name="bullet" unicode="&#x2022;" horiz-adv-x="401" 
d="M201 237q-49 0 -83.5 34.5t-34.5 83.5q0 48 34.5 82.5t83.5 34.5q48 0 82 -34.5t34 -82.5q0 -49 -34 -83.5t-82 -34.5z" />
    <glyph glyph-name="endash" unicode="&#x2013;" horiz-adv-x="591" 
d="M83 420h425v-131h-425v131z" />
    <glyph glyph-name="emdash" unicode="&#x2014;" horiz-adv-x="1031" 
d="M83 420h865v-131h-865v131z" />
    <glyph glyph-name="tilde" unicode="&#x2dc;" horiz-adv-x="483" 
d="M342 884h109q0 -60 -40 -99t-102 -39q-37 0 -83 30t-66 30t-33 -12.5t-13 -31.5h-108q0 60 40 99.5t102 39.5q40 0 85 -30.5t64 -30.5t32 12.5t13 31.5z" />
    <glyph glyph-name="trademark" unicode="&#x2122;" horiz-adv-x="787" 
d="M14 618v82h298v-82h-107v-243h-84v243h-107zM634 700h78v-325h-82v106q0 22 1.5 44.5t2.5 32.5v11h-1q-2 0 -38 -57l-39 -61h-37l-38 61q-37 57 -38 57h-1v-11q1 -10 2 -32.5t1 -44.5v-106h-82v325h79l63 -99q10 -15 18 -30.5t11 -22.5l3 -8h1l4 8q3 7 11 22.5t18 30.5z
" />
    <glyph glyph-name="scaron" unicode="&#x161;" horiz-adv-x="608" 
d="M136 883l187 -159l186 159l-67 69l-119 -99l-119 99zM571 524l-134 -37q-12 50 -51 78t-88 28q-47 0 -76 -20.5t-29 -52.5q0 -9 2.5 -17t9 -15.5t12 -13t17.5 -12t19.5 -10.5t24 -10t25.5 -9l28.5 -9.5l28.5 -9.5q45 -16 78.5 -31.5t68.5 -41t53.5 -61t18.5 -80.5
q0 -94 -74.5 -154t-193.5 -60q-108 0 -182.5 56.5t-103.5 153.5l134 36q12 -51 54 -86.5t104 -35.5q54 0 84 23.5t30 60.5q0 17 -8.5 31.5t-19 24t-33 20t-38 16t-47.5 15.5t-48 16q-40 14 -66 26.5t-57.5 35.5t-47.5 56.5t-16 76.5q0 83 73.5 142.5t182.5 59.5
q97 0 169.5 -53t95.5 -137z" />
    <glyph glyph-name="guilsinglright" unicode="&#x203a;" horiz-adv-x="478" 
d="M159 586l236 -234l-235 -235l-77 77l165 158l-164 158z" />
    <glyph glyph-name="oe" unicode="&#x153;" horiz-adv-x="1045" 
d="M616 130h361v-130h-497q-28 -4 -89 -4q-150 0 -251.5 100t-101.5 254t101.5 254t251.5 100q59 0 89 -4h491v-130h-355v-149h281v-122h-281v-169zM480 149v402q-35 16 -89 16q-94 0 -151 -59t-57 -158q0 -98 57 -157.5t151 -59.5q54 0 89 16z" />
    <glyph glyph-name="zcaron" unicode="&#x17e;" horiz-adv-x="705" 
d="M173 883l187 -159l186 159l-67 69l-119 -99l-119 99zM645 700v-130l-336 -378q-13 -14 -28.5 -30.5t-23.5 -25.5l-8 -8l1 -1h3q3 0 8 0.5t11.5 0.5t15.5 0.5t19 1t21.5 0.5h23.5h293v-130h-585v130l347 383q10 11 25.5 25.5t25.5 23.5l10 9l-1 1h-7q-6 0 -16.5 -0.5
t-23.5 -1t-28 -0.5h-28h-294v130h575z" />
    <glyph glyph-name="Ydieresis" unicode="&#x178;" horiz-adv-x="701" 
d="M218 767q-29 0 -48 18.5t-19 46.5q0 27 19.5 46t47.5 19q27 0 46 -19t19 -46q0 -28 -19 -46.5t-46 -18.5zM476 767q-28 0 -47 18.5t-19 46.5q0 27 19 46t47 19q27 0 46 -19t19 -46q0 -28 -19 -46.5t-46 -18.5zM532 700h157l-270 -379v-321h-138v321l-269 379h156
l144 -201q35 -52 38 -52h1q3 0 38 52z" />
    <glyph glyph-name="exclamdown" unicode="&#xa1;" horiz-adv-x="305" 
d="M83 700h139v-157h-139v157zM83 481h139v-481h-139v481z" />
    <glyph glyph-name="cent" unicode="&#xa2;" horiz-adv-x="577" 
d="M430 276l121 -34q-24 -61 -75.5 -102.5t-117.5 -55.5v-98h-112v99q-90 20 -149 92t-59 170q0 97 59 169t149 92v106h112v-105q61 -13 110.5 -51t75.5 -93l-122 -32q-41 61 -118 61q-63 0 -100.5 -39.5t-37.5 -107.5t37.5 -108t100.5 -40q88 0 126 77z" />
    <glyph glyph-name="sterling" unicode="&#xa3;" horiz-adv-x="652" 
d="M420 130h192v-130h-529v130q46 9 60 38.5t8 90.5l-3 29h-63v110h53l-8 90q-9 91 59.5 157.5t164.5 68.5q49 1 97.5 -15.5t95.5 -62.5t64 -116l-118 -33q-34 109 -131 104q-46 -2 -72 -35.5t-21 -80.5l7 -77h204v-110h-193l2 -25q10 -102 -39 -136l1 -1h5q4 0 12 0.5
t19.5 1t26 1t31 1t36 0.5h39.5z" />
    <glyph glyph-name="currency" unicode="&#xa4;" horiz-adv-x="665" 
d="M485 560l70 69l68 -69l-69 -69q48 -69 48 -152q0 -84 -48 -153l68 -69l-69 -69l-69 69q-70 -49 -153 -49t-151 49l-69 -69l-68 69l67 68q-48 70 -48 154t48 153l-69 68l69 69l69 -69q68 49 152 49t154 -49zM332 488q-61 0 -103 -42t-42 -105q0 -64 42 -105.5t103 -41.5
q62 0 104 41.5t42 105.5q0 63 -42.5 105t-103.5 42z" />
    <glyph glyph-name="yen" unicode="&#xa5;" horiz-adv-x="700" 
d="M689 700l-173 -243h104v-91h-169l-23 -33h192v-92h-201v-241h-138v241h-198v92h189l-23 33h-166v91h101l-172 243h156l144 -201q35 -52 38 -52h1q3 0 38 52l143 201h157z" />
    <glyph glyph-name="brokenbar" unicode="&#xa6;" horiz-adv-x="277" 
d="M83 775h111v-280h-111v280zM83 216h111v-290h-111v290z" />
    <glyph glyph-name="section" unicode="&#xa7;" horiz-adv-x="531" 
d="M490 586l-113 -30q-9 35 -41.5 53.5t-74.5 18.5q-39 0 -63 -14t-24 -35q0 -13 6.5 -22.5t22.5 -16.5t29 -11t40 -11t41 -11q38 -11 66 -22t57.5 -28.5t45 -42.5t15.5 -56q0 -74 -88 -101q92 -44 92 -118q0 -68 -63.5 -111t-167.5 -43q-93 0 -156.5 39.5t-88.5 107.5
l113 30q12 -37 47.5 -62t88.5 -25q47 0 73.5 16.5t26.5 42.5q0 11 -4.5 19.5t-14 16t-19.5 12.5t-27.5 11t-30.5 9.5t-35 9.5t-36 10q-35 10 -57 19t-50 25t-42 40t-14 55q0 70 87 105q-79 38 -79 108q0 58 61.5 99.5t154.5 41.5q80 0 140.5 -36t81.5 -93zM161 367
q0 -13 7 -23t25 -17.5t31 -12t43 -11.5t44 -11q68 12 68 60q0 8 -2 15t-7.5 13t-10 10.5t-14.5 9t-16.5 7t-20 6.5t-21 5.5t-23 5.5t-23.5 6q-33 -4 -56.5 -20.5t-23.5 -42.5z" />
    <glyph glyph-name="dieresis" unicode="&#xa8;" horiz-adv-x="429" 
d="M72 767q-28 0 -47 18.5t-19 46.5q0 27 19 46t47 19q27 0 46 -19t19 -46q0 -28 -19 -46.5t-46 -18.5zM330 767q-28 0 -47 18.5t-19 46.5q0 27 19 46t47 19t47 -19t19 -46q0 -28 -19 -46.5t-47 -18.5z" />
    <glyph glyph-name="copyright" unicode="&#xa9;" horiz-adv-x="803" 
d="M401 714q153 0 258.5 -103.5t105.5 -260.5t-105.5 -260.5t-258.5 -103.5q-152 0 -257.5 103.5t-105.5 260.5t105.5 260.5t257.5 103.5zM401 618q-113 0 -186.5 -75t-73.5 -193q0 -117 73.5 -191.5t186.5 -74.5t186.5 74.5t73.5 191.5q0 118 -73.5 193t-186.5 75zM482 306
l80 -22q-18 -47 -62 -76.5t-97 -29.5q-71 0 -121 49.5t-50 122.5t50 122.5t121 49.5q50 0 92.5 -26.5t62.5 -69.5l-80 -21q-25 38 -75 38q-40 0 -64 -25t-24 -68q0 -42 24 -67t64 -25q57 0 79 48z" />
    <glyph glyph-name="ordfeminine" unicode="&#xaa;" horiz-adv-x="363" 
d="M126 436l-20 -61h-85l121 333h78l122 -333h-87l-19 61h-110zM182 628h-1l-3 -11q-2 -11 -6.5 -32.5t-10.5 -40.5l-14 -44h68l-14 44q-6 19 -10.5 40.5t-6.5 32.5zM20 312h323v-85h-323v85z" />
    <glyph glyph-name="guillemotleft" unicode="&#xab;" horiz-adv-x="779" 
d="M319 586l-236 -234l235 -235l77 77l-165 158l164 158zM620 586l-236 -234l235 -235l77 77l-165 158l164 158z" />
    <glyph glyph-name="softhyphen" unicode="&#xad;" horiz-adv-x="622" 
d="M83 412h456v-114h-456v114z" />
    <glyph glyph-name="registered" unicode="&#xae;" horiz-adv-x="803" 
d="M401 714q153 0 258.5 -103.5t105.5 -260.5t-105.5 -260.5t-258.5 -103.5q-152 0 -257.5 103.5t-105.5 260.5t105.5 260.5t257.5 103.5zM401 84q113 0 186.5 74.5t73.5 191.5q0 118 -73.5 193t-186.5 75t-186.5 -75t-73.5 -193q0 -117 73.5 -191.5t186.5 -74.5zM283 521
h120q62 0 97.5 -30.5t35.5 -81.5q0 -70 -62 -96l80 -132h-83l-67 119h-1h-43v-119h-77v340zM360 450v-87h52q23 0 35.5 12t12.5 32q0 19 -12.5 31t-35.5 12h-52z" />
    <glyph glyph-name="macron" unicode="&#xaf;" horiz-adv-x="344" 
d="M-10 782h339v-108h-339v108z" />
    <glyph glyph-name="degree" unicode="&#xb0;" horiz-adv-x="322" 
d="M162 574q-56 0 -97 40.5t-41 95.5q0 56 41 96.5t97 40.5t96 -40.5t40 -96.5t-40 -96t-96 -40zM162 657q23 0 39.5 16t16.5 38q0 24 -16.5 40t-39.5 16t-39 -16t-16 -40q0 -22 16.5 -38t38.5 -16z" />
    <glyph glyph-name="plusminus" unicode="&#xb1;" 
d="M410 412h168v-114h-167v-117h-122v117h-168v114h167v171h122v-171zM121 -9v114h457v-114h-457z" />
    <glyph glyph-name="twosuperior" unicode="&#xb2;" horiz-adv-x="336" 
d="M140 547l1 -1h6q6 1 15.5 2.5t21.5 2.5t28.5 1.5t32.5 0.5h65v-79h-286v60l135 113q23 19 33.5 29.5t20.5 27.5t10 34q0 21 -15.5 35t-38.5 14q-21 0 -36 -11t-21 -23t-12 -30l-80 21q12 53 53 89.5t98 36.5q60 0 100.5 -38t40.5 -94q0 -63 -63 -116q-25 -21 -54 -42
q-13 -9 -27 -17l-21 -12z" />
    <glyph glyph-name="threesuperior" unicode="&#xb3;" horiz-adv-x="344" 
d="M103 736l-77 21q11 51 51 82t97 31q65 0 102.5 -32.5t37.5 -80.5q0 -36 -26 -59t-55 -24v-1q35 -2 61 -23.5t26 -59.5q0 -54 -41 -89t-104 -35q-57 0 -101.5 32.5t-53.5 82.5l78 21q10 -59 77 -59q27 0 43 14t16 35q0 22 -17.5 35.5t-44.5 13.5h-37v64h37q24 0 40 13.5
t16 32.5q0 17 -15 30t-39 13q-56 0 -71 -58z" />
    <glyph glyph-name="acute" unicode="&#xb4;" horiz-adv-x="316" 
d="M237 929l48 -95l-239 -103l-40 74z" />
    <glyph glyph-name="paragraph" unicode="&#xb6;" horiz-adv-x="765" 
d="M282 700h399v-700h-139v569h-84v-569h-131v299h-45q-115 0 -179.5 53t-64.5 148q0 94 64.5 147t179.5 53z" />
    <glyph glyph-name="periodcentered" unicode="&#xb7;" horiz-adv-x="258" 
d="M129 285q-29 0 -49 20t-20 49q0 28 20 48t49 20q28 0 48.5 -20t20.5 -48q0 -29 -20 -49t-49 -20z" />
    <glyph glyph-name="cedilla" unicode="&#xb8;" horiz-adv-x="260" 
d="M141 0l-20 -54q44 1 75.5 -27t31.5 -74q0 -53 -32.5 -79.5t-82.5 -26.5h-107l29 74h78q38 0 38 31q0 13 -10.5 21.5t-27.5 9.5h-93l43 125h78z" />
    <glyph glyph-name="onesuperior" unicode="&#xb9;" horiz-adv-x="251" 
d="M154 862h64v-388h-91v196q0 10 0.5 21t1.5 20.5t2 17.5t1 13l1 5h-1q-1 0 -5 -5.5t-12 -15.5t-18 -18l-29 -28l-57 51z" />
    <glyph glyph-name="ordmasculine" unicode="&#xba;" horiz-adv-x="364" 
d="M10 540q0 74 49.5 123.5t122.5 49.5q72 0 122 -49.5t50 -123.5t-50 -123t-122 -49q-73 0 -122.5 49t-49.5 123zM95 540q0 -39 24.5 -64.5t62.5 -25.5t62.5 25.5t24.5 64.5q0 40 -24.5 65.5t-62.5 25.5t-62.5 -25.5t-24.5 -65.5zM20 312h324v-85h-324v85z" />
    <glyph glyph-name="guillemotright" unicode="&#xbb;" horiz-adv-x="779" 
d="M159 586l236 -234l-235 -235l-77 77l165 158l-164 158zM460 586l236 -234l-235 -235l-77 77l165 158l-164 158z" />
    <glyph glyph-name="onequarter" unicode="&#xbc;" horiz-adv-x="721" 
d="M97 546l-29 -28l-57 51l143 131h64v-388h-91v196q0 10 0.5 21t1.5 20.5t2 17.5t1 13l1 5h-1q-1 0 -5 -5.5t-12 -15.5t-18 -18zM556 700h92l-494 -700h-91zM697 150v-75h-44v-75h-81v75h-194v62l206 251h69v-238h44zM520 149h52v65v15t0.5 14.5t1 12t0.5 8.5v3h-1l-5 -6
q-4 -6 -11 -15.5t-14 -16.5l-47 -55q-6 -7 -13 -13.5t-11 -10.5l-3 -3l1 -1h3q3 1 7.5 1.5t10.5 0.5t14 0.5t15 0.5z" />
    <glyph glyph-name="onehalf" unicode="&#xbd;" horiz-adv-x="754" 
d="M154 700h64v-388h-91v196q0 10 0.5 21t1.5 20.5t2 17.5t1 13l1 5h-1q-1 0 -5 -5.5t-12 -15.5t-18 -18l-29 -28l-57 51zM63 0l493 700h92l-494 -700h-91zM558 73l1 -1h6q6 1 15.5 2.5t21.5 2.5t28.5 1.5t32.5 0.5h65v-79h-286v60l135 113q23 19 33.5 29.5t20.5 27.5t10 34
q0 21 -15.5 35t-38.5 14q-21 0 -36 -11t-21 -23t-12 -30l-80 21q12 53 53 89.5t98 36.5q60 0 100.5 -38t40.5 -94q0 -63 -63 -116q-25 -21 -54 -42q-13 -9 -27 -17l-21 -12z" />
    <glyph glyph-name="threequarters" unicode="&#xbe;" horiz-adv-x="786" 
d="M233 512v-1q35 -2 61 -23.5t26 -59.5q0 -54 -41 -89t-104 -35q-57 0 -101.5 32.5t-53.5 82.5l78 21q10 -59 77 -59q27 0 43 14t16 35q0 22 -17.5 35.5t-44.5 13.5h-37v64h37q24 0 40 13.5t16 32.5q0 17 -15 30t-39 13q-56 0 -71 -58l-77 21q11 51 51 82t97 31
q65 0 102.5 -32.5t37.5 -80.5q0 -36 -26 -59t-55 -24zM621 700h92l-494 -700h-92zM762 150v-75h-44v-75h-81v75h-194v62l206 251h69v-238h44zM585 149h52v65v15t0.5 14.5t1 12t0.5 8.5v3h-1l-4 -6q-5 -6 -12 -15.5t-14 -16.5l-47 -55q-6 -7 -13 -13.5t-10 -10.5l-4 -3l1 -1
h3q3 1 7.5 1.5t10.5 0.5t14 0.5t15 0.5z" />
    <glyph glyph-name="questiondown" unicode="&#xbf;" horiz-adv-x="584" 
d="M369 700v-157h-140v157h140zM369 481v-121q-113 -61 -150 -91.5t-37 -70.5q0 -34 25.5 -61.5t81.5 -27.5q57 0 89.5 25t50.5 79l117 -33q-22 -90 -92 -142t-170 -52q-117 0 -182 58t-65 145q0 35 12 65t26.5 50t45 42t50 33.5t58.5 31.5v70h140z" />
    <glyph glyph-name="Agrave" unicode="&#xc0;" horiz-adv-x="719" 
d="M453 805l-40 -74l-239 103l49 95zM563 0l-52 134h-303l-52 -134h-150l288 700h131l288 -700h-150zM256 257h207l-69 177q-6 17 -14.5 41.5t-13.5 40.5l-6 15h-1l-5 -15q-6 -16 -14.5 -40.5t-14.5 -41.5z" />
    <glyph glyph-name="Aacute" unicode="&#xc1;" horiz-adv-x="719" 
d="M522 834l-238 -103l-41 74l231 124zM563 0l-52 134h-303l-52 -134h-150l288 700h131l288 -700h-150zM256 257h207l-69 177q-6 17 -14.5 41.5t-13.5 40.5l-6 15h-1l-5 -15q-6 -16 -14.5 -40.5t-14.5 -41.5z" />
    <glyph glyph-name="Acircumflex" unicode="&#xc2;" horiz-adv-x="719" 
d="M356 830l-119 -99l-68 69l187 159l186 -159l-67 -69zM563 0l-52 134h-303l-52 -134h-150l288 700h131l288 -700h-150zM256 257h207l-69 177q-6 17 -14.5 41.5t-13.5 40.5l-6 15h-1l-5 -15q-6 -16 -14.5 -40.5t-14.5 -41.5z" />
    <glyph glyph-name="Atilde" unicode="&#xc3;" horiz-adv-x="719" 
d="M473 884h109q0 -60 -40 -99t-102 -39q-38 0 -84 30t-65 30q-20 0 -33 -12.5t-13 -31.5h-109q0 60 40.5 99.5t101.5 39.5q31 0 59 -15.5t50 -30.5t40 -15q20 0 33 12.5t13 31.5zM563 0l-52 134h-303l-52 -134h-150l288 700h131l288 -700h-150zM256 257h207l-69 177
q-6 17 -14.5 41.5t-13.5 40.5l-6 15h-1l-5 -15q-6 -16 -14.5 -40.5t-14.5 -41.5z" />
    <glyph glyph-name="Adieresis" unicode="&#xc4;" horiz-adv-x="719" 
d="M227 767q-29 0 -48 18.5t-19 46.5q0 27 19.5 46t47.5 19q27 0 46 -19t19 -46q0 -28 -19 -46.5t-46 -18.5zM485 767q-28 0 -47 18.5t-19 46.5q0 27 19 46t47 19q27 0 46 -19t19 -46q0 -28 -19 -46.5t-46 -18.5zM563 0l-52 134h-303l-52 -134h-150l288 700h131l288 -700
h-150zM256 257h207l-69 177q-6 17 -14.5 41.5t-13.5 40.5l-6 15h-1l-5 -15q-6 -16 -14.5 -40.5t-14.5 -41.5z" />
    <glyph glyph-name="Aring" unicode="&#xc5;" horiz-adv-x="719" 
d="M563 0l-52 134h-303l-52 -134h-150l287 698q-32 18 -51.5 50t-19.5 70q0 56 40.5 96t96.5 40t96.5 -40t40.5 -96q0 -37 -19.5 -69t-50.5 -50l287 -699h-150zM359 875q-22 0 -38.5 -16.5t-16.5 -40.5q0 -22 16.5 -38t38.5 -16q23 0 39.5 16t16.5 38q0 24 -16.5 40.5
t-39.5 16.5zM256 257h207l-69 177q-6 17 -14.5 41.5t-13.5 40.5l-6 15h-1l-5 -15q-6 -16 -14.5 -40.5t-14.5 -41.5z" />
    <glyph glyph-name="AE" unicode="&#xc6;" horiz-adv-x="1013" 
d="M584 130h361v-130h-497v134h-238l-53 -134h-151l291 700h642v-130h-355v-149h281v-122h-281v-169zM448 257v313h-71l-9 -23q-8 -23 -22.5 -62t-22.5 -60l-65 -168h190z" />
    <glyph glyph-name="Ccedilla" unicode="&#xc7;" horiz-adv-x="756" 
d="M590 228l140 -37q-41 -87 -120.5 -142t-179.5 -62l-15 -41q44 1 75.5 -27t31.5 -74q0 -53 -32.5 -79.5t-83.5 -26.5h-106l29 74h77q38 0 38 31q0 29 -38 31h-92l39 114q-136 17 -225.5 117.5t-89.5 243.5q0 157 105.5 260.5t257.5 103.5q102 0 186.5 -50t131.5 -135
l-142 -37q-28 39 -76 62t-100 23q-98 0 -158 -63.5t-60 -163.5q0 -101 61.5 -163t156.5 -62q59 0 110.5 28.5t78.5 74.5z" />
    <glyph glyph-name="Egrave" unicode="&#xc8;" horiz-adv-x="652" 
d="M437 805l-40 -74l-239 103l49 95zM222 130h362v-130h-501v700h495v-130h-356v-149h281v-122h-281v-169z" />
    <glyph glyph-name="Eacute" unicode="&#xc9;" horiz-adv-x="652" 
d="M506 834l-238 -103l-41 74l231 124zM222 130h362v-130h-501v700h495v-130h-356v-149h281v-122h-281v-169z" />
    <glyph glyph-name="Ecircumflex" unicode="&#xca;" horiz-adv-x="652" 
d="M340 830l-119 -99l-68 69l187 159l186 -159l-67 -69zM222 130h362v-130h-501v700h495v-130h-356v-149h281v-122h-281v-169z" />
    <glyph glyph-name="Edieresis" unicode="&#xcb;" horiz-adv-x="652" 
d="M211 767q-29 0 -48 18.5t-19 46.5q0 27 19.5 46t47.5 19q27 0 46 -19t19 -46q0 -28 -19 -46.5t-46 -18.5zM469 767q-28 0 -47 18.5t-19 46.5q0 27 19 46t47 19q27 0 46 -19t19 -46q0 -28 -19 -46.5t-46 -18.5zM222 130h362v-130h-501v700h495v-130h-356v-149h281v-122
h-281v-169z" />
    <glyph glyph-name="Igrave" unicode="&#xcc;" horiz-adv-x="305" 
d="M207 731l-239 103l49 95l230 -124zM222 0h-139v700h139v-700z" />
    <glyph glyph-name="Iacute" unicode="&#xcd;" horiz-adv-x="305" 
d="M268 929l48 -95l-238 -103l-41 74zM222 0h-139v700h139v-700z" />
    <glyph glyph-name="Icircumflex" unicode="&#xce;" horiz-adv-x="305" 
d="M-37 800l187 159l186 -159l-67 -69l-119 99l-119 -99zM222 0h-139v700h139v-700z" />
    <glyph glyph-name="Idieresis" unicode="&#xcf;" horiz-adv-x="305" 
d="M21 767q-29 0 -48 18.5t-19 46.5q0 27 19.5 46t47.5 19q27 0 46 -19t19 -46q0 -28 -19 -46.5t-46 -18.5zM279 767q-28 0 -47 18.5t-19 46.5q0 27 19 46t47 19q27 0 46 -19t19 -46q0 -28 -19 -46.5t-46 -18.5zM222 0h-139v700h139v-700z" />
    <glyph glyph-name="Eth" unicode="&#xd0;" horiz-adv-x="796" 
d="M94 700h302q153 0 257.5 -99t104.5 -254q0 -154 -104 -250.5t-256 -96.5h-304v292h-56v125h56v283zM233 130h165q91 0 153.5 59t62.5 158t-63.5 161t-154.5 62h-163v-153h131v-125h-131v-162z" />
    <glyph glyph-name="Ntilde" unicode="&#xd1;" horiz-adv-x="776" 
d="M503 884h109q0 -60 -40 -99t-102 -39q-37 0 -83.5 30t-65.5 30q-20 0 -33 -12.5t-13 -31.5h-109q0 60 40.5 99.5t101.5 39.5q31 0 59 -15.5t50 -30.5t40 -15q20 0 33 12.5t13 31.5zM554 700h139v-700h-131l-199 270q-27 37 -63 87t-57 79l-21 30h-1v-31.5t0.5 -84.5
t0.5 -124v-226h-139v700h131l203 -273q21 -27 55.5 -74.5t57.5 -80.5l24 -33h1v34t-0.5 85.5t-0.5 112.5v229z" />
    <glyph glyph-name="Ograve" unicode="&#xd2;" horiz-adv-x="803" 
d="M460 731l-239 103l49 95l230 -124zM38 350q0 157 105.5 260.5t257.5 103.5q153 0 258.5 -103.5t105.5 -260.5t-105.5 -260.5t-258.5 -103.5q-152 0 -257.5 103.5t-105.5 260.5zM183 350q0 -100 61 -163.5t157 -63.5q97 0 158 63.5t61 163.5q0 101 -61 164t-158 63
q-96 0 -157 -63t-61 -164z" />
    <glyph glyph-name="Oacute" unicode="&#xd3;" horiz-adv-x="803" 
d="M521 929l48 -95l-238 -103l-41 74zM38 350q0 157 105.5 260.5t257.5 103.5q153 0 258.5 -103.5t105.5 -260.5t-105.5 -260.5t-258.5 -103.5q-152 0 -257.5 103.5t-105.5 260.5zM183 350q0 -100 61 -163.5t157 -63.5q97 0 158 63.5t61 163.5q0 101 -61 164t-158 63
q-96 0 -157 -63t-61 -164z" />
    <glyph glyph-name="Ocircumflex" unicode="&#xd4;" horiz-adv-x="803" 
d="M216 800l187 159l186 -159l-67 -69l-119 99l-119 -99zM38 350q0 157 105.5 260.5t257.5 103.5q153 0 258.5 -103.5t105.5 -260.5t-105.5 -260.5t-258.5 -103.5q-152 0 -257.5 103.5t-105.5 260.5zM183 350q0 -100 61 -163.5t157 -63.5q97 0 158 63.5t61 163.5
q0 101 -61 164t-158 63q-96 0 -157 -63t-61 -164z" />
    <glyph glyph-name="Otilde" unicode="&#xd5;" horiz-adv-x="803" 
d="M520 884h109q0 -60 -40 -99t-102 -39q-37 0 -83 30t-66 30t-33 -12.5t-13 -31.5h-109q0 60 40.5 99.5t101.5 39.5q31 0 59 -15.5t50 -30.5t40 -15q20 0 33 12.5t13 31.5zM38 350q0 157 105.5 260.5t257.5 103.5q153 0 258.5 -103.5t105.5 -260.5t-105.5 -260.5
t-258.5 -103.5q-152 0 -257.5 103.5t-105.5 260.5zM183 350q0 -100 61 -163.5t157 -63.5q97 0 158 63.5t61 163.5q0 101 -61 164t-158 63q-96 0 -157 -63t-61 -164z" />
    <glyph glyph-name="Odieresis" unicode="&#xd6;" horiz-adv-x="803" 
d="M274 767q-29 0 -48 18.5t-19 46.5q0 27 19.5 46t47.5 19q27 0 46 -19t19 -46q0 -28 -19 -46.5t-46 -18.5zM532 767q-28 0 -47 18.5t-19 46.5q0 27 19 46t47 19q27 0 46 -19t19 -46q0 -28 -19 -46.5t-46 -18.5zM38 350q0 157 105.5 260.5t257.5 103.5q153 0 258.5 -103.5
t105.5 -260.5t-105.5 -260.5t-258.5 -103.5q-152 0 -257.5 103.5t-105.5 260.5zM183 350q0 -100 61 -163.5t157 -63.5q97 0 158 63.5t61 163.5q0 101 -61 164t-158 63q-96 0 -157 -63t-61 -164z" />
    <glyph glyph-name="multiply" unicode="&#xd7;" 
d="M475 570l92 -93l-125 -125l125 -126l-93 -92l-125 125l-124 -124l-93 93l124 124l-124 124l92 92l125 -123z" />
    <glyph glyph-name="Oslash" unicode="&#xd8;" horiz-adv-x="803" 
d="M709 647l-38 -49q94 -102 94 -248q0 -157 -105.5 -260.5t-258.5 -103.5q-89 0 -167 39l-37 -48l-99 74l36 48q-96 104 -96 251q0 157 105.5 260.5t257.5 103.5q92 0 172 -41l37 48zM222 213l266 348q-42 16 -87 16q-96 0 -157 -63t-61 -164q0 -79 39 -137zM584 483
l-265 -346q39 -14 82 -14q97 0 158 63.5t61 163.5q0 77 -36 133z" />
    <glyph glyph-name="Ugrave" unicode="&#xd9;" horiz-adv-x="740" 
d="M425 731l-239 103l49 95l230 -124zM532 700h140v-396q0 -152 -81 -235t-221 -83q-141 0 -221.5 83t-80.5 235v396h139v-394q0 -190 163 -190q162 0 162 190v394z" />
    <glyph glyph-name="Uacute" unicode="&#xda;" horiz-adv-x="740" 
d="M486 929l48 -95l-238 -103l-41 74zM532 700h140v-396q0 -152 -81 -235t-221 -83q-141 0 -221.5 83t-80.5 235v396h139v-394q0 -190 163 -190q162 0 162 190v394z" />
    <glyph glyph-name="Ucircumflex" unicode="&#xdb;" horiz-adv-x="740" 
d="M181 800l187 159l186 -159l-67 -69l-119 99l-119 -99zM532 700h140v-396q0 -152 -81 -235t-221 -83q-141 0 -221.5 83t-80.5 235v396h139v-394q0 -190 163 -190q162 0 162 190v394z" />
    <glyph glyph-name="Udieresis" unicode="&#xdc;" horiz-adv-x="740" 
d="M239 767q-29 0 -48 18.5t-19 46.5q0 27 19.5 46t47.5 19q27 0 46 -19t19 -46q0 -28 -19 -46.5t-46 -18.5zM497 767q-28 0 -47 18.5t-19 46.5q0 27 19 46t47 19q27 0 46 -19t19 -46q0 -28 -19 -46.5t-46 -18.5zM532 700h140v-396q0 -152 -81 -235t-221 -83
q-141 0 -221.5 83t-80.5 235v396h139v-394q0 -190 163 -190q162 0 162 190v394z" />
    <glyph glyph-name="Yacute" unicode="&#xdd;" horiz-adv-x="701" 
d="M465 929l48 -95l-238 -103l-41 74zM532 700h157l-270 -379v-321h-138v321l-269 379h156l144 -201q35 -52 38 -52h1q3 0 38 52z" />
    <glyph glyph-name="Thorn" unicode="&#xde;" horiz-adv-x="636" 
d="M222 585h118q116 0 188.5 -65.5t72.5 -168.5t-72.5 -168.5t-188.5 -65.5h-118v-117h-139v700h139v-115zM222 247h121q52 0 82.5 28.5t30.5 75.5q0 46 -30.5 75t-82.5 28h-121v-207z" />
    <glyph glyph-name="germandbls" unicode="&#xdf;" horiz-adv-x="810" 
d="M83 700h622l-105 -196q-49 -93 -49 -94l1 -1h5q89 1 152 -58.5t63 -144.5q0 -94 -66.5 -157t-176.5 -63q-79 0 -143.5 37t-99.5 99l132 36q41 -54 104 -54q53 0 81.5 29.5t28.5 74.5q0 42 -29.5 71t-83.5 29h-101v101l46 91q6 13 15 31t15 29l5 11l-1 1h-4
q-4 0 -10.5 -0.5t-14.5 -1t-18.5 -0.5h-20.5h-208v-570h-139v700z" />
    <glyph glyph-name="agrave" unicode="&#xe0;" horiz-adv-x="719" 
d="M453 805l-40 -74l-239 103l49 95zM563 0l-52 134h-303l-52 -134h-150l288 700h131l288 -700h-150zM256 257h207l-69 177q-6 17 -14.5 41.5t-13.5 40.5l-6 15h-1l-5 -15q-6 -16 -14.5 -40.5t-14.5 -41.5z" />
    <glyph glyph-name="aacute" unicode="&#xe1;" horiz-adv-x="719" 
d="M522 834l-238 -103l-41 74l231 124zM563 0l-52 134h-303l-52 -134h-150l288 700h131l288 -700h-150zM256 257h207l-69 177q-6 17 -14.5 41.5t-13.5 40.5l-6 15h-1l-5 -15q-6 -16 -14.5 -40.5t-14.5 -41.5z" />
    <glyph glyph-name="acircumflex" unicode="&#xe2;" horiz-adv-x="719" 
d="M356 830l-119 -99l-68 69l187 159l186 -159l-67 -69zM563 0l-52 134h-303l-52 -134h-150l288 700h131l288 -700h-150zM256 257h207l-69 177q-6 17 -14.5 41.5t-13.5 40.5l-6 15h-1l-5 -15q-6 -16 -14.5 -40.5t-14.5 -41.5z" />
    <glyph glyph-name="atilde" unicode="&#xe3;" horiz-adv-x="719" 
d="M473 884h109q0 -60 -40 -99t-102 -39q-38 0 -84 30t-65 30q-20 0 -33 -12.5t-13 -31.5h-109q0 60 40.5 99.5t101.5 39.5q31 0 59 -15.5t50 -30.5t40 -15q20 0 33 12.5t13 31.5zM563 0l-52 134h-303l-52 -134h-150l288 700h131l288 -700h-150zM256 257h207l-69 177
q-6 17 -14.5 41.5t-13.5 40.5l-6 15h-1l-5 -15q-6 -16 -14.5 -40.5t-14.5 -41.5z" />
    <glyph glyph-name="adieresis" unicode="&#xe4;" horiz-adv-x="719" 
d="M227 767q-29 0 -48 18.5t-19 46.5q0 27 19.5 46t47.5 19q27 0 46 -19t19 -46q0 -28 -19 -46.5t-46 -18.5zM485 767q-28 0 -47 18.5t-19 46.5q0 27 19 46t47 19q27 0 46 -19t19 -46q0 -28 -19 -46.5t-46 -18.5zM563 0l-52 134h-303l-52 -134h-150l288 700h131l288 -700
h-150zM256 257h207l-69 177q-6 17 -14.5 41.5t-13.5 40.5l-6 15h-1l-5 -15q-6 -16 -14.5 -40.5t-14.5 -41.5z" />
    <glyph glyph-name="aring" unicode="&#xe5;" horiz-adv-x="719" 
d="M563 0l-52 134h-303l-52 -134h-150l287 698q-32 18 -51.5 50t-19.5 70q0 56 40.5 96t96.5 40t96.5 -40t40.5 -96q0 -37 -19.5 -69t-50.5 -50l287 -699h-150zM359 875q-22 0 -38.5 -16.5t-16.5 -40.5q0 -22 16.5 -38t38.5 -16q23 0 39.5 16t16.5 38q0 24 -16.5 40.5
t-39.5 16.5zM256 257h207l-69 177q-6 17 -14.5 41.5t-13.5 40.5l-6 15h-1l-5 -15q-6 -16 -14.5 -40.5t-14.5 -41.5z" />
    <glyph glyph-name="ae" unicode="&#xe6;" horiz-adv-x="1013" 
d="M584 130h361v-130h-497v134h-238l-53 -134h-151l291 700h642v-130h-355v-149h281v-122h-281v-169zM448 257v313h-71l-9 -23q-8 -23 -22.5 -62t-22.5 -60l-65 -168h190z" />
    <glyph glyph-name="ccedilla" unicode="&#xe7;" horiz-adv-x="756" 
d="M590 228l140 -37q-41 -87 -120.5 -142t-179.5 -62l-15 -41q44 1 75.5 -27t31.5 -74q0 -53 -32.5 -79.5t-83.5 -26.5h-106l29 74h77q38 0 38 31q0 29 -38 31h-92l39 114q-136 17 -225.5 117.5t-89.5 243.5q0 157 105.5 260.5t257.5 103.5q102 0 186.5 -50t131.5 -135
l-142 -37q-28 39 -76 62t-100 23q-98 0 -158 -63.5t-60 -163.5q0 -101 61.5 -163t156.5 -62q59 0 110.5 28.5t78.5 74.5z" />
    <glyph glyph-name="egrave" unicode="&#xe8;" horiz-adv-x="652" 
d="M436 805l-40 -74l-239 103l49 95zM222 130h362v-130h-501v700h495v-130h-356v-149h281v-122h-281v-169z" />
    <glyph glyph-name="eacute" unicode="&#xe9;" horiz-adv-x="652" 
d="M505 834l-238 -103l-41 74l231 124zM222 130h362v-130h-501v700h495v-130h-356v-149h281v-122h-281v-169z" />
    <glyph glyph-name="ecircumflex" unicode="&#xea;" horiz-adv-x="652" 
d="M339 830l-119 -99l-68 69l187 159l186 -159l-67 -69zM222 130h362v-130h-501v700h495v-130h-356v-149h281v-122h-281v-169z" />
    <glyph glyph-name="edieresis" unicode="&#xeb;" horiz-adv-x="652" 
d="M210 767q-29 0 -48 18.5t-19 46.5q0 27 19.5 46t47.5 19q27 0 46 -19t19 -46q0 -28 -19 -46.5t-46 -18.5zM468 767q-28 0 -47 18.5t-19 46.5q0 27 19 46t47 19q27 0 46 -19t19 -46q0 -28 -19 -46.5t-46 -18.5zM222 130h362v-130h-501v700h495v-130h-356v-149h281v-122
h-281v-169z" />
    <glyph glyph-name="igrave" unicode="&#xec;" horiz-adv-x="305" 
d="M207 731l-239 103l49 95l230 -124zM222 0h-139v700h139v-700z" />
    <glyph glyph-name="iacute" unicode="&#xed;" horiz-adv-x="305" 
d="M268 929l48 -95l-238 -103l-41 74zM222 0h-139v700h139v-700z" />
    <glyph glyph-name="icircumflex" unicode="&#xee;" horiz-adv-x="305" 
d="M-37 800l187 159l186 -159l-67 -69l-119 99l-119 -99zM222 0h-139v700h139v-700z" />
    <glyph glyph-name="idieresis" unicode="&#xef;" horiz-adv-x="305" 
d="M21 767q-29 0 -48 18.5t-19 46.5q0 27 19.5 46t47.5 19q27 0 46 -19t19 -46q0 -28 -19 -46.5t-46 -18.5zM279 767q-28 0 -47 18.5t-19 46.5q0 27 19 46t47 19q27 0 46 -19t19 -46q0 -28 -19 -46.5t-46 -18.5zM222 0h-139v700h139v-700z" />
    <glyph glyph-name="eth" unicode="&#xf0;" horiz-adv-x="796" 
d="M94 700h302q153 0 257.5 -99t104.5 -254q0 -154 -104 -250.5t-256 -96.5h-304v292h-56v125h56v283zM233 130h165q91 0 153.5 59t62.5 158t-63.5 161t-154.5 62h-163v-153h131v-125h-131v-162z" />
    <glyph glyph-name="ntilde" unicode="&#xf1;" horiz-adv-x="776" 
d="M503 884h109q0 -60 -40 -99t-102 -39q-37 0 -83.5 30t-65.5 30q-20 0 -33 -12.5t-13 -31.5h-109q0 60 40.5 99.5t101.5 39.5q31 0 59 -15.5t50 -30.5t40 -15q20 0 33 12.5t13 31.5zM554 700h139v-700h-131l-199 270q-27 37 -63 87t-57 79l-21 30h-1v-31.5t0.5 -84.5
t0.5 -124v-226h-139v700h131l203 -273q21 -27 55.5 -74.5t57.5 -80.5l24 -33h1v34t-0.5 85.5t-0.5 112.5v229z" />
    <glyph glyph-name="ograve" unicode="&#xf2;" horiz-adv-x="803" 
d="M458 731l-239 103l49 95l230 -124zM38 350q0 157 105.5 260.5t257.5 103.5q153 0 258.5 -103.5t105.5 -260.5t-105.5 -260.5t-258.5 -103.5q-152 0 -257.5 103.5t-105.5 260.5zM183 350q0 -100 61 -163.5t157 -63.5q97 0 158 63.5t61 163.5q0 101 -61 164t-158 63
q-96 0 -157 -63t-61 -164z" />
    <glyph glyph-name="oacute" unicode="&#xf3;" horiz-adv-x="803" 
d="M519 929l48 -95l-238 -103l-41 74zM38 350q0 157 105.5 260.5t257.5 103.5q153 0 258.5 -103.5t105.5 -260.5t-105.5 -260.5t-258.5 -103.5q-152 0 -257.5 103.5t-105.5 260.5zM183 350q0 -100 61 -163.5t157 -63.5q97 0 158 63.5t61 163.5q0 101 -61 164t-158 63
q-96 0 -157 -63t-61 -164z" />
    <glyph glyph-name="ocircumflex" unicode="&#xf4;" horiz-adv-x="803" 
d="M214 800l187 159l186 -159l-67 -69l-119 99l-119 -99zM38 350q0 157 105.5 260.5t257.5 103.5q153 0 258.5 -103.5t105.5 -260.5t-105.5 -260.5t-258.5 -103.5q-152 0 -257.5 103.5t-105.5 260.5zM183 350q0 -100 61 -163.5t157 -63.5q97 0 158 63.5t61 163.5
q0 101 -61 164t-158 63q-96 0 -157 -63t-61 -164z" />
    <glyph glyph-name="otilde" unicode="&#xf5;" horiz-adv-x="803" 
d="M518 884h109q0 -60 -40 -99t-102 -39q-37 0 -83 30t-66 30t-33 -12.5t-13 -31.5h-109q0 60 40.5 99.5t101.5 39.5q31 0 59 -15.5t50 -30.5t40 -15q20 0 33 12.5t13 31.5zM38 350q0 157 105.5 260.5t257.5 103.5q153 0 258.5 -103.5t105.5 -260.5t-105.5 -260.5
t-258.5 -103.5q-152 0 -257.5 103.5t-105.5 260.5zM183 350q0 -100 61 -163.5t157 -63.5q97 0 158 63.5t61 163.5q0 101 -61 164t-158 63q-96 0 -157 -63t-61 -164z" />
    <glyph glyph-name="odieresis" unicode="&#xf6;" horiz-adv-x="803" 
d="M272 767q-29 0 -48 18.5t-19 46.5q0 27 19.5 46t47.5 19q27 0 46 -19t19 -46q0 -28 -19 -46.5t-46 -18.5zM530 767q-28 0 -47 18.5t-19 46.5q0 27 19 46t47 19q27 0 46 -19t19 -46q0 -28 -19 -46.5t-46 -18.5zM38 350q0 157 105.5 260.5t257.5 103.5q153 0 258.5 -103.5
t105.5 -260.5t-105.5 -260.5t-258.5 -103.5q-152 0 -257.5 103.5t-105.5 260.5zM183 350q0 -100 61 -163.5t157 -63.5q97 0 158 63.5t61 163.5q0 101 -61 164t-158 63q-96 0 -157 -63t-61 -164z" />
    <glyph glyph-name="divide" unicode="&#xf7;" 
d="M343 511q-29 0 -49 20t-20 49q0 28 20 48t49 20q28 0 48.5 -20t20.5 -48q0 -29 -20 -49t-49 -20zM120 412h457v-114h-457v114zM343 63q-29 0 -49 20t-20 49q0 28 20 48t49 20q28 0 48.5 -20t20.5 -48q0 -29 -20 -49t-49 -20z" />
    <glyph glyph-name="oslash" unicode="&#xf8;" horiz-adv-x="803" 
d="M709 647l-38 -49q94 -102 94 -248q0 -157 -105.5 -260.5t-258.5 -103.5q-89 0 -167 39l-37 -48l-99 74l36 48q-96 104 -96 251q0 157 105.5 260.5t257.5 103.5q92 0 172 -41l37 48zM222 213l266 348q-42 16 -87 16q-96 0 -157 -63t-61 -164q0 -79 39 -137zM584 483
l-265 -346q39 -14 82 -14q97 0 158 63.5t61 163.5q0 77 -36 133z" />
    <glyph glyph-name="ugrave" unicode="&#xf9;" horiz-adv-x="740" 
d="M425 731l-239 103l49 95l230 -124zM532 700h140v-396q0 -152 -81 -235t-221 -83q-141 0 -221.5 83t-80.5 235v396h139v-394q0 -190 163 -190q162 0 162 190v394z" />
    <glyph glyph-name="uacute" unicode="&#xfa;" horiz-adv-x="740" 
d="M486 929l48 -95l-238 -103l-41 74zM532 700h140v-396q0 -152 -81 -235t-221 -83q-141 0 -221.5 83t-80.5 235v396h139v-394q0 -190 163 -190q162 0 162 190v394z" />
    <glyph glyph-name="ucircumflex" unicode="&#xfb;" horiz-adv-x="740" 
d="M181 800l187 159l186 -159l-67 -69l-119 99l-119 -99zM532 700h140v-396q0 -152 -81 -235t-221 -83q-141 0 -221.5 83t-80.5 235v396h139v-394q0 -190 163 -190q162 0 162 190v394z" />
    <glyph glyph-name="udieresis" unicode="&#xfc;" horiz-adv-x="740" 
d="M239 767q-29 0 -48 18.5t-19 46.5q0 27 19.5 46t47.5 19q27 0 46 -19t19 -46q0 -28 -19 -46.5t-46 -18.5zM497 767q-28 0 -47 18.5t-19 46.5q0 27 19 46t47 19q27 0 46 -19t19 -46q0 -28 -19 -46.5t-46 -18.5zM532 700h140v-396q0 -152 -81 -235t-221 -83
q-141 0 -221.5 83t-80.5 235v396h139v-394q0 -190 163 -190q162 0 162 190v394z" />
    <glyph glyph-name="yacute" unicode="&#xfd;" horiz-adv-x="701" 
d="M466 929l48 -95l-238 -103l-41 74zM532 700h157l-270 -379v-321h-138v321l-269 379h156l144 -201q35 -52 38 -52h1q3 0 38 52z" />
    <glyph glyph-name="thorn" unicode="&#xfe;" horiz-adv-x="636" 
d="M222 585h118q116 0 188.5 -65.5t72.5 -168.5t-72.5 -168.5t-188.5 -65.5h-118v-117h-139v700h139v-115zM222 247h121q52 0 82.5 28.5t30.5 75.5q0 46 -30.5 75t-82.5 28h-121v-207z" />
    <glyph glyph-name="ydieresis" unicode="&#xff;" horiz-adv-x="701" 
d="M219 767q-29 0 -48 18.5t-19 46.5q0 27 19.5 46t47.5 19q27 0 46 -19t19 -46q0 -28 -19 -46.5t-46 -18.5zM477 767q-28 0 -47 18.5t-19 46.5q0 27 19 46t47 19q27 0 46 -19t19 -46q0 -28 -19 -46.5t-46 -18.5zM532 700h157l-270 -379v-321h-138v321l-269 379h156
l144 -201q35 -52 38 -52h1q3 0 38 52z" />
    <glyph glyph-name="Abreve" unicode="&#x102;" horiz-adv-x="719" 
d="M438 888h100q-14 -64 -63.5 -104.5t-114.5 -40.5q-69 0 -118 40t-63 105h102q6 -25 27.5 -42t51.5 -17q29 0 50.5 17.5t27.5 41.5zM563 0l-52 134h-303l-52 -134h-150l288 700h131l288 -700h-150zM256 257h207l-69 177q-6 17 -14.5 41.5t-13.5 40.5l-6 15h-1l-5 -15
q-6 -16 -14.5 -40.5t-14.5 -41.5z" />
    <glyph glyph-name="Amacron" unicode="&#x100;" horiz-adv-x="719" 
d="M533 878v-108h-339v108h339zM563 0l-52 134h-303l-52 -134h-150l288 700h131l288 -700h-150zM256 257h207l-69 177q-6 17 -14.5 41.5t-13.5 40.5l-6 15h-1l-5 -15q-6 -16 -14.5 -40.5t-14.5 -41.5z" />
    <glyph glyph-name="Aogonek" unicode="&#x104;" horiz-adv-x="719" 
d="M687 -97l73 -46q-24 -48 -68.5 -75t-96.5 -27q-77 0 -125 42t-48 113q0 58 39 99.5t80 47.5l-30 77h-303l-52 -134h-150l288 700h131l288 -700h-72q-46 0 -83.5 -23t-37.5 -67q0 -28 20 -48t55 -20q63 0 92 61zM256 257h207l-69 177q-6 17 -14.5 41.5t-13.5 40.5l-6 15
h-1l-5 -15q-6 -16 -14.5 -40.5t-14.5 -41.5z" />
    <glyph glyph-name="Cacute" unicode="&#x106;" horiz-adv-x="756" 
d="M514 929l48 -95l-238 -103l-41 74zM719 529l-142 -37q-28 39 -76 62t-100 23q-98 0 -158 -63.5t-60 -163.5q0 -101 61.5 -163t156.5 -62q59 0 110.5 28.5t78.5 74.5l140 -37q-44 -94 -132 -149.5t-197 -55.5q-152 0 -257.5 103.5t-105.5 260.5t105.5 260.5t257.5 103.5
q102 0 186.5 -50t131.5 -135z" />
    <glyph glyph-name="Ccaron" unicode="&#x10c;" horiz-adv-x="756" 
d="M212 883l187 -159l186 159l-67 69l-119 -99l-119 99zM719 529l-142 -37q-28 39 -76 62t-100 23q-98 0 -158 -63.5t-60 -163.5q0 -101 61.5 -163t156.5 -62q59 0 110.5 28.5t78.5 74.5l140 -37q-44 -94 -132 -149.5t-197 -55.5q-152 0 -257.5 103.5t-105.5 260.5
t105.5 260.5t257.5 103.5q102 0 186.5 -50t131.5 -135z" />
    <glyph glyph-name="Cdotaccent" unicode="&#x10a;" horiz-adv-x="756" 
d="M399 766q-27 0 -46.5 19t-19.5 47q0 27 19.5 46t46.5 19t46 -19t19 -46q0 -28 -19 -47t-46 -19zM719 529l-142 -37q-28 39 -76 62t-100 23q-98 0 -158 -63.5t-60 -163.5q0 -101 61.5 -163t156.5 -62q59 0 110.5 28.5t78.5 74.5l140 -37q-44 -94 -132 -149.5t-197 -55.5
q-152 0 -257.5 103.5t-105.5 260.5t105.5 260.5t257.5 103.5q102 0 186.5 -50t131.5 -135z" />
    <glyph glyph-name="Dcaron" unicode="&#x10e;" horiz-adv-x="785" 
d="M198 883l187 -159l186 159l-67 69l-119 -99l-119 99zM83 700h302q153 0 257.5 -99t104.5 -254q0 -154 -104 -250.5t-256 -96.5h-304v700zM222 130h165q91 0 153.5 59t62.5 158t-63.5 161t-154.5 62h-163v-440z" />
    <glyph glyph-name="Dcroat" unicode="&#x110;" horiz-adv-x="796" 
d="M94 700h302q153 0 257.5 -99t104.5 -254q0 -154 -104 -250.5t-256 -96.5h-304v292h-56v125h56v283zM233 130h165q91 0 153.5 59t62.5 158t-63.5 161t-154.5 62h-163v-153h131v-125h-131v-162z" />
    <glyph glyph-name="Ecaron" unicode="&#x11a;" horiz-adv-x="652" 
d="M529 883l-186 -159l-187 159l68 69l119 -99l119 99zM222 130h362v-130h-501v700h495v-130h-356v-149h281v-122h-281v-169z" />
    <glyph glyph-name="Edotaccent" unicode="&#x116;" horiz-adv-x="652" 
d="M343 766q-27 0 -46.5 19t-19.5 47q0 27 19.5 46t46.5 19t46 -19t19 -46q0 -28 -19 -47t-46 -19zM222 130h362v-130h-501v700h495v-130h-356v-149h281v-122h-281v-169z" />
    <glyph glyph-name="Emacron" unicode="&#x112;" horiz-adv-x="652" 
d="M517 878v-108h-339v108h339zM222 130h362v-130h-501v700h495v-130h-356v-149h281v-122h-281v-169z" />
    <glyph glyph-name="Eng" unicode="&#x14a;" horiz-adv-x="776" 
d="M554 700h139v-700q0 -101 -62 -167t-157 -66h-41v112h29q46 0 73 33t27 88l-199 270q-27 37 -63 87t-57 79l-21 30h-1v-31.5t0.5 -84.5t0.5 -124v-226h-139v700h131l203 -273q21 -27 55.5 -74.5t57.5 -80.5l24 -33h1v34t-0.5 85.5t-0.5 112.5v229z" />
    <glyph glyph-name="Eogonek" unicode="&#x118;" horiz-adv-x="652" 
d="M516 -97l73 -46q-24 -48 -68.5 -75t-96.5 -27q-77 0 -125 42t-48 113q0 49 31 90h-199v700h495v-130h-356v-149h281v-122h-281v-169h362v-130h-114q-46 0 -83.5 -23t-37.5 -67q0 -28 20 -48t55 -20q63 0 92 61z" />
    <glyph glyph-name="Gbreve" unicode="&#x11e;" horiz-adv-x="793" 
d="M218 888h102q6 -25 27.5 -42t51.5 -17q29 0 50.5 17.5t27.5 41.5h100q-14 -64 -63.5 -104.5t-114.5 -40.5q-69 0 -118 40t-63 105zM614 73h-1q-31 -35 -89.5 -61t-122.5 -26q-152 0 -257.5 103.5t-105.5 260.5t105.5 260.5t257.5 103.5q103 -1 186.5 -50.5t131.5 -134.5
l-142 -37q-28 39 -76 62t-100 23q-98 0 -158 -63.5t-60 -163.5q0 -103 63.5 -165.5t162.5 -62.5q82 0 133.5 36t71.5 84v30h-194v113h313v-385h-120v17.5v15v12t0.5 9.5t0.5 7v5.5v3.5v2v1z" />
    <glyph glyph-name="Gcircumflex" unicode="&#x11c;" horiz-adv-x="793" 
d="M208 800l187 159l186 -159l-67 -69l-119 99l-119 -99zM614 73h-1q-31 -35 -89.5 -61t-122.5 -26q-152 0 -257.5 103.5t-105.5 260.5t105.5 260.5t257.5 103.5q103 -1 186.5 -50.5t131.5 -134.5l-142 -37q-28 39 -76 62t-100 23q-98 0 -158 -63.5t-60 -163.5
q0 -103 63.5 -165.5t162.5 -62.5q82 0 133.5 36t71.5 84v30h-194v113h313v-385h-120v17.5v15v12t0.5 9.5t0.5 7v5.5v3.5v2v1z" />
    <glyph glyph-name="Gcommaaccent" unicode="&#x122;" horiz-adv-x="793" 
d="M614 73h-1q-31 -35 -89.5 -61t-122.5 -26q-152 0 -257.5 103.5t-105.5 260.5t105.5 260.5t257.5 103.5q103 -1 186.5 -50.5t131.5 -134.5l-142 -37q-28 39 -76 62t-100 23q-98 0 -158 -63.5t-60 -163.5q0 -103 63.5 -165.5t162.5 -62.5q82 0 133.5 36t71.5 84v30h-194
v113h313v-385h-120v17.5v15v12t0.5 9.5t0.5 7v5.5v3.5v2v1zM381 -167l12 4l-12 2q-19 2 -34.5 17.5t-15.5 40.5q0 27 19 45.5t46 18.5t45.5 -20.5t18.5 -52.5q0 -42 -27 -87.5t-68 -79.5h-49q23 17 44 52.5t21 59.5z" />
    <glyph glyph-name="Gdotaccent" unicode="&#x120;" horiz-adv-x="793" 
d="M398 766q-27 0 -46.5 19t-19.5 47q0 27 19.5 46t46.5 19t46 -19t19 -46q0 -28 -19 -47t-46 -19zM614 73h-1q-31 -35 -89.5 -61t-122.5 -26q-152 0 -257.5 103.5t-105.5 260.5t105.5 260.5t257.5 103.5q103 -1 186.5 -50.5t131.5 -134.5l-142 -37q-28 39 -76 62t-100 23
q-98 0 -158 -63.5t-60 -163.5q0 -103 63.5 -165.5t162.5 -62.5q82 0 133.5 36t71.5 84v30h-194v113h313v-385h-120v17.5v15v12t0.5 9.5t0.5 7v5.5v3.5v2v1z" />
    <glyph glyph-name="Germandbls" unicode="&#x1e9e;" horiz-adv-x="810" 
d="M83 700h622l-105 -196q-49 -93 -49 -94l1 -1h5q89 1 152 -58.5t63 -144.5q0 -94 -66.5 -157t-176.5 -63q-79 0 -143.5 37t-99.5 99l132 36q41 -54 104 -54q53 0 81.5 29.5t28.5 74.5q0 42 -29.5 71t-83.5 29h-101v101l46 91q6 13 15 31t15 29l5 11l-1 1h-4
q-4 0 -10.5 -0.5t-14.5 -1t-18.5 -0.5h-20.5h-208v-570h-139v700z" />
    <glyph glyph-name="Hbar" unicode="&#x126;" horiz-adv-x="747" 
d="M733 633v-114h-69v-519h-139v289h-303v-289h-139v519h-69v114h69v67h139v-67h303v67h139v-67h69zM525 420v99h-303v-99h303z" />
    <glyph glyph-name="Hcircumflex" unicode="&#x124;" horiz-adv-x="747" 
d="M370 830l-119 -99l-68 69l187 159l186 -159l-67 -69zM525 700h139v-700h-139v289h-303v-289h-139v700h139v-280h303v280z" />
    <glyph glyph-name="IJ" unicode="&#x132;" horiz-adv-x="962" 
d="M222 0h-139v700h139v-700zM755 700h139v-396q0 -151 -83 -234.5t-225 -83.5q-98 0 -175.5 50t-108.5 129l137 37q20 -41 58 -63.5t89 -22.5q80 0 124.5 48.5t44.5 133.5v402z" />
    <glyph glyph-name="Idotaccent" unicode="&#x130;" horiz-adv-x="305" 
d="M153 766q-27 0 -46.5 19t-19.5 47q0 27 19.5 46t46.5 19t46 -19t19 -46q0 -28 -19 -47t-46 -19zM222 0h-139v700h139v-700z" />
    <glyph glyph-name="Imacron" unicode="&#x12a;" horiz-adv-x="305" 
d="M-12 878h339v-108h-339v108zM222 0h-139v700h139v-700z" />
    <glyph glyph-name="Iogonek" unicode="&#x12e;" horiz-adv-x="305" 
d="M225 -97l73 -46q-24 -48 -68.5 -75t-96.5 -27q-77 0 -125 42t-48 113q0 60 41 102t82 46v642h139v-700h-43q-46 0 -83.5 -23t-37.5 -67q0 -28 20 -48t55 -20q63 0 92 61z" />
    <glyph glyph-name="Jcircumflex" unicode="&#x134;" horiz-adv-x="671" 
d="M344 800l187 159l186 -159l-67 -69l-119 99l-119 -99zM464 700h139v-396q0 -151 -83 -234.5t-225 -83.5q-98 0 -175.5 50t-108.5 129l137 37q20 -41 58 -63.5t89 -22.5q80 0 124.5 48.5t44.5 133.5v402z" />
    <glyph glyph-name="Kcommaaccent" unicode="&#x136;" horiz-adv-x="718" 
d="M392 406l302 -406h-165l-229 314l-78 -78v-236h-139v700h139v-138q0 -49 -0.5 -92t-0.5 -50v-15h1l10 11q11 11 36.5 37.5t53.5 54.5l192 192h171zM359 -163l-12 2q-19 2 -34.5 17.5t-15.5 40.5q0 27 19 45.5t46 18.5t45.5 -20.5t18.5 -52.5q0 -42 -27 -87.5t-68 -79.5
h-49q23 17 44 52.5t21 59.5z" />
    <glyph glyph-name="Lacute" unicode="&#x139;" horiz-adv-x="588" 
d="M325 834l-238 -103l-41 74l231 124zM222 130h346v-130h-485v700h139v-570z" />
    <glyph glyph-name="Lcaron" unicode="&#x13d;" horiz-adv-x="588" 
d="M392 579l-13 2q-21 2 -37 19t-16 44q0 28 20.5 48t49.5 20q28 0 48 -22t20 -56q0 -45 -29.5 -94.5t-72.5 -85.5h-52q25 18 47 56.5t22 64.5zM222 130h346v-130h-485v700h139v-570z" />
    <glyph glyph-name="Lcommaaccent" unicode="&#x13b;" horiz-adv-x="588" 
d="M222 130h346v-130h-485v700h139v-570zM328 -163l-12 2q-19 2 -34.5 17.5t-15.5 40.5q0 27 19 45.5t46 18.5t45.5 -20.5t18.5 -52.5q0 -42 -27 -87.5t-68 -79.5h-49q23 17 44 52.5t21 59.5z" />
    <glyph glyph-name="Ldot" unicode="&#x13f;" horiz-adv-x="588" 
d="M222 130h346v-130h-485v700h139v-570zM409 321q-27 0 -46 19t-19 47q0 27 19 46t46 19q28 0 47 -19t19 -46q0 -28 -19 -47t-47 -19z" />
    <glyph glyph-name="Lslash" unicode="&#x141;" horiz-adv-x="588" 
d="M222 130h346v-130h-485v700h139v-279l254 131v-132l-254 -130v-160z" />
    <glyph glyph-name="Nacute" unicode="&#x143;" horiz-adv-x="776" 
d="M504 929l48 -95l-238 -103l-41 74zM554 700h139v-700h-131l-199 270q-27 37 -63 87t-57 79l-21 30h-1v-31.5t0.5 -84.5t0.5 -124v-226h-139v700h131l203 -273q21 -27 55.5 -74.5t57.5 -80.5l24 -33h1v34t-0.5 85.5t-0.5 112.5v229z" />
    <glyph glyph-name="Ncaron" unicode="&#x147;" horiz-adv-x="776" 
d="M202 883l187 -159l186 159l-67 69l-119 -99l-119 99zM554 700h139v-700h-131l-199 270q-27 37 -63 87t-57 79l-21 30h-1v-31.5t0.5 -84.5t0.5 -124v-226h-139v700h131l203 -273q21 -27 55.5 -74.5t57.5 -80.5l24 -33h1v34t-0.5 85.5t-0.5 112.5v229z" />
    <glyph glyph-name="Ncommaaccent" unicode="&#x145;" horiz-adv-x="776" 
d="M554 700h139v-700h-131l-199 270q-27 37 -63 87t-57 79l-21 30h-1v-31.5t0.5 -84.5t0.5 -124v-226h-139v700h131l203 -273q21 -27 55.5 -74.5t57.5 -80.5l24 -33h1v34t-0.5 85.5t-0.5 112.5v229zM380 -167l12 4l-12 2q-19 2 -34.5 17.5t-15.5 40.5q0 27 19 45.5t46 18.5
t45.5 -20.5t18.5 -52.5q0 -42 -27 -87.5t-68 -79.5h-49q23 17 44 52.5t21 59.5z" />
    <glyph glyph-name="Ohungarumlaut" unicode="&#x150;" horiz-adv-x="803" 
d="M405 796l-152 -65l-40 74l231 124l40 -79l147 79l48 -95l-239 -103zM401 714q153 0 258.5 -103.5t105.5 -260.5t-105.5 -260.5t-258.5 -103.5q-152 0 -257.5 103.5t-105.5 260.5t105.5 260.5t257.5 103.5zM401 123q97 0 158 63.5t61 163.5q0 101 -61 164t-158 63
q-96 0 -157 -63t-61 -164q0 -100 61 -163.5t157 -63.5z" />
    <glyph glyph-name="Omacron" unicode="&#x14c;" horiz-adv-x="803" 
d="M241 878h339v-108h-339v108zM38 350q0 157 105.5 260.5t257.5 103.5q153 0 258.5 -103.5t105.5 -260.5t-105.5 -260.5t-258.5 -103.5q-152 0 -257.5 103.5t-105.5 260.5zM183 350q0 -100 61 -163.5t157 -63.5q97 0 158 63.5t61 163.5q0 101 -61 164t-158 63
q-96 0 -157 -63t-61 -164z" />
    <glyph glyph-name="Racute" unicode="&#x154;" horiz-adv-x="666" 
d="M481 834l-238 -103l-41 74l231 124zM631 0h-156l-139 239h-8h-106v-239h-139v700h245q128 0 201.5 -63.5t73.5 -170.5q0 -147 -132 -201zM222 570v-207h124q55 0 84 30t29 73q0 44 -29.5 74t-83.5 30h-124z" />
    <glyph glyph-name="Rcaron" unicode="&#x158;" horiz-adv-x="666" 
d="M504 883l-186 -159l-187 159l68 69l119 -99l119 99zM631 0h-156l-139 239h-8h-106v-239h-139v700h245q128 0 201.5 -63.5t73.5 -170.5q0 -147 -132 -201zM222 570v-207h124q55 0 84 30t29 73q0 44 -29.5 74t-83.5 30h-124z" />
    <glyph glyph-name="Rcommaaccent" unicode="&#x156;" horiz-adv-x="666" 
d="M471 265l160 -265h-156l-139 239h-8h-106v-239h-139v700h245q128 0 201.5 -63.5t73.5 -170.5q0 -147 -132 -201zM222 570v-207h124q55 0 84 30t29 73q0 44 -29.5 74t-83.5 30h-124zM331 -163l-12 2q-19 2 -34.5 17.5t-15.5 40.5q0 27 19 45.5t46 18.5t45.5 -20.5
t18.5 -52.5q0 -42 -27 -87.5t-68 -79.5h-49q23 17 44 52.5t21 59.5z" />
    <glyph glyph-name="Sacute" unicode="&#x15a;" horiz-adv-x="608" 
d="M430 929l48 -95l-238 -103l-41 74zM571 524l-134 -37q-12 50 -51 78t-88 28q-47 0 -76 -20.5t-29 -52.5q0 -9 2.5 -17t9 -15.5t12 -13t17.5 -12t19.5 -10.5t24 -10t25.5 -9l28.5 -9.5l28.5 -9.5q45 -16 78.5 -31.5t68.5 -41t53.5 -61t18.5 -80.5q0 -94 -74.5 -154
t-193.5 -60q-108 0 -182.5 56.5t-103.5 153.5l134 36q12 -51 54 -86.5t104 -35.5q54 0 84 23.5t30 60.5q0 17 -8.5 31.5t-19 24t-33 20t-38 16t-47.5 15.5t-48 16q-40 14 -66 26.5t-57.5 35.5t-47.5 56.5t-16 76.5q0 83 73.5 142.5t182.5 59.5q97 0 169.5 -53t95.5 -137z
" />
    <glyph glyph-name="Scedilla" unicode="&#x15e;" horiz-adv-x="608" 
d="M571 524l-134 -37q-12 50 -51 78t-88 28q-47 0 -76 -20.5t-29 -52.5q0 -9 2.5 -17t9 -15.5t12 -13t17.5 -12t19.5 -10.5t24 -10t25.5 -9l28.5 -9.5l28.5 -9.5q45 -16 78.5 -31.5t68.5 -41t53.5 -61t18.5 -80.5q0 -83 -59 -140.5t-158 -70.5l-16 -43q44 1 75.5 -27
t31.5 -74q0 -53 -32.5 -79.5t-83.5 -26.5h-106l29 74h77q38 0 38 31q0 29 -38 31h-92l39 112q-98 7 -164.5 62.5t-94.5 146.5l134 36q12 -51 54 -86.5t104 -35.5q54 0 84 23.5t30 60.5q0 17 -8.5 31.5t-19 24t-33 20t-38 16t-47.5 15.5t-48 16q-40 14 -66 26.5t-57.5 35.5
t-47.5 56.5t-16 76.5q0 83 73.5 142.5t182.5 59.5q97 0 169.5 -53t95.5 -137z" />
    <glyph glyph-name="Scircumflex" unicode="&#x15c;" horiz-adv-x="608" 
d="M125 800l187 159l186 -159l-67 -69l-119 99l-119 -99zM571 524l-134 -37q-12 50 -51 78t-88 28q-47 0 -76 -20.5t-29 -52.5q0 -9 2.5 -17t9 -15.5t12 -13t17.5 -12t19.5 -10.5t24 -10t25.5 -9l28.5 -9.5l28.5 -9.5q45 -16 78.5 -31.5t68.5 -41t53.5 -61t18.5 -80.5
q0 -94 -74.5 -154t-193.5 -60q-108 0 -182.5 56.5t-103.5 153.5l134 36q12 -51 54 -86.5t104 -35.5q54 0 84 23.5t30 60.5q0 17 -8.5 31.5t-19 24t-33 20t-38 16t-47.5 15.5t-48 16q-40 14 -66 26.5t-57.5 35.5t-47.5 56.5t-16 76.5q0 83 73.5 142.5t182.5 59.5
q97 0 169.5 -53t95.5 -137z" />
    <glyph glyph-name="Scommaaccent" unicode="&#x218;" horiz-adv-x="608" 
d="M571 524l-134 -37q-12 50 -51 78t-88 28q-47 0 -76 -20.5t-29 -52.5q0 -9 2.5 -17t9 -15.5t12 -13t17.5 -12t19.5 -10.5t24 -10t25.5 -9l28.5 -9.5l28.5 -9.5q45 -16 78.5 -31.5t68.5 -41t53.5 -61t18.5 -80.5q0 -94 -74.5 -154t-193.5 -60q-108 0 -182.5 56.5
t-103.5 153.5l134 36q12 -51 54 -86.5t104 -35.5q54 0 84 23.5t30 60.5q0 17 -8.5 31.5t-19 24t-33 20t-38 16t-47.5 15.5t-48 16q-40 14 -66 26.5t-57.5 35.5t-47.5 56.5t-16 76.5q0 83 73.5 142.5t182.5 59.5q97 0 169.5 -53t95.5 -137zM285 -167l12 4l-12 2
q-19 2 -34.5 17.5t-15.5 40.5q0 27 19 45.5t46 18.5t45.5 -20.5t18.5 -52.5q0 -42 -27 -87.5t-68 -79.5h-49q23 17 44 52.5t21 59.5z" />
    <glyph glyph-name="Tbar" unicode="&#x166;" horiz-adv-x="605" 
d="M591 570h-220v-150h109v-106h-109v-314h-139v314h-109v106h109v150h-218v130h577v-130z" />
    <glyph glyph-name="Tcaron" unicode="&#x164;" horiz-adv-x="605" 
d="M502 883l-186 -159l-187 159l68 69l119 -99l119 99zM14 700h577v-130h-220v-570h-139v570h-218v130z" />
    <glyph glyph-name="Tcedilla" unicode="&#x162;" horiz-adv-x="605" 
d="M371 0h-40l-20 -54q44 1 75.5 -27t31.5 -74q0 -53 -32.5 -79.5t-83.5 -26.5h-106l29 74h77q38 0 38 31q0 29 -38 31h-92l43 125h-21v570h-218v130h577v-130h-220v-570z" />
    <glyph glyph-name="uni021A" unicode="&#x21a;" horiz-adv-x="605" 
d="M14 700h577v-130h-220v-570h-139v570h-218v130zM308 -163l-12 2q-19 2 -34.5 17.5t-15.5 40.5q0 27 19 45.5t46 18.5t45.5 -20.5t18.5 -52.5q0 -42 -27 -87.5t-68 -79.5h-49q23 17 44 52.5t21 59.5z" />
    <glyph glyph-name="Ubreve" unicode="&#x16c;" horiz-adv-x="740" 
d="M191 888h102q6 -25 27.5 -42t51.5 -17q29 0 50.5 17.5t27.5 41.5h100q-14 -64 -63.5 -104.5t-114.5 -40.5q-69 0 -118 40t-63 105zM532 700h140v-396q0 -152 -81 -235t-221 -83q-141 0 -221.5 83t-80.5 235v396h139v-394q0 -190 163 -190q162 0 162 190v394z" />
    <glyph glyph-name="Uhungarumlaut" unicode="&#x170;" horiz-adv-x="740" 
d="M370 796l-152 -65l-40 74l231 124l40 -79l147 79l48 -95l-239 -103zM532 700h140v-396q0 -152 -81 -235t-221 -83q-141 0 -221.5 83t-80.5 235v396h139v-394q0 -190 163 -190q162 0 162 190v394z" />
    <glyph glyph-name="Umacron" unicode="&#x16a;" horiz-adv-x="740" 
d="M206 878h339v-108h-339v108zM532 700h140v-396q0 -152 -81 -235t-221 -83q-141 0 -221.5 83t-80.5 235v396h139v-394q0 -190 163 -190q162 0 162 190v394z" />
    <glyph glyph-name="Uogonek" unicode="&#x172;" horiz-adv-x="740" 
d="M672 700v-396q0 -121 -51 -198.5t-144 -104.5q-41 -17 -64.5 -38.5t-23.5 -56.5q0 -27 18.5 -45.5t49.5 -18.5q25 0 49.5 18t37.5 44l71 -47q-21 -44 -65.5 -73t-92.5 -29q-70 0 -117.5 38.5t-47.5 101.5q0 55 44 92q-126 11 -197 92.5t-71 224.5v396h139v-394
q0 -190 163 -190q162 0 162 190v394h140z" />
    <glyph glyph-name="Uring" unicode="&#x16e;" horiz-adv-x="740" 
d="M371 681q-56 0 -96.5 40.5t-40.5 96.5t40.5 96t96.5 40t96.5 -40t40.5 -96t-40.5 -96.5t-96.5 -40.5zM371 764q23 0 39.5 16t16.5 38q0 24 -16.5 40.5t-39.5 16.5q-22 0 -38.5 -16.5t-16.5 -40.5q0 -22 16.5 -38t38.5 -16zM532 700h140v-396q0 -152 -81 -235t-221 -83
q-141 0 -221.5 83t-80.5 235v396h139v-394q0 -190 163 -190q162 0 162 190v394z" />
    <glyph glyph-name="Wacute" unicode="&#x1e82;" horiz-adv-x="1027" 
d="M628 929l48 -95l-238 -103l-41 74zM858 700h147l-220 -700h-129l-108 338q-11 35 -19.5 66t-11.5 44l-3 14h-1l-3 -14q-3 -13 -11 -44t-19 -66l-108 -338h-130l-220 700h148l110 -378q7 -27 14 -55.5t10 -40.5l4 -13h1l3 13q4 13 12.5 40.5t18.5 55.5l106 303h129
l106 -303q10 -28 18.5 -55.5t11.5 -40.5l4 -13h1l3 13q4 12 11 40.5t15 55.5z" />
    <glyph glyph-name="Wcircumflex" unicode="&#x174;" horiz-adv-x="1027" 
d="M323 800l187 159l186 -159l-67 -69l-119 99l-119 -99zM858 700h147l-220 -700h-129l-108 338q-11 35 -19.5 66t-11.5 44l-3 14h-1l-3 -14q-3 -13 -11 -44t-19 -66l-108 -338h-130l-220 700h148l110 -378q7 -27 14 -55.5t10 -40.5l4 -13h1l3 13q4 13 12.5 40.5t18.5 55.5
l106 303h129l106 -303q10 -28 18.5 -55.5t11.5 -40.5l4 -13h1l3 13q4 12 11 40.5t15 55.5z" />
    <glyph glyph-name="Wdieresis" unicode="&#x1e84;" horiz-adv-x="1027" 
d="M381 767q-29 0 -48 18.5t-19 46.5q0 27 19.5 46t47.5 19q27 0 46 -19t19 -46q0 -28 -19 -46.5t-46 -18.5zM639 767q-28 0 -47 18.5t-19 46.5q0 27 19 46t47 19q27 0 46 -19t19 -46q0 -28 -19 -46.5t-46 -18.5zM858 700h147l-220 -700h-129l-108 338q-11 35 -19.5 66
t-11.5 44l-3 14h-1l-3 -14q-3 -13 -11 -44t-19 -66l-108 -338h-130l-220 700h148l110 -378q7 -27 14 -55.5t10 -40.5l4 -13h1l3 13q4 13 12.5 40.5t18.5 55.5l106 303h129l106 -303q10 -28 18.5 -55.5t11.5 -40.5l4 -13h1l3 13q4 12 11 40.5t15 55.5z" />
    <glyph glyph-name="Wgrave" unicode="&#x1e80;" horiz-adv-x="1027" 
d="M567 731l-239 103l49 95l230 -124zM858 700h147l-220 -700h-129l-108 338q-11 35 -19.5 66t-11.5 44l-3 14h-1l-3 -14q-3 -13 -11 -44t-19 -66l-108 -338h-130l-220 700h148l110 -378q7 -27 14 -55.5t10 -40.5l4 -13h1l3 13q4 13 12.5 40.5t18.5 55.5l106 303h129
l106 -303q10 -28 18.5 -55.5t11.5 -40.5l4 -13h1l3 13q4 12 11 40.5t15 55.5z" />
    <glyph glyph-name="Ycircumflex" unicode="&#x176;" horiz-adv-x="701" 
d="M160 800l187 159l186 -159l-67 -69l-119 99l-119 -99zM532 700h157l-270 -379v-321h-138v321l-269 379h156l144 -201q35 -52 38 -52h1q3 0 38 52z" />
    <glyph glyph-name="Ygrave" unicode="&#x1ef2;" horiz-adv-x="701" 
d="M404 731l-239 103l49 95l230 -124zM532 700h157l-270 -379v-321h-138v321l-269 379h156l144 -201q35 -52 38 -52h1q3 0 38 52z" />
    <glyph glyph-name="Zacute" unicode="&#x179;" horiz-adv-x="705" 
d="M475 929l48 -95l-238 -103l-41 74zM645 700v-130l-336 -378q-13 -14 -28.5 -30.5t-23.5 -25.5l-8 -8l1 -1h3q3 0 8 0.5t11.5 0.5t15.5 0.5t19 1t21.5 0.5h23.5h293v-130h-585v130l347 383q10 11 25.5 25.5t25.5 23.5l10 9l-1 1h-7q-6 0 -16.5 -0.5t-23.5 -1t-28 -0.5h-28
h-294v130h575z" />
    <glyph glyph-name="Zdotaccent" unicode="&#x17b;" horiz-adv-x="705" 
d="M360 766q-27 0 -46.5 19t-19.5 47q0 27 19.5 46t46.5 19t46 -19t19 -46q0 -28 -19 -47t-46 -19zM645 700v-130l-336 -378q-13 -14 -28.5 -30.5t-23.5 -25.5l-8 -8l1 -1h3q3 0 8 0.5t11.5 0.5t15.5 0.5t19 1t21.5 0.5h23.5h293v-130h-585v130l347 383q10 11 25.5 25.5
t25.5 23.5l10 9l-1 1h-7q-6 0 -16.5 -0.5t-23.5 -1t-28 -0.5h-28h-294v130h575z" />
    <glyph glyph-name="abreve" unicode="&#x103;" horiz-adv-x="719" 
d="M438 888h100q-14 -64 -63.5 -104.5t-114.5 -40.5q-69 0 -118 40t-63 105h102q6 -25 27.5 -42t51.5 -17q29 0 50.5 17.5t27.5 41.5zM563 0l-52 134h-303l-52 -134h-150l288 700h131l288 -700h-150zM256 257h207l-69 177q-6 17 -14.5 41.5t-13.5 40.5l-6 15h-1l-5 -15
q-6 -16 -14.5 -40.5t-14.5 -41.5z" />
    <glyph glyph-name="amacron" unicode="&#x101;" horiz-adv-x="719" 
d="M533 878v-108h-339v108h339zM563 0l-52 134h-303l-52 -134h-150l288 700h131l288 -700h-150zM256 257h207l-69 177q-6 17 -14.5 41.5t-13.5 40.5l-6 15h-1l-5 -15q-6 -16 -14.5 -40.5t-14.5 -41.5z" />
    <glyph glyph-name="aogonek" unicode="&#x105;" horiz-adv-x="719" 
d="M687 -97l73 -46q-24 -48 -68.5 -75t-96.5 -27q-77 0 -125 42t-48 113q0 58 39 99.5t80 47.5l-30 77h-303l-52 -134h-150l288 700h131l288 -700h-72q-46 0 -83.5 -23t-37.5 -67q0 -28 20 -48t55 -20q63 0 92 61zM256 257h207l-69 177q-6 17 -14.5 41.5t-13.5 40.5l-6 15
h-1l-5 -15q-6 -16 -14.5 -40.5t-14.5 -41.5z" />
    <glyph glyph-name="cacute" unicode="&#x107;" horiz-adv-x="756" 
d="M514 929l48 -95l-238 -103l-41 74zM719 529l-142 -37q-28 39 -76 62t-100 23q-98 0 -158 -63.5t-60 -163.5q0 -101 61.5 -163t156.5 -62q59 0 110.5 28.5t78.5 74.5l140 -37q-44 -94 -132 -149.5t-197 -55.5q-152 0 -257.5 103.5t-105.5 260.5t105.5 260.5t257.5 103.5
q102 0 186.5 -50t131.5 -135z" />
    <glyph glyph-name="ccaron" unicode="&#x10d;" horiz-adv-x="756" 
d="M212 883l187 -159l186 159l-67 69l-119 -99l-119 99zM719 529l-142 -37q-28 39 -76 62t-100 23q-98 0 -158 -63.5t-60 -163.5q0 -101 61.5 -163t156.5 -62q59 0 110.5 28.5t78.5 74.5l140 -37q-44 -94 -132 -149.5t-197 -55.5q-152 0 -257.5 103.5t-105.5 260.5
t105.5 260.5t257.5 103.5q102 0 186.5 -50t131.5 -135z" />
    <glyph glyph-name="cdotaccent" unicode="&#x10b;" horiz-adv-x="756" 
d="M399 766q-27 0 -46.5 19t-19.5 47q0 27 19.5 46t46.5 19t46 -19t19 -46q0 -28 -19 -47t-46 -19zM719 529l-142 -37q-28 39 -76 62t-100 23q-98 0 -158 -63.5t-60 -163.5q0 -101 61.5 -163t156.5 -62q59 0 110.5 28.5t78.5 74.5l140 -37q-44 -94 -132 -149.5t-197 -55.5
q-152 0 -257.5 103.5t-105.5 260.5t105.5 260.5t257.5 103.5q102 0 186.5 -50t131.5 -135z" />
    <glyph glyph-name="dcaron" unicode="&#x10f;" horiz-adv-x="785" 
d="M198 883l187 -159l186 159l-67 69l-119 -99l-119 99zM83 700h302q153 0 257.5 -99t104.5 -254q0 -154 -104 -250.5t-256 -96.5h-304v700zM222 130h165q91 0 153.5 59t62.5 158t-63.5 161t-154.5 62h-163v-440z" />
    <glyph glyph-name="dcroat" unicode="&#x111;" horiz-adv-x="796" 
d="M94 700h302q153 0 257.5 -99t104.5 -254q0 -154 -104 -250.5t-256 -96.5h-304v292h-56v125h56v283zM233 130h165q91 0 153.5 59t62.5 158t-63.5 161t-154.5 62h-163v-153h131v-125h-131v-162z" />
    <glyph glyph-name="dotlessi" unicode="&#x131;" horiz-adv-x="305" 
d="M222 0h-139v700h139v-700z" />
    <glyph glyph-name="dotlessj" unicode="&#x237;" horiz-adv-x="671" 
d="M464 700h139v-396q0 -151 -83 -234.5t-225 -83.5q-98 0 -175.5 50t-108.5 129l137 37q20 -41 58 -63.5t89 -22.5q80 0 124.5 48.5t44.5 133.5v402z" />
    <glyph glyph-name="ecaron" unicode="&#x11b;" horiz-adv-x="652" 
d="M528 883l-186 -159l-187 159l68 69l119 -99l119 99zM222 130h362v-130h-501v700h495v-130h-356v-149h281v-122h-281v-169z" />
    <glyph glyph-name="edotaccent" unicode="&#x117;" horiz-adv-x="652" 
d="M343 766q-27 0 -46.5 19t-19.5 47q0 27 19.5 46t46.5 19t46 -19t19 -46q0 -28 -19 -47t-46 -19zM222 130h362v-130h-501v700h495v-130h-356v-149h281v-122h-281v-169z" />
    <glyph glyph-name="emacron" unicode="&#x113;" horiz-adv-x="652" 
d="M516 878v-108h-339v108h339zM222 130h362v-130h-501v700h495v-130h-356v-149h281v-122h-281v-169z" />
    <glyph glyph-name="eng" unicode="&#x14b;" horiz-adv-x="776" 
d="M554 700h139v-700q0 -101 -62 -167t-157 -66h-41v112h29q46 0 73 33t27 88l-199 270q-27 37 -63 87t-57 79l-21 30h-1v-31.5t0.5 -84.5t0.5 -124v-226h-139v700h131l203 -273q21 -27 55.5 -74.5t57.5 -80.5l24 -33h1v34t-0.5 85.5t-0.5 112.5v229z" />
    <glyph glyph-name="eogonek" unicode="&#x119;" horiz-adv-x="652" 
d="M527 -97l73 -46q-24 -48 -68.5 -75t-96.5 -27q-77 0 -125 42t-48 113q0 49 31 90h-210v700h495v-130h-356v-149h281v-122h-281v-169h362v-130h-103q-46 0 -83.5 -23t-37.5 -67q0 -28 20 -48t55 -20q63 0 92 61z" />
    <glyph glyph-name="gbreve" unicode="&#x11f;" horiz-adv-x="793" 
d="M218 888h102q6 -25 27.5 -42t51.5 -17q29 0 50.5 17.5t27.5 41.5h100q-14 -64 -63.5 -104.5t-114.5 -40.5q-69 0 -118 40t-63 105zM614 73h-1q-31 -35 -89.5 -61t-122.5 -26q-152 0 -257.5 103.5t-105.5 260.5t105.5 260.5t257.5 103.5q103 -1 186.5 -50.5t131.5 -134.5
l-142 -37q-28 39 -76 62t-100 23q-98 0 -158 -63.5t-60 -163.5q0 -103 63.5 -165.5t162.5 -62.5q82 0 133.5 36t71.5 84v30h-194v113h313v-385h-120v17.5v15v12t0.5 9.5t0.5 7v5.5v3.5v2v1z" />
    <glyph glyph-name="gcircumflex" unicode="&#x11d;" horiz-adv-x="793" 
d="M208 800l187 159l186 -159l-67 -69l-119 99l-119 -99zM614 73h-1q-31 -35 -89.5 -61t-122.5 -26q-152 0 -257.5 103.5t-105.5 260.5t105.5 260.5t257.5 103.5q103 -1 186.5 -50.5t131.5 -134.5l-142 -37q-28 39 -76 62t-100 23q-98 0 -158 -63.5t-60 -163.5
q0 -103 63.5 -165.5t162.5 -62.5q82 0 133.5 36t71.5 84v30h-194v113h313v-385h-120v17.5v15v12t0.5 9.5t0.5 7v5.5v3.5v2v1z" />
    <glyph glyph-name="gcommaaccent" unicode="&#x123;" horiz-adv-x="793" 
d="M614 73h-1q-31 -35 -89.5 -61t-122.5 -26q-152 0 -257.5 103.5t-105.5 260.5t105.5 260.5t257.5 103.5q103 -1 186.5 -50.5t131.5 -134.5l-142 -37q-28 39 -76 62t-100 23q-98 0 -158 -63.5t-60 -163.5q0 -103 63.5 -165.5t162.5 -62.5q82 0 133.5 36t71.5 84v30h-194
v113h313v-385h-120v17.5v15v12t0.5 9.5t0.5 7v5.5v3.5v2v1zM381 -167l12 4l-12 2q-19 2 -34.5 17.5t-15.5 40.5q0 27 19 45.5t46 18.5t45.5 -20.5t18.5 -52.5q0 -42 -27 -87.5t-68 -79.5h-49q23 17 44 52.5t21 59.5z" />
    <glyph glyph-name="gdotaccent" unicode="&#x121;" horiz-adv-x="793" 
d="M398 766q-27 0 -46.5 19t-19.5 47q0 27 19.5 46t46.5 19t46 -19t19 -46q0 -28 -19 -47t-46 -19zM614 73h-1q-31 -35 -89.5 -61t-122.5 -26q-152 0 -257.5 103.5t-105.5 260.5t105.5 260.5t257.5 103.5q103 -1 186.5 -50.5t131.5 -134.5l-142 -37q-28 39 -76 62t-100 23
q-98 0 -158 -63.5t-60 -163.5q0 -103 63.5 -165.5t162.5 -62.5q82 0 133.5 36t71.5 84v30h-194v113h313v-385h-120v17.5v15v12t0.5 9.5t0.5 7v5.5v3.5v2v1z" />
    <glyph glyph-name="hbar" unicode="&#x127;" horiz-adv-x="747" 
d="M733 633v-114h-69v-519h-139v289h-303v-289h-139v519h-69v114h69v67h139v-67h303v67h139v-67h69zM525 420v99h-303v-99h303z" />
    <glyph glyph-name="hcircumflex" unicode="&#x125;" horiz-adv-x="747" 
d="M370 830l-119 -99l-68 69l187 159l186 -159l-67 -69zM525 700h139v-700h-139v289h-303v-289h-139v700h139v-280h303v280z" />
    <glyph glyph-name="ij" unicode="&#x133;" horiz-adv-x="962" 
d="M222 0h-139v700h139v-700zM755 700h139v-396q0 -151 -83 -234.5t-225 -83.5q-98 0 -175.5 50t-108.5 129l137 37q20 -41 58 -63.5t89 -22.5q80 0 124.5 48.5t44.5 133.5v402z" />
    <glyph glyph-name="imacron" unicode="&#x12b;" horiz-adv-x="305" 
d="M-12 878h339v-108h-339v108zM222 0h-139v700h139v-700z" />
    <glyph glyph-name="iogonek" unicode="&#x12f;" horiz-adv-x="305" 
d="M225 -97l73 -46q-24 -48 -68.5 -75t-96.5 -27q-77 0 -125 42t-48 113q0 60 41 102t82 46v642h139v-700h-43q-46 0 -83.5 -23t-37.5 -67q0 -28 20 -48t55 -20q63 0 92 61z" />
    <glyph glyph-name="jcircumflex" unicode="&#x135;" horiz-adv-x="671" 
d="M344 800l187 159l186 -159l-67 -69l-119 99l-119 -99zM464 700h139v-396q0 -151 -83 -234.5t-225 -83.5q-98 0 -175.5 50t-108.5 129l137 37q20 -41 58 -63.5t89 -22.5q80 0 124.5 48.5t44.5 133.5v402z" />
    <glyph glyph-name="kcommaaccent" unicode="&#x137;" horiz-adv-x="718" 
d="M392 406l302 -406h-165l-229 314l-78 -78v-236h-139v700h139v-138q0 -49 -0.5 -92t-0.5 -50v-15h1l10 11q11 11 36.5 37.5t53.5 54.5l192 192h171zM360 -163l-12 2q-19 2 -34.5 17.5t-15.5 40.5q0 27 19 45.5t46 18.5t45.5 -20.5t18.5 -52.5q0 -42 -27 -87.5t-68 -79.5
h-49q23 17 44 52.5t21 59.5z" />
    <glyph glyph-name="lacute" unicode="&#x13a;" horiz-adv-x="588" 
d="M325 834l-238 -103l-41 74l231 124zM222 130h346v-130h-485v700h139v-570z" />
    <glyph glyph-name="lcaron" unicode="&#x13e;" horiz-adv-x="588" 
d="M374 582l-14 1q-20 3 -36.5 20t-16.5 43q0 29 20.5 49t49.5 20t49 -22t20 -57q0 -45 -29.5 -94.5t-72.5 -85.5h-53q25 18 47 57t22 64zM222 130h346v-130h-485v700h139v-570z" />
    <glyph glyph-name="lcommaaccent" unicode="&#x13c;" horiz-adv-x="588" 
d="M222 130h346v-130h-485v700h139v-570zM283 -163l-12 2q-19 2 -34.5 17.5t-15.5 40.5q0 27 19 45.5t46 18.5t45.5 -20.5t18.5 -52.5q0 -42 -27 -87.5t-68 -79.5h-49q23 17 44 52.5t21 59.5z" />
    <glyph glyph-name="ldot" unicode="&#x140;" horiz-adv-x="588" 
d="M222 130h346v-130h-485v700h139v-570zM409 321q-27 0 -46 19t-19 47q0 27 19 46t46 19q28 0 47 -19t19 -46q0 -28 -19 -47t-47 -19z" />
    <glyph glyph-name="lslash" unicode="&#x142;" horiz-adv-x="588" 
d="M222 130h346v-130h-485v700h139v-279l254 131v-132l-254 -130v-160z" />
    <glyph glyph-name="nacute" unicode="&#x144;" horiz-adv-x="776" 
d="M504 929l48 -95l-238 -103l-41 74zM554 700h139v-700h-131l-199 270q-27 37 -63 87t-57 79l-21 30h-1v-31.5t0.5 -84.5t0.5 -124v-226h-139v700h131l203 -273q21 -27 55.5 -74.5t57.5 -80.5l24 -33h1v34t-0.5 85.5t-0.5 112.5v229z" />
    <glyph glyph-name="ncaron" unicode="&#x148;" horiz-adv-x="776" 
d="M202 883l187 -159l186 159l-67 69l-119 -99l-119 99zM554 700h139v-700h-131l-199 270q-27 37 -63 87t-57 79l-21 30h-1v-31.5t0.5 -84.5t0.5 -124v-226h-139v700h131l203 -273q21 -27 55.5 -74.5t57.5 -80.5l24 -33h1v34t-0.5 85.5t-0.5 112.5v229z" />
    <glyph glyph-name="ncommaaccent" unicode="&#x146;" horiz-adv-x="776" 
d="M554 700h139v-700h-131l-199 270q-27 37 -63 87t-57 79l-21 30h-1v-31.5t0.5 -84.5t0.5 -124v-226h-139v700h131l203 -273q21 -27 55.5 -74.5t57.5 -80.5l24 -33h1v34t-0.5 85.5t-0.5 112.5v229zM380 -167l12 4l-12 2q-19 2 -34.5 17.5t-15.5 40.5q0 27 19 45.5t46 18.5
t45.5 -20.5t18.5 -52.5q0 -42 -27 -87.5t-68 -79.5h-49q23 17 44 52.5t21 59.5z" />
    <glyph glyph-name="ohungarumlaut" unicode="&#x151;" horiz-adv-x="803" 
d="M403 796l-152 -65l-40 74l231 124l40 -79l147 79l48 -95l-239 -103zM401 714q153 0 258.5 -103.5t105.5 -260.5t-105.5 -260.5t-258.5 -103.5q-152 0 -257.5 103.5t-105.5 260.5t105.5 260.5t257.5 103.5zM401 123q97 0 158 63.5t61 163.5q0 101 -61 164t-158 63
q-96 0 -157 -63t-61 -164q0 -100 61 -163.5t157 -63.5z" />
    <glyph glyph-name="omacron" unicode="&#x14d;" horiz-adv-x="803" 
d="M239 878h339v-108h-339v108zM38 350q0 157 105.5 260.5t257.5 103.5q153 0 258.5 -103.5t105.5 -260.5t-105.5 -260.5t-258.5 -103.5q-152 0 -257.5 103.5t-105.5 260.5zM183 350q0 -100 61 -163.5t157 -63.5q97 0 158 63.5t61 163.5q0 101 -61 164t-158 63
q-96 0 -157 -63t-61 -164z" />
    <glyph glyph-name="racute" unicode="&#x155;" horiz-adv-x="666" 
d="M489 834l-238 -103l-41 74l231 124zM631 0h-156l-139 239h-8h-106v-239h-139v700h245q128 0 201.5 -63.5t73.5 -170.5q0 -147 -132 -201zM222 570v-207h124q55 0 84 30t29 73q0 44 -29.5 74t-83.5 30h-124z" />
    <glyph glyph-name="rcaron" unicode="&#x159;" horiz-adv-x="666" 
d="M504 883l-186 -159l-187 159l68 69l119 -99l119 99zM631 0h-156l-139 239h-8h-106v-239h-139v700h245q128 0 201.5 -63.5t73.5 -170.5q0 -147 -132 -201zM222 570v-207h124q55 0 84 30t29 73q0 44 -29.5 74t-83.5 30h-124z" />
    <glyph glyph-name="rcommaaccent" unicode="&#x157;" horiz-adv-x="666" 
d="M471 265l160 -265h-156l-139 239h-8h-106v-239h-139v700h245q128 0 201.5 -63.5t73.5 -170.5q0 -147 -132 -201zM222 570v-207h124q55 0 84 30t29 73q0 44 -29.5 74t-83.5 30h-124zM343 -163l-12 2q-19 2 -34.5 17.5t-15.5 40.5q0 27 19 45.5t46 18.5t45.5 -20.5
t18.5 -52.5q0 -42 -27 -87.5t-68 -79.5h-49q23 17 44 52.5t21 59.5z" />
    <glyph glyph-name="sacute" unicode="&#x15b;" horiz-adv-x="608" 
d="M438 929l48 -95l-238 -103l-41 74zM571 524l-134 -37q-12 50 -51 78t-88 28q-47 0 -76 -20.5t-29 -52.5q0 -9 2.5 -17t9 -15.5t12 -13t17.5 -12t19.5 -10.5t24 -10t25.5 -9l28.5 -9.5l28.5 -9.5q45 -16 78.5 -31.5t68.5 -41t53.5 -61t18.5 -80.5q0 -94 -74.5 -154
t-193.5 -60q-108 0 -182.5 56.5t-103.5 153.5l134 36q12 -51 54 -86.5t104 -35.5q54 0 84 23.5t30 60.5q0 17 -8.5 31.5t-19 24t-33 20t-38 16t-47.5 15.5t-48 16q-40 14 -66 26.5t-57.5 35.5t-47.5 56.5t-16 76.5q0 83 73.5 142.5t182.5 59.5q97 0 169.5 -53t95.5 -137z
" />
    <glyph glyph-name="scedilla" unicode="&#x15f;" horiz-adv-x="608" 
d="M571 524l-134 -37q-12 50 -51 78t-88 28q-47 0 -76 -20.5t-29 -52.5q0 -9 2.5 -17t9 -15.5t12 -13t17.5 -12t19.5 -10.5t24 -10t25.5 -9l28.5 -9.5l28.5 -9.5q45 -16 78.5 -31.5t68.5 -41t53.5 -61t18.5 -80.5q0 -82 -56.5 -138.5t-152.5 -71.5l-16 -44q44 1 75.5 -27
t31.5 -74q0 -53 -32.5 -79.5t-83.5 -26.5h-106l29 74h77q38 0 38 31q0 29 -38 31h-92l38 112q-100 5 -169 61t-97 148l134 36q12 -51 54 -86.5t104 -35.5q54 0 84 23.5t30 60.5q0 17 -8.5 31.5t-19 24t-33 20t-38 16t-47.5 15.5t-48 16q-40 14 -66 26.5t-57.5 35.5
t-47.5 56.5t-16 76.5q0 83 73.5 142.5t182.5 59.5q97 0 169.5 -53t95.5 -137z" />
    <glyph glyph-name="scircumflex" unicode="&#x15d;" horiz-adv-x="608" 
d="M125 800l187 159l186 -159l-67 -69l-119 99l-119 -99zM571 524l-134 -37q-12 50 -51 78t-88 28q-47 0 -76 -20.5t-29 -52.5q0 -9 2.5 -17t9 -15.5t12 -13t17.5 -12t19.5 -10.5t24 -10t25.5 -9l28.5 -9.5l28.5 -9.5q45 -16 78.5 -31.5t68.5 -41t53.5 -61t18.5 -80.5
q0 -94 -74.5 -154t-193.5 -60q-108 0 -182.5 56.5t-103.5 153.5l134 36q12 -51 54 -86.5t104 -35.5q54 0 84 23.5t30 60.5q0 17 -8.5 31.5t-19 24t-33 20t-38 16t-47.5 15.5t-48 16q-40 14 -66 26.5t-57.5 35.5t-47.5 56.5t-16 76.5q0 83 73.5 142.5t182.5 59.5
q97 0 169.5 -53t95.5 -137z" />
    <glyph glyph-name="scommaaccent" unicode="&#x219;" horiz-adv-x="608" 
d="M571 524l-134 -37q-12 50 -51 78t-88 28q-47 0 -76 -20.5t-29 -52.5q0 -9 2.5 -17t9 -15.5t12 -13t17.5 -12t19.5 -10.5t24 -10t25.5 -9l28.5 -9.5l28.5 -9.5q45 -16 78.5 -31.5t68.5 -41t53.5 -61t18.5 -80.5q0 -94 -74.5 -154t-193.5 -60q-108 0 -182.5 56.5
t-103.5 153.5l134 36q12 -51 54 -86.5t104 -35.5q54 0 84 23.5t30 60.5q0 17 -8.5 31.5t-19 24t-33 20t-38 16t-47.5 15.5t-48 16q-40 14 -66 26.5t-57.5 35.5t-47.5 56.5t-16 76.5q0 83 73.5 142.5t182.5 59.5q97 0 169.5 -53t95.5 -137zM285 -167l12 4l-12 2
q-19 2 -34.5 17.5t-15.5 40.5q0 27 19 45.5t46 18.5t45.5 -20.5t18.5 -52.5q0 -42 -27 -87.5t-68 -79.5h-49q23 17 44 52.5t21 59.5z" />
    <glyph glyph-name="tbar" unicode="&#x167;" horiz-adv-x="605" 
d="M591 570h-220v-150h109v-106h-109v-314h-139v314h-109v106h109v150h-218v130h577v-130z" />
    <glyph glyph-name="tcaron" unicode="&#x165;" horiz-adv-x="605" 
d="M502 883l-186 -159l-187 159l68 69l119 -99l119 99zM14 700h577v-130h-220v-570h-139v570h-218v130z" />
    <glyph glyph-name="tcedilla" unicode="&#x163;" horiz-adv-x="605" 
d="M371 0h-40l-20 -54q44 1 75.5 -27t31.5 -74q0 -53 -32.5 -79.5t-83.5 -26.5h-106l29 74h77q38 0 38 31q0 29 -38 31h-92l43 125h-21v570h-218v130h577v-130h-220v-570z" />
    <glyph glyph-name="uni021B" unicode="&#x21b;" horiz-adv-x="605" 
d="M14 700h577v-130h-220v-570h-139v570h-218v130zM282 -163l-12 2q-19 2 -34.5 17.5t-15.5 40.5q0 27 19 45.5t46 18.5t45.5 -20.5t18.5 -52.5q0 -42 -27 -87.5t-68 -79.5h-49q23 17 44 52.5t21 59.5z" />
    <glyph glyph-name="ubreve" unicode="&#x16d;" horiz-adv-x="740" 
d="M191 888h102q6 -25 27.5 -42t51.5 -17q29 0 50.5 17.5t27.5 41.5h100q-14 -64 -63.5 -104.5t-114.5 -40.5q-69 0 -118 40t-63 105zM532 700h140v-396q0 -152 -81 -235t-221 -83q-141 0 -221.5 83t-80.5 235v396h139v-394q0 -190 163 -190q162 0 162 190v394z" />
    <glyph glyph-name="uhungarumlaut" unicode="&#x171;" horiz-adv-x="740" 
d="M370 796l-152 -65l-40 74l231 124l40 -79l147 79l48 -95l-239 -103zM532 700h140v-396q0 -152 -81 -235t-221 -83q-141 0 -221.5 83t-80.5 235v396h139v-394q0 -190 163 -190q162 0 162 190v394z" />
    <glyph glyph-name="umacron" unicode="&#x16b;" horiz-adv-x="740" 
d="M206 878h339v-108h-339v108zM532 700h140v-396q0 -152 -81 -235t-221 -83q-141 0 -221.5 83t-80.5 235v396h139v-394q0 -190 163 -190q162 0 162 190v394z" />
    <glyph glyph-name="uogonek" unicode="&#x173;" horiz-adv-x="740" 
d="M672 700v-396q0 -121 -51 -198.5t-144 -104.5q-41 -17 -64.5 -38.5t-23.5 -56.5q0 -27 18.5 -45.5t49.5 -18.5q25 0 49.5 18t37.5 44l71 -47q-21 -44 -65.5 -73t-92.5 -29q-70 0 -117.5 38.5t-47.5 101.5q0 55 44 92q-126 11 -197 92.5t-71 224.5v396h139v-394
q0 -190 163 -190q162 0 162 190v394h140z" />
    <glyph glyph-name="uring" unicode="&#x16f;" horiz-adv-x="740" 
d="M371 681q-56 0 -96.5 40.5t-40.5 96.5t40.5 96t96.5 40t96.5 -40t40.5 -96t-40.5 -96.5t-96.5 -40.5zM371 764q23 0 39.5 16t16.5 38q0 24 -16.5 40.5t-39.5 16.5q-22 0 -38.5 -16.5t-16.5 -40.5q0 -22 16.5 -38t38.5 -16zM532 700h140v-396q0 -152 -81 -235t-221 -83
q-141 0 -221.5 83t-80.5 235v396h139v-394q0 -190 163 -190q162 0 162 190v394z" />
    <glyph glyph-name="wacute" unicode="&#x1e83;" horiz-adv-x="1027" 
d="M622 929l48 -95l-238 -103l-41 74zM858 700h147l-220 -700h-129l-108 338q-11 35 -19.5 66t-11.5 44l-3 14h-1l-3 -14q-3 -13 -11 -44t-19 -66l-108 -338h-130l-220 700h148l110 -378q7 -27 14 -55.5t10 -40.5l4 -13h1l3 13q4 13 12.5 40.5t18.5 55.5l106 303h129
l106 -303q10 -28 18.5 -55.5t11.5 -40.5l4 -13h1l3 13q4 12 11 40.5t15 55.5z" />
    <glyph glyph-name="wcircumflex" unicode="&#x175;" horiz-adv-x="1027" 
d="M317 800l187 159l186 -159l-67 -69l-119 99l-119 -99zM858 700h147l-220 -700h-129l-108 338q-11 35 -19.5 66t-11.5 44l-3 14h-1l-3 -14q-3 -13 -11 -44t-19 -66l-108 -338h-130l-220 700h148l110 -378q7 -27 14 -55.5t10 -40.5l4 -13h1l3 13q4 13 12.5 40.5t18.5 55.5
l106 303h129l106 -303q10 -28 18.5 -55.5t11.5 -40.5l4 -13h1l3 13q4 12 11 40.5t15 55.5z" />
    <glyph glyph-name="wdieresis" unicode="&#x1e85;" horiz-adv-x="1027" 
d="M375 767q-29 0 -48 18.5t-19 46.5q0 27 19.5 46t47.5 19q27 0 46 -19t19 -46q0 -28 -19 -46.5t-46 -18.5zM633 767q-28 0 -47 18.5t-19 46.5q0 27 19 46t47 19q27 0 46 -19t19 -46q0 -28 -19 -46.5t-46 -18.5zM858 700h147l-220 -700h-129l-108 338q-11 35 -19.5 66
t-11.5 44l-3 14h-1l-3 -14q-3 -13 -11 -44t-19 -66l-108 -338h-130l-220 700h148l110 -378q7 -27 14 -55.5t10 -40.5l4 -13h1l3 13q4 13 12.5 40.5t18.5 55.5l106 303h129l106 -303q10 -28 18.5 -55.5t11.5 -40.5l4 -13h1l3 13q4 12 11 40.5t15 55.5z" />
    <glyph glyph-name="wgrave" unicode="&#x1e81;" horiz-adv-x="1027" 
d="M561 731l-239 103l49 95l230 -124zM858 700h147l-220 -700h-129l-108 338q-11 35 -19.5 66t-11.5 44l-3 14h-1l-3 -14q-3 -13 -11 -44t-19 -66l-108 -338h-130l-220 700h148l110 -378q7 -27 14 -55.5t10 -40.5l4 -13h1l3 13q4 13 12.5 40.5t18.5 55.5l106 303h129
l106 -303q10 -28 18.5 -55.5t11.5 -40.5l4 -13h1l3 13q4 12 11 40.5t15 55.5z" />
    <glyph glyph-name="ycircumflex" unicode="&#x177;" horiz-adv-x="701" 
d="M161 800l187 159l186 -159l-67 -69l-119 99l-119 -99zM532 700h157l-270 -379v-321h-138v321l-269 379h156l144 -201q35 -52 38 -52h1q3 0 38 52z" />
    <glyph glyph-name="ygrave" unicode="&#x1ef3;" horiz-adv-x="701" 
d="M405 731l-239 103l49 95l230 -124zM532 700h157l-270 -379v-321h-138v321l-269 379h156l144 -201q35 -52 38 -52h1q3 0 38 52z" />
    <glyph glyph-name="zacute" unicode="&#x17a;" horiz-adv-x="705" 
d="M475 929l48 -95l-238 -103l-41 74zM645 700v-130l-336 -378q-13 -14 -28.5 -30.5t-23.5 -25.5l-8 -8l1 -1h3q3 0 8 0.5t11.5 0.5t15.5 0.5t19 1t21.5 0.5h23.5h293v-130h-585v130l347 383q10 11 25.5 25.5t25.5 23.5l10 9l-1 1h-7q-6 0 -16.5 -0.5t-23.5 -1t-28 -0.5h-28
h-294v130h575z" />
    <glyph glyph-name="zdotaccent" unicode="&#x17c;" horiz-adv-x="705" 
d="M360 766q-27 0 -46.5 19t-19.5 47q0 27 19.5 46t46.5 19t46 -19t19 -46q0 -28 -19 -47t-46 -19zM645 700v-130l-336 -378q-13 -14 -28.5 -30.5t-23.5 -25.5l-8 -8l1 -1h3q3 0 8 0.5t11.5 0.5t15.5 0.5t19 1t21.5 0.5h23.5h293v-130h-585v130l347 383q10 11 25.5 25.5
t25.5 23.5l10 9l-1 1h-7q-6 0 -16.5 -0.5t-23.5 -1t-28 -0.5h-28h-294v130h575z" />
    <glyph glyph-name="Cacute.loclPLK" horiz-adv-x="756" 
d="M449 963l102 -57l-118 -177l-87 50zM719 529l-142 -37q-28 39 -76 62t-100 23q-98 0 -158 -63.5t-60 -163.5q0 -101 61.5 -163t156.5 -62q59 0 110.5 28.5t78.5 74.5l140 -37q-44 -94 -132 -149.5t-197 -55.5q-152 0 -257.5 103.5t-105.5 260.5t105.5 260.5t257.5 103.5
q102 0 186.5 -50t131.5 -135z" />
    <glyph glyph-name="I.ss03" horiz-adv-x="491" 
d="M315 122h138v-122h-415v122h138v456h-134v122h407v-122h-134v-456z" />
    <glyph glyph-name="IJ.ss03" horiz-adv-x="1148" 
d="M315 578v-456h138v-122h-415v122h138v456h-134v122h407v-122h-134zM941 700h139v-396q0 -151 -83 -234.5t-225 -83.5q-98 0 -175.5 50t-108.5 129l137 37q20 -41 58 -63.5t89 -22.5q80 0 124.5 48.5t44.5 133.5v402z" />
    <glyph glyph-name="IJ.ss03.ss04" horiz-adv-x="1145" 
d="M315 578v-456h138v-122h-415v122h138v456h-134v122h407v-122h-134zM636 700h441v-396q0 -151 -83 -234.5t-225 -83.5q-98 0 -175.5 50t-108.5 129l137 37q20 -41 58 -63.5t89 -22.5q80 0 124.5 48.5t44.5 133.5v272h-302v130z" />
    <glyph glyph-name="IJ.ss04" horiz-adv-x="960" 
d="M83 0v700h139v-700h-139zM450 700h441v-396q0 -151 -83 -234.5t-225 -83.5q-98 0 -175.5 50t-108.5 129l137 37q20 -41 58 -63.5t89 -22.5q80 0 124.5 48.5t44.5 133.5v272h-302v130z" />
    <glyph glyph-name="Iacute.ss03" horiz-adv-x="491" 
d="M410 834l-238 -103l-41 74l231 124zM315 122h138v-122h-415v122h138v456h-134v122h407v-122h-134v-456z" />
    <glyph glyph-name="Icircumflex.ss03" horiz-adv-x="491" 
d="M244 830l-119 -99l-68 69l187 159l186 -159l-67 -69zM315 122h138v-122h-415v122h138v456h-134v122h407v-122h-134v-456z" />
    <glyph glyph-name="Idieresis.ss03" horiz-adv-x="491" 
d="M115 767q-29 0 -48 18.5t-19 46.5q0 27 19.5 46t47.5 19q27 0 46 -19t19 -46q0 -28 -19 -46.5t-46 -18.5zM373 767q-28 0 -47 18.5t-19 46.5q0 27 19 46t47 19q27 0 46 -19t19 -46q0 -28 -19 -46.5t-46 -18.5zM315 122h138v-122h-415v122h138v456h-134v122h407v-122h-134
v-456z" />
    <glyph glyph-name="Idotaccent.ss03" horiz-adv-x="491" 
d="M247 766q-27 0 -46.5 19t-19.5 47q0 27 19.5 46t46.5 19t46 -19t19 -46q0 -28 -19 -47t-46 -19zM315 122h138v-122h-415v122h138v456h-134v122h407v-122h-134v-456z" />
    <glyph glyph-name="Igrave.ss03" horiz-adv-x="491" 
d="M341 805l-40 -74l-239 103l49 95zM315 122h138v-122h-415v122h138v456h-134v122h407v-122h-134v-456z" />
    <glyph glyph-name="Imacron.ss03" horiz-adv-x="491" 
d="M449 878v-108h-407v108h407zM315 122h138v-122h-415v122h138v456h-134v122h407v-122h-134v-456z" />
    <glyph glyph-name="Iogonek.ss03" horiz-adv-x="491" 
d="M453 0h-224q-46 0 -83.5 -23t-37.5 -67q0 -28 20 -48t55 -20q63 0 92 61l73 -46q-24 -48 -68.5 -75t-96.5 -27q-77 0 -125 42t-48 113q0 49 31 90h-3v122h138v456h-134v122h407v-122h-134v-456h138v-122z" />
    <glyph glyph-name="J.ss04" horiz-adv-x="671" 
d="M162 700h441v-396q0 -151 -83 -234.5t-225 -83.5q-98 0 -175.5 50t-108.5 129l137 37q20 -41 58 -63.5t89 -22.5q80 0 124.5 48.5t44.5 133.5v272h-302v130z" />
    <glyph glyph-name="Jcircumflex.ss04" horiz-adv-x="671" 
d="M371 830l-119 -99l-68 69l187 159l186 -159l-68 -69zM162 700h441v-396q0 -151 -83 -234.5t-225 -83.5q-98 0 -175.5 50t-108.5 129l137 37q20 -41 58 -63.5t89 -22.5q80 0 124.5 48.5t44.5 133.5v272h-302v130z" />
    <glyph glyph-name="N.ss02" horiz-adv-x="776" 
d="M554 700h139v-700h-139v240l-178 146q-33 27 -72 61.5t-61 54.5l-22 19h-1v-5q0 -4 0.5 -11.5t0.5 -17.5v-24t0.5 -28.5t0.5 -32.5v-35v-367h-139v700h131l152 -130q185 -163 189 -163h1v4q0 4 -0.5 11t-0.5 16.5v22t-0.5 26.5t-0.5 31.5v34.5v147z" />
    <glyph glyph-name="Nacute.loclPLK" horiz-adv-x="776" 
d="M439 963l102 -57l-118 -177l-87 50zM554 700h139v-700h-131l-199 270q-27 37 -63 87t-57 79l-21 30h-1v-31.5t0.5 -84.5t0.5 -124v-226h-139v700h131l203 -273q21 -27 55.5 -74.5t57.5 -80.5l24 -33h1v34t-0.5 85.5t-0.5 112.5v229z" />
    <glyph glyph-name="Nacute.loclPLK.ss02" horiz-adv-x="776" 
d="M440 963l102 -57l-118 -177l-87 50zM554 700h139v-700h-139v240l-178 146q-33 27 -72 61.5t-61 54.5l-22 19h-1v-5q0 -4 0.5 -11.5t0.5 -17.5v-24t0.5 -28.5t0.5 -32.5v-35v-367h-139v700h131l152 -130q185 -163 189 -163h1v4q0 4 -0.5 11t-0.5 16.5v22t-0.5 26.5
t-0.5 31.5v34.5v147z" />
    <glyph glyph-name="Nacute.ss02" horiz-adv-x="776" 
d="M505 929l48 -95l-238 -103l-41 74zM554 700h139v-700h-139v240l-178 146q-33 27 -72 61.5t-61 54.5l-22 19h-1v-5q0 -4 0.5 -11.5t0.5 -17.5v-24t0.5 -28.5t0.5 -32.5v-35v-367h-139v700h131l152 -130q185 -163 189 -163h1v4q0 4 -0.5 11t-0.5 16.5v22t-0.5 26.5
t-0.5 31.5v34.5v147z" />
    <glyph glyph-name="Ncaron.ss02" horiz-adv-x="776" 
d="M203 883l187 -159l186 159l-67 69l-119 -99l-119 99zM554 700h139v-700h-139v240l-178 146q-33 27 -72 61.5t-61 54.5l-22 19h-1v-5q0 -4 0.5 -11.5t0.5 -17.5v-24t0.5 -28.5t0.5 -32.5v-35v-367h-139v700h131l152 -130q185 -163 189 -163h1v4q0 4 -0.5 11t-0.5 16.5v22
t-0.5 26.5t-0.5 31.5v34.5v147z" />
    <glyph glyph-name="Ncommaaccent.ss02" horiz-adv-x="776" 
d="M554 700h139v-700h-139v240l-178 146q-33 27 -72 61.5t-61 54.5l-22 19h-1v-5q0 -4 0.5 -11.5t0.5 -17.5v-24t0.5 -28.5t0.5 -32.5v-35v-367h-139v700h131l152 -130q185 -163 189 -163h1v4q0 4 -0.5 11t-0.5 16.5v22t-0.5 26.5t-0.5 31.5v34.5v147zM379 -167l12 4l-12 2
q-19 2 -34.5 17.5t-15.5 40.5q0 27 19 45.5t46 18.5t45.5 -20.5t18.5 -52.5q0 -42 -27 -87.5t-68 -79.5h-49q23 17 44 52.5t21 59.5z" />
    <glyph glyph-name="Ntilde.ss02" horiz-adv-x="776" 
d="M504 884h109q0 -60 -40 -99t-102 -39q-37 0 -83 30t-66 30t-33 -12.5t-13 -31.5h-109q0 60 40.5 99.5t101.5 39.5q31 0 59 -15.5t50 -30.5t40 -15q20 0 33 12.5t13 31.5zM554 700h139v-700h-139v240l-178 146q-33 27 -72 61.5t-61 54.5l-22 19h-1v-5q0 -4 0.5 -11.5
t0.5 -17.5v-24t0.5 -28.5t0.5 -32.5v-35v-367h-139v700h131l152 -130q185 -163 189 -163h1v4q0 4 -0.5 11t-0.5 16.5v22t-0.5 26.5t-0.5 31.5v34.5v147z" />
    <glyph glyph-name="Oacute.loclPLK" horiz-adv-x="803" 
d="M456 963l102 -57l-118 -177l-87 50zM38 350q0 157 105.5 260.5t257.5 103.5q153 0 258.5 -103.5t105.5 -260.5t-105.5 -260.5t-258.5 -103.5q-152 0 -257.5 103.5t-105.5 260.5zM183 350q0 -100 61 -163.5t157 -63.5q97 0 158 63.5t61 163.5q0 101 -61 164t-158 63
q-96 0 -157 -63t-61 -164z" />
    <glyph glyph-name="Q.ss01" horiz-adv-x="828" 
d="M752 137h42v-137h-394q-152 0 -257 101.5t-105 255.5t105 256t257 102t257.5 -102t105.5 -256q0 -138 -95 -226l1 -1h1q2 1 5 1.5t7.5 1.5t11.5 1.5t15 1t19.5 1t23.5 0.5zM183 357q0 -99 62 -159.5t155 -60.5q92 0 155 60.5t63 159.5q0 98 -63 159t-155 61
q-93 0 -155 -60.5t-62 -159.5z" />
    <glyph glyph-name="Sacute.loclPLK" horiz-adv-x="608" 
d="M365 963l102 -57l-118 -177l-87 50zM571 524l-134 -37q-12 50 -51 78t-88 28q-47 0 -76 -20.5t-29 -52.5q0 -9 2.5 -17t9 -15.5t12 -13t17.5 -12t19.5 -10.5t24 -10t25.5 -9l28.5 -9.5l28.5 -9.5q45 -16 78.5 -31.5t68.5 -41t53.5 -61t18.5 -80.5q0 -94 -74.5 -154
t-193.5 -60q-108 0 -182.5 56.5t-103.5 153.5l134 36q12 -51 54 -86.5t104 -35.5q54 0 84 23.5t30 60.5q0 17 -8.5 31.5t-19 24t-33 20t-38 16t-47.5 15.5t-48 16q-40 14 -66 26.5t-57.5 35.5t-47.5 56.5t-16 76.5q0 83 73.5 142.5t182.5 59.5q97 0 169.5 -53t95.5 -137z
" />
    <glyph glyph-name="Y.ss05" horiz-adv-x="701" 
d="M689 700l-242 -339h110v-114h-138v-247h-138v247h-135v114h107l-241 339h156l144 -201q35 -52 38 -52h1q3 0 38 52l143 201h157z" />
    <glyph glyph-name="Yacute.ss05" horiz-adv-x="701" 
d="M513 834l-238 -103l-41 74l231 124zM689 700l-242 -339h110v-114h-138v-247h-138v247h-135v114h107l-241 339h156l144 -201q35 -52 38 -52h1q3 0 38 52l143 201h157z" />
    <glyph glyph-name="Ycircumflex.ss05" horiz-adv-x="701" 
d="M347 830l-119 -99l-68 69l187 159l186 -159l-67 -69zM689 700l-242 -339h110v-114h-138v-247h-138v247h-135v114h107l-241 339h156l144 -201q35 -52 38 -52h1q3 0 38 52l143 201h157z" />
    <glyph glyph-name="Ydieresis.ss05" horiz-adv-x="701" 
d="M218 767q-29 0 -48 18.5t-19 46.5q0 27 19.5 46t47.5 19q27 0 46 -19t19 -46q0 -28 -19 -46.5t-46 -18.5zM476 767q-28 0 -47 18.5t-19 46.5q0 27 19 46t47 19q27 0 46 -19t19 -46q0 -28 -19 -46.5t-46 -18.5zM689 700l-242 -339h110v-114h-138v-247h-138v247h-135v114
h107l-241 339h156l144 -201q35 -52 38 -52h1q3 0 38 52l143 201h157z" />
    <glyph glyph-name="Ygrave.ss05" horiz-adv-x="701" 
d="M444 805l-40 -74l-239 103l49 95zM689 700l-242 -339h110v-114h-138v-247h-138v247h-135v114h107l-241 339h156l144 -201q35 -52 38 -52h1q3 0 38 52l143 201h157z" />
    <glyph glyph-name="Zacute.loclPLK" horiz-adv-x="705" 
d="M410 963l102 -57l-118 -177l-87 50zM645 700v-130l-336 -378q-13 -14 -28.5 -30.5t-23.5 -25.5l-8 -8l1 -1h3q3 0 8 0.5t11.5 0.5t15.5 0.5t19 1t21.5 0.5h23.5h293v-130h-585v130l347 383q10 11 25.5 25.5t25.5 23.5l10 9l-1 1h-7q-6 0 -16.5 -0.5t-23.5 -1t-28 -0.5
h-28h-294v130h575z" />
    <glyph glyph-name="cacute.loclPLK" horiz-adv-x="756" 
d="M449 963l102 -57l-118 -177l-87 50zM719 529l-142 -37q-28 39 -76 62t-100 23q-98 0 -158 -63.5t-60 -163.5q0 -101 61.5 -163t156.5 -62q59 0 110.5 28.5t78.5 74.5l140 -37q-44 -94 -132 -149.5t-197 -55.5q-152 0 -257.5 103.5t-105.5 260.5t105.5 260.5t257.5 103.5
q102 0 186.5 -50t131.5 -135z" />
    <glyph glyph-name="dotlessj.ss04" horiz-adv-x="671" 
d="M162 700h441v-396q0 -151 -83 -234.5t-225 -83.5q-98 0 -175.5 50t-108.5 129l137 37q20 -41 58 -63.5t89 -22.5q80 0 124.5 48.5t44.5 133.5v272h-302v130z" />
    <glyph glyph-name="i.ss03" horiz-adv-x="491" 
d="M315 122h138v-122h-415v122h138v456h-134v122h407v-122h-134v-456z" />
    <glyph glyph-name="iacute.ss03" horiz-adv-x="491" 
d="M410 834l-238 -103l-41 74l231 124zM315 122h138v-122h-415v122h138v456h-134v122h407v-122h-134v-456z" />
    <glyph glyph-name="icircumflex.ss03" horiz-adv-x="491" 
d="M244 830l-119 -99l-68 69l187 159l186 -159l-67 -69zM315 122h138v-122h-415v122h138v456h-134v122h407v-122h-134v-456z" />
    <glyph glyph-name="idieresis.ss03" horiz-adv-x="491" 
d="M115 767q-29 0 -48 18.5t-19 46.5q0 27 19.5 46t47.5 19q27 0 46 -19t19 -46q0 -28 -19 -46.5t-46 -18.5zM373 767q-28 0 -47 18.5t-19 46.5q0 27 19 46t47 19q27 0 46 -19t19 -46q0 -28 -19 -46.5t-46 -18.5zM315 122h138v-122h-415v122h138v456h-134v122h407v-122h-134
v-456z" />
    <glyph glyph-name="idotaccent.ss03" horiz-adv-x="491" 
d="M247 766q-27 0 -46.5 19t-19.5 47q0 27 19.5 46t46.5 19t46 -19t19 -46q0 -28 -19 -47t-46 -19zM315 122h138v-122h-415v122h138v456h-134v122h407v-122h-134v-456z" />
    <glyph glyph-name="igrave.ss03" horiz-adv-x="491" 
d="M341 805l-40 -74l-239 103l49 95zM315 122h138v-122h-415v122h138v456h-134v122h407v-122h-134v-456z" />
    <glyph glyph-name="ij.ss03" horiz-adv-x="1148" 
d="M315 578v-456h138v-122h-415v122h138v456h-134v122h407v-122h-134zM941 700h139v-396q0 -151 -83 -234.5t-225 -83.5q-98 0 -175.5 50t-108.5 129l137 37q20 -41 58 -63.5t89 -22.5q80 0 124.5 48.5t44.5 133.5v402z" />
    <glyph glyph-name="ij.ss03.ss04" horiz-adv-x="1145" 
d="M315 578v-456h138v-122h-415v122h138v456h-134v122h407v-122h-134zM636 700h441v-396q0 -151 -83 -234.5t-225 -83.5q-98 0 -175.5 50t-108.5 129l137 37q20 -41 58 -63.5t89 -22.5q80 0 124.5 48.5t44.5 133.5v272h-302v130z" />
    <glyph glyph-name="ij.ss04" horiz-adv-x="960" 
d="M83 0v700h139v-700h-139zM450 700h441v-396q0 -151 -83 -234.5t-225 -83.5q-98 0 -175.5 50t-108.5 129l137 37q20 -41 58 -63.5t89 -22.5q80 0 124.5 48.5t44.5 133.5v272h-302v130z" />
    <glyph glyph-name="imacron.ss03" horiz-adv-x="491" 
d="M449 878v-108h-407v108h407zM315 122h138v-122h-415v122h138v456h-134v122h407v-122h-134v-456z" />
    <glyph glyph-name="iogonek.ss03" horiz-adv-x="491" 
d="M453 0h-224q-46 0 -83.5 -23t-37.5 -67q0 -28 20 -48t55 -20q63 0 92 61l73 -46q-24 -48 -68.5 -75t-96.5 -27q-77 0 -125 42t-48 113q0 49 31 90h-3v122h138v456h-134v122h407v-122h-134v-456h138v-122z" />
    <glyph glyph-name="j.ss04" horiz-adv-x="671" 
d="M162 700h441v-396q0 -151 -83 -234.5t-225 -83.5q-98 0 -175.5 50t-108.5 129l137 37q20 -41 58 -63.5t89 -22.5q80 0 124.5 48.5t44.5 133.5v272h-302v130z" />
    <glyph glyph-name="jcircumflex.ss04" horiz-adv-x="671" 
d="M371 830l-119 -99l-68 69l187 159l186 -159l-67 -69zM162 700h441v-396q0 -151 -83 -234.5t-225 -83.5q-98 0 -175.5 50t-108.5 129l137 37q20 -41 58 -63.5t89 -22.5q80 0 124.5 48.5t44.5 133.5v272h-302v130z" />
    <glyph glyph-name="n.ss02" horiz-adv-x="776" 
d="M554 700h139v-700h-139v240l-178 146q-33 27 -72 61.5t-61 54.5l-22 19h-1v-5q0 -4 0.5 -11.5t0.5 -17.5v-24t0.5 -28.5t0.5 -32.5v-35v-367h-139v700h131l152 -130q185 -163 189 -163h1v4q0 4 -0.5 11t-0.5 16.5v22t-0.5 26.5t-0.5 31.5v34.5v147z" />
    <glyph glyph-name="nacute.loclPLK" horiz-adv-x="776" 
d="M439 963l102 -57l-118 -177l-87 50zM554 700h139v-700h-131l-199 270q-27 37 -63 87t-57 79l-21 30h-1v-31.5t0.5 -84.5t0.5 -124v-226h-139v700h131l203 -273q21 -27 55.5 -74.5t57.5 -80.5l24 -33h1v34t-0.5 85.5t-0.5 112.5v229z" />
    <glyph glyph-name="nacute.loclPLK.ss02" horiz-adv-x="776" 
d="M440 963l102 -57l-118 -177l-87 50zM554 700h139v-700h-139v240l-178 146q-33 27 -72 61.5t-61 54.5l-22 19h-1v-5q0 -4 0.5 -11.5t0.5 -17.5v-24t0.5 -28.5t0.5 -32.5v-35v-367h-139v700h131l152 -130q185 -163 189 -163h1v4q0 4 -0.5 11t-0.5 16.5v22t-0.5 26.5
t-0.5 31.5v34.5v147z" />
    <glyph glyph-name="nacute.ss02" horiz-adv-x="776" 
d="M505 929l48 -95l-238 -103l-41 74zM554 700h139v-700h-139v240l-178 146q-33 27 -72 61.5t-61 54.5l-22 19h-1v-5q0 -4 0.5 -11.5t0.5 -17.5v-24t0.5 -28.5t0.5 -32.5v-35v-367h-139v700h131l152 -130q185 -163 189 -163h1v4q0 4 -0.5 11t-0.5 16.5v22t-0.5 26.5
t-0.5 31.5v34.5v147z" />
    <glyph glyph-name="ncaron.ss02" horiz-adv-x="776" 
d="M203 883l187 -159l186 159l-67 69l-119 -99l-119 99zM554 700h139v-700h-139v240l-178 146q-33 27 -72 61.5t-61 54.5l-22 19h-1v-5q0 -4 0.5 -11.5t0.5 -17.5v-24t0.5 -28.5t0.5 -32.5v-35v-367h-139v700h131l152 -130q185 -163 189 -163h1v4q0 4 -0.5 11t-0.5 16.5v22
t-0.5 26.5t-0.5 31.5v34.5v147z" />
    <glyph glyph-name="ncommaaccent.ss02" horiz-adv-x="776" 
d="M554 700h139v-700h-139v240l-178 146q-33 27 -72 61.5t-61 54.5l-22 19h-1v-5q0 -4 0.5 -11.5t0.5 -17.5v-24t0.5 -28.5t0.5 -32.5v-35v-367h-139v700h131l152 -130q185 -163 189 -163h1v4q0 4 -0.5 11t-0.5 16.5v22t-0.5 26.5t-0.5 31.5v34.5v147zM379 -167l12 4l-12 2
q-19 2 -34.5 17.5t-15.5 40.5q0 27 19 45.5t46 18.5t45.5 -20.5t18.5 -52.5q0 -42 -27 -87.5t-68 -79.5h-49q23 17 44 52.5t21 59.5z" />
    <glyph glyph-name="ntilde.ss02" horiz-adv-x="776" 
d="M504 884h109q0 -60 -40 -99t-102 -39q-37 0 -83 30t-66 30t-33 -12.5t-13 -31.5h-109q0 60 40.5 99.5t101.5 39.5q31 0 59 -15.5t50 -30.5t40 -15q20 0 33 12.5t13 31.5zM554 700h139v-700h-139v240l-178 146q-33 27 -72 61.5t-61 54.5l-22 19h-1v-5q0 -4 0.5 -11.5
t0.5 -17.5v-24t0.5 -28.5t0.5 -32.5v-35v-367h-139v700h131l152 -130q185 -163 189 -163h1v4q0 4 -0.5 11t-0.5 16.5v22t-0.5 26.5t-0.5 31.5v34.5v147z" />
    <glyph glyph-name="oacute.loclPLK" horiz-adv-x="803" 
d="M456 963l102 -57l-118 -177l-87 50zM38 350q0 157 105.5 260.5t257.5 103.5q153 0 258.5 -103.5t105.5 -260.5t-105.5 -260.5t-258.5 -103.5q-152 0 -257.5 103.5t-105.5 260.5zM183 350q0 -100 61 -163.5t157 -63.5q97 0 158 63.5t61 163.5q0 101 -61 164t-158 63
q-96 0 -157 -63t-61 -164z" />
    <glyph glyph-name="q.ss01" horiz-adv-x="828" 
d="M752 137h42v-137h-394q-152 0 -257 101.5t-105 255.5t105 256t257 102t257.5 -102t105.5 -256q0 -138 -95 -226l1 -1h1q2 1 5 1.5t7.5 1.5t11.5 1.5t15 1t19.5 1t23.5 0.5zM183 357q0 -99 62 -159.5t155 -60.5q92 0 155 60.5t63 159.5q0 98 -63 159t-155 61
q-93 0 -155 -60.5t-62 -159.5z" />
    <glyph glyph-name="sacute.loclPLK" horiz-adv-x="608" 
d="M365 963l102 -57l-118 -177l-87 50zM571 524l-134 -37q-12 50 -51 78t-88 28q-47 0 -76 -20.5t-29 -52.5q0 -9 2.5 -17t9 -15.5t12 -13t17.5 -12t19.5 -10.5t24 -10t25.5 -9l28.5 -9.5l28.5 -9.5q45 -16 78.5 -31.5t68.5 -41t53.5 -61t18.5 -80.5q0 -94 -74.5 -154
t-193.5 -60q-108 0 -182.5 56.5t-103.5 153.5l134 36q12 -51 54 -86.5t104 -35.5q54 0 84 23.5t30 60.5q0 17 -8.5 31.5t-19 24t-33 20t-38 16t-47.5 15.5t-48 16q-40 14 -66 26.5t-57.5 35.5t-47.5 56.5t-16 76.5q0 83 73.5 142.5t182.5 59.5q97 0 169.5 -53t95.5 -137z
" />
    <glyph glyph-name="y.ss05" horiz-adv-x="701" 
d="M689 700l-242 -339h110v-114h-138v-247h-138v247h-135v114h107l-241 339h156l144 -201q35 -52 38 -52h1q3 0 38 52l143 201h157z" />
    <glyph glyph-name="yacute.ss05" horiz-adv-x="701" 
d="M513 834l-238 -103l-41 74l231 124zM689 700l-242 -339h110v-114h-138v-247h-138v247h-135v114h107l-241 339h156l144 -201q35 -52 38 -52h1q3 0 38 52l143 201h157z" />
    <glyph glyph-name="ycircumflex.ss05" horiz-adv-x="701" 
d="M347 830l-119 -99l-68 69l187 159l186 -159l-67 -69zM689 700l-242 -339h110v-114h-138v-247h-138v247h-135v114h107l-241 339h156l144 -201q35 -52 38 -52h1q3 0 38 52l143 201h157z" />
    <glyph glyph-name="ydieresis.ss05" horiz-adv-x="701" 
d="M218 767q-29 0 -48 18.5t-19 46.5q0 27 19.5 46t47.5 19q27 0 46 -19t19 -46q0 -28 -19 -46.5t-46 -18.5zM476 767q-28 0 -47 18.5t-19 46.5q0 27 19 46t47 19q27 0 46 -19t19 -46q0 -28 -19 -46.5t-46 -18.5zM689 700l-242 -339h110v-114h-138v-247h-138v247h-135v114
h107l-241 339h156l144 -201q35 -52 38 -52h1q3 0 38 52l143 201h157z" />
    <glyph glyph-name="ygrave.ss05" horiz-adv-x="701" 
d="M444 805l-40 -74l-239 103l49 95zM689 700l-242 -339h110v-114h-138v-247h-138v247h-135v114h107l-241 339h156l144 -201q35 -52 38 -52h1q3 0 38 52l143 201h157z" />
    <glyph glyph-name="zacute.loclPLK" horiz-adv-x="705" 
d="M410 963l102 -57l-118 -177l-87 50zM645 700v-130l-336 -378q-13 -14 -28.5 -30.5t-23.5 -25.5l-8 -8l1 -1h3q3 0 8 0.5t11.5 0.5t15.5 0.5t19 1t21.5 0.5h23.5h293v-130h-585v130l347 383q10 11 25.5 25.5t25.5 23.5l10 9l-1 1h-7q-6 0 -16.5 -0.5t-23.5 -1t-28 -0.5
h-28h-294v130h575z" />
    <glyph glyph-name="fraction" unicode="&#x2044;" horiz-adv-x="125" 
d="M-230 0l494 700h91l-493 -700h-92z" />
    <glyph glyph-name="oneeighth" unicode="&#x215b;" horiz-adv-x="743" 
d="M154 700h64v-388h-91v196q0 10 0.5 21t1.5 20.5t2 17.5t1 13l1 5h-1q-1 0 -5 -5.5t-12 -15.5t-18 -18l-29 -28l-57 51zM63 0l494 700h91l-493 -700h-92zM653 206v-1q31 -8 55 -33t24 -63q0 -50 -41.5 -83t-106.5 -34q-64 1 -105.5 34t-41.5 83q0 38 24 63t55 33v1
q-21 6 -41 29.5t-20 57.5q0 44 36.5 73.5t92.5 29.5q57 0 93.5 -29.5t36.5 -73.5q0 -34 -20.5 -57.5t-40.5 -29.5zM526 291q0 -20 16.5 -33t41.5 -12q26 0 42.5 12.5t16.5 32.5q0 19 -16.5 31.5t-42.5 12.5q-25 0 -41.5 -12.5t-16.5 -31.5zM517 111q0 -24 19 -39t48 -15
q30 0 49 15.5t19 38.5q0 22 -19.5 37t-48.5 15t-48 -15t-19 -37z" />
    <glyph glyph-name="threeeighths" unicode="&#x215c;" horiz-adv-x="808" 
d="M103 574l-77 21q11 51 51 82t97 31q65 0 102.5 -32.5t37.5 -80.5q0 -36 -26 -59t-55 -24v-1q35 -2 61 -23.5t26 -59.5q0 -54 -41 -89t-104 -35q-57 0 -101.5 32.5t-53.5 82.5l78 21q10 -59 77 -59q27 0 43 14t16 35q0 22 -17.5 35.5t-44.5 13.5h-37v64h37q24 0 40 13.5
t16 32.5q0 17 -15 30t-39 13q-56 0 -71 -58zM128 0l494 700h91l-493 -700h-92zM718 206v-1q31 -8 55 -33t24 -63q0 -50 -41.5 -83t-106.5 -34q-64 1 -105.5 34t-41.5 83q0 38 24 63t55 33v1q-21 6 -41 29.5t-20 57.5q0 44 36.5 73.5t92.5 29.5q57 0 93.5 -29.5t36.5 -73.5
q0 -34 -20.5 -57.5t-40.5 -29.5zM591 291q0 -20 16.5 -33t41.5 -12q26 0 42.5 12.5t16.5 32.5q0 19 -16.5 31.5t-42.5 12.5q-25 0 -41.5 -12.5t-16.5 -31.5zM582 111q0 -24 19 -39t48 -15q30 0 49 15.5t19 38.5q0 22 -19.5 37t-48.5 15t-48 -15t-19 -37z" />
    <glyph glyph-name="fiveeighths" unicode="&#x215d;" horiz-adv-x="787" 
d="M111 549l1 -1q20 22 56 22q66 0 105.5 -35.5t39.5 -94.5q0 -58 -41.5 -97t-103.5 -39q-60 0 -100.5 32.5t-47.5 78.5l80 22q11 -56 65 -56q29 0 47 17t18 43q0 28 -18 45t-47 17q-42 0 -59 -34l-74 20l36 211h222v-79h-157l-4 -17q-3 -14 -7.5 -27.5t-7.5 -20.5zM601 700
h91l-493 -700h-92zM697 206v-1q31 -8 55 -33t24 -63q0 -50 -41.5 -83t-106.5 -34q-64 1 -105.5 34t-41.5 83q0 38 24 63t55 33v1q-21 6 -41 29.5t-20 57.5q0 44 36.5 73.5t92.5 29.5q57 0 93.5 -29.5t36.5 -73.5q0 -34 -20.5 -57.5t-40.5 -29.5zM628 335q-25 0 -41.5 -12.5
t-16.5 -31.5q0 -20 16.5 -33t41.5 -12q26 0 42.5 12.5t16.5 32.5q0 19 -16.5 31.5t-42.5 12.5zM628 57q30 0 49 15.5t19 38.5q0 22 -19.5 37t-48.5 15t-48 -15t-19 -37q0 -24 19 -39t48 -15z" />
    <glyph glyph-name="seveneighths" unicode="&#x215e;" horiz-adv-x="689" 
d="M9 0l494 700h91l-493 -700h-92zM10 700h294v-50l-187 -338h-89l138 249q10 18 20.5 33t15.5 22l6 6l-1 1h-4q-4 0 -10.5 -0.5t-15 -1t-19.5 -0.5h-22h-126v79zM599 206v-1q31 -8 55 -33t24 -63q0 -50 -41.5 -83t-106.5 -34q-64 1 -105.5 34t-41.5 83q0 38 24 63t55 33v1
q-21 6 -41 29.5t-20 57.5q0 44 36.5 73.5t92.5 29.5q57 0 93.5 -29.5t36.5 -73.5q0 -34 -20.5 -57.5t-40.5 -29.5zM472 291q0 -20 16.5 -33t41.5 -12q26 0 42.5 12.5t16.5 32.5q0 19 -16.5 31.5t-42.5 12.5q-25 0 -41.5 -12.5t-16.5 -31.5zM463 111q0 -24 19 -39t48 -15
q30 0 49 15.5t19 38.5q0 22 -19.5 37t-48.5 15t-48 -15t-19 -37z" />
    <glyph glyph-name="zero.slsh" horiz-adv-x="717" 
d="M358 714q146 0 233.5 -104.5t87.5 -259.5t-87.5 -259.5t-233.5 -104.5t-233 104.5t-87 259.5t87 259.5t233 104.5zM219 198l221 359q-35 20 -82 20q-87 0 -131 -63.5t-44 -163.5q0 -92 36 -152zM498 501l-220 -359q35 -19 80 -19q86 0 131.5 63.5t45.5 163.5
q0 92 -37 151z" />
    <glyph glyph-name="zero.sups" horiz-adv-x="379" 
d="M190 466q-79 0 -129 57t-50 144t50 145t129 58t128.5 -57.5t49.5 -145.5q0 -87 -49.5 -144t-128.5 -57zM190 559q38 0 61.5 31.5t23.5 76.5q0 46 -23.5 77.5t-61.5 31.5t-61.5 -31.5t-23.5 -77.5q0 -45 23.5 -76.5t61.5 -31.5z" />
    <glyph glyph-name="four.sups" horiz-adv-x="353" 
d="M329 624v-75h-44v-75h-81v75h-194v62l206 251h69v-238h44zM152 623h52v65v15t0.5 14.5t1 12t0.5 8.5v3h-1l-5 -6q-4 -6 -11 -15.5t-14 -16.5l-47 -55q-6 -7 -13 -13.5t-11 -10.5l-3 -3l1 -1h3q3 1 7.5 1.5t10.5 0.5t14 0.5t15 0.5z" />
    <glyph glyph-name="five.sups" horiz-adv-x="337" 
d="M111 711l1 -1q20 22 56 22q66 0 105.5 -35.5t39.5 -94.5q0 -58 -41.5 -97t-103.5 -39q-60 0 -100.5 32.5t-47.5 78.5l80 22q11 -56 65 -56q29 0 47 17t18 43q0 28 -18 45t-47 17q-42 0 -59 -34l-74 20l36 211h222v-79h-157l-4 -17q-3 -14 -7.5 -27.5t-7.5 -20.5z" />
    <glyph glyph-name="six.sups" horiz-adv-x="336" 
d="M248 862l-110 -145l1 -1q14 17 38 17q60 0 97.5 -38.5t37.5 -94.5q0 -60 -42 -97t-107 -37q-64 0 -108 38t-44 99q0 68 61 150l83 109h93zM162 542q29 0 47 16.5t18 44.5q1 27 -17.5 43.5t-47.5 16.5q-30 0 -48 -16.5t-18 -43.5q0 -28 18 -44.5t48 -16.5z" />
    <glyph glyph-name="seven.sups" horiz-adv-x="309" 
d="M10 862h294v-50l-187 -338h-89l138 249q10 18 20.5 33t15.5 22l6 6l-1 1h-4q-4 0 -10.5 -0.5t-15 -1t-19.5 -0.5h-22h-126v79z" />
    <glyph glyph-name="eight.sups" horiz-adv-x="317" 
d="M227 680v-1q31 -8 55 -33t24 -63q0 -50 -41.5 -83t-106.5 -34q-64 1 -105.5 34t-41.5 83q0 38 24 63t55 33v1q-21 6 -41 29.5t-20 57.5q0 44 36.5 73.5t92.5 29.5q57 0 93.5 -29.5t36.5 -73.5q0 -34 -20.5 -57.5t-40.5 -29.5zM100 765q0 -20 16.5 -33t41.5 -12
q26 0 42.5 12.5t16.5 32.5q0 19 -16.5 31.5t-42.5 12.5q-25 0 -41.5 -12.5t-16.5 -31.5zM91 585q0 -24 19 -39t48 -15q30 0 49 15.5t19 38.5q0 22 -19.5 37t-48.5 15t-48 -15t-19 -37z" />
    <glyph glyph-name="nine.sups" horiz-adv-x="323" 
d="M62 474l124 143l-1 1q-13 -15 -39 -15q-60 0 -97.5 38.5t-37.5 94.5q0 60 42 97t107 37q64 0 108 -38t44 -99q0 -75 -67 -157l-85 -102h-98zM159 795q-29 0 -47 -17t-19 -44q0 -28 18 -44.5t48 -16.5t48 16.5t18 44.5q0 27 -18 44t-48 17z" />
    <glyph glyph-name="zero.tf" 
d="M348 714q72 0 129.5 -31.5t92 -84t52 -116t17.5 -132.5t-17.5 -132.5t-52 -116t-92 -84t-129.5 -31.5t-129.5 31.5t-91.5 84t-51.5 116t-17.5 132.5t17.5 132.5t51.5 116t91.5 84t129.5 31.5zM348 577q-43 0 -73.5 -22t-45 -58.5t-20.5 -72t-6 -74.5t6 -74.5t20.5 -72
t45 -58.5t73.5 -22t73.5 22t45.5 58.5t21.5 72.5t6.5 74t-6.5 74t-21.5 72.5t-45.5 58.5t-73.5 22z" />
    <glyph glyph-name="one.tf" 
d="M458 130h166v-130h-474v130h168v253q0 21 1 50t1 46l1 17h-1l-8 -10q-8 -9 -22 -24.5t-26 -26.5l-50 -50l-86 83l232 232h98v-570z" />
    <glyph glyph-name="two.tf" 
d="M211 488l-128 34q26 88 94.5 140t166.5 52q110 0 179.5 -64t69.5 -161q0 -61 -30 -113t-56 -74.5t-85 -64.5q-6 -5 -9 -7q-28 -21 -64.5 -47t-56.5 -41l-21 -15l1 -1h4q4 0 11 0.5t17 1t24 1t29.5 1t35 0.5h39.5h161v-130h-505v114q100 86 298 258q66 56 66 117
q0 43 -31 72.5t-81 29.5q-51 0 -83 -30t-46 -73z" />
    <glyph glyph-name="three.tf" 
d="M218 487l-125 34q23 89 92 141t169 52q117 0 182.5 -57.5t65.5 -143.5q0 -65 -45 -106.5t-95 -43.5v-1q61 -1 106 -43t45 -113q0 -97 -72.5 -158.5t-185.5 -61.5q-100 0 -177.5 55.5t-96.5 140.5l126 35q12 -48 49.5 -77t92.5 -29q53 0 86.5 28.5t33.5 73.5
q0 43 -33.5 67.5t-90.5 24.5h-60v110h60q55 0 84 23.5t29 65.5q0 37 -29.5 62t-82.5 25q-95 0 -128 -104z" />
    <glyph glyph-name="four.tf" 
d="M629 264v-121h-82v-143h-131v143h-358v103l376 454h113v-436h82zM311 264h105v85v32t0.5 32.5t1 30t0.5 26.5t0.5 21t0.5 14v5h-1l-10 -14q-11 -14 -29 -37.5t-31 -39.5l-86 -101q-14 -17 -25.5 -30.5t-16.5 -18.5l-4 -5v-1q1 0 16 0.5t37 0.5h42z" />
    <glyph glyph-name="five.tf" 
d="M241 428l1 -1q33 31 103 31q110 0 183.5 -65t73.5 -166q0 -103 -73.5 -172t-183.5 -69q-102 0 -173 52.5t-90 129.5l127 34q12 -41 44.5 -68.5t86.5 -27.5q52 0 86.5 35t34.5 88t-35 87.5t-86 34.5q-87 0 -113 -62l-120 33l62 378h390v-130h-288l-8 -43
q-6 -31 -11.5 -55.5t-8 -33.5t-2.5 -10z" />
    <glyph glyph-name="six.tf" 
d="M493 700l-199 -263l1 -1q32 32 84 32q108 0 173.5 -70.5t65.5 -173.5q0 -105 -77 -171.5t-194 -66.5q-115 0 -192 67.5t-77 178.5q0 72 28 132.5t88 140.5l148 195h151zM352 108q59 0 96 35t37 89q1 54 -36 88t-97 34t-96.5 -34t-36.5 -88q0 -55 37 -89.5t96 -34.5z" />
    <glyph glyph-name="seven.tf" 
d="M110 700h524v-81l-347 -619h-149l240 423q18 32 41 69t37 58l13 21l-1 1h-6q-7 0 -18 -0.5t-23.5 -1t-26 -0.5h-24.5h-260v130z" />
    <glyph glyph-name="eight.tf" 
d="M466 373v-1q59 -12 103.5 -59t44.5 -116q0 -91 -74.5 -151t-190.5 -61q-116 1 -191 61t-75 151q0 69 45 116.5t103 58.5v1q-36 6 -76 49t-40 105q0 80 66 133.5t168 53.5q101 0 167.5 -54t66.5 -133q0 -62 -40.5 -105t-76.5 -49zM233 520q0 -39 32.5 -63.5t83.5 -24.5
t83 25t32 63q0 41 -32.5 67t-82.5 26q-51 0 -83.5 -26t-32.5 -67zM216 201q0 -48 37 -77t96 -29q60 0 96.5 29.5t36.5 76.5t-37 75.5t-96 28.5q-60 0 -96.5 -29t-36.5 -75z" />
    <glyph glyph-name="nine.tf" 
d="M152 0l228 262l-1 1q-27 -31 -82 -31q-116 0 -179.5 69t-63.5 173q0 108 77 174t195 66q116 0 193.5 -66.5t77.5 -179.5q0 -134 -124 -278l-162 -190h-159zM323 591q-59 0 -96.5 -33.5t-37.5 -90.5t38 -89.5t96 -32.5q59 0 96.5 34t37.5 88q0 58 -38 91t-96 33z" />
    <glyph glyph-name="zero.slsh.tf" 
d="M348 714q72 0 129.5 -31.5t92 -84t52 -116t17.5 -132.5t-17.5 -132.5t-52 -116t-92 -84t-129.5 -31.5t-129.5 31.5t-91.5 84t-51.5 116t-17.5 132.5t17.5 132.5t51.5 116t91.5 84t129.5 31.5zM224 216l205 333q-35 28 -81 28q-43 0 -73.5 -22t-45 -58.5t-20.5 -72
t-6 -74.5q0 -78 21 -134zM476 474l-202 -328q31 -23 74 -23t73.5 22t45.5 58.5t21.5 72.5t6.5 74q0 70 -19 124z" />
    <glyph glyph-name="zero.slsh.numr" horiz-adv-x="378" 
d="M190 708q79 0 128.5 -57.5t49.5 -145.5q0 -87 -49.5 -144t-128.5 -57t-129 57t-50 144t50 145t129 58zM121 440l103 166q-16 8 -34 8q-38 0 -61.5 -31.5t-23.5 -77.5q0 -36 16 -65zM260 569l-102 -165q14 -7 32 -7q38 0 61.5 31.5t23.5 76.5q0 37 -15 64z" />
    <glyph glyph-name="zero.slsh.dnom" horiz-adv-x="378" 
d="M190 395q79 0 128.5 -57.5t49.5 -145.5q0 -87 -49.5 -144t-128.5 -57t-129 57t-50 144t50 145t129 58zM121 127l103 166q-16 8 -34 8q-38 0 -61.5 -31.5t-23.5 -77.5q0 -36 16 -65zM260 256l-102 -165q14 -7 32 -7q38 0 61.5 31.5t23.5 76.5q0 37 -15 64z" />
    <glyph glyph-name="zero.slsh.sups" horiz-adv-x="378" 
d="M190 870q79 0 128.5 -57.5t49.5 -145.5q0 -87 -49.5 -144t-128.5 -57t-129 57t-50 144t50 145t129 58zM121 602l103 166q-16 8 -34 8q-38 0 -61.5 -31.5t-23.5 -77.5q0 -36 16 -65zM260 731l-102 -165q14 -7 32 -7q38 0 61.5 31.5t23.5 76.5q0 37 -15 64z" />
    <glyph glyph-name="zero.dnom" horiz-adv-x="379" 
d="M190 -8q-79 0 -129 57.5t-50 144.5t50 144.5t129 57.5t128.5 -57.5t49.5 -144.5t-49.5 -144.5t-128.5 -57.5zM190 86q38 0 61.5 31t23.5 77t-23.5 77.5t-61.5 31.5t-61.5 -31.5t-23.5 -77.5t23.5 -77t61.5 -31z" />
    <glyph glyph-name="one.dnom" horiz-adv-x="251" 
d="M154 388h64v-388h-91v196q0 10 0.5 21.5t1.5 21t2 17t1 12.5l1 5h-1q-1 0 -5 -5l-12 -15t-18 -19l-29 -27l-57 50z" />
    <glyph glyph-name="two.dnom" horiz-adv-x="336" 
d="M140 73l1 -1h6q6 1 15.5 2.5t21.5 2.5t28.5 1.5t32.5 0.5h65v-79h-286v60l135 113q22 19 33 30t21 28t10 33q0 21 -15.5 35t-38.5 14q-21 0 -36 -11t-21 -23t-12 -30l-80 21q12 53 53 89.5t98 36.5q60 0 100.5 -38t40.5 -94q0 -61 -63 -116q-25 -21 -54 -42
q-13 -9 -27 -17l-21 -12z" />
    <glyph glyph-name="three.dnom" horiz-adv-x="331" 
d="M103 262l-77 21q11 51 51 82t97 31q65 0 102.5 -32.5t37.5 -80.5q0 -36 -26 -59t-55 -24v-1q35 -1 61 -23t26 -60q0 -54 -41.5 -89t-103.5 -35q-57 0 -101.5 32.5t-53.5 82.5l78 22q9 -60 77 -60q27 0 43 14t16 35q0 22 -17.5 35.5t-44.5 13.5h-37v64h37q24 0 40 13.5
t16 33.5q0 17 -15 29.5t-39 12.5q-56 0 -71 -58z" />
    <glyph glyph-name="four.dnom" horiz-adv-x="353" 
d="M329 151v-76h-44v-75h-81v75h-194v62l206 251h69v-237h44zM152 149h52v66v15t0.5 14.5t1 11.5t0.5 8v3h-1l-5 -5q-4 -6 -11.5 -15.5t-13.5 -16.5l-47 -55q-6 -7 -13 -14l-11 -11l-3 -3l1 -1h3q3 1 7.5 1.5t10.5 0.5t14 0.5t15 0.5z" />
    <glyph glyph-name="five.dnom" horiz-adv-x="337" 
d="M111 237l1 -1q21 23 56 23q66 0 105.5 -36t39.5 -95q0 -58 -41.5 -97t-103.5 -39q-60 0 -100.5 32.5t-47.5 78.5l80 22q11 -56 65 -56q29 0 47 17t18 43q0 28 -18 45t-47 17q-43 0 -59 -34l-74 20l36 211h222v-79h-157l-4 -17q-3 -14 -7.5 -27.5t-7.5 -20.5z" />
    <glyph glyph-name="six.dnom" horiz-adv-x="336" 
d="M248 388l-110 -144l1 -1q13 16 38 16q60 0 97.5 -38.5t37.5 -94.5q0 -60 -42 -97t-107 -37q-64 0 -108 38t-44 99q0 68 61 150l83 109h93zM162 68q29 0 47 16.5t18 44.5q1 28 -17 44.5t-48 16.5t-48 -16.5t-18 -44.5t18 -44.5t48 -16.5z" />
    <glyph glyph-name="seven.dnom" horiz-adv-x="309" 
d="M10 388h294v-50l-187 -338h-89l138 249q10 18 20.5 33.5t15.5 21.5l6 7l-1 1h-4q-4 -1 -10.5 -1.5t-15 -0.5t-19.5 -0.5t-22 -0.5h-126v79z" />
    <glyph glyph-name="eight.dnom" horiz-adv-x="317" 
d="M227 206v-1q31 -8 55 -33t24 -63q0 -50 -41.5 -83t-106.5 -34q-64 1 -105.5 34t-41.5 83q0 38 24 63t55 33v1q-21 6 -41 29.5t-20 57.5q0 44 36.5 73.5t92.5 29.5q57 0 93.5 -29.5t36.5 -73.5q0 -33 -20.5 -57t-40.5 -30zM100 291q0 -20 16.5 -32.5t41.5 -12.5
q26 0 42.5 12.5t16.5 32.5q0 19 -16.5 31.5t-42.5 12.5q-25 0 -41.5 -12.5t-16.5 -31.5zM91 111q0 -24 19 -39t48 -15q30 0 49 15.5t19 38.5t-19.5 38t-48.5 15t-48 -15.5t-19 -37.5z" />
    <glyph glyph-name="nine.dnom" horiz-adv-x="323" 
d="M62 0l124 143l-1 1q-15 -15 -39 -15q-60 0 -97.5 38.5t-37.5 94.5q0 60 42 97t107 37q64 0 108 -38t44 -99q0 -75 -67 -157l-85 -102h-98zM159 321q-29 0 -47 -16.5t-19 -44.5q0 -28 18 -44.5t48 -16.5t48 16.5t18 44.5t-18 44.5t-48 16.5z" />
    <glyph glyph-name="zero.numr" horiz-adv-x="379" 
d="M190 304q-79 0 -129 57t-50 144t50 145t129 58t128.5 -57.5t49.5 -145.5q0 -87 -49.5 -144t-128.5 -57zM190 397q38 0 61.5 31.5t23.5 76.5q0 46 -23.5 77.5t-61.5 31.5t-61.5 -31.5t-23.5 -77.5q0 -45 23.5 -76.5t61.5 -31.5z" />
    <glyph glyph-name="one.numr" horiz-adv-x="251" 
d="M154 700h64v-388h-91v196q0 10 0.5 21t1.5 20.5t2 17.5t1 13l1 5h-1q-1 0 -5 -5.5t-12 -15.5t-18 -18l-29 -28l-57 51z" />
    <glyph glyph-name="two.numr" horiz-adv-x="336" 
d="M140 385l1 -1h6q6 1 15.5 2.5t21.5 2.5t28.5 1.5t32.5 0.5h65v-79h-286v60l135 113q23 19 33.5 29.5t20.5 27.5t10 34q0 21 -15.5 35t-38.5 14q-21 0 -36 -11t-21 -23t-12 -30l-80 21q12 53 53 89.5t98 36.5q60 0 100.5 -38t40.5 -94q0 -63 -63 -116q-25 -21 -54 -42
q-13 -9 -27 -17l-21 -12z" />
    <glyph glyph-name="three.numr" horiz-adv-x="344" 
d="M103 574l-77 21q11 51 51 82t97 31q65 0 102.5 -32.5t37.5 -80.5q0 -36 -26 -59t-55 -24v-1q35 -2 61 -23.5t26 -59.5q0 -54 -41 -89t-104 -35q-57 0 -101.5 32.5t-53.5 82.5l78 21q10 -59 77 -59q27 0 43 14t16 35q0 22 -17.5 35.5t-44.5 13.5h-37v64h37q24 0 40 13.5
t16 32.5q0 17 -15 30t-39 13q-56 0 -71 -58z" />
    <glyph glyph-name="four.numr" horiz-adv-x="353" 
d="M329 462v-75h-44v-75h-81v75h-194v62l206 251h69v-238h44zM152 461h52v65v15t0.5 14.5t1 12t0.5 8.5v3h-1l-5 -6q-4 -6 -11 -15.5t-14 -16.5l-47 -55q-6 -7 -13 -13.5t-11 -10.5l-3 -3l1 -1h3q3 1 7.5 1.5t10.5 0.5t14 0.5t15 0.5z" />
    <glyph glyph-name="five.numr" horiz-adv-x="337" 
d="M111 549l1 -1q20 22 56 22q66 0 105.5 -35.5t39.5 -94.5q0 -58 -41.5 -97t-103.5 -39q-60 0 -100.5 32.5t-47.5 78.5l80 22q11 -56 65 -56q29 0 47 17t18 43q0 28 -18 45t-47 17q-42 0 -59 -34l-74 20l36 211h222v-79h-157l-4 -17q-3 -14 -7.5 -27.5t-7.5 -20.5z" />
    <glyph glyph-name="six.numr" horiz-adv-x="336" 
d="M248 700l-110 -145l1 -1q14 17 38 17q60 0 97.5 -38.5t37.5 -94.5q0 -60 -42 -97t-107 -37q-64 0 -108 38t-44 99q0 68 61 150l83 109h93zM162 380q29 0 47 16.5t18 44.5q1 27 -17.5 43.5t-47.5 16.5q-30 0 -48 -16.5t-18 -43.5q0 -28 18 -44.5t48 -16.5z" />
    <glyph glyph-name="seven.numr" horiz-adv-x="309" 
d="M10 700h294v-50l-187 -338h-89l138 249q10 18 20.5 33t15.5 22l6 6l-1 1h-4q-4 0 -10.5 -0.5t-15 -1t-19.5 -0.5h-22h-126v79z" />
    <glyph glyph-name="eight.numr" horiz-adv-x="317" 
d="M227 518v-1q31 -8 55 -33t24 -63q0 -50 -41.5 -83t-106.5 -34q-64 1 -105.5 34t-41.5 83q0 38 24 63t55 33v1q-21 6 -41 29.5t-20 57.5q0 44 36.5 73.5t92.5 29.5q57 0 93.5 -29.5t36.5 -73.5q0 -34 -20.5 -57.5t-40.5 -29.5zM100 603q0 -20 16.5 -33t41.5 -12
q26 0 42.5 12.5t16.5 32.5q0 19 -16.5 31.5t-42.5 12.5q-25 0 -41.5 -12.5t-16.5 -31.5zM91 423q0 -24 19 -39t48 -15q30 0 49 15.5t19 38.5q0 22 -19.5 37t-48.5 15t-48 -15t-19 -37z" />
    <glyph glyph-name="nine.numr" horiz-adv-x="323" 
d="M62 312l124 143l-1 1q-13 -15 -39 -15q-60 0 -97.5 38.5t-37.5 94.5q0 60 42 97t107 37q64 0 108 -38t44 -99q0 -75 -67 -157l-85 -102h-98zM159 633q-29 0 -47 -17t-19 -44q0 -28 18 -44.5t48 -16.5t48 16.5t18 44.5q0 27 -18 44t-48 17z" />
    <glyph glyph-name="dollar.tf" 
d="M613 524l-134 -37q-12 50 -51 78t-88 28q-47 0 -76 -20.5t-29 -52.5q0 -9 2.5 -17t9 -15.5t12 -13t17.5 -12t19.5 -10.5t24 -10t25.5 -9l28.5 -9.5l28.5 -9.5q45 -16 78.5 -31.5t68.5 -41t53.5 -61t18.5 -80.5q0 -79 -53.5 -135t-144.5 -73v-82h-139v83q-81 16 -137 69
t-80 134l134 36q12 -51 54 -86.5t104 -35.5q54 0 84 23.5t30 60.5q0 17 -8.5 31.5t-19 24t-33 20t-38 16t-47.5 15.5t-48 16q-40 14 -66 26.5t-57.5 35.5t-47.5 56.5t-16 76.5q0 70 53.5 125t138.5 71v82h139v-85q71 -18 121.5 -66.5t68.5 -114.5z" />
    <glyph glyph-name="percent.tf" 
d="M559 700l-152 -324q37 20 82 20q79 0 128.5 -57.5t49.5 -144.5t-49.5 -144.5t-128.5 -57.5q-74 0 -122.5 50t-55.5 129l-80 -171h-92l155 329q-41 -25 -92 -25q-79 0 -129 57t-50 144t50 145t129 58q78 0 127 -55t51 -140l88 187h91zM202 397q38 0 61.5 31.5t23.5 76.5
q0 46 -23.5 77.5t-61.5 31.5t-61.5 -31.5t-23.5 -77.5q0 -45 23.5 -76.5t61.5 -31.5zM489 86q38 0 61.5 31t23.5 77t-23.5 77.5t-61.5 31.5t-61.5 -31.5t-23.5 -77.5t23.5 -77t61.5 -31z" />
    <glyph glyph-name="cent.tf" 
d="M485 276l121 -34q-24 -61 -75.5 -102.5t-117.5 -55.5v-98h-112v99q-90 20 -149 92t-59 170q0 97 59 169t149 92v106h112v-105q62 -13 111 -51t75 -93l-121 -32q-42 61 -119 61q-63 0 -100.5 -39.5t-37.5 -107.5t37.5 -108t100.5 -40q88 0 126 77z" />
    <glyph glyph-name="sterling.tf" 
d="M428 130h192v-130h-529v130q46 9 60 38.5t8 90.5l-3 29h-63v110h53l-8 90q-9 91 59 157.5t165 68.5q35 1 72 -9t74.5 -31t67 -61t42.5 -93l-117 -33q-36 108 -131 104q-46 -2 -72 -35.5t-21 -80.5l7 -77h204v-110h-193l2 -25q10 -103 -40 -136l1 -1h4q5 0 13.5 0.5
t19.5 1t26 1t31.5 1t36 0.5h39.5z" />
    <glyph glyph-name="currency.tf" 
d="M502 560l69 69l69 -69l-70 -69q49 -68 49 -152q0 -85 -49 -153l69 -69l-69 -69l-69 69q-70 -49 -154 -49q-83 0 -151 49l-68 -69l-69 69l68 68q-48 70 -48 154t48 153l-69 68l69 69l69 -69q68 49 151 49q85 0 155 -49zM348 488q-60 0 -102 -42t-42 -105q0 -64 42 -105.5
t102 -41.5q62 0 104.5 41.5t42.5 105.5q0 63 -43 105t-104 42z" />
    <glyph glyph-name="yen.tf" 
d="M687 700l-173 -243h105v-91h-170l-23 -33h193v-92h-202v-241h-138v241h-198v92h189l-23 33h-166v91h101l-172 243h156l144 -201q35 -52 38 -52h1q3 0 38 52l143 201h157z" />
    <glyph glyph-name="Euro.tf" 
d="M545 226l132 -34q-40 -95 -120.5 -149.5t-189.5 -54.5q-115 0 -202 68.5t-117 184.5h-48v92h35v17v17h-34v91h47q30 116 116.5 185t202.5 69q102 0 179 -49t120 -135l-135 -34q-25 43 -69.5 67t-98.5 24q-59 0 -106 -32t-69 -95h196v-91h-212v-17v-17h211v-92h-194
q22 -62 68.5 -93t105.5 -31t108.5 29t73.5 80z" />
    <glyph glyph-name="uni20B9.tf" 
d="M602 594h-123q15 -18 27 -50h96v-103h-86q-9 -75 -59 -126.5t-129 -68.5l184 -246h-160l-179 243v103h85q43 0 72.5 27t38.5 68h-246v103h229q-32 50 -94 50h-135v106h479v-106z" />
    <glyph glyph-name="colon.case" horiz-adv-x="258" 
d="M129 424q-29 0 -49 20t-20 49q0 28 20 48t49 20q28 0 48.5 -20t20.5 -48q0 -29 -20 -49t-49 -20zM129 127q-29 0 -49 20t-20 49q0 28 20 48t49 20q28 0 48.5 -20t20.5 -48q0 -29 -20 -49t-49 -20z" />
    <glyph glyph-name="semicolon.case" horiz-adv-x="275" 
d="M145 422q-29 0 -49 20t-20 49q0 28 20 48t49 20q28 0 48.5 -20t20.5 -48q0 -29 -20 -49t-49 -20zM129 125l13 4l-13 2q-20 2 -36.5 19t-16.5 44q0 28 20.5 48t49.5 20t48.5 -21.5t19.5 -56.5q0 -45 -29 -94t-73 -86h-52q25 17 47 56t22 65z" />
    <glyph glyph-name="uni2007" unicode="&#x2007;" 
 />
    <glyph glyph-name="uni200A" unicode="&#x200a;" horiz-adv-x="40" 
 />
    <glyph glyph-name="uni2009" unicode="&#x2009;" horiz-adv-x="120" 
 />
    <glyph glyph-name="uni20B9" unicode="&#x20b9;" horiz-adv-x="596" 
d="M561 594h-122q17 -23 26 -50h96v-103h-86q-9 -76 -58.5 -127t-129.5 -68l185 -246h-160l-179 243v103h85q42 0 72 27t39 68h-246v103h229q-32 50 -94 50h-135v106h478v-106z" />
    <glyph glyph-name="greaterequal" unicode="&#x2265;" 
d="M186 180l223 187l-283 244h162l295 -244l-231 -187h-166zM123 105h457v-114h-457v114z" />
    <glyph glyph-name="lessequal" unicode="&#x2264;" 
d="M512 180l-223 187l283 244h-162l-295 -244l231 -187h166zM575 105h-457v-114h457v114z" />
    <glyph glyph-name="minus" unicode="&#x2212;" 
d="M121 412h457v-114h-457v114z" />
    <glyph glyph-name="notequal" unicode="&#x2260;" 
d="M578 401h-142l-54 -108h196v-114h-254l-54 -106h-116l54 106h-87v114h145l56 108h-201v114h259l59 116h114l-59 -116h84v-114z" />
    <glyph glyph-name="lozenge" unicode="&#x25ca;" horiz-adv-x="740" 
d="M370 -14l-364 364l364 364l364 -364zM370 556l-206 -206l206 -206l207 206z" />
    <glyph glyph-name="afii61352" unicode="&#x2116;" horiz-adv-x="1111" 
d="M754 540q0 74 49.5 123.5t122.5 49.5q72 0 122 -49.5t50 -123.5t-50 -123t-122 -49q-73 0 -122.5 49t-49.5 123zM554 700h139v-700h-131l-199 270q-27 37 -63 87t-57 79l-21 30h-1v-31.5t0.5 -84.5t0.5 -124v-226h-139v700h131l203 -273q21 -27 55.5 -74.5t57.5 -80.5
l24 -33h1v34t-0.5 85.5t-0.5 112.5v229zM839 540q0 -39 24.5 -64.5t62.5 -25.5t62.5 25.5t24.5 64.5q0 40 -24.5 65.5t-62.5 25.5t-62.5 -25.5t-24.5 -65.5zM764 312h324v-85h-324v85z" />
    <glyph glyph-name="commaaccentcomb" unicode="&#x326;" horiz-adv-x="0" 
d="M108 -167l12 4l-12 2q-19 3 -34.5 18.5t-15.5 39.5q0 27 19 45.5t46 18.5t45.5 -20.5t18.5 -52.5q0 -42 -27 -87.5t-68 -79.5h-49q23 17 44 52.5t21 59.5z" />
    <glyph glyph-name="breve" unicode="&#x2d8;" horiz-adv-x="342" 
d="M-25 888h101q6 -25 27.5 -42t51.5 -17q29 0 51 17.5t27 41.5h100q-14 -64 -63.5 -104.5t-114.5 -40.5q-69 0 -117.5 40t-62.5 105z" />
    <glyph glyph-name="caron" unicode="&#x2c7;" horiz-adv-x="378" 
d="M-11 883l187 -158l186 158l-67 69l-119 -99l-119 99z" />
    <glyph glyph-name="dotaccent" unicode="&#x2d9;" horiz-adv-x="168" 
d="M69 766q-27 0 -46 19t-19 47q0 27 19 46t46 19q28 0 47 -19t19 -46q0 -28 -19 -47t-47 -19z" />
    <glyph glyph-name="hungarumlaut" unicode="&#x2dd;" horiz-adv-x="503" 
d="M472 834l-239 -103l-35 65l-152 -65l-40 74l231 124l40 -79l147 79z" />
    <glyph glyph-name="ogonek" unicode="&#x2db;" horiz-adv-x="600" 
d="M350 -97l73 -46q-25 -48 -69 -75t-96 -27q-77 0 -125.5 42t-48.5 113q0 62 44 105t85 43l90 -58q-46 0 -83 -23t-37 -67q0 -28 20 -48t55 -20q63 0 92 61z" />
    <glyph glyph-name="ring" unicode="&#x2da;" horiz-adv-x="284" 
d="M129 654q-56 0 -96.5 40.5t-40.5 95.5q0 56 40.5 96.5t96.5 40.5q57 0 97 -40.5t40 -96.5t-40 -96t-97 -40zM129 737q24 0 40.5 16t16.5 38q0 24 -16.5 40t-40.5 16q-22 0 -38 -16t-16 -40q0 -22 16 -38t38 -16z" />
    <glyph glyph-name="apple" horiz-adv-x="784" 
d="M657 82h44v45q0 91 -4.5 142t-8 61t-9.5 19l-25 29l-11 13l11 12l22 26q8 8 12 19t8.5 62t4.5 146v44h-44q-94 0 -145.5 -4.5t-62 -8.5t-19.5 -12l-20 -17l-17 -16l-18 16l-20 19q-8 7 -19 10.5t-63 8t-147 4.5h-43v-44q0 -93 4 -145t8 -62.5t11 -19.5l24 -27l10 -11
l-10 -12l-24 -27q-7 -8 -11 -18.5t-8 -62.5t-4 -146v-43h43q93 0 145 4t63 8t19 12l27 23l11 10l13 -10l27 -23q8 -8 18.5 -11.5t62 -8t145.5 -4.5zM391 256l-89 -79q-25 -5 -132 -7q4 111 7 132l79 89l-79 89q-3 20 -7 133q98 -2 133 -7l88 -81l91 81q35 5 132 7
q-4 -112 -7 -133l-81 -89l81 -91q4 -36 7 -130q-106 2 -133 7zM117 39l3 12q-4 3 -15 3q-21 0 -21 -17q0 -11 15 -16q9 -3 9 -6q0 -5 -7 -5q-2 0 -14 4l-4 -12q6 -3 16 -3q24 0 24 17q0 11 -14 16q-11 4 -11 7q0 4 7 4q4 0 12 -4zM562 40l4 12q-4 2 -14 2q-13 0 -21 -7.5
t-8 -21.5q0 -26 28 -26q8 0 14 2l-3 12q-3 -3 -9 -3q-15 0 -15 16q0 17 15 17q6 0 9 -3zM621 26q0 12 -7.5 20t-19.5 8t-19.5 -8t-7.5 -20q0 -27 27 -27t27 27zM141 20v-20h14v20l17 33h-16l-8 -23l-7 23h-17zM177 53v-53h13v35l19 -35h15v53h-13v-32l-16 32h-18zM229 42h14
v-42h13v42h14v11h-41v-11zM290 33v20h-15v-53h15v21h18v-21h14v53h-14v-20h-18zM327 53l17 -53h16l17 53h-15l-10 -39l-9 39h-16zM397 0v53h-15v-53h15zM420 21h19v11h-19v10h21v11h-36v-53h36v11h-21v10zM445 53l13 -53h15l7 35l6 -35h16l13 53h-14l-7 -36l-6 36h-15
l-6 -36l-7 36h-15zM672 40v-40h14l-2 53h-19l-9 -34l-8 34h-19l-4 -53h15v40l11 -39h10zM582 26q0 17 12 17q11 0 11 -17q0 -16 -11 -16q-12 0 -12 16zM516 -1q-6 0 -6 6t6 6t6 -6t-6 -6z" />
    </font>
</defs>
</svg>
