<?xml version="1.0" standalone="no"?>
<!DOCTYPE svg PUBLIC "-//W3C//DTD SVG 1.1//EN" "http://www.w3.org/Graphics/SVG/1.1/DTD/svg11.dtd" >
<svg xmlns="http://www.w3.org/2000/svg" width="100%" height="100%">
<metadata>
Created by FontXChange 20110222 at Fri Aug  2 11:07:57 2013
 By Viktor Solovey
Copyright (c) 2011 by Jan Tonellato. All rights reserved.
</metadata>
<defs>
<font id="Novecentowide-Bold" horiz-adv-x="698" >
  <font-face 
    font-family="Novecentowide"
    font-weight="700"
    font-stretch="expanded"
    units-per-em="1000"
    panose-1="0 0 8 5 0 0 0 0 0 0"
    ascent="850"
    descent="-150"
    x-height="700"
    cap-height="700"
    bbox="-240 -291 1303 977"
    underline-thickness="152"
    underline-position="-54"
    unicode-range="U+0020-25CA"
  />
<missing-glyph horiz-adv-x="656" 
d="M163 700h330q37 0 61 -23t24 -62v-530q0 -40 -23.5 -62.5t-61.5 -22.5h-330q-38 0 -61.5 22.5t-23.5 62.5v530q0 39 24 62t61 23zM555 96v359l-115 -115l115 -116l-112 -112l-115 116l-114 -114l-112 112l114 114l-115 114l112 112l115 -114l116 116l111 -111v147
q0 41 -20 58.5t-64 17.5h-286q-47 0 -65.5 -17t-18.5 -59v-508q0 -76 74 -76h306q38 0 56 17.5t18 58.5z" />
    <glyph glyph-name=".notdef" horiz-adv-x="656" 
d="M163 700h330q37 0 61 -23t24 -62v-530q0 -40 -23.5 -62.5t-61.5 -22.5h-330q-38 0 -61.5 22.5t-23.5 62.5v530q0 39 24 62t61 23zM555 96v359l-115 -115l115 -116l-112 -112l-115 116l-114 -114l-112 112l114 114l-115 114l112 112l115 -114l116 116l111 -111v147
q0 41 -20 58.5t-64 17.5h-286q-47 0 -65.5 -17t-18.5 -59v-508q0 -76 74 -76h306q38 0 56 17.5t18 58.5z" />
    <glyph glyph-name=".null" horiz-adv-x="0" 
 />
    <glyph glyph-name="nonmarkingreturn" horiz-adv-x="333" 
 />
    <glyph glyph-name="space" unicode=" " horiz-adv-x="250" 
 />
    <glyph glyph-name="exclam" unicode="!" horiz-adv-x="324" 
d="M78 215v485h168v-485h-168zM78 0v157h168v-157h-168z" />
    <glyph glyph-name="quotedbl" unicode="&#x22;" horiz-adv-x="603" 
d="M78 483v217h157v-217h-157zM368 483v217h157v-217h-157z" />
    <glyph glyph-name="numbersign" unicode="#" horiz-adv-x="933" 
d="M826 417h-97l-68 -139h96l-76 -146h-92l-65 -132h-175l68 132h-131l-65 -132h-175l68 132h-87l77 146h84l71 139h-87l77 146h85l70 137h161l-67 -137h139l70 137h161l-67 -137h101zM491 278l71 139h-136l-68 -139h133z" />
    <glyph glyph-name="dollar" unicode="$" horiz-adv-x="614" 
d="M583 522l-162 -44q-12 44 -46.5 67.5t-74.5 23.5q-36 0 -57.5 -15.5t-21.5 -37.5q0 -10 3.5 -18t13 -15.5t17.5 -13t25 -12.5t27.5 -11t33.5 -12t35 -12q44 -16 78 -33.5t66.5 -43.5t50.5 -61.5t18 -78.5q0 -78 -50.5 -134t-137.5 -76v-85h-168v86q-155 38 -213 202
l161 43q15 -44 52.5 -75t89.5 -31q43 0 65.5 17.5t22.5 44.5q0 16 -8 28.5t-28.5 23.5t-37 17.5t-52.5 18.5t-56 20q-39 15 -65 28.5t-55.5 37t-45 57.5t-15.5 78q0 68 51 123.5t134 75.5v85h168v-89q67 -21 115 -68.5t67 -110.5z" />
    <glyph glyph-name="percent" unicode="%" horiz-adv-x="880" 
d="M188 305q-79 0 -128.5 56.5t-49.5 144.5t49.5 145t128.5 57q78 0 127.5 -57t49.5 -145t-49.5 -144.5t-127.5 -56.5zM135 0l502 700h108l-502 -700h-108zM188 416q30 0 48.5 26t18.5 64q0 39 -18.5 65t-48.5 26t-49 -26.5t-19 -64.5t19 -64t49 -26zM693 -8
q-79 0 -128.5 56.5t-49.5 144.5t49.5 145t128.5 57q78 0 127.5 -57t49.5 -145t-49.5 -144.5t-127.5 -56.5zM693 103q30 0 48.5 26t18.5 64q0 39 -18.5 65t-48.5 26t-49 -26.5t-19 -64.5t19 -64t49 -26z" />
    <glyph glyph-name="ampersand" unicode="&#x26;" horiz-adv-x="709" 
d="M709 424v-131h-123v-59q0 -107 -70 -177.5t-212 -70.5q-121 0 -195 61t-74 161q0 58 39.5 101t96.5 51v1q-47 5 -87 44t-40 102q0 90 68 148.5t184 58.5q101 0 168 -52.5t90 -144.5l-141 -39q-17 50 -42 72.5t-70 22.5q-42 0 -62 -22.5t-20 -49.5q0 -34 24.5 -55.5
t72.5 -21.5h393zM428 243v50h-124q-52 0 -78.5 -22t-26.5 -59q0 -35 29.5 -58.5t75.5 -23.5q62 0 93 26.5t31 86.5z" />
    <glyph glyph-name="quotesingle" unicode="'" horiz-adv-x="313" 
d="M78 483v217h157v-217h-157z" />
    <glyph glyph-name="parenleft" unicode="(" horiz-adv-x="394" 
d="M334 825l42 -160q-94 -28 -133.5 -107.5t-39.5 -215.5t39.5 -215.5t133.5 -107.5l-42 -160q-26 8 -46.5 16.5t-53 27.5t-57.5 42t-53 61t-46.5 83.5t-30.5 110.5t-12 142t12 142t30.5 110.5t46.5 83.5t53 61t57.5 42t53 27.5t46.5 16.5z" />
    <glyph glyph-name="parenright" unicode=")" horiz-adv-x="394" 
d="M60 825l-42 -160q94 -28 133.5 -107.5t39.5 -215.5t-39.5 -215.5t-133.5 -107.5l42 -160q26 8 46.5 16.5t53 27.5t57.5 42t53 61t46.5 83.5t30.5 110.5t12 142t-12 142t-30.5 110.5t-46.5 83.5t-53 61t-57.5 42t-53 27.5t-46.5 16.5z" />
    <glyph glyph-name="asterisk" unicode="*" horiz-adv-x="508" 
d="M398 632l32 -100l-95 -27l61 -79l-85 -63l-57 84l-56 -84l-86 62l61 80l-95 27l32 100l91 -31v99h104v-99z" />
    <glyph glyph-name="plus" unicode="+" 
d="M576 423v-137h-153v-161h-146v161h-154v137h153v161h146v-161h154z" />
    <glyph glyph-name="comma" unicode="," horiz-adv-x="277" 
d="M118 -9l15 4l-15 2q-23 3 -40.5 22.5t-17.5 48.5q0 32 23 55t56 23t55.5 -24.5t22.5 -63.5q0 -46 -32.5 -98.5t-81.5 -91.5h-61q26 16 51 57.5t25 65.5z" />
    <glyph glyph-name="hyphen" unicode="-" horiz-adv-x="609" 
d="M78 423h453v-137h-453v137z" />
    <glyph glyph-name="period" unicode="." horiz-adv-x="277" 
d="M139 -12q-33 0 -56 23t-23 56q0 32 23 55t56 23q32 0 55 -23t23 -55q0 -33 -23 -56t-55 -23z" />
    <glyph glyph-name="slash" unicode="/" horiz-adv-x="519" 
d="M0 0l358 700h161l-344 -700h-175z" />
    <glyph glyph-name="zero" unicode="0" horiz-adv-x="717" 
d="M358 714q147 0 235.5 -104.5t88.5 -259.5t-88.5 -259.5t-235.5 -104.5t-235 104.5t-88 259.5t88 259.5t235 104.5zM358 548q-75 0 -111.5 -54t-36.5 -144t36.5 -144t111.5 -54q74 0 111.5 54.5t37.5 143.5t-37.5 143.5t-111.5 54.5z" />
    <glyph glyph-name="one" unicode="1" horiz-adv-x="470" 
d="M275 700h117v-700h-168v337q0 21 1 51t1 48l1 18h-1l-8 -9q-8 -9 -22 -25t-27 -29l-31 -31l-103 99z" />
    <glyph glyph-name="two" unicode="2" horiz-adv-x="612" 
d="M207 478l-155 41q26 87 95 141t170 54q113 0 183.5 -65t70.5 -163q0 -47 -13.5 -84.5t-44.5 -70t-52.5 -49.5t-65.5 -48q-25 -18 -55 -38t-46 -32l-17 -11l1 -1h4q5 1 13 1t19 0.5t26 1.5t32 1t38 0.5t43 0.5h119v-157h-514v137q48 42 143.5 127t143.5 127q56 48 56 95
q0 33 -24.5 56.5t-64.5 23.5q-73 0 -105 -88z" />
    <glyph glyph-name="three" unicode="3" horiz-adv-x="614" 
d="M196 478l-150 40q23 90 94.5 143t173.5 53q116 0 184 -58.5t68 -148.5q0 -63 -44 -103t-90 -42v-1q59 0 103 -42t44 -111q0 -97 -74.5 -159.5t-190.5 -62.5q-100 0 -179 55t-100 139l152 42q13 -39 43.5 -62.5t76.5 -23.5q40 0 68.5 22t28.5 59q0 34 -27.5 55t-73.5 21
h-59v131h59q44 0 66.5 20t22.5 51q0 32 -24.5 51.5t-64.5 19.5q-76 0 -107 -88z" />
    <glyph glyph-name="four" unicode="4" horiz-adv-x="658" 
d="M618 272v-146h-75v-126h-158v126h-350v126l370 448h138v-428h75zM309 272h76v34v32t0.5 32.5t0.5 30.5t0.5 28t1 22.5t0.5 14.5v6h-1l-11 -14q-11 -15 -28 -37.5t-29 -36.5l-56 -66l-38 -46v-1q1 0 12.5 0.5t31.5 0.5h40z" />
    <glyph glyph-name="five" unicode="5" horiz-adv-x="620" 
d="M238 444l1 -1q26 16 79 16q112 0 187 -65t75 -165q0 -104 -75 -173.5t-187 -69.5q-101 0 -173.5 52t-92.5 125l154 41q28 -74 105 -74q43 0 71 28.5t28 72.5t-29 72t-70 28q-71 0 -90 -50l-145 40l63 379h398v-157h-277l-2 -10q-6 -29 -11 -51.5t-7 -29.5z" />
    <glyph glyph-name="six" unicode="6" horiz-adv-x="605" 
d="M477 700l-186 -248l1 -1q24 19 57 19q108 0 172 -71.5t64 -175.5q0 -105 -78.5 -171t-197.5 -66q-116 0 -195 67t-79 180q0 76 30.5 139t95.5 149l135 179h181zM315 133q49 0 79.5 28.5t30.5 71.5q0 45 -31 72.5t-79 27.5q-49 0 -79.5 -28t-30.5 -72q0 -45 31 -72.5
t79 -27.5z" />
    <glyph glyph-name="seven" unicode="7" horiz-adv-x="576" 
d="M30 700h536v-97l-338 -603h-180l213 375q21 36 47 78.5t42 66.5l16 24l-1 1h-7q-7 0 -18 -0.5t-24 -1t-27 -0.5h-24h-235v157z" />
    <glyph glyph-name="eight" unicode="8" horiz-adv-x="606" 
d="M433 373v-1q54 -13 96 -60t42 -113q0 -90 -76 -151.5t-192 -62.5q-116 1 -192 62.5t-76 151.5q0 67 42 113.5t96 59.5v1q-33 6 -69.5 49.5t-36.5 102.5q0 81 67 135t169 54t169 -54t67 -135q0 -59 -36.5 -102.5t-69.5 -49.5zM209 517q0 -32 26.5 -52.5t67.5 -20.5
t67.5 21t26.5 52q0 34 -26.5 55.5t-67.5 21.5q-42 0 -68 -22t-26 -55zM195 204q0 -39 30.5 -63.5t77.5 -24.5q48 0 78 25t30 63q0 39 -30.5 63.5t-77.5 24.5q-48 0 -78 -25t-30 -63z" />
    <glyph glyph-name="nine" unicode="9" horiz-adv-x="606" 
d="M98 0l216 246l-1 1q-14 -17 -54 -17q-115 0 -177 69.5t-62 174.5q0 108 78 174t198 66q117 0 196 -67t79 -180q0 -137 -117 -274l-165 -193h-191zM292 566q-49 0 -79.5 -28t-30.5 -72q0 -45 31 -72.5t79 -27.5q49 0 79.5 28.5t30.5 71.5q0 45 -31 72.5t-79 27.5z" />
    <glyph glyph-name="colon" unicode=":" horiz-adv-x="277" 
d="M139 278q-33 0 -56 23t-23 56q0 32 23 55t56 23q32 0 55 -23t23 -55q0 -33 -23 -56t-55 -23zM139 -12q-33 0 -56 23t-23 56q0 32 23 55t56 23q32 0 55 -23t23 -55q0 -33 -23 -56t-55 -23z" />
    <glyph glyph-name="semicolon" unicode=";" horiz-adv-x="295" 
d="M157 278q-33 0 -56 23t-23 56q0 32 23 55t56 23q32 0 55 -23t23 -55q0 -33 -23 -56t-55 -23zM136 -9l15 4l-15 2q-23 3 -40.5 22.5t-17.5 48.5q0 32 23 55t56 23t55.5 -24.5t22.5 -63.5q0 -46 -32.5 -98.5t-81.5 -91.5h-61q26 16 51 57.5t25 65.5z" />
    <glyph glyph-name="less" unicode="&#x3c;" 
d="M570 122l-249 245l249 244h-190l-264 -244l264 -245h190z" />
    <glyph glyph-name="equal" unicode="=" 
d="M123 533h453v-137h-453v137zM123 293h453v-137h-453v137z" />
    <glyph glyph-name="greater" unicode="&#x3e;" 
d="M128 122l249 245l-249 244h190l264 -244l-264 -245h-190z" />
    <glyph glyph-name="question" unicode="?" horiz-adv-x="590" 
d="M206 215v130q122 74 145 95q29 26 29 56q0 26 -20.5 48.5t-63.5 22.5q-47 0 -75 -21t-45 -68l-141 39q23 91 94.5 144t173.5 53q116 0 184 -58.5t68 -148.5q0 -43 -13 -76t-44 -61t-53.5 -42t-70.5 -42v-71h-168zM206 0v157h168v-157h-168z" />
    <glyph glyph-name="at" unicode="@" horiz-adv-x="803" 
d="M463 524h106v-243q0 -70 43 -70q58 0 58 134q0 121 -76 200t-194 79q-116 0 -192 -79t-76 -200q0 -119 76 -197.5t192 -78.5q52 0 90.5 11t54.5 21t17 10l73 -36q0 -3 -8.5 -12t-28 -22.5t-45.5 -25.5t-66.5 -20.5t-86.5 -8.5q-159 0 -262 101.5t-103 257.5
q0 160 103 264.5t262 104.5q160 0 264 -104.5t104 -264.5q0 -37 -9 -72.5t-28 -68t-54 -52.5t-81 -20q-40 0 -73.5 24t-41.5 57l-1 1q-11 -28 -45.5 -52t-72.5 -24q-79 0 -127.5 55t-48.5 145q0 91 51 146.5t135 55.5q35 0 59 -17.5t31 -31.5h1v33zM463 333v8
q1 49 -22.5 68.5t-52.5 19.5q-30 0 -55 -22.5t-24 -65.5q1 -45 25 -66.5t54 -21.5q26 0 50 19.5t25 60.5z" />
    <glyph glyph-name="A" unicode="A" horiz-adv-x="719" 
d="M538 0l-40 110h-277l-40 -110h-181l280 700h159l280 -700h-181zM275 257h169l-50 136q-6 17 -14.5 43.5t-13.5 43.5l-6 16h-1l-5 -16q-6 -17 -14.5 -43.5t-14.5 -43.5z" />
    <glyph glyph-name="B" unicode="B" horiz-adv-x="660" 
d="M78 700h304q92 0 152 -53.5t60 -131.5q0 -47 -26.5 -86t-60.5 -51v-1q50 -14 86.5 -63t36.5 -102q0 -93 -63 -152.5t-187 -59.5h-302v700zM246 427h101q34 0 56 18.5t22 47.5t-22 47.5t-56 18.5h-101v-132zM246 141h117q41 0 66 22t25 57q0 36 -25.5 57.5t-65.5 21.5
h-117v-158z" />
    <glyph glyph-name="C" unicode="C" horiz-adv-x="754" 
d="M716 528l-171 -45q-24 30 -64.5 47.5t-82.5 17.5q-86 0 -137 -55t-51 -143q0 -89 52.5 -142.5t135.5 -53.5q50 0 94 23t66 59l170 -44q-44 -94 -132.5 -150t-197.5 -56q-152 0 -257.5 103.5t-105.5 260.5t105.5 260.5t257.5 103.5q102 0 186.5 -50.5t131.5 -135.5z" />
    <glyph glyph-name="D" unicode="D" horiz-adv-x="781" 
d="M78 700h306q153 0 257.5 -99t104.5 -254q0 -154 -104.5 -250.5t-257.5 -96.5h-306v700zM246 157h138q78 0 132.5 51.5t54.5 138.5t-54.5 141.5t-132.5 54.5h-138v-386z" />
    <glyph glyph-name="E" unicode="E" horiz-adv-x="663" 
d="M246 157h347v-157h-515v700h509v-157h-341v-115h267v-147h-267v-124z" />
    <glyph glyph-name="F" unicode="F" horiz-adv-x="612" 
d="M577 543h-331v-137h257v-151h-257v-255h-168v700h499v-157z" />
    <glyph glyph-name="G" unicode="G" horiz-adv-x="792" 
d="M589 57h-1q-30 -32 -83.5 -51.5t-106.5 -19.5q-152 0 -257.5 103.5t-105.5 260.5t105.5 260.5t257.5 103.5q101 0 185.5 -50t132.5 -136l-171 -45q-24 30 -64.5 47.5t-82.5 17.5q-86 0 -137 -55t-51 -143q0 -91 55.5 -145.5t142.5 -54.5q139 0 181 110v1h-184v135h327
v-396h-144v17.5v14v10t0.5 7t0.5 4.5v3v1z" />
    <glyph glyph-name="H" unicode="H" horiz-adv-x="754" 
d="M508 700h168v-700h-168v272h-262v-272h-168v700h168v-271h262v271z" />
    <glyph glyph-name="I" unicode="I" horiz-adv-x="324" 
d="M246 0h-168v700h168v-700z" />
    <glyph glyph-name="J" unicode="J" horiz-adv-x="679" 
d="M446 700h168v-389q0 -154 -86.5 -239.5t-228.5 -85.5q-99 0 -178 50t-111 129l165 44q38 -66 124 -66q69 0 108 43.5t39 118.5v395z" />
    <glyph glyph-name="K" unicode="K" horiz-adv-x="733" 
d="M715 0h-198l-212 291l-59 -59v-232h-168v700h168v-114q0 -50 -0.5 -88.5t-1.5 -49.5v-12h1l7 8q8 8 31 32t54 55l170 169h206l-297 -298z" />
    <glyph glyph-name="L" unicode="L" horiz-adv-x="597" 
d="M246 157h331v-157h-499v700h168v-543z" />
    <glyph glyph-name="M" unicode="M" horiz-adv-x="855" 
d="M619 700h158v-700h-165v171q0 73 1.5 135.5t2.5 87.5l1 25h-1l-14 -23q-15 -24 -31.5 -52.5t-17.5 -30.5l-82 -140h-87l-82 140q-1 2 -17.5 30.5t-30.5 52.5l-15 23h-1l1 -25q1 -25 2.5 -87.5t1.5 -135.5v-171h-165v700h158l131 -212q22 -36 37 -62t19 -32l4 -7h1l4 7
q4 6 19 32t37 62z" />
    <glyph glyph-name="N" unicode="N" horiz-adv-x="784" 
d="M538 700h168v-700h-158l-143 195q-27 37 -67.5 94t-65.5 92l-26 35h-1v-34t0.5 -91.5t0.5 -135.5v-155h-168v700h158l149 -200q19 -26 57.5 -79.5t67.5 -92.5l28 -39h1v36.5t-0.5 93t-0.5 121.5v160z" />
    <glyph glyph-name="O" unicode="O" horiz-adv-x="797" 
d="M35 350q0 157 105.5 260.5t257.5 103.5q153 0 258.5 -103.5t105.5 -260.5t-105.5 -260.5t-258.5 -103.5q-152 0 -257.5 103.5t-105.5 260.5zM210 350q0 -88 52 -143t136 -55q85 0 137 55t52 143q0 89 -52 143.5t-137 54.5t-136.5 -54.5t-51.5 -143.5z" />
    <glyph glyph-name="P" unicode="P" horiz-adv-x="651" 
d="M78 700h267q129 0 202.5 -64t73.5 -176t-73.5 -176t-202.5 -64h-99v-220h-168v700zM246 377h96q49 0 76.5 22t27.5 61t-27.5 61t-76.5 22h-96v-166z" />
    <glyph glyph-name="Q" unicode="Q" horiz-adv-x="797" 
d="M312 -132v128q-121 27 -199 124t-78 230q0 157 105.5 260.5t257.5 103.5q153 0 258.5 -103.5t105.5 -260.5q0 -134 -79 -231t-203 -124v-127h-168zM398 152q85 0 137 55t52 143q0 89 -52 143.5t-137 54.5t-136.5 -54.5t-51.5 -143.5q0 -88 52 -143t136 -55z" />
    <glyph glyph-name="R" unicode="R" horiz-adv-x="680" 
d="M650 0h-188l-130 228h-86v-228h-168v700h261q131 0 206.5 -65.5t75.5 -174.5q0 -143 -126 -202zM246 543v-166h116q42 0 63 25t21 58t-21 58t-63 25h-116z" />
    <glyph glyph-name="S" unicode="S" horiz-adv-x="614" 
d="M583 522l-162 -44q-12 44 -46.5 67.5t-74.5 23.5q-36 0 -57.5 -15.5t-21.5 -37.5q0 -10 3.5 -18t13 -15.5t17.5 -13t25 -12.5t27.5 -11t33.5 -12t35 -12q44 -16 78 -33.5t66.5 -43.5t50.5 -61.5t18 -78.5q0 -96 -75.5 -157.5t-197.5 -61.5q-108 0 -184.5 56t-111.5 156
l161 43q15 -44 52.5 -75t89.5 -31q43 0 65.5 17.5t22.5 44.5q0 16 -8 28.5t-28.5 23.5t-37 17.5t-52.5 18.5t-56 20q-39 15 -65 28.5t-55.5 37t-45 57.5t-15.5 78q0 84 75 146t187 62q99 0 173.5 -54t99.5 -138z" />
    <glyph glyph-name="T" unicode="T" horiz-adv-x="611" 
d="M10 700h591v-157h-213v-543h-168v543h-210v157z" />
    <glyph glyph-name="U" unicode="U" horiz-adv-x="748" 
d="M515 700h168v-389q0 -155 -84 -240t-225 -85q-142 0 -225.5 85t-83.5 240v389h168v-385q0 -172 141 -172t141 172v385z" />
    <glyph glyph-name="V" unicode="V" horiz-adv-x="719" 
d="M535 700h184l-269 -700h-181l-269 700h184l135 -386q12 -34 22 -66.5t14 -47.5l4 -14h1l4 14q4 15 14 47.5t22 66.5z" />
    <glyph glyph-name="W" unicode="W" horiz-adv-x="1051" 
d="M852 700h179l-212 -700h-158l-104 323q-10 30 -17.5 60t-10.5 44l-3 14h-1l-3 -14q-3 -14 -10.5 -44t-17.5 -60l-104 -323h-158l-212 700h179l86 -330q7 -28 14 -57.5t11 -42.5l3 -13h1l4 13q4 14 13 42.5t19 57.5l97 264h157l97 -264q10 -29 19 -57.5t13 -42.5l4 -13h1
l4 13q3 13 10 42.5t14 57.5z" />
    <glyph glyph-name="X" unicode="X" horiz-adv-x="689" 
d="M345 214h-1l-11 -19q-11 -19 -24 -41.5t-17 -28.5l-82 -125h-200l234 357l-224 343h202l84 -137q4 -7 13.5 -24.5t16.5 -30.5l8 -14h1l7 14q8 13 17.5 30.5t13.5 24.5l84 137h202l-224 -343l234 -357h-200l-82 125q-4 6 -17 28.5t-24 41.5z" />
    <glyph glyph-name="Y" unicode="Y" horiz-adv-x="723" 
d="M525 700h188l-268 -390v-310h-167v310l-268 390h188l127 -187q34 -51 36 -51h1q2 0 36 51z" />
    <glyph glyph-name="Z" unicode="Z" horiz-adv-x="712" 
d="M652 700v-157l-298 -321q-13 -14 -30 -31t-26 -27l-9 -9l1 -1h3q3 0 8.5 0.5t13 1t17 0.5t20 0.5t23 0.5h24.5h253v-157h-592v157l312 328q11 12 27.5 27t26.5 24l11 9l-1 1h-8q-7 -1 -18.5 -1.5t-25 -0.5t-29.5 -0.5t-28 -0.5h-257v157h582z" />
    <glyph glyph-name="bracketleft" unicode="[" horiz-adv-x="390" 
d="M246 699v-694h134v-157h-302v1008h302v-157h-134z" />
    <glyph glyph-name="backslash" unicode="\" horiz-adv-x="519" 
d="M519 0l-358 700h-161l344 -700h175z" />
    <glyph glyph-name="bracketright" unicode="]" horiz-adv-x="390" 
d="M144 699v-694h-134v-157h302v1008h-302v-157h134z" />
    <glyph glyph-name="asciicircum" unicode="^" horiz-adv-x="624" 
d="M546 477l-72 -63l-162 167l-162 -167l-72 63l234 235z" />
    <glyph glyph-name="underscore" unicode="_" horiz-adv-x="783" 
d="M78 0h627v-133h-627v133z" />
    <glyph glyph-name="grave" unicode="`" horiz-adv-x="321" 
d="M244 727l-248 103l57 113l239 -128z" />
    <glyph glyph-name="a" unicode="a" horiz-adv-x="719" 
d="M538 0l-40 110h-277l-40 -110h-181l280 700h159l280 -700h-181zM275 257h169l-50 136q-6 17 -14.5 43.5t-13.5 43.5l-6 16h-1l-5 -16q-6 -17 -14.5 -43.5t-14.5 -43.5z" />
    <glyph glyph-name="b" unicode="b" horiz-adv-x="660" 
d="M78 700h304q92 0 152 -53.5t60 -131.5q0 -47 -26.5 -86t-60.5 -51v-1q50 -14 86.5 -63t36.5 -102q0 -93 -63 -152.5t-187 -59.5h-302v700zM246 427h101q34 0 56 18.5t22 47.5t-22 47.5t-56 18.5h-101v-132zM246 141h117q41 0 66 22t25 57q0 36 -25.5 57.5t-65.5 21.5
h-117v-158z" />
    <glyph glyph-name="c" unicode="c" horiz-adv-x="754" 
d="M716 528l-171 -45q-24 30 -64.5 47.5t-82.5 17.5q-86 0 -137 -55t-51 -143q0 -89 52.5 -142.5t135.5 -53.5q50 0 94 23t66 59l170 -44q-44 -94 -132.5 -150t-197.5 -56q-152 0 -257.5 103.5t-105.5 260.5t105.5 260.5t257.5 103.5q102 0 186.5 -50.5t131.5 -135.5z" />
    <glyph glyph-name="d" unicode="d" horiz-adv-x="781" 
d="M78 700h306q153 0 257.5 -99t104.5 -254q0 -154 -104.5 -250.5t-257.5 -96.5h-306v700zM246 157h138q78 0 132.5 51.5t54.5 138.5t-54.5 141.5t-132.5 54.5h-138v-386z" />
    <glyph glyph-name="e" unicode="e" horiz-adv-x="663" 
d="M246 157h347v-157h-515v700h509v-157h-341v-115h267v-147h-267v-124z" />
    <glyph glyph-name="f" unicode="f" horiz-adv-x="612" 
d="M577 543h-331v-137h257v-151h-257v-255h-168v700h499v-157z" />
    <glyph glyph-name="g" unicode="g" horiz-adv-x="792" 
d="M589 57h-1q-30 -32 -83.5 -51.5t-106.5 -19.5q-152 0 -257.5 103.5t-105.5 260.5t105.5 260.5t257.5 103.5q101 0 185.5 -50t132.5 -136l-171 -45q-24 30 -64.5 47.5t-82.5 17.5q-86 0 -137 -55t-51 -143q0 -91 55.5 -145.5t142.5 -54.5q139 0 181 110v1h-184v135h327
v-396h-144v17.5v14v10t0.5 7t0.5 4.5v3v1z" />
    <glyph glyph-name="h" unicode="h" horiz-adv-x="754" 
d="M508 700h168v-700h-168v272h-262v-272h-168v700h168v-271h262v271z" />
    <glyph glyph-name="i" unicode="i" horiz-adv-x="324" 
d="M246 0h-168v700h168v-700z" />
    <glyph glyph-name="j" unicode="j" horiz-adv-x="679" 
d="M446 700h168v-389q0 -154 -86.5 -239.5t-228.5 -85.5q-99 0 -178 50t-111 129l165 44q38 -66 124 -66q69 0 108 43.5t39 118.5v395z" />
    <glyph glyph-name="k" unicode="k" horiz-adv-x="733" 
d="M715 0h-198l-212 291l-59 -59v-232h-168v700h168v-114q0 -50 -0.5 -88.5t-1.5 -49.5v-12h1l7 8q8 8 31 32t54 55l170 169h206l-297 -298z" />
    <glyph glyph-name="l" unicode="l" horiz-adv-x="597" 
d="M246 157h331v-157h-499v700h168v-543z" />
    <glyph glyph-name="m" unicode="m" horiz-adv-x="855" 
d="M619 700h158v-700h-165v171q0 73 1.5 135.5t2.5 87.5l1 25h-1l-14 -23q-15 -24 -31.5 -52.5t-17.5 -30.5l-82 -140h-87l-82 140q-1 2 -17.5 30.5t-30.5 52.5l-15 23h-1l1 -25q1 -25 2.5 -87.5t1.5 -135.5v-171h-165v700h158l131 -212q22 -36 37 -62t19 -32l4 -7h1l4 7
q4 6 19 32t37 62z" />
    <glyph glyph-name="n" unicode="n" horiz-adv-x="784" 
d="M538 700h168v-700h-158l-143 195q-27 37 -67.5 94t-65.5 92l-26 35h-1v-34t0.5 -91.5t0.5 -135.5v-155h-168v700h158l149 -200q19 -26 57.5 -79.5t67.5 -92.5l28 -39h1v36.5t-0.5 93t-0.5 121.5v160z" />
    <glyph glyph-name="o" unicode="o" horiz-adv-x="797" 
d="M35 350q0 157 105.5 260.5t257.5 103.5q153 0 258.5 -103.5t105.5 -260.5t-105.5 -260.5t-258.5 -103.5q-152 0 -257.5 103.5t-105.5 260.5zM210 350q0 -88 52 -143t136 -55q85 0 137 55t52 143q0 89 -52 143.5t-137 54.5t-136.5 -54.5t-51.5 -143.5z" />
    <glyph glyph-name="p" unicode="p" horiz-adv-x="651" 
d="M78 700h267q129 0 202.5 -64t73.5 -176t-73.5 -176t-202.5 -64h-99v-220h-168v700zM246 377h96q49 0 76.5 22t27.5 61t-27.5 61t-76.5 22h-96v-166z" />
    <glyph glyph-name="q" unicode="q" horiz-adv-x="797" 
d="M312 -132v128q-121 27 -199 124t-78 230q0 157 105.5 260.5t257.5 103.5q153 0 258.5 -103.5t105.5 -260.5q0 -134 -79 -231t-203 -124v-127h-168zM398 152q85 0 137 55t52 143q0 89 -52 143.5t-137 54.5t-136.5 -54.5t-51.5 -143.5q0 -88 52 -143t136 -55z" />
    <glyph glyph-name="r" unicode="r" horiz-adv-x="680" 
d="M650 0h-188l-130 228h-86v-228h-168v700h261q131 0 206.5 -65.5t75.5 -174.5q0 -143 -126 -202zM246 543v-166h116q42 0 63 25t21 58t-21 58t-63 25h-116z" />
    <glyph glyph-name="s" unicode="s" horiz-adv-x="614" 
d="M583 522l-162 -44q-12 44 -46.5 67.5t-74.5 23.5q-36 0 -57.5 -15.5t-21.5 -37.5q0 -10 3.5 -18t13 -15.5t17.5 -13t25 -12.5t27.5 -11t33.5 -12t35 -12q44 -16 78 -33.5t66.5 -43.5t50.5 -61.5t18 -78.5q0 -96 -75.5 -157.5t-197.5 -61.5q-108 0 -184.5 56t-111.5 156
l161 43q15 -44 52.5 -75t89.5 -31q43 0 65.5 17.5t22.5 44.5q0 16 -8 28.5t-28.5 23.5t-37 17.5t-52.5 18.5t-56 20q-39 15 -65 28.5t-55.5 37t-45 57.5t-15.5 78q0 84 75 146t187 62q99 0 173.5 -54t99.5 -138z" />
    <glyph glyph-name="t" unicode="t" horiz-adv-x="611" 
d="M10 700h591v-157h-213v-543h-168v543h-210v157z" />
    <glyph glyph-name="u" unicode="u" horiz-adv-x="748" 
d="M515 700h168v-389q0 -155 -84 -240t-225 -85q-142 0 -225.5 85t-83.5 240v389h168v-385q0 -172 141 -172t141 172v385z" />
    <glyph glyph-name="v" unicode="v" horiz-adv-x="719" 
d="M535 700h184l-269 -700h-181l-269 700h184l135 -386q12 -34 22 -66.5t14 -47.5l4 -14h1l4 14q4 15 14 47.5t22 66.5z" />
    <glyph glyph-name="w" unicode="w" horiz-adv-x="1051" 
d="M852 700h179l-212 -700h-158l-104 323q-10 30 -17.5 60t-10.5 44l-3 14h-1l-3 -14q-3 -14 -10.5 -44t-17.5 -60l-104 -323h-158l-212 700h179l86 -330q7 -28 14 -57.5t11 -42.5l3 -13h1l4 13q4 14 13 42.5t19 57.5l97 264h157l97 -264q10 -29 19 -57.5t13 -42.5l4 -13h1
l4 13q3 13 10 42.5t14 57.5z" />
    <glyph glyph-name="x" unicode="x" horiz-adv-x="689" 
d="M345 214h-1l-11 -19q-11 -19 -24 -41.5t-17 -28.5l-82 -125h-200l234 357l-224 343h202l84 -137q4 -7 13.5 -24.5t16.5 -30.5l8 -14h1l7 14q8 13 17.5 30.5t13.5 24.5l84 137h202l-224 -343l234 -357h-200l-82 125q-4 6 -17 28.5t-24 41.5z" />
    <glyph glyph-name="y" unicode="y" horiz-adv-x="723" 
d="M525 700h188l-268 -390v-310h-167v310l-268 390h188l127 -187q34 -51 36 -51h1q2 0 36 51z" />
    <glyph glyph-name="z" unicode="z" horiz-adv-x="712" 
d="M652 700v-157l-298 -321q-13 -14 -30 -31t-26 -27l-9 -9l1 -1h3q3 0 8.5 0.5t13 1t17 0.5t20 0.5t23 0.5h24.5h253v-157h-592v157l312 328q11 12 27.5 27t26.5 24l11 9l-1 1h-8q-7 -1 -18.5 -1.5t-25 -0.5t-29.5 -0.5t-28 -0.5h-257v157h582z" />
    <glyph glyph-name="braceleft" unicode="{" horiz-adv-x="454" 
d="M310 572v-59q0 -38 -5 -68.5t-12 -47t-15.5 -27.5t-13.5 -14.5t-8 -3.5q3 0 8 -3.5t13.5 -14.5t15.5 -27.5t12 -47t5 -68.5v-59q0 -89 36 -119t98 -30v-157q-146 0 -224 76t-78 200v96q0 38 -6.5 67.5t-16 45t-19 25.5t-16.5 13l-6 3q3 1 7 3t15 12.5t19.5 25.5t15.5 45
t7 68v96q0 124 78 200t224 76v-157q-62 0 -98 -30t-36 -119z" />
    <glyph glyph-name="bar" unicode="|" horiz-adv-x="288" 
d="M210 -74h-132v849h132v-849z" />
    <glyph glyph-name="braceright" unicode="}" horiz-adv-x="454" 
d="M144 572v-59q0 -38 5 -68.5t12 -47t15.5 -27.5t13.5 -14.5t8 -3.5q-3 0 -8 -3.5t-13.5 -14.5t-15.5 -27.5t-12 -47t-5 -68.5v-59q0 -89 -36 -119t-98 -30v-157q146 0 224 76t78 200v96q0 38 6.5 67.5t16 45t19 25.5t16.5 13l6 3q-3 1 -7 3t-15 12.5t-19.5 25.5t-15.5 45
t-7 68v96q0 124 -78 200t-224 76v-157q62 0 98 -30t36 -119z" />
    <glyph glyph-name="asciitilde" unicode="~" 
d="M516 435l139 -37q-10 -75 -64 -111.5t-116 -36.5q-52 0 -123 31t-92 31q-38 0 -52.5 -18.5t-14.5 -42.5l-137 37q7 51 37.5 86t66.5 48t75 13q51 0 123 -31t92 -31q37 0 51.5 19t14.5 43z" />
    <glyph glyph-name="Euro" unicode="&#x20ac;" horiz-adv-x="802" 
d="M608 235l168 -42q-43 -94 -131 -149.5t-197 -55.5q-118 0 -211 65.5t-130 173.5h-72v108h52v15v15h-51v108h71q37 108 130 173.5t211 65.5q102 0 186 -50t130 -135l-170 -42q-51 64 -145 64q-97 0 -157 -76h167v-108h-207q-1 -5 -1 -15t1 -15h206v-108h-165
q58 -74 156 -74q51 0 93.5 22t65.5 60z" />
    <glyph glyph-name="quotesinglbase" unicode="&#x201a;" horiz-adv-x="331" 
d="M154 -9l15 4l-15 2q-23 3 -40.5 22.5t-17.5 48.5q0 32 23 55t56 23t55.5 -24.5t22.5 -63.5q0 -46 -32.5 -98.5t-81.5 -91.5h-61q26 16 51 57.5t25 65.5z" />
    <glyph glyph-name="quotedblbase" unicode="&#x201e;" horiz-adv-x="561" 
d="M154 -9l15 4l-15 2q-23 3 -40.5 22.5t-17.5 48.5q0 32 23 55t56 23t55.5 -24.5t22.5 -63.5q0 -46 -32.5 -98.5t-81.5 -91.5h-61q26 16 51 57.5t25 65.5zM384 -9l15 4l-15 2q-23 3 -40.5 22.5t-17.5 48.5q0 32 23 55t56 23t55.5 -24.5t22.5 -63.5q0 -46 -32.5 -98.5
t-81.5 -91.5h-61q26 16 51 57.5t25 65.5z" />
    <glyph glyph-name="ellipsis" unicode="&#x2026;" horiz-adv-x="780" 
d="M125 -13q-27 0 -46 19t-19 46q0 26 19 45t46 19t46 -19t19 -45q0 -27 -19 -46t-46 -19zM385 -13q-27 0 -46 19t-19 46q0 26 19 45t46 19t46 -19t19 -45q0 -27 -19 -46t-46 -19zM655 -13q-27 0 -46 19t-19 46q0 26 19 45t46 19t46 -19t19 -45q0 -27 -19 -46t-46 -19z" />
    <glyph glyph-name="dagger" unicode="&#x2020;" horiz-adv-x="526" 
d="M516 540v-141h-180v-95q0 -76 -5 -152t-9.5 -114t-5.5 -38h-108q-1 0 -5.5 38t-9.5 114t-5 152v95h-178v141h178v160h148v-160h180z" />
    <glyph glyph-name="daggerdbl" unicode="&#x2021;" horiz-adv-x="526" 
d="M336 399v-95v-4h180v-141h-184q-10 -159 -16 -159h-108q-6 0 -16 159h-182v141h178v4v95h-178v141h178v160h148v-160h180v-141h-180z" />
    <glyph glyph-name="circumflex" unicode="&#x2c6;" horiz-adv-x="377" 
d="M-25 808l197 167l196 -167l-80 -82l-116 96l-116 -96z" />
    <glyph glyph-name="perthousand" unicode="&#x2030;" horiz-adv-x="1338" 
d="M213 305q-79 0 -128.5 56.5t-49.5 144.5t49.5 145t128.5 57q78 0 127.5 -57t49.5 -145t-49.5 -144.5t-127.5 -56.5zM160 0l502 700h108l-502 -700h-108zM213 416q30 0 48.5 26t18.5 64q0 39 -18.5 65t-48.5 26t-49 -26.5t-19 -64.5t19 -64t49 -26zM718 -8
q-79 0 -128.5 56.5t-49.5 144.5t49.5 145t128.5 57q78 0 127.5 -57t49.5 -145t-49.5 -144.5t-127.5 -56.5zM1126 -8q-79 0 -128.5 56.5t-49.5 144.5t49.5 145t128.5 57q78 0 127.5 -57t49.5 -145t-49.5 -144.5t-127.5 -56.5zM718 103q30 0 48.5 26t18.5 64q0 39 -18.5 65
t-48.5 26t-49 -26.5t-19 -64.5t19 -64t49 -26zM1126 103q30 0 48.5 26t18.5 64q0 39 -18.5 65t-48.5 26t-49 -26.5t-19 -64.5t19 -64t49 -26z" />
    <glyph glyph-name="Scaron" unicode="&#x160;" horiz-adv-x="614" 
d="M124 890l197 -167l196 167l-80 82l-116 -96l-116 96zM583 522l-162 -44q-12 44 -46.5 67.5t-74.5 23.5q-36 0 -57.5 -15.5t-21.5 -37.5q0 -10 3.5 -18t13 -15.5t17.5 -13t25 -12.5t27.5 -11t33.5 -12t35 -12q44 -16 78 -33.5t66.5 -43.5t50.5 -61.5t18 -78.5
q0 -96 -75.5 -157.5t-197.5 -61.5q-108 0 -184.5 56t-111.5 156l161 43q15 -44 52.5 -75t89.5 -31q43 0 65.5 17.5t22.5 44.5q0 16 -8 28.5t-28.5 23.5t-37 17.5t-52.5 18.5t-56 20q-39 15 -65 28.5t-55.5 37t-45 57.5t-15.5 78q0 84 75 146t187 62q99 0 173.5 -54
t99.5 -138z" />
    <glyph glyph-name="guilsinglleft" unicode="&#x2039;" horiz-adv-x="483" 
d="M314 586l-236 -234l235 -235l92 92l-151 143l150 143z" />
    <glyph glyph-name="OE" unicode="&#x152;" horiz-adv-x="1066" 
d="M649 157h347v-157h-510q-31 -4 -98 -4q-149 0 -251 100t-102 254t102 254t251 100q64 0 98 -4h504v-157h-341v-115h267v-147h-267v-124zM486 179v342q-37 17 -98 17q-82 0 -130 -51t-48 -137q0 -85 48.5 -136.5t129.5 -51.5q58 0 98 17z" />
    <glyph glyph-name="Zcaron" unicode="&#x17d;" horiz-adv-x="712" 
d="M169 890l197 -167l196 167l-80 82l-116 -96l-116 96zM652 700v-157l-298 -321q-13 -14 -30 -31t-26 -27l-9 -9l1 -1h3q3 0 8.5 0.5t13 1t17 0.5t20 0.5t23 0.5h24.5h253v-157h-592v157l312 328q11 12 27.5 27t26.5 24l11 9l-1 1h-8q-7 -1 -18.5 -1.5t-25 -0.5t-29.5 -0.5
t-28 -0.5h-257v157h582z" />
    <glyph glyph-name="quoteleft" unicode="&#x2018;" horiz-adv-x="331" 
d="M177 589l-15 -4l15 -2q23 -3 40.5 -22.5t17.5 -48.5q0 -32 -23 -55t-56 -23t-55.5 24.5t-22.5 63.5q0 46 32.5 98.5t81.5 91.5h61q-26 -16 -51 -57.5t-25 -65.5z" />
    <glyph glyph-name="quoteright" unicode="&#x2019;" horiz-adv-x="331" 
d="M154 557l15 4l-15 2q-23 3 -40.5 22.5t-17.5 48.5q0 32 23 55t56 23t55.5 -24.5t22.5 -63.5q0 -46 -32.5 -98.5t-81.5 -91.5h-61q26 16 51 57.5t25 65.5z" />
    <glyph glyph-name="quotedblleft" unicode="&#x201c;" horiz-adv-x="561" 
d="M177 589l-15 -4l15 -2q23 -3 40.5 -22.5t17.5 -48.5q0 -32 -23 -55t-56 -23t-55.5 24.5t-22.5 63.5q0 46 32.5 98.5t81.5 91.5h61q-26 -16 -51 -57.5t-25 -65.5zM407 589l-15 -4l15 -2q23 -3 40.5 -22.5t17.5 -48.5q0 -32 -23 -55t-56 -23t-55.5 24.5t-22.5 63.5
q0 46 32.5 98.5t81.5 91.5h61q-26 -16 -51 -57.5t-25 -65.5z" />
    <glyph glyph-name="quotedblright" unicode="&#x201d;" horiz-adv-x="561" 
d="M154 557l15 4l-15 2q-23 3 -40.5 22.5t-17.5 48.5q0 32 23 55t56 23t55.5 -24.5t22.5 -63.5q0 -46 -32.5 -98.5t-81.5 -91.5h-61q26 16 51 57.5t25 65.5zM384 557l15 4l-15 2q-23 3 -40.5 22.5t-17.5 48.5q0 32 23 55t56 23t55.5 -24.5t22.5 -63.5q0 -46 -32.5 -98.5
t-81.5 -91.5h-61q26 16 51 57.5t25 65.5z" />
    <glyph glyph-name="bullet" unicode="&#x2022;" horiz-adv-x="412" 
d="M207 226q-54 0 -91.5 37.5t-37.5 91.5q0 53 37.5 90t91.5 37q53 0 90 -37t37 -90q0 -54 -37 -91.5t-90 -37.5z" />
    <glyph glyph-name="endash" unicode="&#x2013;" horiz-adv-x="587" 
d="M78 433h431v-157h-431v157z" />
    <glyph glyph-name="emdash" unicode="&#x2014;" horiz-adv-x="1036" 
d="M78 433h880v-157h-880v157z" />
    <glyph glyph-name="tilde" unicode="&#x2dc;" horiz-adv-x="513" 
d="M354 896h130q0 -68 -44.5 -112t-113.5 -44q-32 0 -61 15.5t-53 31t-42 15.5q-19 0 -31.5 -12t-12.5 -31h-130q0 68 44.5 112t113.5 44q33 0 62.5 -15.5t52.5 -31t41 -15.5q19 0 31.5 12t12.5 31z" />
    <glyph glyph-name="trademark" unicode="&#x2122;" horiz-adv-x="788" 
d="M10 604v96h304v-96h-102v-229h-100v229h-102zM628 700h92v-325h-96v93q0 21 1 41t1 29l1 8h-1q-1 0 -40 -57l-25 -38h-41l-25 38q-37 57 -40 57h-1v-8q1 -9 2 -29t1 -41v-93h-96v325h92l53 -79q11 -16 19 -32t11 -24l4 -8h1l3 8l12 24t19 32z" />
    <glyph glyph-name="scaron" unicode="&#x161;" horiz-adv-x="614" 
d="M134 890l197 -167l196 167l-80 82l-116 -96l-116 96zM583 522l-162 -44q-12 44 -46.5 67.5t-74.5 23.5q-36 0 -57.5 -15.5t-21.5 -37.5q0 -10 3.5 -18t13 -15.5t17.5 -13t25 -12.5t27.5 -11t33.5 -12t35 -12q44 -16 78 -33.5t66.5 -43.5t50.5 -61.5t18 -78.5
q0 -96 -75.5 -157.5t-197.5 -61.5q-108 0 -184.5 56t-111.5 156l161 43q15 -44 52.5 -75t89.5 -31q43 0 65.5 17.5t22.5 44.5q0 16 -8 28.5t-28.5 23.5t-37 17.5t-52.5 18.5t-56 20q-39 15 -65 28.5t-55.5 37t-45 57.5t-15.5 78q0 84 75 146t187 62q99 0 173.5 -54
t99.5 -138z" />
    <glyph glyph-name="guilsinglright" unicode="&#x203a;" horiz-adv-x="483" 
d="M169 586l236 -234l-235 -235l-92 92l151 143l-150 143z" />
    <glyph glyph-name="oe" unicode="&#x153;" horiz-adv-x="1066" 
d="M649 157h347v-157h-510q-31 -4 -98 -4q-149 0 -251 100t-102 254t102 254t251 100q64 0 98 -4h504v-157h-341v-115h267v-147h-267v-124zM486 179v342q-37 17 -98 17q-82 0 -130 -51t-48 -137q0 -85 48.5 -136.5t129.5 -51.5q58 0 98 17z" />
    <glyph glyph-name="zcaron" unicode="&#x17e;" horiz-adv-x="712" 
d="M169 890l197 -167l196 167l-80 82l-116 -96l-116 96zM652 700v-157l-298 -321q-13 -14 -30 -31t-26 -27l-9 -9l1 -1h3q3 0 8.5 0.5t13 1t17 0.5t20 0.5t23 0.5h24.5h253v-157h-592v157l312 328q11 12 27.5 27t26.5 24l11 9l-1 1h-8q-7 -1 -18.5 -1.5t-25 -0.5t-29.5 -0.5
t-28 -0.5h-257v157h582z" />
    <glyph glyph-name="Ydieresis" unicode="&#x178;" horiz-adv-x="723" 
d="M223 768q-32 0 -53.5 21t-21.5 52t22 52.5t53 21.5t52 -21.5t21 -52.5t-21 -52t-52 -21zM492 768q-31 0 -52.5 21t-21.5 52t21.5 52.5t52.5 21.5t52.5 -21.5t21.5 -52.5t-21.5 -52t-52.5 -21zM525 700h188l-268 -390v-310h-167v310l-268 390h188l127 -187q34 -51 36 -51
h1q2 0 36 51z" />
    <glyph glyph-name="exclamdown" unicode="&#xa1;" horiz-adv-x="324" 
d="M78 700h168v-157h-168v157zM78 485h168v-485h-168v485z" />
    <glyph glyph-name="cent" unicode="&#xa2;" horiz-adv-x="582" 
d="M409 283l147 -40q-23 -60 -73 -103t-114 -58v-96h-134v97q-87 23 -143.5 94.5t-56.5 167.5t56.5 167.5t143.5 94.5v107h134v-106q60 -14 107.5 -53t72.5 -94l-147 -38q-36 48 -98 48q-54 0 -84.5 -33.5t-30.5 -92.5t30.5 -92.5t84.5 -33.5q74 0 105 64z" />
    <glyph glyph-name="sterling" unicode="&#xa3;" horiz-adv-x="650" 
d="M273 153l1 -1h4q4 1 11 1t16.5 0.5t23 1.5t28 1t32.5 0.5t37 0.5h186v-157h-534v157q40 7 53 29t8 70l-1 15h-60v131h47l-8 84q-9 90 63 158t170 70q48 1 99 -16t100 -64t66 -117l-141 -39q-32 92 -113 88q-38 -2 -59 -30t-17 -66l7 -68h188v-131h-176l1 -10
q7 -77 -32 -108z" />
    <glyph glyph-name="currency" unicode="&#xa4;" horiz-adv-x="670" 
d="M485 566l68 68l82 -82l-69 -69q42 -65 42 -145q0 -81 -45 -150l66 -66l-82 -82l-67 67q-67 -43 -147 -43q-79 0 -144 42l-66 -66l-82 82l65 65q-45 71 -45 151q0 78 42 146l-68 68l82 82l68 -68q65 45 148 45q81 0 152 -45zM334 466q-51 0 -87 -35.5t-36 -89.5
q0 -56 35.5 -91t87.5 -35q53 0 89 35t36 91q0 55 -36 90t-89 35z" />
    <glyph glyph-name="yen" unicode="&#xa5;" horiz-adv-x="722" 
d="M713 700l-156 -227h87v-108h-161l-21 -30h182v-108h-199v-227h-167v227h-198v108h181l-21 30h-160v108h86l-156 227h188l127 -187q34 -51 36 -51h1q2 0 36 51l127 187h188z" />
    <glyph glyph-name="brokenbar" unicode="&#xa6;" horiz-adv-x="288" 
d="M78 775h132v-280h-132v280zM78 216h132v-290h-132v290z" />
    <glyph glyph-name="section" unicode="&#xa7;" horiz-adv-x="533" 
d="M496 585l-134 -36q-11 31 -39.5 47t-64.5 16q-30 0 -48 -10.5t-18 -26.5q0 -12 6 -20.5t20 -14.5t27.5 -10t37.5 -10t40 -11q80 -24 129.5 -59t49.5 -92q0 -72 -80 -99q86 -46 86 -117q0 -69 -64.5 -112.5t-170.5 -43.5q-92 0 -157 38.5t-96 107.5l136 36q14 -32 46 -54
t76 -22q38 0 57.5 12.5t19.5 31.5q0 12 -7 21t-24.5 17t-31.5 12.5t-45.5 13.5t-48.5 14q-34 11 -56.5 20.5t-48 26t-38.5 41t-13 55.5q0 65 79 102q-75 39 -75 109q0 59 63.5 102.5t157.5 43.5q81 0 143.5 -36.5t85.5 -92.5zM182 365q0 -11 6 -19.5t20.5 -15t26 -10
t37 -9.5t38.5 -10q51 10 51 50q0 7 -1.5 12.5t-6 10.5t-8.5 8.5t-12.5 7t-13.5 6t-17 5.5t-18 5t-20.5 5t-20.5 5q-27 -4 -44 -18t-17 -33z" />
    <glyph glyph-name="dieresis" unicode="&#xa8;" horiz-adv-x="445" 
d="M71 768q-32 0 -53.5 21t-21.5 52t22 52.5t53 21.5t52 -21.5t21 -52.5t-21 -52t-52 -21zM340 768q-31 0 -52.5 21t-21.5 52t21.5 52.5t52.5 21.5t52.5 -21.5t21.5 -52.5t-21.5 -52t-52.5 -21z" />
    <glyph glyph-name="copyright" unicode="&#xa9;" horiz-adv-x="797" 
d="M398 714q153 0 258.5 -103.5t105.5 -260.5t-105.5 -260.5t-258.5 -103.5q-152 0 -257.5 103.5t-105.5 260.5t105.5 260.5t257.5 103.5zM398 600q-105 0 -172.5 -70.5t-67.5 -179.5q0 -108 67.5 -178t172.5 -70t173 70t68 178q0 109 -68 179.5t-173 70.5zM462 313l94 -26
q-17 -47 -60.5 -76t-96.5 -29q-69 0 -118.5 48.5t-49.5 120.5t49.5 120.5t118.5 48.5q50 0 91.5 -26.5t61.5 -69.5l-94 -25q-22 28 -59 28q-32 0 -51 -20t-19 -56q0 -35 19 -55.5t51 -20.5q44 0 63 38z" />
    <glyph glyph-name="ordfeminine" unicode="&#xaa;" horiz-adv-x="368" 
d="M135 427l-15 -52h-100l117 333h93l118 -333h-102l-15 52h-96zM184 616h-1l-2 -12q-2 -11 -7 -33.5t-11 -44.5l-7 -24h54l-7 24q-6 22 -10.5 44.5t-6.5 33.5zM20 213v100h328v-100h-328z" />
    <glyph glyph-name="guillemotleft" unicode="&#xab;" horiz-adv-x="793" 
d="M314 586l-236 -234l235 -235l92 92l-151 143l150 143zM624 586l-236 -234l235 -235l92 92l-151 143l150 143z" />
    <glyph glyph-name="softhyphen" unicode="&#xad;" horiz-adv-x="609" 
d="M78 423h453v-137h-453v137z" />
    <glyph glyph-name="registered" unicode="&#xae;" horiz-adv-x="797" 
d="M398 714q153 0 258.5 -103.5t105.5 -260.5t-105.5 -260.5t-258.5 -103.5q-152 0 -257.5 103.5t-105.5 260.5t105.5 260.5t257.5 103.5zM398 102q105 0 173 70t68 178q0 109 -68 179.5t-173 70.5t-172.5 -70.5t-67.5 -179.5q0 -108 67.5 -178t172.5 -70zM276 517h124
q62 0 97.5 -30.5t35.5 -81.5q0 -66 -58 -93l76 -127h-96l-61 112h-28v-112h-90v332zM366 435v-65h46q14 0 23 9.5t9 22.5t-9 23t-23 10h-46z" />
    <glyph glyph-name="macron" unicode="&#xaf;" horiz-adv-x="332" 
d="M-24 795h347v-129h-347v129z" />
    <glyph glyph-name="degree" unicode="&#xb0;" horiz-adv-x="337" 
d="M169 567q-62 0 -106.5 44.5t-44.5 105.5t44.5 105.5t106.5 44.5t106 -44t44 -106t-44 -106t-106 -44zM169 665q23 0 39 16t16 37q0 23 -16 39t-39 16q-21 0 -37 -16t-16 -39q0 -21 16 -37t37 -16z" />
    <glyph glyph-name="plusminus" unicode="&#xb1;" 
d="M422 423h154v-137h-153v-91h-146v91h-154v137h153v161h146v-161zM123 -9v137h453v-137h-453z" />
    <glyph glyph-name="twosuperior" unicode="&#xb2;" horiz-adv-x="340" 
d="M161 561l1 -1h3q3 1 8 1.5t12 1.5t16.5 2t19.5 1.5t22.5 1t25.5 0.5h44v-93h-290v70l122 105q3 3 11.5 10t11.5 9.5t9.5 8.5t9.5 9.5t7.5 9t6.5 9.5l4.5 9t3.5 10t1 11q0 16 -11.5 26t-28.5 10q-18 0 -31 -12t-16.5 -20t-8.5 -24l-94 25q11 50 52.5 89.5t99.5 39.5
q62 0 102.5 -38.5t40.5 -95.5q0 -60 -59 -111q-17 -16 -40 -31q-12 -8 -26.5 -16.5t-21.5 -12.5z" />
    <glyph glyph-name="threesuperior" unicode="&#xb3;" horiz-adv-x="350" 
d="M115 732l-89 24q11 52 52 83t99 31q64 0 102.5 -33t38.5 -83q0 -36 -25.5 -58t-51.5 -22v-1q34 -1 59 -22t25 -59q0 -54 -42 -89.5t-106 -35.5q-57 0 -102 32t-55 81l91 25q11 -48 66 -48q21 0 34 10.5t13 27.5q0 19 -14 30t-36 11h-35v74h35q18 0 30.5 11t12.5 26
q0 14 -12 24t-29 10q-47 0 -61 -49z" />
    <glyph glyph-name="acute" unicode="&#xb4;" horiz-adv-x="321" 
d="M235 943l57 -113l-248 -103l-48 88z" />
    <glyph glyph-name="paragraph" unicode="&#xb6;" horiz-adv-x="823" 
d="M290 700h455v-700h-168v542h-84v-542h-158v280h-45q-120 0 -187.5 55.5t-67.5 154.5t67.5 154.5t187.5 55.5z" />
    <glyph glyph-name="periodcentered" unicode="&#xb7;" horiz-adv-x="277" 
d="M139 278q-33 0 -56 23t-23 56q0 32 23 55t56 23q32 0 55 -23t23 -55q0 -33 -23 -56t-55 -23z" />
    <glyph glyph-name="cedilla" unicode="&#xb8;" horiz-adv-x="269" 
d="M152 0l-21 -56q44 1 76.5 -28.5t32.5 -77.5q0 -57 -34 -84t-86 -27h-124l34 87h90q29 0 29 23q0 21 -29 23h-107l48 140h91z" />
    <glyph glyph-name="onesuperior" unicode="&#xb9;" horiz-adv-x="265" 
d="M159 862h76v-387h-107v178q0 10 0.5 21.5t1.5 20t2 16t2 11.5v4h-1q-1 0 -4.5 -5.5t-12.5 -15.5t-19 -19l-20 -18l-67 59z" />
    <glyph glyph-name="ordmasculine" unicode="&#xba;" horiz-adv-x="363" 
d="M10 540q0 74 49.5 123t121.5 49t122 -49t50 -123q0 -73 -50 -122t-122 -49t-121.5 48.5t-49.5 122.5zM110 540q0 -33 20 -54t51 -21q32 0 52 21t20 54q0 34 -20 55t-52 21q-31 0 -51 -21t-20 -55zM20 313h323v-100h-323v100z" />
    <glyph glyph-name="guillemotright" unicode="&#xbb;" horiz-adv-x="793" 
d="M169 586l236 -234l-235 -235l-92 92l151 143l-150 143zM479 586l236 -234l-235 -235l-92 92l151 143l-150 143z" />
    <glyph glyph-name="onequarter" unicode="&#xbc;" horiz-adv-x="745" 
d="M97 524l-20 -18l-67 59l149 135h76v-387h-107v178q0 10 0.5 21.5t1.5 20t2 16t2 11.5v4h-1q-1 0 -4.5 -5.5t-12.5 -15.5t-19 -19zM567 700h108l-502 -700h-108zM720 154v-88h-41v-66h-95v66h-189v73l202 248h82v-233h41zM545 152h39v56v16v15l1 6h-1l-2 -3q-3 -3 -7 -8.5
t-8 -9.5l-46 -53q-4 -4 -7 -7.5t-5 -6t-4 -4t-3 -2.5v-1l1 -1l3 1h6t9 0.5t11.5 1t12.5 0.5z" />
    <glyph glyph-name="onehalf" unicode="&#xbd;" horiz-adv-x="775" 
d="M159 700h76v-387h-107v178q0 10 0.5 21.5t1.5 20t2 16t2 11.5v4h-1q-1 0 -4.5 -5.5t-12.5 -15.5t-19 -19l-20 -18l-67 59zM65 0l502 700h108l-502 -700h-108zM596 86l1 -1l3 1q3 0 8 0.5t12 1.5t16.5 2t19.5 1.5t22.5 1t25.5 0.5h44v-93h-290v70l122 105q3 3 11.5 10
t11.5 9.5t9.5 8.5t9.5 9.5t7.5 9t6.5 9.5l4.5 9t3.5 10t1 11q0 16 -11.5 26t-28.5 10q-18 0 -31 -12t-16.5 -20t-8.5 -24l-94 25q11 50 52.5 89.5t99.5 39.5q62 0 102.5 -38.5t40.5 -95.5q0 -60 -59 -111q-17 -16 -40 -31q-12 -8 -26.5 -16.5t-21.5 -12.5z" />
    <glyph glyph-name="threequarters" unicode="&#xbe;" horiz-adv-x="805" 
d="M241 512v-1q34 -1 59 -22t25 -59q0 -54 -42 -89.5t-106 -35.5q-57 0 -102 32t-55 81l91 25q11 -48 66 -48q21 0 34 10.5t13 27.5q0 19 -14 30t-36 11h-35v74h35q18 0 30.5 11t12.5 26q0 14 -12 24t-29 10q-47 0 -61 -49l-89 24q11 52 52 83t99 31q64 0 102.5 -33
t38.5 -83q0 -36 -25.5 -58t-51.5 -22zM627 700h108l-502 -700h-108zM780 154v-88h-41v-66h-95v66h-189v73l202 248h82v-233h41zM605 152h39v56v16v15l1 6h-1l-2 -3q-3 -3 -7 -8.5t-8 -9.5l-46 -53q-4 -4 -7 -7.5t-5 -6t-4 -4t-3 -2.5v-1l1 -1l3 1h6t9 0.5t11.5 1t12.5 0.5z
" />
    <glyph glyph-name="questiondown" unicode="&#xbf;" horiz-adv-x="590" 
d="M384 700v-157h-168v157h168zM384 485v-130q-122 -74 -145 -95q-29 -26 -29 -56q0 -26 20.5 -48.5t63.5 -22.5q47 0 75 21t45 68l141 -39q-23 -91 -94.5 -144t-173.5 -53q-116 0 -184 58.5t-68 148.5q0 43 13 76t44 61t53.5 42t70.5 42v71h168z" />
    <glyph glyph-name="Agrave" unicode="&#xc0;" horiz-adv-x="719" 
d="M460 815l-48 -88l-248 103l57 113zM538 0l-40 110h-277l-40 -110h-181l280 700h159l280 -700h-181zM275 257h169l-50 136q-6 17 -14.5 43.5t-13.5 43.5l-6 16h-1l-5 -16q-6 -17 -14.5 -43.5t-14.5 -43.5z" />
    <glyph glyph-name="Aacute" unicode="&#xc1;" horiz-adv-x="719" 
d="M530 830l-248 -103l-48 88l239 128zM538 0l-40 110h-277l-40 -110h-181l280 700h159l280 -700h-181zM275 257h169l-50 136q-6 17 -14.5 43.5t-13.5 43.5l-6 16h-1l-5 -16q-6 -17 -14.5 -43.5t-14.5 -43.5z" />
    <glyph glyph-name="Acircumflex" unicode="&#xc2;" horiz-adv-x="719" 
d="M355 822l-116 -96l-81 82l197 167l196 -167l-80 -82zM538 0l-40 110h-277l-40 -110h-181l280 700h159l280 -700h-181zM275 257h169l-50 136q-6 17 -14.5 43.5t-13.5 43.5l-6 16h-1l-5 -16q-6 -17 -14.5 -43.5t-14.5 -43.5z" />
    <glyph glyph-name="Atilde" unicode="&#xc3;" horiz-adv-x="719" 
d="M474 896h130q0 -68 -44.5 -112t-113.5 -44q-40 0 -88 31t-68 31q-19 0 -31.5 -12t-12.5 -31h-130q0 68 44.5 112t113.5 44q33 0 62.5 -15.5t52.5 -31t41 -15.5q19 0 31.5 12t12.5 31zM538 0l-40 110h-277l-40 -110h-181l280 700h159l280 -700h-181zM275 257h169l-50 136
q-6 17 -14.5 43.5t-13.5 43.5l-6 16h-1l-5 -16q-6 -17 -14.5 -43.5t-14.5 -43.5z" />
    <glyph glyph-name="Adieresis" unicode="&#xc4;" horiz-adv-x="719" 
d="M221 768q-32 0 -53.5 21t-21.5 52t22 52.5t53 21.5t52 -21.5t21 -52.5t-21 -52t-52 -21zM490 768q-31 0 -52.5 21t-21.5 52t21.5 52.5t52.5 21.5t52.5 -21.5t21.5 -52.5t-21.5 -52t-52.5 -21zM538 0l-40 110h-277l-40 -110h-181l280 700h159l280 -700h-181zM275 257h169
l-50 136q-6 17 -14.5 43.5t-13.5 43.5l-6 16h-1l-5 -16q-6 -17 -14.5 -43.5t-14.5 -43.5z" />
    <glyph glyph-name="Aring" unicode="&#xc5;" horiz-adv-x="719" 
d="M538 0l-40 110h-277l-40 -110h-181l280 700q-33 20 -52.5 54t-19.5 73q0 61 44.5 105.5t106.5 44.5t106 -44t44 -106q0 -82 -70 -127l280 -700h-181zM359 883q-21 0 -37 -16t-16 -39q0 -21 16 -37t37 -16q23 0 39 16t16 37q0 23 -16 39t-39 16zM275 257h169l-50 136
q-6 17 -14.5 43.5t-13.5 43.5l-6 16h-1l-5 -16q-6 -17 -14.5 -43.5t-14.5 -43.5z" />
    <glyph glyph-name="AE" unicode="&#xc6;" horiz-adv-x="1024" 
d="M607 157h347v-157h-510v110h-222l-40 -110h-182l281 700h667v-157h-341v-115h267v-147h-267v-124zM444 257v286h-67l-9 -23q-8 -24 -22 -64t-22 -63l-49 -136h169z" />
    <glyph glyph-name="Ccedilla" unicode="&#xc7;" horiz-adv-x="754" 
d="M558 236l170 -44q-40 -86 -118 -140.5t-175 -63.5l-16 -44q44 1 76.5 -28.5t32.5 -77.5q0 -57 -34 -84t-86 -27h-124l34 87h90q29 0 29 23q0 21 -29 23h-107l44 130q-134 18 -222 118t-88 242q0 157 105.5 260.5t257.5 103.5q102 0 186.5 -50.5t131.5 -135.5l-171 -45
q-24 30 -64.5 47.5t-82.5 17.5q-86 0 -137 -55t-51 -143q0 -89 52.5 -142.5t135.5 -53.5q50 0 94 23t66 59z" />
    <glyph glyph-name="Egrave" unicode="&#xc8;" horiz-adv-x="663" 
d="M449 815l-48 -88l-248 103l57 113zM246 157h347v-157h-515v700h509v-157h-341v-115h267v-147h-267v-124z" />
    <glyph glyph-name="Eacute" unicode="&#xc9;" horiz-adv-x="663" 
d="M519 830l-248 -103l-48 88l239 128zM246 157h347v-157h-515v700h509v-157h-341v-115h267v-147h-267v-124z" />
    <glyph glyph-name="Ecircumflex" unicode="&#xca;" horiz-adv-x="663" 
d="M344 822l-116 -96l-81 82l197 167l196 -167l-80 -82zM246 157h347v-157h-515v700h509v-157h-341v-115h267v-147h-267v-124z" />
    <glyph glyph-name="Edieresis" unicode="&#xcb;" horiz-adv-x="663" 
d="M210 768q-32 0 -53.5 21t-21.5 52t22 52.5t53 21.5t52 -21.5t21 -52.5t-21 -52t-52 -21zM479 768q-31 0 -52.5 21t-21.5 52t21.5 52.5t52.5 21.5t52.5 -21.5t21.5 -52.5t-21.5 -52t-52.5 -21zM246 157h347v-157h-515v700h509v-157h-341v-115h267v-147h-267v-124z" />
    <glyph glyph-name="Igrave" unicode="&#xcc;" horiz-adv-x="324" 
d="M215 727l-248 103l57 113l239 -128zM246 0h-168v700h168v-700z" />
    <glyph glyph-name="Iacute" unicode="&#xcd;" horiz-adv-x="324" 
d="M276 943l57 -113l-248 -103l-48 88zM246 0h-168v700h168v-700z" />
    <glyph glyph-name="Icircumflex" unicode="&#xce;" horiz-adv-x="324" 
d="M-39 808l197 167l196 -167l-80 -82l-116 96l-116 -96zM246 0h-168v700h168v-700z" />
    <glyph glyph-name="Idieresis" unicode="&#xcf;" horiz-adv-x="324" 
d="M24 768q-32 0 -53.5 21t-21.5 52t22 52.5t53 21.5t52 -21.5t21 -52.5t-21 -52t-52 -21zM293 768q-31 0 -52.5 21t-21.5 52t21.5 52.5t52.5 21.5t52.5 -21.5t21.5 -52.5t-21.5 -52t-52.5 -21zM246 0h-168v700h168v-700z" />
    <glyph glyph-name="Eth" unicode="&#xd0;" horiz-adv-x="795" 
d="M92 700h306q153 0 257.5 -99t104.5 -254q0 -154 -104.5 -250.5t-257.5 -96.5h-306v278h-57v151h57v271zM260 157h138q78 0 132.5 51.5t54.5 138.5t-54.5 141.5t-132.5 54.5h-138v-114h107v-151h-107v-121z" />
    <glyph glyph-name="Ntilde" unicode="&#xd1;" horiz-adv-x="784" 
d="M507 896h130q0 -68 -44.5 -112t-113.5 -44q-32 0 -61 15.5t-53 31t-42 15.5q-19 0 -31.5 -12t-12.5 -31h-130q0 68 44.5 112t113.5 44q42 0 89.5 -31t66.5 -31t31.5 12t12.5 31zM538 700h168v-700h-158l-143 195q-27 37 -67.5 94t-65.5 92l-26 35h-1v-34t0.5 -91.5
t0.5 -135.5v-155h-168v700h158l149 -200q19 -26 57.5 -79.5t67.5 -92.5l28 -39h1v36.5t-0.5 93t-0.5 121.5v160z" />
    <glyph glyph-name="Ograve" unicode="&#xd2;" horiz-adv-x="797" 
d="M456 727l-248 103l57 113l239 -128zM35 350q0 157 105.5 260.5t257.5 103.5q153 0 258.5 -103.5t105.5 -260.5t-105.5 -260.5t-258.5 -103.5q-152 0 -257.5 103.5t-105.5 260.5zM210 350q0 -88 52 -143t136 -55q85 0 137 55t52 143q0 89 -52 143.5t-137 54.5
t-136.5 -54.5t-51.5 -143.5z" />
    <glyph glyph-name="Oacute" unicode="&#xd3;" horiz-adv-x="797" 
d="M517 943l57 -113l-248 -103l-48 88zM35 350q0 157 105.5 260.5t257.5 103.5q153 0 258.5 -103.5t105.5 -260.5t-105.5 -260.5t-258.5 -103.5q-152 0 -257.5 103.5t-105.5 260.5zM210 350q0 -88 52 -143t136 -55q85 0 137 55t52 143q0 89 -52 143.5t-137 54.5
t-136.5 -54.5t-51.5 -143.5z" />
    <glyph glyph-name="Ocircumflex" unicode="&#xd4;" horiz-adv-x="797" 
d="M202 808l197 167l196 -167l-80 -82l-116 96l-116 -96zM35 350q0 157 105.5 260.5t257.5 103.5q153 0 258.5 -103.5t105.5 -260.5t-105.5 -260.5t-258.5 -103.5q-152 0 -257.5 103.5t-105.5 260.5zM210 350q0 -88 52 -143t136 -55q85 0 137 55t52 143q0 89 -52 143.5
t-137 54.5t-136.5 -54.5t-51.5 -143.5z" />
    <glyph glyph-name="Otilde" unicode="&#xd5;" horiz-adv-x="797" 
d="M518 896h130q0 -68 -44.5 -112t-113.5 -44q-32 0 -61 15.5t-53 31t-42 15.5q-19 0 -31.5 -12t-12.5 -31h-130q0 68 44.5 112t113.5 44q33 0 62.5 -15.5t52.5 -31t41 -15.5q19 0 31.5 12t12.5 31zM35 350q0 157 105.5 260.5t257.5 103.5q153 0 258.5 -103.5t105.5 -260.5
t-105.5 -260.5t-258.5 -103.5q-152 0 -257.5 103.5t-105.5 260.5zM210 350q0 -88 52 -143t136 -55q85 0 137 55t52 143q0 89 -52 143.5t-137 54.5t-136.5 -54.5t-51.5 -143.5z" />
    <glyph glyph-name="Odieresis" unicode="&#xd6;" horiz-adv-x="797" 
d="M265 768q-32 0 -53.5 21t-21.5 52t22 52.5t53 21.5t52 -21.5t21 -52.5t-21 -52t-52 -21zM534 768q-31 0 -52.5 21t-21.5 52t21.5 52.5t52.5 21.5t52.5 -21.5t21.5 -52.5t-21.5 -52t-52.5 -21zM35 350q0 157 105.5 260.5t257.5 103.5q153 0 258.5 -103.5t105.5 -260.5
t-105.5 -260.5t-258.5 -103.5q-152 0 -257.5 103.5t-105.5 260.5zM210 350q0 -88 52 -143t136 -55q85 0 137 55t52 143q0 89 -52 143.5t-137 54.5t-136.5 -54.5t-51.5 -143.5z" />
    <glyph glyph-name="multiply" unicode="&#xd7;" 
d="M465 577l112 -112l-116 -116l115 -116l-112 -112l-115 116l-114 -114l-112 112l114 114l-115 114l112 112l115 -114z" />
    <glyph glyph-name="Oslash" unicode="&#xd8;" horiz-adv-x="797" 
d="M715 637l-38 -49q85 -101 85 -238q0 -157 -105.5 -260.5t-258.5 -103.5q-82 0 -156 33l-37 -48l-119 90l37 48q-88 101 -88 241q0 157 105.5 260.5t257.5 103.5q86 0 161 -36l37 48zM232 251l222 290q-24 7 -56 7q-85 0 -136.5 -54.5t-51.5 -143.5q0 -55 22 -99zM568 445
l-220 -287q24 -6 50 -6q85 0 137 55t52 143q0 51 -19 95z" />
    <glyph glyph-name="Ugrave" unicode="&#xd9;" horiz-adv-x="748" 
d="M428 727l-248 103l57 113l239 -128zM515 700h168v-389q0 -155 -84 -240t-225 -85q-142 0 -225.5 85t-83.5 240v389h168v-385q0 -172 141 -172t141 172v385z" />
    <glyph glyph-name="Uacute" unicode="&#xda;" horiz-adv-x="748" 
d="M489 943l57 -113l-248 -103l-48 88zM515 700h168v-389q0 -155 -84 -240t-225 -85q-142 0 -225.5 85t-83.5 240v389h168v-385q0 -172 141 -172t141 172v385z" />
    <glyph glyph-name="Ucircumflex" unicode="&#xdb;" horiz-adv-x="748" 
d="M174 808l197 167l196 -167l-80 -82l-116 96l-116 -96zM515 700h168v-389q0 -155 -84 -240t-225 -85q-142 0 -225.5 85t-83.5 240v389h168v-385q0 -172 141 -172t141 172v385z" />
    <glyph glyph-name="Udieresis" unicode="&#xdc;" horiz-adv-x="748" 
d="M237 768q-32 0 -53.5 21t-21.5 52t22 52.5t53 21.5t52 -21.5t21 -52.5t-21 -52t-52 -21zM506 768q-31 0 -52.5 21t-21.5 52t21.5 52.5t52.5 21.5t52.5 -21.5t21.5 -52.5t-21.5 -52t-52.5 -21zM515 700h168v-389q0 -155 -84 -240t-225 -85q-142 0 -225.5 85t-83.5 240v389
h168v-385q0 -172 141 -172t141 172v385z" />
    <glyph glyph-name="Yacute" unicode="&#xdd;" horiz-adv-x="723" 
d="M475 943l57 -113l-248 -103l-48 88zM525 700h188l-268 -390v-310h-167v310l-268 390h188l127 -187q34 -51 36 -51h1q2 0 36 51z" />
    <glyph glyph-name="Thorn" unicode="&#xde;" horiz-adv-x="650" 
d="M246 590h101q122 0 197.5 -67.5t75.5 -172.5t-75.5 -172.5t-197.5 -67.5h-101v-110h-168v700h168v-110zM246 267h105q45 0 69.5 23t24.5 60t-24.5 60t-69.5 23h-105v-166z" />
    <glyph glyph-name="germandbls" unicode="&#xdf;" horiz-adv-x="830" 
d="M78 700h650l-98 -186q-49 -94 -49 -99l1 -1h4q84 0 146.5 -60t62.5 -143q0 -96 -68 -160.5t-181 -64.5q-79 0 -143.5 37t-100.5 98l159 43q34 -36 77 -36q44 0 66 24t22 61q0 34 -24.5 57t-68.5 23h-114v121l29 62q6 12 14.5 30.5t13.5 27.5l4 10l-1 1h-4
q-4 0 -10.5 -0.5t-14.5 -1t-18 -0.5h-19h-167v-543h-168v700z" />
    <glyph glyph-name="agrave" unicode="&#xe0;" horiz-adv-x="719" 
d="M460 815l-48 -88l-248 103l57 113zM538 0l-40 110h-277l-40 -110h-181l280 700h159l280 -700h-181zM275 257h169l-50 136q-6 17 -14.5 43.5t-13.5 43.5l-6 16h-1l-5 -16q-6 -17 -14.5 -43.5t-14.5 -43.5z" />
    <glyph glyph-name="aacute" unicode="&#xe1;" horiz-adv-x="719" 
d="M530 830l-248 -103l-48 88l239 128zM538 0l-40 110h-277l-40 -110h-181l280 700h159l280 -700h-181zM275 257h169l-50 136q-6 17 -14.5 43.5t-13.5 43.5l-6 16h-1l-5 -16q-6 -17 -14.5 -43.5t-14.5 -43.5z" />
    <glyph glyph-name="acircumflex" unicode="&#xe2;" horiz-adv-x="719" 
d="M355 822l-116 -96l-81 82l197 167l196 -167l-80 -82zM538 0l-40 110h-277l-40 -110h-181l280 700h159l280 -700h-181zM275 257h169l-50 136q-6 17 -14.5 43.5t-13.5 43.5l-6 16h-1l-5 -16q-6 -17 -14.5 -43.5t-14.5 -43.5z" />
    <glyph glyph-name="atilde" unicode="&#xe3;" horiz-adv-x="719" 
d="M474 896h130q0 -68 -44.5 -112t-113.5 -44q-40 0 -88 31t-68 31q-19 0 -31.5 -12t-12.5 -31h-130q0 68 44.5 112t113.5 44q33 0 62.5 -15.5t52.5 -31t41 -15.5q19 0 31.5 12t12.5 31zM538 0l-40 110h-277l-40 -110h-181l280 700h159l280 -700h-181zM275 257h169l-50 136
q-6 17 -14.5 43.5t-13.5 43.5l-6 16h-1l-5 -16q-6 -17 -14.5 -43.5t-14.5 -43.5z" />
    <glyph glyph-name="adieresis" unicode="&#xe4;" horiz-adv-x="719" 
d="M221 768q-32 0 -53.5 21t-21.5 52t22 52.5t53 21.5t52 -21.5t21 -52.5t-21 -52t-52 -21zM490 768q-31 0 -52.5 21t-21.5 52t21.5 52.5t52.5 21.5t52.5 -21.5t21.5 -52.5t-21.5 -52t-52.5 -21zM538 0l-40 110h-277l-40 -110h-181l280 700h159l280 -700h-181zM275 257h169
l-50 136q-6 17 -14.5 43.5t-13.5 43.5l-6 16h-1l-5 -16q-6 -17 -14.5 -43.5t-14.5 -43.5z" />
    <glyph glyph-name="aring" unicode="&#xe5;" horiz-adv-x="719" 
d="M538 0l-40 110h-277l-40 -110h-181l280 700q-33 20 -52.5 54t-19.5 73q0 61 44.5 105.5t106.5 44.5t106 -44t44 -106q0 -82 -70 -127l280 -700h-181zM359 883q-21 0 -37 -16t-16 -39q0 -21 16 -37t37 -16q23 0 39 16t16 37q0 23 -16 39t-39 16zM275 257h169l-50 136
q-6 17 -14.5 43.5t-13.5 43.5l-6 16h-1l-5 -16q-6 -17 -14.5 -43.5t-14.5 -43.5z" />
    <glyph glyph-name="ae" unicode="&#xe6;" horiz-adv-x="1024" 
d="M607 157h347v-157h-510v110h-222l-40 -110h-182l281 700h667v-157h-341v-115h267v-147h-267v-124zM444 257v286h-67l-9 -23q-8 -24 -22 -64t-22 -63l-49 -136h169z" />
    <glyph glyph-name="ccedilla" unicode="&#xe7;" horiz-adv-x="754" 
d="M558 236l170 -44q-40 -86 -118 -140.5t-175 -63.5l-16 -44q44 1 76.5 -28.5t32.5 -77.5q0 -57 -34 -84t-86 -27h-124l34 87h90q29 0 29 23q0 21 -29 23h-107l44 130q-134 18 -222 118t-88 242q0 157 105.5 260.5t257.5 103.5q102 0 186.5 -50.5t131.5 -135.5l-171 -45
q-24 30 -64.5 47.5t-82.5 17.5q-86 0 -137 -55t-51 -143q0 -89 52.5 -142.5t135.5 -53.5q50 0 94 23t66 59z" />
    <glyph glyph-name="egrave" unicode="&#xe8;" horiz-adv-x="663" 
d="M449 815l-48 -88l-248 103l57 113zM246 157h347v-157h-515v700h509v-157h-341v-115h267v-147h-267v-124z" />
    <glyph glyph-name="eacute" unicode="&#xe9;" horiz-adv-x="663" 
d="M519 830l-248 -103l-48 88l239 128zM246 157h347v-157h-515v700h509v-157h-341v-115h267v-147h-267v-124z" />
    <glyph glyph-name="ecircumflex" unicode="&#xea;" horiz-adv-x="663" 
d="M344 822l-116 -96l-81 82l197 167l196 -167l-80 -82zM246 157h347v-157h-515v700h509v-157h-341v-115h267v-147h-267v-124z" />
    <glyph glyph-name="edieresis" unicode="&#xeb;" horiz-adv-x="663" 
d="M210 768q-32 0 -53.5 21t-21.5 52t22 52.5t53 21.5t52 -21.5t21 -52.5t-21 -52t-52 -21zM479 768q-31 0 -52.5 21t-21.5 52t21.5 52.5t52.5 21.5t52.5 -21.5t21.5 -52.5t-21.5 -52t-52.5 -21zM246 157h347v-157h-515v700h509v-157h-341v-115h267v-147h-267v-124z" />
    <glyph glyph-name="igrave" unicode="&#xec;" horiz-adv-x="324" 
d="M215 727l-248 103l57 113l239 -128zM246 0h-168v700h168v-700z" />
    <glyph glyph-name="iacute" unicode="&#xed;" horiz-adv-x="324" 
d="M276 943l57 -113l-248 -103l-48 88zM246 0h-168v700h168v-700z" />
    <glyph glyph-name="icircumflex" unicode="&#xee;" horiz-adv-x="324" 
d="M-39 808l197 167l196 -167l-80 -82l-116 96l-116 -96zM246 0h-168v700h168v-700z" />
    <glyph glyph-name="idieresis" unicode="&#xef;" horiz-adv-x="324" 
d="M24 768q-32 0 -53.5 21t-21.5 52t22 52.5t53 21.5t52 -21.5t21 -52.5t-21 -52t-52 -21zM293 768q-31 0 -52.5 21t-21.5 52t21.5 52.5t52.5 21.5t52.5 -21.5t21.5 -52.5t-21.5 -52t-52.5 -21zM246 0h-168v700h168v-700z" />
    <glyph glyph-name="eth" unicode="&#xf0;" horiz-adv-x="795" 
d="M92 700h306q153 0 257.5 -99t104.5 -254q0 -154 -104.5 -250.5t-257.5 -96.5h-306v278h-57v151h57v271zM260 157h138q78 0 132.5 51.5t54.5 138.5t-54.5 141.5t-132.5 54.5h-138v-114h107v-151h-107v-121z" />
    <glyph glyph-name="ntilde" unicode="&#xf1;" horiz-adv-x="784" 
d="M507 896h130q0 -68 -44.5 -112t-113.5 -44q-32 0 -61 15.5t-53 31t-42 15.5q-19 0 -31.5 -12t-12.5 -31h-130q0 68 44.5 112t113.5 44q42 0 89.5 -31t66.5 -31t31.5 12t12.5 31zM538 700h168v-700h-158l-143 195q-27 37 -67.5 94t-65.5 92l-26 35h-1v-34t0.5 -91.5
t0.5 -135.5v-155h-168v700h158l149 -200q19 -26 57.5 -79.5t67.5 -92.5l28 -39h1v36.5t-0.5 93t-0.5 121.5v160z" />
    <glyph glyph-name="ograve" unicode="&#xf2;" horiz-adv-x="797" 
d="M454 727l-248 103l57 113l239 -128zM35 350q0 157 105.5 260.5t257.5 103.5q153 0 258.5 -103.5t105.5 -260.5t-105.5 -260.5t-258.5 -103.5q-152 0 -257.5 103.5t-105.5 260.5zM210 350q0 -88 52 -143t136 -55q85 0 137 55t52 143q0 89 -52 143.5t-137 54.5
t-136.5 -54.5t-51.5 -143.5z" />
    <glyph glyph-name="oacute" unicode="&#xf3;" horiz-adv-x="797" 
d="M515 943l57 -113l-248 -103l-48 88zM35 350q0 157 105.5 260.5t257.5 103.5q153 0 258.5 -103.5t105.5 -260.5t-105.5 -260.5t-258.5 -103.5q-152 0 -257.5 103.5t-105.5 260.5zM210 350q0 -88 52 -143t136 -55q85 0 137 55t52 143q0 89 -52 143.5t-137 54.5
t-136.5 -54.5t-51.5 -143.5z" />
    <glyph glyph-name="ocircumflex" unicode="&#xf4;" horiz-adv-x="797" 
d="M200 808l197 167l196 -167l-80 -82l-116 96l-116 -96zM35 350q0 157 105.5 260.5t257.5 103.5q153 0 258.5 -103.5t105.5 -260.5t-105.5 -260.5t-258.5 -103.5q-152 0 -257.5 103.5t-105.5 260.5zM210 350q0 -88 52 -143t136 -55q85 0 137 55t52 143q0 89 -52 143.5
t-137 54.5t-136.5 -54.5t-51.5 -143.5z" />
    <glyph glyph-name="otilde" unicode="&#xf5;" horiz-adv-x="797" 
d="M516 896h130q0 -68 -44.5 -112t-113.5 -44q-40 0 -88 31t-68 31q-19 0 -31.5 -12t-12.5 -31h-130q0 68 44.5 112t113.5 44q33 0 62.5 -15.5t52.5 -31t41 -15.5q19 0 31.5 12t12.5 31zM35 350q0 157 105.5 260.5t257.5 103.5q153 0 258.5 -103.5t105.5 -260.5
t-105.5 -260.5t-258.5 -103.5q-152 0 -257.5 103.5t-105.5 260.5zM210 350q0 -88 52 -143t136 -55q85 0 137 55t52 143q0 89 -52 143.5t-137 54.5t-136.5 -54.5t-51.5 -143.5z" />
    <glyph glyph-name="odieresis" unicode="&#xf6;" horiz-adv-x="797" 
d="M263 768q-32 0 -53.5 21t-21.5 52t22 52.5t53 21.5t52 -21.5t21 -52.5t-21 -52t-52 -21zM532 768q-31 0 -52.5 21t-21.5 52t21.5 52.5t52.5 21.5t52.5 -21.5t21.5 -52.5t-21.5 -52t-52.5 -21zM35 350q0 157 105.5 260.5t257.5 103.5q153 0 258.5 -103.5t105.5 -260.5
t-105.5 -260.5t-258.5 -103.5q-152 0 -257.5 103.5t-105.5 260.5zM210 350q0 -88 52 -143t136 -55q85 0 137 55t52 143q0 89 -52 143.5t-137 54.5t-136.5 -54.5t-51.5 -143.5z" />
    <glyph glyph-name="divide" unicode="&#xf7;" 
d="M344 501q-33 0 -56 23t-23 56q0 32 23 55t56 23q32 0 55 -23t23 -55q0 -33 -23 -56t-55 -23zM123 423h453v-137h-453v137zM344 51q-33 0 -56 23t-23 56q0 32 23 55t56 23q32 0 55 -23t23 -55q0 -33 -23 -56t-55 -23z" />
    <glyph glyph-name="oslash" unicode="&#xf8;" horiz-adv-x="797" 
d="M715 637l-38 -49q85 -101 85 -238q0 -157 -105.5 -260.5t-258.5 -103.5q-82 0 -156 33l-37 -48l-119 90l37 48q-88 101 -88 241q0 157 105.5 260.5t257.5 103.5q86 0 161 -36l37 48zM232 251l222 290q-24 7 -56 7q-85 0 -136.5 -54.5t-51.5 -143.5q0 -55 22 -99zM568 445
l-220 -287q24 -6 50 -6q85 0 137 55t52 143q0 51 -19 95z" />
    <glyph glyph-name="ugrave" unicode="&#xf9;" horiz-adv-x="748" 
d="M428 727l-248 103l57 113l239 -128zM515 700h168v-389q0 -155 -84 -240t-225 -85q-142 0 -225.5 85t-83.5 240v389h168v-385q0 -172 141 -172t141 172v385z" />
    <glyph glyph-name="uacute" unicode="&#xfa;" horiz-adv-x="748" 
d="M489 943l57 -113l-248 -103l-48 88zM515 700h168v-389q0 -155 -84 -240t-225 -85q-142 0 -225.5 85t-83.5 240v389h168v-385q0 -172 141 -172t141 172v385z" />
    <glyph glyph-name="ucircumflex" unicode="&#xfb;" horiz-adv-x="748" 
d="M174 808l197 167l196 -167l-80 -82l-116 96l-116 -96zM515 700h168v-389q0 -155 -84 -240t-225 -85q-142 0 -225.5 85t-83.5 240v389h168v-385q0 -172 141 -172t141 172v385z" />
    <glyph glyph-name="udieresis" unicode="&#xfc;" horiz-adv-x="748" 
d="M237 768q-32 0 -53.5 21t-21.5 52t22 52.5t53 21.5t52 -21.5t21 -52.5t-21 -52t-52 -21zM506 768q-31 0 -52.5 21t-21.5 52t21.5 52.5t52.5 21.5t52.5 -21.5t21.5 -52.5t-21.5 -52t-52.5 -21zM515 700h168v-389q0 -155 -84 -240t-225 -85q-142 0 -225.5 85t-83.5 240v389
h168v-385q0 -172 141 -172t141 172v385z" />
    <glyph glyph-name="yacute" unicode="&#xfd;" horiz-adv-x="723" 
d="M476 943l57 -113l-248 -103l-48 88zM525 700h188l-268 -390v-310h-167v310l-268 390h188l127 -187q34 -51 36 -51h1q2 0 36 51z" />
    <glyph glyph-name="thorn" unicode="&#xfe;" horiz-adv-x="650" 
d="M246 590h101q122 0 197.5 -67.5t75.5 -172.5t-75.5 -172.5t-197.5 -67.5h-101v-110h-168v700h168v-110zM246 267h105q45 0 69.5 23t24.5 60t-24.5 60t-69.5 23h-105v-166z" />
    <glyph glyph-name="ydieresis" unicode="&#xff;" horiz-adv-x="723" 
d="M224 768q-32 0 -53.5 21t-21.5 52t22 52.5t53 21.5t52 -21.5t21 -52.5t-21 -52t-52 -21zM493 768q-31 0 -52.5 21t-21.5 52t21.5 52.5t52.5 21.5t52.5 -21.5t21.5 -52.5t-21.5 -52t-52.5 -21zM525 700h188l-268 -390v-310h-167v310l-268 390h188l127 -187q34 -51 36 -51
h1q2 0 36 51z" />
    <glyph glyph-name="Abreve" unicode="&#x102;" horiz-adv-x="719" 
d="M432 898h120q-16 -69 -69.5 -112.5t-123.5 -43.5q-75 0 -128 43.5t-68 112.5h122q7 -22 26.5 -37.5t47.5 -15.5q27 0 47 15.5t26 37.5zM538 0l-40 110h-277l-40 -110h-181l280 700h159l280 -700h-181zM275 257h169l-50 136q-6 17 -14.5 43.5t-13.5 43.5l-6 16h-1l-5 -16
q-6 -17 -14.5 -43.5t-14.5 -43.5z" />
    <glyph glyph-name="Amacron" unicode="&#x100;" horiz-adv-x="719" 
d="M537 895v-129h-347v129h347zM538 0l-40 110h-277l-40 -110h-181l280 700h159l280 -700h-181zM275 257h169l-50 136q-6 17 -14.5 43.5t-13.5 43.5l-6 16h-1l-5 -16q-6 -17 -14.5 -43.5t-14.5 -43.5z" />
    <glyph glyph-name="Aogonek" unicode="&#x104;" horiz-adv-x="719" 
d="M673 -86l86 -57q-27 -50 -74 -77t-99 -27q-82 0 -134 43.5t-52 120.5q0 58 39 101t75 48l-16 44h-277l-40 -110h-181l280 700h159l280 -700h-89q-42 0 -77 -21.5t-35 -61.5q0 -25 18 -42.5t51 -17.5q26 0 49.5 15.5t36.5 41.5zM275 257h169l-50 136q-6 17 -14.5 43.5
t-13.5 43.5l-6 16h-1l-5 -16q-6 -17 -14.5 -43.5t-14.5 -43.5z" />
    <glyph glyph-name="Cacute" unicode="&#x106;" horiz-adv-x="754" 
d="M511 943l57 -113l-248 -103l-48 88zM716 528l-171 -45q-24 30 -64.5 47.5t-82.5 17.5q-86 0 -137 -55t-51 -143q0 -89 52.5 -142.5t135.5 -53.5q50 0 94 23t66 59l170 -44q-44 -94 -132.5 -150t-197.5 -56q-152 0 -257.5 103.5t-105.5 260.5t105.5 260.5t257.5 103.5
q102 0 186.5 -50.5t131.5 -135.5z" />
    <glyph glyph-name="Ccaron" unicode="&#x10c;" horiz-adv-x="754" 
d="M200 890l197 -167l196 167l-80 82l-116 -96l-116 96zM716 528l-171 -45q-24 30 -64.5 47.5t-82.5 17.5q-86 0 -137 -55t-51 -143q0 -89 52.5 -142.5t135.5 -53.5q50 0 94 23t66 59l170 -44q-44 -94 -132.5 -150t-197.5 -56q-152 0 -257.5 103.5t-105.5 260.5t105.5 260.5
t257.5 103.5q102 0 186.5 -50.5t131.5 -135.5z" />
    <glyph glyph-name="Cdotaccent" unicode="&#x10a;" horiz-adv-x="754" 
d="M397 767q-31 0 -52.5 21.5t-21.5 52.5t21.5 52.5t52.5 21.5t52.5 -21.5t21.5 -52.5t-21.5 -52.5t-52.5 -21.5zM716 528l-171 -45q-24 30 -64.5 47.5t-82.5 17.5q-86 0 -137 -55t-51 -143q0 -89 52.5 -142.5t135.5 -53.5q50 0 94 23t66 59l170 -44q-44 -94 -132.5 -150
t-197.5 -56q-152 0 -257.5 103.5t-105.5 260.5t105.5 260.5t257.5 103.5q102 0 186.5 -50.5t131.5 -135.5z" />
    <glyph glyph-name="Dcaron" unicode="&#x10e;" horiz-adv-x="781" 
d="M189 890l197 -167l196 167l-80 82l-116 -96l-116 96zM78 700h306q153 0 257.5 -99t104.5 -254q0 -154 -104.5 -250.5t-257.5 -96.5h-306v700zM246 157h138q78 0 132.5 51.5t54.5 138.5t-54.5 141.5t-132.5 54.5h-138v-386z" />
    <glyph glyph-name="Dcroat" unicode="&#x110;" horiz-adv-x="795" 
d="M92 700h306q153 0 257.5 -99t104.5 -254q0 -154 -104.5 -250.5t-257.5 -96.5h-306v278h-57v151h57v271zM260 157h138q78 0 132.5 51.5t54.5 138.5t-54.5 141.5t-132.5 54.5h-138v-114h107v-151h-107v-121z" />
    <glyph glyph-name="Ecaron" unicode="&#x11a;" horiz-adv-x="663" 
d="M544 890l-196 -167l-197 167l81 82l116 -96l116 96zM246 157h347v-157h-515v700h509v-157h-341v-115h267v-147h-267v-124z" />
    <glyph glyph-name="Edotaccent" unicode="&#x116;" horiz-adv-x="663" 
d="M348 767q-31 0 -52.5 21.5t-21.5 52.5t21.5 52.5t52.5 21.5t52.5 -21.5t21.5 -52.5t-21.5 -52.5t-52.5 -21.5zM246 157h347v-157h-515v700h509v-157h-341v-115h267v-147h-267v-124z" />
    <glyph glyph-name="Emacron" unicode="&#x112;" horiz-adv-x="663" 
d="M526 895v-129h-347v129h347zM246 157h347v-157h-515v700h509v-157h-341v-115h267v-147h-267v-124z" />
    <glyph glyph-name="Eng" unicode="&#x14a;" horiz-adv-x="784" 
d="M538 700h168v-700q0 -107 -67 -177t-170 -70h-41v134h26q45 0 69.5 30.5t24.5 82.5l-143 195q-27 37 -67.5 94t-65.5 92l-26 35h-1v-34t0.5 -91.5t0.5 -135.5v-155h-168v700h158l149 -200q19 -26 57.5 -79.5t67.5 -92.5l28 -39h1v36.5t-0.5 93t-0.5 121.5v160z" />
    <glyph glyph-name="Eogonek" unicode="&#x118;" horiz-adv-x="663" 
d="M510 -86l86 -57q-27 -50 -74 -77t-99 -27q-82 0 -134 43.5t-52 120.5q0 45 25 83h-184v700h509v-157h-341v-115h267v-147h-267v-124h347v-157h-126q-42 0 -77 -21.5t-35 -61.5q0 -25 18 -42.5t51 -17.5q26 0 49.5 15.5t36.5 41.5z" />
    <glyph glyph-name="Gbreve" unicode="&#x11e;" horiz-adv-x="792" 
d="M202 898h122q7 -22 26.5 -37.5t47.5 -15.5q27 0 47 15.5t26 37.5h120q-16 -69 -69.5 -112.5t-123.5 -43.5q-75 0 -128 43.5t-68 112.5zM589 57h-1q-30 -32 -83.5 -51.5t-106.5 -19.5q-152 0 -257.5 103.5t-105.5 260.5t105.5 260.5t257.5 103.5q101 0 185.5 -50
t132.5 -136l-171 -45q-24 30 -64.5 47.5t-82.5 17.5q-86 0 -137 -55t-51 -143q0 -91 55.5 -145.5t142.5 -54.5q139 0 181 110v1h-184v135h327v-396h-144v17.5v14v10t0.5 7t0.5 4.5v3v1z" />
    <glyph glyph-name="Gcircumflex" unicode="&#x11c;" horiz-adv-x="792" 
d="M197 808l197 167l196 -167l-80 -82l-116 96l-116 -96zM589 57h-1q-30 -32 -83.5 -51.5t-106.5 -19.5q-152 0 -257.5 103.5t-105.5 260.5t105.5 260.5t257.5 103.5q101 0 185.5 -50t132.5 -136l-171 -45q-24 30 -64.5 47.5t-82.5 17.5q-86 0 -137 -55t-51 -143
q0 -91 55.5 -145.5t142.5 -54.5q139 0 181 110v1h-184v135h327v-396h-144v17.5v14v10t0.5 7t0.5 4.5v3v1z" />
    <glyph glyph-name="Gcommaaccent" unicode="&#x122;" horiz-adv-x="792" 
d="M589 57h-1q-30 -32 -83.5 -51.5t-106.5 -19.5q-152 0 -257.5 103.5t-105.5 260.5t105.5 260.5t257.5 103.5q101 0 185.5 -50t132.5 -136l-171 -45q-24 30 -64.5 47.5t-82.5 17.5q-86 0 -137 -55t-51 -143q0 -91 55.5 -145.5t142.5 -54.5q139 0 181 110v1h-184v135h327
v-396h-144v17.5v14v10t0.5 7t0.5 4.5v3v1zM375 -180l14 4l-14 2q-21 2 -37 19.5t-16 44.5q0 29 21 50t51 21t50.5 -22.5t20.5 -57.5q0 -42 -29.5 -89.5t-74.5 -82.5h-55q24 15 46.5 52t22.5 59z" />
    <glyph glyph-name="Gdotaccent" unicode="&#x120;" horiz-adv-x="792" 
d="M398 767q-31 0 -52.5 21.5t-21.5 52.5t21.5 52.5t52.5 21.5t52.5 -21.5t21.5 -52.5t-21.5 -52.5t-52.5 -21.5zM589 57h-1q-30 -32 -83.5 -51.5t-106.5 -19.5q-152 0 -257.5 103.5t-105.5 260.5t105.5 260.5t257.5 103.5q101 0 185.5 -50t132.5 -136l-171 -45
q-24 30 -64.5 47.5t-82.5 17.5q-86 0 -137 -55t-51 -143q0 -91 55.5 -145.5t142.5 -54.5q139 0 181 110v1h-184v135h327v-396h-144v17.5v14v10t0.5 7t0.5 4.5v3v1z" />
    <glyph glyph-name="Germandbls" unicode="&#x1e9e;" horiz-adv-x="830" 
d="M78 700h650l-98 -186q-49 -94 -49 -99l1 -1h4q84 0 146.5 -60t62.5 -143q0 -96 -68 -160.5t-181 -64.5q-79 0 -143.5 37t-100.5 98l159 43q34 -36 77 -36q44 0 66 24t22 61q0 34 -24.5 57t-68.5 23h-114v121l29 62q6 12 14.5 30.5t13.5 27.5l4 10l-1 1h-4
q-4 0 -10.5 -0.5t-14.5 -1t-18 -0.5h-19h-167v-543h-168v700z" />
    <glyph glyph-name="Hbar" unicode="&#x126;" horiz-adv-x="754" 
d="M748 638v-137h-72v-501h-168v272h-262v-272h-168v501h-72v137h72v62h168v-62h262v62h168v-62h72zM508 429v72h-262v-72h262z" />
    <glyph glyph-name="Hcircumflex" unicode="&#x124;" horiz-adv-x="754" 
d="M373 822l-116 -96l-81 82l197 167l196 -167l-80 -82zM508 700h168v-700h-168v272h-262v-272h-168v700h168v-271h262v271z" />
    <glyph glyph-name="IJ" unicode="&#x132;" horiz-adv-x="988" 
d="M246 0h-168v700h168v-700zM755 700h168v-389q0 -154 -86.5 -239.5t-228.5 -85.5q-99 0 -178 50t-111 129l165 44q38 -66 124 -66q69 0 108 43.5t39 118.5v395z" />
    <glyph glyph-name="Idotaccent" unicode="&#x130;" horiz-adv-x="324" 
d="M162 767q-31 0 -52.5 21.5t-21.5 52.5t21.5 52.5t52.5 21.5t52.5 -21.5t21.5 -52.5t-21.5 -52.5t-52.5 -21.5zM246 0h-168v700h168v-700z" />
    <glyph glyph-name="Imacron" unicode="&#x12a;" horiz-adv-x="324" 
d="M-7 895h347v-129h-347v129zM246 0h-168v700h168v-700z" />
    <glyph glyph-name="Iogonek" unicode="&#x12e;" horiz-adv-x="324" 
d="M236 -86l86 -57q-27 -50 -74 -77t-99 -27q-82 0 -134 43.5t-52 120.5q0 58 39.5 101t75.5 49v633h168v-700h-53q-42 0 -77 -21.5t-35 -61.5q0 -25 18 -42.5t51 -17.5q26 0 49.5 15.5t36.5 41.5z" />
    <glyph glyph-name="Jcircumflex" unicode="&#x134;" horiz-adv-x="679" 
d="M330 808l197 167l196 -167l-80 -82l-116 96l-116 -96zM446 700h168v-389q0 -154 -86.5 -239.5t-228.5 -85.5q-99 0 -178 50t-111 129l165 44q38 -66 124 -66q69 0 108 43.5t39 118.5v395z" />
    <glyph glyph-name="Kcommaaccent" unicode="&#x136;" horiz-adv-x="733" 
d="M416 402l299 -402h-198l-212 291l-59 -59v-232h-168v700h168v-114q0 -50 -0.5 -88.5t-1.5 -49.5v-12h1l7 8q8 8 31 32t54 55l170 169h206zM365 -176l-14 2q-21 2 -37 19.5t-16 44.5q0 29 21 50t51 21t50.5 -22.5t20.5 -57.5q0 -42 -29.5 -89.5t-74.5 -82.5h-55
q24 15 46.5 52t22.5 59z" />
    <glyph glyph-name="Lacute" unicode="&#x139;" horiz-adv-x="597" 
d="M346 830l-248 -103l-48 88l239 128zM246 157h331v-157h-499v700h168v-543z" />
    <glyph glyph-name="Lcaron" unicode="&#x13d;" horiz-adv-x="597" 
d="M382 434h-61q26 16 51 57.5t25 65.5l15 4l-15 2q-23 3 -40.5 22.5t-17.5 48.5q0 32 23 55t56 23t55.5 -24.5t22.5 -63.5q0 -46 -32.5 -98.5t-81.5 -91.5zM246 157h331v-157h-499v700h168v-543z" />
    <glyph glyph-name="Lcommaaccent" unicode="&#x13b;" horiz-adv-x="597" 
d="M246 157h331v-157h-499v700h168v-543zM332 -176l-14 2q-21 2 -37 19.5t-16 44.5q0 29 21 50t51 21t50.5 -22.5t20.5 -57.5q0 -42 -29.5 -89.5t-74.5 -82.5h-55q24 15 46.5 52t22.5 59z" />
    <glyph glyph-name="Ldot" unicode="&#x13f;" horiz-adv-x="597" 
d="M246 157h331v-157h-499v700h168v-543zM424 315q-31 0 -52.5 21.5t-21.5 52.5t21.5 52.5t52.5 21.5t52.5 -21.5t21.5 -52.5t-21.5 -52.5t-52.5 -21.5z" />
    <glyph glyph-name="Lslash" unicode="&#x141;" horiz-adv-x="597" 
d="M246 157h331v-157h-499v700h168v-250l241 125v-159l-241 -124v-135z" />
    <glyph glyph-name="Nacute" unicode="&#x143;" horiz-adv-x="784" 
d="M506 943l57 -113l-248 -103l-48 88zM538 700h168v-700h-158l-143 195q-27 37 -67.5 94t-65.5 92l-26 35h-1v-34t0.5 -91.5t0.5 -135.5v-155h-168v700h158l149 -200q19 -26 57.5 -79.5t67.5 -92.5l28 -39h1v36.5t-0.5 93t-0.5 121.5v160z" />
    <glyph glyph-name="Ncaron" unicode="&#x147;" horiz-adv-x="784" 
d="M195 890l197 -167l196 167l-80 82l-116 -96l-116 96zM538 700h168v-700h-158l-143 195q-27 37 -67.5 94t-65.5 92l-26 35h-1v-34t0.5 -91.5t0.5 -135.5v-155h-168v700h158l149 -200q19 -26 57.5 -79.5t67.5 -92.5l28 -39h1v36.5t-0.5 93t-0.5 121.5v160z" />
    <glyph glyph-name="Ncommaaccent" unicode="&#x145;" horiz-adv-x="784" 
d="M538 700h168v-700h-158l-143 195q-27 37 -67.5 94t-65.5 92l-26 35h-1v-34t0.5 -91.5t0.5 -135.5v-155h-168v700h158l149 -200q19 -26 57.5 -79.5t67.5 -92.5l28 -39h1v36.5t-0.5 93t-0.5 121.5v160zM379 -180l14 4l-14 2q-21 2 -37 19.5t-16 44.5q0 29 21 50t51 21
t50.5 -22.5t20.5 -57.5q0 -42 -29.5 -89.5t-74.5 -82.5h-55q24 15 46.5 52t22.5 59z" />
    <glyph glyph-name="Ohungarumlaut" unicode="&#x150;" horiz-adv-x="797" 
d="M394 788l-147 -61l-48 88l239 128l38 -76l142 76l57 -113l-248 -103zM398 714q153 0 258.5 -103.5t105.5 -260.5t-105.5 -260.5t-258.5 -103.5q-152 0 -257.5 103.5t-105.5 260.5t105.5 260.5t257.5 103.5zM398 152q85 0 137 55t52 143q0 89 -52 143.5t-137 54.5
t-136.5 -54.5t-51.5 -143.5q0 -88 52 -143t136 -55z" />
    <glyph glyph-name="Omacron" unicode="&#x14c;" horiz-adv-x="797" 
d="M234 895h347v-129h-347v129zM35 350q0 157 105.5 260.5t257.5 103.5q153 0 258.5 -103.5t105.5 -260.5t-105.5 -260.5t-258.5 -103.5q-152 0 -257.5 103.5t-105.5 260.5zM210 350q0 -88 52 -143t136 -55q85 0 137 55t52 143q0 89 -52 143.5t-137 54.5t-136.5 -54.5
t-51.5 -143.5z" />
    <glyph glyph-name="Racute" unicode="&#x154;" horiz-adv-x="680" 
d="M499 830l-248 -103l-48 88l239 128zM650 0h-188l-130 228h-86v-228h-168v700h261q131 0 206.5 -65.5t75.5 -174.5q0 -143 -126 -202zM246 543v-166h116q42 0 63 25t21 58t-21 58t-63 25h-116z" />
    <glyph glyph-name="Rcaron" unicode="&#x158;" horiz-adv-x="680" 
d="M524 890l-196 -167l-197 167l81 82l116 -96l116 96zM650 0h-188l-130 228h-86v-228h-168v700h261q131 0 206.5 -65.5t75.5 -174.5q0 -143 -126 -202zM246 543v-166h116q42 0 63 25t21 58t-21 58t-63 25h-116z" />
    <glyph glyph-name="Rcommaaccent" unicode="&#x156;" horiz-adv-x="680" 
d="M495 258l155 -258h-188l-130 228h-86v-228h-168v700h261q131 0 206.5 -65.5t75.5 -174.5q0 -143 -126 -202zM246 543v-166h116q42 0 63 25t21 58t-21 58t-63 25h-116zM339 -176l-14 2q-21 2 -37 19.5t-16 44.5q0 29 21 50t51 21t50.5 -22.5t20.5 -57.5q0 -42 -29.5 -89.5
t-74.5 -82.5h-55q24 15 46.5 52t22.5 59z" />
    <glyph glyph-name="Sacute" unicode="&#x15a;" horiz-adv-x="614" 
d="M435 943l57 -113l-248 -103l-48 88zM583 522l-162 -44q-12 44 -46.5 67.5t-74.5 23.5q-36 0 -57.5 -15.5t-21.5 -37.5q0 -10 3.5 -18t13 -15.5t17.5 -13t25 -12.5t27.5 -11t33.5 -12t35 -12q44 -16 78 -33.5t66.5 -43.5t50.5 -61.5t18 -78.5q0 -96 -75.5 -157.5
t-197.5 -61.5q-108 0 -184.5 56t-111.5 156l161 43q15 -44 52.5 -75t89.5 -31q43 0 65.5 17.5t22.5 44.5q0 16 -8 28.5t-28.5 23.5t-37 17.5t-52.5 18.5t-56 20q-39 15 -65 28.5t-55.5 37t-45 57.5t-15.5 78q0 84 75 146t187 62q99 0 173.5 -54t99.5 -138z" />
    <glyph glyph-name="Scedilla" unicode="&#x15e;" horiz-adv-x="614" 
d="M583 522l-162 -44q-12 44 -46.5 67.5t-74.5 23.5q-36 0 -57.5 -15.5t-21.5 -37.5q0 -10 3.5 -18t13 -15.5t17.5 -13t25 -12.5t27.5 -11t33.5 -12t35 -12q44 -16 78 -33.5t66.5 -43.5t50.5 -61.5t18 -78.5q0 -84 -58 -142t-156 -73l-17 -46q44 1 76.5 -28.5t32.5 -77.5
q0 -57 -34 -84t-86 -27h-124l34 87h90q29 0 29 23q0 21 -29 23h-107l44 127q-96 9 -163.5 64t-100.5 147l161 43q15 -44 52.5 -75t89.5 -31q43 0 65.5 17.5t22.5 44.5q0 16 -8 28.5t-28.5 23.5t-37 17.5t-52.5 18.5t-56 20q-39 15 -65 28.5t-55.5 37t-45 57.5t-15.5 78
q0 84 75 146t187 62q99 0 173.5 -54t99.5 -138z" />
    <glyph glyph-name="Scircumflex" unicode="&#x15c;" horiz-adv-x="614" 
d="M120 808l197 167l196 -167l-80 -82l-116 96l-116 -96zM583 522l-162 -44q-12 44 -46.5 67.5t-74.5 23.5q-36 0 -57.5 -15.5t-21.5 -37.5q0 -10 3.5 -18t13 -15.5t17.5 -13t25 -12.5t27.5 -11t33.5 -12t35 -12q44 -16 78 -33.5t66.5 -43.5t50.5 -61.5t18 -78.5
q0 -96 -75.5 -157.5t-197.5 -61.5q-108 0 -184.5 56t-111.5 156l161 43q15 -44 52.5 -75t89.5 -31q43 0 65.5 17.5t22.5 44.5q0 16 -8 28.5t-28.5 23.5t-37 17.5t-52.5 18.5t-56 20q-39 15 -65 28.5t-55.5 37t-45 57.5t-15.5 78q0 84 75 146t187 62q99 0 173.5 -54
t99.5 -138z" />
    <glyph glyph-name="Scommaaccent" unicode="&#x218;" horiz-adv-x="614" 
d="M583 522l-162 -44q-12 44 -46.5 67.5t-74.5 23.5q-36 0 -57.5 -15.5t-21.5 -37.5q0 -10 3.5 -18t13 -15.5t17.5 -13t25 -12.5t27.5 -11t33.5 -12t35 -12q44 -16 78 -33.5t66.5 -43.5t50.5 -61.5t18 -78.5q0 -96 -75.5 -157.5t-197.5 -61.5q-108 0 -184.5 56t-111.5 156
l161 43q15 -44 52.5 -75t89.5 -31q43 0 65.5 17.5t22.5 44.5q0 16 -8 28.5t-28.5 23.5t-37 17.5t-52.5 18.5t-56 20q-39 15 -65 28.5t-55.5 37t-45 57.5t-15.5 78q0 84 75 146t187 62q99 0 173.5 -54t99.5 -138zM283 -180l14 4l-14 2q-21 2 -37 19.5t-16 44.5q0 29 21 50
t51 21t50.5 -22.5t20.5 -57.5q0 -42 -29.5 -89.5t-74.5 -82.5h-55q24 15 46.5 52t22.5 59z" />
    <glyph glyph-name="Tbar" unicode="&#x166;" horiz-adv-x="611" 
d="M601 543h-213v-120h101v-127h-101v-296h-168v296h-101v127h101v120h-210v157h591v-157z" />
    <glyph glyph-name="Tcaron" unicode="&#x164;" horiz-adv-x="611" 
d="M518 890l-196 -167l-197 167l81 82l116 -96l116 96zM10 700h591v-157h-213v-543h-168v543h-210v157z" />
    <glyph glyph-name="Tcedilla" unicode="&#x162;" horiz-adv-x="611" 
d="M388 0h-50l-21 -56q44 1 76.5 -28.5t32.5 -77.5q0 -57 -34 -84t-86 -27h-124l34 87h90q29 0 29 23q0 21 -29 23h-107l48 140h-27v543h-210v157h591v-157h-213v-543z" />
    <glyph glyph-name="uni021A" unicode="&#x21a;" horiz-adv-x="611" 
d="M10 700h591v-157h-213v-543h-168v543h-210v157zM310 -176l-14 2q-21 2 -37 19.5t-16 44.5q0 29 21 50t51 21t50.5 -22.5t20.5 -57.5q0 -42 -29.5 -89.5t-74.5 -82.5h-55q24 15 46.5 52t22.5 59z" />
    <glyph glyph-name="Ubreve" unicode="&#x16c;" horiz-adv-x="748" 
d="M179 898h122q7 -22 26.5 -37.5t47.5 -15.5q27 0 47 15.5t26 37.5h120q-16 -69 -69.5 -112.5t-123.5 -43.5q-75 0 -128 43.5t-68 112.5zM515 700h168v-389q0 -155 -84 -240t-225 -85q-142 0 -225.5 85t-83.5 240v389h168v-385q0 -172 141 -172t141 172v385z" />
    <glyph glyph-name="Uhungarumlaut" unicode="&#x170;" horiz-adv-x="748" 
d="M366 788l-147 -61l-48 88l239 128l38 -76l142 76l57 -113l-248 -103zM515 700h168v-389q0 -155 -84 -240t-225 -85q-142 0 -225.5 85t-83.5 240v389h168v-385q0 -172 141 -172t141 172v385z" />
    <glyph glyph-name="Umacron" unicode="&#x16a;" horiz-adv-x="748" 
d="M206 895h347v-129h-347v129zM515 700h168v-389q0 -155 -84 -240t-225 -85q-142 0 -225.5 85t-83.5 240v389h168v-385q0 -172 141 -172t141 172v385z" />
    <glyph glyph-name="Uogonek" unicode="&#x172;" horiz-adv-x="748" 
d="M683 700v-389q0 -117 -49 -195.5t-137 -109.5q-86 -36 -86 -93q0 -24 16 -40t44 -16q23 0 46 17t36 43l85 -56q-23 -47 -70 -77.5t-97 -30.5q-74 0 -125 40t-51 106q0 49 38 89q-125 12 -196.5 96t-71.5 227v389h168v-385q0 -172 141 -172t141 172v385h168z" />
    <glyph glyph-name="Uring" unicode="&#x16e;" horiz-adv-x="748" 
d="M375 677q-62 0 -106.5 44.5t-44.5 105.5t44.5 105.5t106.5 44.5t106 -44t44 -106t-44 -106t-106 -44zM375 775q23 0 39 16t16 37q0 23 -16 39t-39 16q-21 0 -37 -16t-16 -39q0 -21 16 -37t37 -16zM515 700h168v-389q0 -155 -84 -240t-225 -85q-142 0 -225.5 85t-83.5 240
v389h168v-385q0 -172 141 -172t141 172v385z" />
    <glyph glyph-name="Wacute" unicode="&#x1e82;" horiz-adv-x="1051" 
d="M640 943l57 -113l-248 -103l-48 88zM852 700h179l-212 -700h-158l-104 323q-10 30 -17.5 60t-10.5 44l-3 14h-1l-3 -14q-3 -14 -10.5 -44t-17.5 -60l-104 -323h-158l-212 700h179l86 -330q7 -28 14 -57.5t11 -42.5l3 -13h1l4 13q4 14 13 42.5t19 57.5l97 264h157l97 -264
q10 -29 19 -57.5t13 -42.5l4 -13h1l4 13q3 13 10 42.5t14 57.5z" />
    <glyph glyph-name="Wcircumflex" unicode="&#x174;" horiz-adv-x="1051" 
d="M325 808l197 167l196 -167l-80 -82l-116 96l-116 -96zM852 700h179l-212 -700h-158l-104 323q-10 30 -17.5 60t-10.5 44l-3 14h-1l-3 -14q-3 -14 -10.5 -44t-17.5 -60l-104 -323h-158l-212 700h179l86 -330q7 -28 14 -57.5t11 -42.5l3 -13h1l4 13q4 14 13 42.5t19 57.5
l97 264h157l97 -264q10 -29 19 -57.5t13 -42.5l4 -13h1l4 13q3 13 10 42.5t14 57.5z" />
    <glyph glyph-name="Wdieresis" unicode="&#x1e84;" horiz-adv-x="1051" 
d="M388 768q-32 0 -53.5 21t-21.5 52t22 52.5t53 21.5t52 -21.5t21 -52.5t-21 -52t-52 -21zM657 768q-31 0 -52.5 21t-21.5 52t21.5 52.5t52.5 21.5t52.5 -21.5t21.5 -52.5t-21.5 -52t-52.5 -21zM852 700h179l-212 -700h-158l-104 323q-10 30 -17.5 60t-10.5 44l-3 14h-1
l-3 -14q-3 -14 -10.5 -44t-17.5 -60l-104 -323h-158l-212 700h179l86 -330q7 -28 14 -57.5t11 -42.5l3 -13h1l4 13q4 14 13 42.5t19 57.5l97 264h157l97 -264q10 -29 19 -57.5t13 -42.5l4 -13h1l4 13q3 13 10 42.5t14 57.5z" />
    <glyph glyph-name="Wgrave" unicode="&#x1e80;" horiz-adv-x="1051" 
d="M579 727l-248 103l57 113l239 -128zM852 700h179l-212 -700h-158l-104 323q-10 30 -17.5 60t-10.5 44l-3 14h-1l-3 -14q-3 -14 -10.5 -44t-17.5 -60l-104 -323h-158l-212 700h179l86 -330q7 -28 14 -57.5t11 -42.5l3 -13h1l4 13q4 14 13 42.5t19 57.5l97 264h157l97 -264
q10 -29 19 -57.5t13 -42.5l4 -13h1l4 13q3 13 10 42.5t14 57.5z" />
    <glyph glyph-name="Ycircumflex" unicode="&#x176;" horiz-adv-x="723" 
d="M160 808l197 167l196 -167l-80 -82l-116 96l-116 -96zM525 700h188l-268 -390v-310h-167v310l-268 390h188l127 -187q34 -51 36 -51h1q2 0 36 51z" />
    <glyph glyph-name="Ygrave" unicode="&#x1ef2;" horiz-adv-x="723" 
d="M414 727l-248 103l57 113l239 -128zM525 700h188l-268 -390v-310h-167v310l-268 390h188l127 -187q34 -51 36 -51h1q2 0 36 51z" />
    <glyph glyph-name="Zacute" unicode="&#x179;" horiz-adv-x="712" 
d="M480 943l57 -113l-248 -103l-48 88zM652 700v-157l-298 -321q-13 -14 -30 -31t-26 -27l-9 -9l1 -1h3q3 0 8.5 0.5t13 1t17 0.5t20 0.5t23 0.5h24.5h253v-157h-592v157l312 328q11 12 27.5 27t26.5 24l11 9l-1 1h-8q-7 -1 -18.5 -1.5t-25 -0.5t-29.5 -0.5t-28 -0.5h-257
v157h582z" />
    <glyph glyph-name="Zdotaccent" unicode="&#x17b;" horiz-adv-x="712" 
d="M366 767q-31 0 -52.5 21.5t-21.5 52.5t21.5 52.5t52.5 21.5t52.5 -21.5t21.5 -52.5t-21.5 -52.5t-52.5 -21.5zM652 700v-157l-298 -321q-13 -14 -30 -31t-26 -27l-9 -9l1 -1h3q3 0 8.5 0.5t13 1t17 0.5t20 0.5t23 0.5h24.5h253v-157h-592v157l312 328q11 12 27.5 27
t26.5 24l11 9l-1 1h-8q-7 -1 -18.5 -1.5t-25 -0.5t-29.5 -0.5t-28 -0.5h-257v157h582z" />
    <glyph glyph-name="abreve" unicode="&#x103;" horiz-adv-x="719" 
d="M432 898h120q-16 -69 -69.5 -112.5t-123.5 -43.5q-75 0 -128 43.5t-68 112.5h122q7 -22 26.5 -37.5t47.5 -15.5q27 0 47 15.5t26 37.5zM538 0l-40 110h-277l-40 -110h-181l280 700h159l280 -700h-181zM275 257h169l-50 136q-6 17 -14.5 43.5t-13.5 43.5l-6 16h-1l-5 -16
q-6 -17 -14.5 -43.5t-14.5 -43.5z" />
    <glyph glyph-name="amacron" unicode="&#x101;" horiz-adv-x="719" 
d="M537 895v-129h-347v129h347zM538 0l-40 110h-277l-40 -110h-181l280 700h159l280 -700h-181zM275 257h169l-50 136q-6 17 -14.5 43.5t-13.5 43.5l-6 16h-1l-5 -16q-6 -17 -14.5 -43.5t-14.5 -43.5z" />
    <glyph glyph-name="aogonek" unicode="&#x105;" horiz-adv-x="719" 
d="M673 -86l86 -57q-27 -50 -74 -77t-99 -27q-82 0 -134 43.5t-52 120.5q0 58 39 101t75 48l-16 44h-277l-40 -110h-181l280 700h159l280 -700h-89q-42 0 -77 -21.5t-35 -61.5q0 -25 18 -42.5t51 -17.5q26 0 49.5 15.5t36.5 41.5zM275 257h169l-50 136q-6 17 -14.5 43.5
t-13.5 43.5l-6 16h-1l-5 -16q-6 -17 -14.5 -43.5t-14.5 -43.5z" />
    <glyph glyph-name="cacute" unicode="&#x107;" horiz-adv-x="754" 
d="M511 943l57 -113l-248 -103l-48 88zM716 528l-171 -45q-24 30 -64.5 47.5t-82.5 17.5q-86 0 -137 -55t-51 -143q0 -89 52.5 -142.5t135.5 -53.5q50 0 94 23t66 59l170 -44q-44 -94 -132.5 -150t-197.5 -56q-152 0 -257.5 103.5t-105.5 260.5t105.5 260.5t257.5 103.5
q102 0 186.5 -50.5t131.5 -135.5z" />
    <glyph glyph-name="ccaron" unicode="&#x10d;" horiz-adv-x="754" 
d="M200 890l197 -167l196 167l-80 82l-116 -96l-116 96zM716 528l-171 -45q-24 30 -64.5 47.5t-82.5 17.5q-86 0 -137 -55t-51 -143q0 -89 52.5 -142.5t135.5 -53.5q50 0 94 23t66 59l170 -44q-44 -94 -132.5 -150t-197.5 -56q-152 0 -257.5 103.5t-105.5 260.5t105.5 260.5
t257.5 103.5q102 0 186.5 -50.5t131.5 -135.5z" />
    <glyph glyph-name="cdotaccent" unicode="&#x10b;" horiz-adv-x="754" 
d="M397 767q-31 0 -52.5 21.5t-21.5 52.5t21.5 52.5t52.5 21.5t52.5 -21.5t21.5 -52.5t-21.5 -52.5t-52.5 -21.5zM716 528l-171 -45q-24 30 -64.5 47.5t-82.5 17.5q-86 0 -137 -55t-51 -143q0 -89 52.5 -142.5t135.5 -53.5q50 0 94 23t66 59l170 -44q-44 -94 -132.5 -150
t-197.5 -56q-152 0 -257.5 103.5t-105.5 260.5t105.5 260.5t257.5 103.5q102 0 186.5 -50.5t131.5 -135.5z" />
    <glyph glyph-name="dcaron" unicode="&#x10f;" horiz-adv-x="781" 
d="M189 890l197 -167l196 167l-80 82l-116 -96l-116 96zM78 700h306q153 0 257.5 -99t104.5 -254q0 -154 -104.5 -250.5t-257.5 -96.5h-306v700zM246 157h138q78 0 132.5 51.5t54.5 138.5t-54.5 141.5t-132.5 54.5h-138v-386z" />
    <glyph glyph-name="dcroat" unicode="&#x111;" horiz-adv-x="795" 
d="M92 700h306q153 0 257.5 -99t104.5 -254q0 -154 -104.5 -250.5t-257.5 -96.5h-306v278h-57v151h57v271zM260 157h138q78 0 132.5 51.5t54.5 138.5t-54.5 141.5t-132.5 54.5h-138v-114h107v-151h-107v-121z" />
    <glyph glyph-name="dotlessi" unicode="&#x131;" horiz-adv-x="324" 
d="M246 0h-168v700h168v-700z" />
    <glyph glyph-name="dotlessj" unicode="&#x237;" horiz-adv-x="679" 
d="M446 700h168v-389q0 -154 -86.5 -239.5t-228.5 -85.5q-99 0 -178 50t-111 129l165 44q38 -66 124 -66q69 0 108 43.5t39 118.5v395z" />
    <glyph glyph-name="ecaron" unicode="&#x11b;" horiz-adv-x="663" 
d="M544 890l-196 -167l-197 167l81 82l116 -96l116 96zM246 157h347v-157h-515v700h509v-157h-341v-115h267v-147h-267v-124z" />
    <glyph glyph-name="edotaccent" unicode="&#x117;" horiz-adv-x="663" 
d="M348 767q-31 0 -52.5 21.5t-21.5 52.5t21.5 52.5t52.5 21.5t52.5 -21.5t21.5 -52.5t-21.5 -52.5t-52.5 -21.5zM246 157h347v-157h-515v700h509v-157h-341v-115h267v-147h-267v-124z" />
    <glyph glyph-name="emacron" unicode="&#x113;" horiz-adv-x="663" 
d="M526 895v-129h-347v129h347zM246 157h347v-157h-515v700h509v-157h-341v-115h267v-147h-267v-124z" />
    <glyph glyph-name="eng" unicode="&#x14b;" horiz-adv-x="784" 
d="M538 700h168v-700q0 -107 -67 -177t-170 -70h-41v134h26q45 0 69.5 30.5t24.5 82.5l-143 195q-27 37 -67.5 94t-65.5 92l-26 35h-1v-34t0.5 -91.5t0.5 -135.5v-155h-168v700h158l149 -200q19 -26 57.5 -79.5t67.5 -92.5l28 -39h1v36.5t-0.5 93t-0.5 121.5v160z" />
    <glyph glyph-name="eogonek" unicode="&#x119;" horiz-adv-x="663" 
d="M518 -86l86 -57q-27 -50 -74 -77t-99 -27q-82 0 -134 43.5t-52 120.5q0 45 25 83h-192v700h509v-157h-341v-115h267v-147h-267v-124h347v-157h-118q-42 0 -77 -21.5t-35 -61.5q0 -25 18 -42.5t51 -17.5q26 0 49.5 15.5t36.5 41.5z" />
    <glyph glyph-name="gbreve" unicode="&#x11f;" horiz-adv-x="792" 
d="M202 898h122q7 -22 26.5 -37.5t47.5 -15.5q27 0 47 15.5t26 37.5h120q-16 -69 -69.5 -112.5t-123.5 -43.5q-75 0 -128 43.5t-68 112.5zM589 57h-1q-30 -32 -83.5 -51.5t-106.5 -19.5q-152 0 -257.5 103.5t-105.5 260.5t105.5 260.5t257.5 103.5q101 0 185.5 -50
t132.5 -136l-171 -45q-24 30 -64.5 47.5t-82.5 17.5q-86 0 -137 -55t-51 -143q0 -91 55.5 -145.5t142.5 -54.5q139 0 181 110v1h-184v135h327v-396h-144v17.5v14v10t0.5 7t0.5 4.5v3v1z" />
    <glyph glyph-name="gcircumflex" unicode="&#x11d;" horiz-adv-x="792" 
d="M197 808l197 167l196 -167l-80 -82l-116 96l-116 -96zM589 57h-1q-30 -32 -83.5 -51.5t-106.5 -19.5q-152 0 -257.5 103.5t-105.5 260.5t105.5 260.5t257.5 103.5q101 0 185.5 -50t132.5 -136l-171 -45q-24 30 -64.5 47.5t-82.5 17.5q-86 0 -137 -55t-51 -143
q0 -91 55.5 -145.5t142.5 -54.5q139 0 181 110v1h-184v135h327v-396h-144v17.5v14v10t0.5 7t0.5 4.5v3v1z" />
    <glyph glyph-name="gcommaaccent" unicode="&#x123;" horiz-adv-x="792" 
d="M589 57h-1q-30 -32 -83.5 -51.5t-106.5 -19.5q-152 0 -257.5 103.5t-105.5 260.5t105.5 260.5t257.5 103.5q101 0 185.5 -50t132.5 -136l-171 -45q-24 30 -64.5 47.5t-82.5 17.5q-86 0 -137 -55t-51 -143q0 -91 55.5 -145.5t142.5 -54.5q139 0 181 110v1h-184v135h327
v-396h-144v17.5v14v10t0.5 7t0.5 4.5v3v1zM375 -180l14 4l-14 2q-21 2 -37 19.5t-16 44.5q0 29 21 50t51 21t50.5 -22.5t20.5 -57.5q0 -42 -29.5 -89.5t-74.5 -82.5h-55q24 15 46.5 52t22.5 59z" />
    <glyph glyph-name="gdotaccent" unicode="&#x121;" horiz-adv-x="792" 
d="M398 767q-31 0 -52.5 21.5t-21.5 52.5t21.5 52.5t52.5 21.5t52.5 -21.5t21.5 -52.5t-21.5 -52.5t-52.5 -21.5zM589 57h-1q-30 -32 -83.5 -51.5t-106.5 -19.5q-152 0 -257.5 103.5t-105.5 260.5t105.5 260.5t257.5 103.5q101 0 185.5 -50t132.5 -136l-171 -45
q-24 30 -64.5 47.5t-82.5 17.5q-86 0 -137 -55t-51 -143q0 -91 55.5 -145.5t142.5 -54.5q139 0 181 110v1h-184v135h327v-396h-144v17.5v14v10t0.5 7t0.5 4.5v3v1z" />
    <glyph glyph-name="hbar" unicode="&#x127;" horiz-adv-x="754" 
d="M748 638v-137h-72v-501h-168v272h-262v-272h-168v501h-72v137h72v62h168v-62h262v62h168v-62h72zM508 429v72h-262v-72h262z" />
    <glyph glyph-name="hcircumflex" unicode="&#x125;" horiz-adv-x="754" 
d="M373 822l-116 -96l-81 82l197 167l196 -167l-80 -82zM508 700h168v-700h-168v272h-262v-272h-168v700h168v-271h262v271z" />
    <glyph glyph-name="ij" unicode="&#x133;" horiz-adv-x="988" 
d="M246 0h-168v700h168v-700zM755 700h168v-389q0 -154 -86.5 -239.5t-228.5 -85.5q-99 0 -178 50t-111 129l165 44q38 -66 124 -66q69 0 108 43.5t39 118.5v395z" />
    <glyph glyph-name="imacron" unicode="&#x12b;" horiz-adv-x="324" 
d="M-7 895h347v-129h-347v129zM246 0h-168v700h168v-700z" />
    <glyph glyph-name="iogonek" unicode="&#x12f;" horiz-adv-x="324" 
d="M236 -86l86 -57q-27 -50 -74 -77t-99 -27q-82 0 -134 43.5t-52 120.5q0 58 39.5 101t75.5 49v633h168v-700h-53q-42 0 -77 -21.5t-35 -61.5q0 -25 18 -42.5t51 -17.5q26 0 49.5 15.5t36.5 41.5z" />
    <glyph glyph-name="jcircumflex" unicode="&#x135;" horiz-adv-x="679" 
d="M330 808l197 167l196 -167l-80 -82l-116 96l-116 -96zM446 700h168v-389q0 -154 -86.5 -239.5t-228.5 -85.5q-99 0 -178 50t-111 129l165 44q38 -66 124 -66q69 0 108 43.5t39 118.5v395z" />
    <glyph glyph-name="kcommaaccent" unicode="&#x137;" horiz-adv-x="733" 
d="M416 402l299 -402h-198l-212 291l-59 -59v-232h-168v700h168v-114q0 -50 -0.5 -88.5t-1.5 -49.5v-12h1l7 8q8 8 31 32t54 55l170 169h206zM363 -176l-14 2q-21 2 -37 19.5t-16 44.5q0 29 21 50t51 21t50.5 -22.5t20.5 -57.5q0 -42 -29.5 -89.5t-74.5 -82.5h-55
q24 15 46.5 52t22.5 59z" />
    <glyph glyph-name="lacute" unicode="&#x13a;" horiz-adv-x="597" 
d="M346 830l-248 -103l-48 88l239 128zM246 157h331v-157h-499v700h168v-543z" />
    <glyph glyph-name="lcaron" unicode="&#x13e;" horiz-adv-x="597" 
d="M372 434h-61q26 16 51 57.5t25 65.5l15 4l-15 2q-23 3 -40.5 22.5t-17.5 48.5q0 32 23 55t56 23t55.5 -24.5t22.5 -63.5q0 -46 -32.5 -98.5t-81.5 -91.5zM246 157h331v-157h-499v700h168v-543z" />
    <glyph glyph-name="lcommaaccent" unicode="&#x13c;" horiz-adv-x="597" 
d="M246 157h331v-157h-499v700h168v-543zM270 -176l-14 2q-21 2 -37 19.5t-16 44.5q0 29 21 50t51 21t50.5 -22.5t20.5 -57.5q0 -42 -29.5 -89.5t-74.5 -82.5h-55q24 15 46.5 52t22.5 59z" />
    <glyph glyph-name="ldot" unicode="&#x140;" horiz-adv-x="597" 
d="M246 157h331v-157h-499v700h168v-543zM424 315q-31 0 -52.5 21.5t-21.5 52.5t21.5 52.5t52.5 21.5t52.5 -21.5t21.5 -52.5t-21.5 -52.5t-52.5 -21.5z" />
    <glyph glyph-name="lslash" unicode="&#x142;" horiz-adv-x="597" 
d="M246 157h331v-157h-499v700h168v-250l241 125v-159l-241 -124v-135z" />
    <glyph glyph-name="nacute" unicode="&#x144;" horiz-adv-x="784" 
d="M506 943l57 -113l-248 -103l-48 88zM538 700h168v-700h-158l-143 195q-27 37 -67.5 94t-65.5 92l-26 35h-1v-34t0.5 -91.5t0.5 -135.5v-155h-168v700h158l149 -200q19 -26 57.5 -79.5t67.5 -92.5l28 -39h1v36.5t-0.5 93t-0.5 121.5v160z" />
    <glyph glyph-name="ncaron" unicode="&#x148;" horiz-adv-x="784" 
d="M195 890l197 -167l196 167l-80 82l-116 -96l-116 96zM538 700h168v-700h-158l-143 195q-27 37 -67.5 94t-65.5 92l-26 35h-1v-34t0.5 -91.5t0.5 -135.5v-155h-168v700h158l149 -200q19 -26 57.5 -79.5t67.5 -92.5l28 -39h1v36.5t-0.5 93t-0.5 121.5v160z" />
    <glyph glyph-name="ncommaaccent" unicode="&#x146;" horiz-adv-x="784" 
d="M538 700h168v-700h-158l-143 195q-27 37 -67.5 94t-65.5 92l-26 35h-1v-34t0.5 -91.5t0.5 -135.5v-155h-168v700h158l149 -200q19 -26 57.5 -79.5t67.5 -92.5l28 -39h1v36.5t-0.5 93t-0.5 121.5v160zM379 -180l14 4l-14 2q-21 2 -37 19.5t-16 44.5q0 29 21 50t51 21
t50.5 -22.5t20.5 -57.5q0 -42 -29.5 -89.5t-74.5 -82.5h-55q24 15 46.5 52t22.5 59z" />
    <glyph glyph-name="ohungarumlaut" unicode="&#x151;" horiz-adv-x="797" 
d="M392 788l-147 -61l-48 88l239 128l38 -76l142 76l57 -113l-248 -103zM398 714q153 0 258.5 -103.5t105.5 -260.5t-105.5 -260.5t-258.5 -103.5q-152 0 -257.5 103.5t-105.5 260.5t105.5 260.5t257.5 103.5zM398 152q85 0 137 55t52 143q0 89 -52 143.5t-137 54.5
t-136.5 -54.5t-51.5 -143.5q0 -88 52 -143t136 -55z" />
    <glyph glyph-name="omacron" unicode="&#x14d;" horiz-adv-x="797" 
d="M232 895h347v-129h-347v129zM35 350q0 157 105.5 260.5t257.5 103.5q153 0 258.5 -103.5t105.5 -260.5t-105.5 -260.5t-258.5 -103.5q-152 0 -257.5 103.5t-105.5 260.5zM210 350q0 -88 52 -143t136 -55q85 0 137 55t52 143q0 89 -52 143.5t-137 54.5t-136.5 -54.5
t-51.5 -143.5z" />
    <glyph glyph-name="racute" unicode="&#x155;" horiz-adv-x="680" 
d="M499 830l-248 -103l-48 88l239 128zM650 0h-188l-130 228h-86v-228h-168v700h261q131 0 206.5 -65.5t75.5 -174.5q0 -143 -126 -202zM246 543v-166h116q42 0 63 25t21 58t-21 58t-63 25h-116z" />
    <glyph glyph-name="rcaron" unicode="&#x159;" horiz-adv-x="680" 
d="M524 890l-196 -167l-197 167l81 82l116 -96l116 96zM650 0h-188l-130 228h-86v-228h-168v700h261q131 0 206.5 -65.5t75.5 -174.5q0 -143 -126 -202zM246 543v-166h116q42 0 63 25t21 58t-21 58t-63 25h-116z" />
    <glyph glyph-name="rcommaaccent" unicode="&#x157;" horiz-adv-x="680" 
d="M495 258l155 -258h-188l-130 228h-86v-228h-168v700h261q131 0 206.5 -65.5t75.5 -174.5q0 -143 -126 -202zM246 543v-166h116q42 0 63 25t21 58t-21 58t-63 25h-116zM347 -176l-14 2q-21 2 -37 19.5t-16 44.5q0 29 21 50t51 21t50.5 -22.5t20.5 -57.5q0 -42 -29.5 -89.5
t-74.5 -82.5h-55q24 15 46.5 52t22.5 59z" />
    <glyph glyph-name="sacute" unicode="&#x15b;" horiz-adv-x="614" 
d="M445 943l57 -113l-248 -103l-48 88zM583 522l-162 -44q-12 44 -46.5 67.5t-74.5 23.5q-36 0 -57.5 -15.5t-21.5 -37.5q0 -10 3.5 -18t13 -15.5t17.5 -13t25 -12.5t27.5 -11t33.5 -12t35 -12q44 -16 78 -33.5t66.5 -43.5t50.5 -61.5t18 -78.5q0 -96 -75.5 -157.5
t-197.5 -61.5q-108 0 -184.5 56t-111.5 156l161 43q15 -44 52.5 -75t89.5 -31q43 0 65.5 17.5t22.5 44.5q0 16 -8 28.5t-28.5 23.5t-37 17.5t-52.5 18.5t-56 20q-39 15 -65 28.5t-55.5 37t-45 57.5t-15.5 78q0 84 75 146t187 62q99 0 173.5 -54t99.5 -138z" />
    <glyph glyph-name="scedilla" unicode="&#x15f;" horiz-adv-x="614" 
d="M583 522l-162 -44q-12 44 -46.5 67.5t-74.5 23.5q-36 0 -57.5 -15.5t-21.5 -37.5q0 -10 3.5 -18t13 -15.5t17.5 -13t25 -12.5t27.5 -11t33.5 -12t35 -12q44 -16 78 -33.5t66.5 -43.5t50.5 -61.5t18 -78.5q0 -82 -55 -139t-148 -74l-18 -48q44 1 76.5 -28.5t32.5 -77.5
q0 -57 -34 -84t-86 -27h-124l34 87h90q29 0 29 23q0 21 -29 23h-107l43 127q-99 6 -169 61.5t-104 149.5l161 43q15 -44 52.5 -75t89.5 -31q43 0 65.5 17.5t22.5 44.5q0 16 -8 28.5t-28.5 23.5t-37 17.5t-52.5 18.5t-56 20q-39 15 -65 28.5t-55.5 37t-45 57.5t-15.5 78
q0 84 75 146t187 62q99 0 173.5 -54t99.5 -138z" />
    <glyph glyph-name="scircumflex" unicode="&#x15d;" horiz-adv-x="614" 
d="M120 808l197 167l196 -167l-80 -82l-116 96l-116 -96zM583 522l-162 -44q-12 44 -46.5 67.5t-74.5 23.5q-36 0 -57.5 -15.5t-21.5 -37.5q0 -10 3.5 -18t13 -15.5t17.5 -13t25 -12.5t27.5 -11t33.5 -12t35 -12q44 -16 78 -33.5t66.5 -43.5t50.5 -61.5t18 -78.5
q0 -96 -75.5 -157.5t-197.5 -61.5q-108 0 -184.5 56t-111.5 156l161 43q15 -44 52.5 -75t89.5 -31q43 0 65.5 17.5t22.5 44.5q0 16 -8 28.5t-28.5 23.5t-37 17.5t-52.5 18.5t-56 20q-39 15 -65 28.5t-55.5 37t-45 57.5t-15.5 78q0 84 75 146t187 62q99 0 173.5 -54
t99.5 -138z" />
    <glyph glyph-name="scommaaccent" unicode="&#x219;" horiz-adv-x="614" 
d="M583 522l-162 -44q-12 44 -46.5 67.5t-74.5 23.5q-36 0 -57.5 -15.5t-21.5 -37.5q0 -10 3.5 -18t13 -15.5t17.5 -13t25 -12.5t27.5 -11t33.5 -12t35 -12q44 -16 78 -33.5t66.5 -43.5t50.5 -61.5t18 -78.5q0 -96 -75.5 -157.5t-197.5 -61.5q-108 0 -184.5 56t-111.5 156
l161 43q15 -44 52.5 -75t89.5 -31q43 0 65.5 17.5t22.5 44.5q0 16 -8 28.5t-28.5 23.5t-37 17.5t-52.5 18.5t-56 20q-39 15 -65 28.5t-55.5 37t-45 57.5t-15.5 78q0 84 75 146t187 62q99 0 173.5 -54t99.5 -138zM283 -180l14 4l-14 2q-21 2 -37 19.5t-16 44.5q0 29 21 50
t51 21t50.5 -22.5t20.5 -57.5q0 -42 -29.5 -89.5t-74.5 -82.5h-55q24 15 46.5 52t22.5 59z" />
    <glyph glyph-name="tbar" unicode="&#x167;" horiz-adv-x="611" 
d="M601 543h-213v-120h101v-127h-101v-296h-168v296h-101v127h101v120h-210v157h591v-157z" />
    <glyph glyph-name="tcaron" unicode="&#x165;" horiz-adv-x="611" 
d="M518 890l-196 -167l-197 167l81 82l116 -96l116 96zM10 700h591v-157h-213v-543h-168v543h-210v157z" />
    <glyph glyph-name="tcedilla" unicode="&#x163;" horiz-adv-x="611" 
d="M388 0h-50l-21 -56q44 1 76.5 -28.5t32.5 -77.5q0 -57 -34 -84t-86 -27h-124l34 87h90q29 0 29 23q0 21 -29 23h-107l48 140h-27v543h-210v157h591v-157h-213v-543z" />
    <glyph glyph-name="uni021B" unicode="&#x21b;" horiz-adv-x="611" 
d="M10 700h591v-157h-213v-543h-168v543h-210v157zM280 -176l-14 2q-21 2 -37 19.5t-16 44.5q0 29 21 50t51 21t50.5 -22.5t20.5 -57.5q0 -42 -29.5 -89.5t-74.5 -82.5h-55q24 15 46.5 52t22.5 59z" />
    <glyph glyph-name="ubreve" unicode="&#x16d;" horiz-adv-x="748" 
d="M179 898h122q7 -22 26.5 -37.5t47.5 -15.5q27 0 47 15.5t26 37.5h120q-16 -69 -69.5 -112.5t-123.5 -43.5q-75 0 -128 43.5t-68 112.5zM515 700h168v-389q0 -155 -84 -240t-225 -85q-142 0 -225.5 85t-83.5 240v389h168v-385q0 -172 141 -172t141 172v385z" />
    <glyph glyph-name="uhungarumlaut" unicode="&#x171;" horiz-adv-x="748" 
d="M366 788l-147 -61l-48 88l239 128l38 -76l142 76l57 -113l-248 -103zM515 700h168v-389q0 -155 -84 -240t-225 -85q-142 0 -225.5 85t-83.5 240v389h168v-385q0 -172 141 -172t141 172v385z" />
    <glyph glyph-name="umacron" unicode="&#x16b;" horiz-adv-x="748" 
d="M206 895h347v-129h-347v129zM515 700h168v-389q0 -155 -84 -240t-225 -85q-142 0 -225.5 85t-83.5 240v389h168v-385q0 -172 141 -172t141 172v385z" />
    <glyph glyph-name="uogonek" unicode="&#x173;" horiz-adv-x="748" 
d="M683 700v-389q0 -117 -49 -195.5t-137 -109.5q-86 -36 -86 -93q0 -24 16 -40t44 -16q23 0 46 17t36 43l85 -56q-23 -47 -70 -77.5t-97 -30.5q-74 0 -125 40t-51 106q0 49 38 89q-125 12 -196.5 96t-71.5 227v389h168v-385q0 -172 141 -172t141 172v385h168z" />
    <glyph glyph-name="uring" unicode="&#x16f;" horiz-adv-x="748" 
d="M375 677q-62 0 -106.5 44.5t-44.5 105.5t44.5 105.5t106.5 44.5t106 -44t44 -106t-44 -106t-106 -44zM375 775q23 0 39 16t16 37q0 23 -16 39t-39 16q-21 0 -37 -16t-16 -39q0 -21 16 -37t37 -16zM515 700h168v-389q0 -155 -84 -240t-225 -85q-142 0 -225.5 85t-83.5 240
v389h168v-385q0 -172 141 -172t141 172v385z" />
    <glyph glyph-name="wacute" unicode="&#x1e83;" horiz-adv-x="1051" 
d="M630 943l57 -113l-248 -103l-48 88zM852 700h179l-212 -700h-158l-104 323q-10 30 -17.5 60t-10.5 44l-3 14h-1l-3 -14q-3 -14 -10.5 -44t-17.5 -60l-104 -323h-158l-212 700h179l86 -330q7 -28 14 -57.5t11 -42.5l3 -13h1l4 13q4 14 13 42.5t19 57.5l97 264h157l97 -264
q10 -29 19 -57.5t13 -42.5l4 -13h1l4 13q3 13 10 42.5t14 57.5z" />
    <glyph glyph-name="wcircumflex" unicode="&#x175;" horiz-adv-x="1051" 
d="M315 808l197 167l196 -167l-80 -82l-116 96l-116 -96zM852 700h179l-212 -700h-158l-104 323q-10 30 -17.5 60t-10.5 44l-3 14h-1l-3 -14q-3 -14 -10.5 -44t-17.5 -60l-104 -323h-158l-212 700h179l86 -330q7 -28 14 -57.5t11 -42.5l3 -13h1l4 13q4 14 13 42.5t19 57.5
l97 264h157l97 -264q10 -29 19 -57.5t13 -42.5l4 -13h1l4 13q3 13 10 42.5t14 57.5z" />
    <glyph glyph-name="wdieresis" unicode="&#x1e85;" horiz-adv-x="1051" 
d="M378 768q-32 0 -53.5 21t-21.5 52t22 52.5t53 21.5t52 -21.5t21 -52.5t-21 -52t-52 -21zM647 768q-31 0 -52.5 21t-21.5 52t21.5 52.5t52.5 21.5t52.5 -21.5t21.5 -52.5t-21.5 -52t-52.5 -21zM852 700h179l-212 -700h-158l-104 323q-10 30 -17.5 60t-10.5 44l-3 14h-1
l-3 -14q-3 -14 -10.5 -44t-17.5 -60l-104 -323h-158l-212 700h179l86 -330q7 -28 14 -57.5t11 -42.5l3 -13h1l4 13q4 14 13 42.5t19 57.5l97 264h157l97 -264q10 -29 19 -57.5t13 -42.5l4 -13h1l4 13q3 13 10 42.5t14 57.5z" />
    <glyph glyph-name="wgrave" unicode="&#x1e81;" horiz-adv-x="1051" 
d="M569 727l-248 103l57 113l239 -128zM852 700h179l-212 -700h-158l-104 323q-10 30 -17.5 60t-10.5 44l-3 14h-1l-3 -14q-3 -14 -10.5 -44t-17.5 -60l-104 -323h-158l-212 700h179l86 -330q7 -28 14 -57.5t11 -42.5l3 -13h1l4 13q4 14 13 42.5t19 57.5l97 264h157l97 -264
q10 -29 19 -57.5t13 -42.5l4 -13h1l4 13q3 13 10 42.5t14 57.5z" />
    <glyph glyph-name="ycircumflex" unicode="&#x177;" horiz-adv-x="723" 
d="M161 808l197 167l196 -167l-80 -82l-116 96l-116 -96zM525 700h188l-268 -390v-310h-167v310l-268 390h188l127 -187q34 -51 36 -51h1q2 0 36 51z" />
    <glyph glyph-name="ygrave" unicode="&#x1ef3;" horiz-adv-x="723" 
d="M415 727l-248 103l57 113l239 -128zM525 700h188l-268 -390v-310h-167v310l-268 390h188l127 -187q34 -51 36 -51h1q2 0 36 51z" />
    <glyph glyph-name="zacute" unicode="&#x17a;" horiz-adv-x="712" 
d="M480 943l57 -113l-248 -103l-48 88zM652 700v-157l-298 -321q-13 -14 -30 -31t-26 -27l-9 -9l1 -1h3q3 0 8.5 0.5t13 1t17 0.5t20 0.5t23 0.5h24.5h253v-157h-592v157l312 328q11 12 27.5 27t26.5 24l11 9l-1 1h-8q-7 -1 -18.5 -1.5t-25 -0.5t-29.5 -0.5t-28 -0.5h-257
v157h582z" />
    <glyph glyph-name="zdotaccent" unicode="&#x17c;" horiz-adv-x="712" 
d="M366 767q-31 0 -52.5 21.5t-21.5 52.5t21.5 52.5t52.5 21.5t52.5 -21.5t21.5 -52.5t-21.5 -52.5t-52.5 -21.5zM652 700v-157l-298 -321q-13 -14 -30 -31t-26 -27l-9 -9l1 -1h3q3 0 8.5 0.5t13 1t17 0.5t20 0.5t23 0.5h24.5h253v-157h-592v157l312 328q11 12 27.5 27
t26.5 24l11 9l-1 1h-8q-7 -1 -18.5 -1.5t-25 -0.5t-29.5 -0.5t-28 -0.5h-257v157h582z" />
    <glyph glyph-name="Cacute.loclPLK" horiz-adv-x="754" 
d="M445 976l122 -68l-123 -181l-104 59zM716 528l-171 -45q-24 30 -64.5 47.5t-82.5 17.5q-86 0 -137 -55t-51 -143q0 -89 52.5 -142.5t135.5 -53.5q50 0 94 23t66 59l170 -44q-44 -94 -132.5 -150t-197.5 -56q-152 0 -257.5 103.5t-105.5 260.5t105.5 260.5t257.5 103.5
q102 0 186.5 -50.5t131.5 -135.5z" />
    <glyph glyph-name="I.ss03" horiz-adv-x="518" 
d="M343 147h140v-147h-448v147h140v406h-136v147h440v-147h-136v-406z" />
    <glyph glyph-name="IJ.ss03" horiz-adv-x="1182" 
d="M343 553v-406h140v-147h-448v147h140v406h-136v147h440v-147h-136zM949 700h168v-389q0 -154 -86.5 -239.5t-228.5 -85.5q-99 0 -178 50t-111 129l165 44q38 -66 124 -66q69 0 108 43.5t39 118.5v395z" />
    <glyph glyph-name="IJ.ss03.ss04" horiz-adv-x="1177" 
d="M343 553v-406h140v-147h-448v147h140v406h-136v147h440v-147h-136zM651 700h461v-389q0 -154 -86.5 -239.5t-228.5 -85.5q-99 0 -178 50t-111 129l165 44q38 -66 124 -66q69 0 108 43.5t39 118.5v238h-293v157z" />
    <glyph glyph-name="IJ.ss04" horiz-adv-x="983" 
d="M78 0v700h168v-700h-168zM457 700h461v-389q0 -154 -86.5 -239.5t-228.5 -85.5q-99 0 -178 50t-111 129l165 44q38 -66 124 -66q69 0 108 43.5t39 118.5v238h-293v157z" />
    <glyph glyph-name="Iacute.ss03" horiz-adv-x="518" 
d="M432 830l-248 -103l-48 88l239 128zM343 147h140v-147h-448v147h140v406h-136v147h440v-147h-136v-406z" />
    <glyph glyph-name="Icircumflex.ss03" horiz-adv-x="518" 
d="M257 822l-116 -96l-81 82l197 167l196 -167l-80 -82zM343 147h140v-147h-448v147h140v406h-136v147h440v-147h-136v-406z" />
    <glyph glyph-name="Idieresis.ss03" horiz-adv-x="518" 
d="M123 768q-32 0 -53.5 21t-21.5 52t22 52.5t53 21.5t52 -21.5t21 -52.5t-21 -52t-52 -21zM392 768q-31 0 -52.5 21t-21.5 52t21.5 52.5t52.5 21.5t52.5 -21.5t21.5 -52.5t-21.5 -52t-52.5 -21zM343 147h140v-147h-448v147h140v406h-136v147h440v-147h-136v-406z" />
    <glyph glyph-name="Idotaccent.ss03" horiz-adv-x="518" 
d="M261 767q-31 0 -52.5 21.5t-21.5 52.5t21.5 52.5t52.5 21.5t52.5 -21.5t21.5 -52.5t-21.5 -52.5t-52.5 -21.5zM343 147h140v-147h-448v147h140v406h-136v147h440v-147h-136v-406z" />
    <glyph glyph-name="Igrave.ss03" horiz-adv-x="518" 
d="M362 815l-48 -88l-248 103l57 113zM343 147h140v-147h-448v147h140v406h-136v147h440v-147h-136v-406z" />
    <glyph glyph-name="Imacron.ss03" horiz-adv-x="518" 
d="M479 895v-129h-440v129h440zM343 147h140v-147h-448v147h140v406h-136v147h440v-147h-136v-406z" />
    <glyph glyph-name="Iogonek.ss03" horiz-adv-x="518" 
d="M483 0h-244q-42 0 -77 -21.5t-35 -61.5q0 -25 18 -42.5t51 -17.5q26 0 49.5 15.5t36.5 41.5l86 -57q-27 -50 -74 -77t-99 -27q-82 0 -134 43.5t-52 120.5q0 44 26 84v146h140v406h-136v147h440v-147h-136v-406h140v-147z" />
    <glyph glyph-name="J.ss04" horiz-adv-x="679" 
d="M153 700h461v-389q0 -154 -86.5 -239.5t-228.5 -85.5q-99 0 -178 50t-111 129l165 44q38 -66 124 -66q69 0 108 43.5t39 118.5v238h-293v157z" />
    <glyph glyph-name="Jcircumflex.ss04" horiz-adv-x="679" 
d="M368 822l-116 -96l-81 82l197 167l196 -167l-80 -82zM153 700h461v-389q0 -154 -86.5 -239.5t-228.5 -85.5q-99 0 -178 50t-111 129l165 44q38 -66 124 -66q69 0 108 43.5t39 118.5v238h-293v157z" />
    <glyph glyph-name="N.ss02" horiz-adv-x="784" 
d="M538 700h168v-700h-168v227l-126 107q-33 29 -75.5 66.5t-67.5 59.5l-25 22h-1v-4q0 -4 0.5 -11.5t0.5 -17t0.5 -23t1 -27.5t0.5 -32v-35v-332h-168v700h158l110 -100q190 -172 193 -172h1v4q0 4 -0.5 10.5t-0.5 16v22t-0.5 26.5t-0.5 31.5v34.5v127z" />
    <glyph glyph-name="Nacute.loclPLK" horiz-adv-x="784" 
d="M440 976l122 -68l-123 -181l-104 59zM538 700h168v-700h-158l-143 195q-27 37 -67.5 94t-65.5 92l-26 35h-1v-34t0.5 -91.5t0.5 -135.5v-155h-168v700h158l149 -200q19 -26 57.5 -79.5t67.5 -92.5l28 -39h1v36.5t-0.5 93t-0.5 121.5v160z" />
    <glyph glyph-name="Nacute.loclPLK.ss02" horiz-adv-x="784" 
d="M440 976l122 -68l-123 -181l-104 59zM538 700h168v-700h-168v227l-126 107q-33 29 -75.5 66.5t-67.5 59.5l-25 22h-1v-4q0 -4 0.5 -11.5t0.5 -17t0.5 -23t1 -27.5t0.5 -32v-35v-332h-168v700h158l110 -100q190 -172 193 -172h1v4q0 4 -0.5 10.5t-0.5 16v22t-0.5 26.5
t-0.5 31.5v34.5v127z" />
    <glyph glyph-name="Nacute.ss02" horiz-adv-x="784" 
d="M506 943l57 -113l-248 -103l-48 88zM538 700h168v-700h-168v227l-126 107q-33 29 -75.5 66.5t-67.5 59.5l-25 22h-1v-4q0 -4 0.5 -11.5t0.5 -17t0.5 -23t1 -27.5t0.5 -32v-35v-332h-168v700h158l110 -100q190 -172 193 -172h1v4q0 4 -0.5 10.5t-0.5 16v22t-0.5 26.5
t-0.5 31.5v34.5v127z" />
    <glyph glyph-name="Ncaron.ss02" horiz-adv-x="784" 
d="M195 890l197 -167l196 167l-80 82l-116 -96l-116 96zM538 700h168v-700h-168v227l-126 107q-33 29 -75.5 66.5t-67.5 59.5l-25 22h-1v-4q0 -4 0.5 -11.5t0.5 -17t0.5 -23t1 -27.5t0.5 -32v-35v-332h-168v700h158l110 -100q190 -172 193 -172h1v4q0 4 -0.5 10.5t-0.5 16
v22t-0.5 26.5t-0.5 31.5v34.5v127z" />
    <glyph glyph-name="Ncommaaccent.ss02" horiz-adv-x="784" 
d="M538 700h168v-700h-168v227l-126 107q-33 29 -75.5 66.5t-67.5 59.5l-25 22h-1v-4q0 -4 0.5 -11.5t0.5 -17t0.5 -23t1 -27.5t0.5 -32v-35v-332h-168v700h158l110 -100q190 -172 193 -172h1v4q0 4 -0.5 10.5t-0.5 16v22t-0.5 26.5t-0.5 31.5v34.5v127zM379 -180l14 4
l-14 2q-21 2 -37 19.5t-16 44.5q0 29 21 50t51 21t50.5 -22.5t20.5 -57.5q0 -42 -29.5 -89.5t-74.5 -82.5h-55q24 15 46.5 52t22.5 59z" />
    <glyph glyph-name="Ntilde.ss02" horiz-adv-x="784" 
d="M507 896h130q0 -68 -44.5 -112t-113.5 -44q-32 0 -61 15.5t-53 31t-42 15.5q-19 0 -31.5 -12t-12.5 -31h-130q0 68 44.5 112t113.5 44q42 0 89.5 -31t66.5 -31t31.5 12t12.5 31zM538 700h168v-700h-168v227l-126 107q-33 29 -75.5 66.5t-67.5 59.5l-25 22h-1v-4
q0 -4 0.5 -11.5t0.5 -17t0.5 -23t1 -27.5t0.5 -32v-35v-332h-168v700h158l110 -100q190 -172 193 -172h1v4q0 4 -0.5 10.5t-0.5 16v22t-0.5 26.5t-0.5 31.5v34.5v127z" />
    <glyph glyph-name="Oacute.loclPLK" horiz-adv-x="797" 
d="M451 976l122 -68l-123 -181l-104 59zM35 350q0 157 105.5 260.5t257.5 103.5q153 0 258.5 -103.5t105.5 -260.5t-105.5 -260.5t-258.5 -103.5q-152 0 -257.5 103.5t-105.5 260.5zM210 350q0 -88 52 -143t136 -55q85 0 137 55t52 143q0 89 -52 143.5t-137 54.5
t-136.5 -54.5t-51.5 -143.5z" />
    <glyph glyph-name="Q.ss01" horiz-adv-x="827" 
d="M774 165h23v-165h-400q-152 0 -257 101.5t-105 255.5t105 256t257 102t257.5 -102t105.5 -256q0 -112 -58 -198l1 -1h3q2 1 7 2.5t12.5 2.5t20.5 1.5t28 0.5zM210 357q0 -87 53.5 -139t133.5 -52t134 52t54 139q0 86 -54 139t-134 53t-133.5 -52.5t-53.5 -139.5z" />
    <glyph glyph-name="Sacute.loclPLK" horiz-adv-x="614" 
d="M369 976l122 -68l-123 -181l-104 59zM583 522l-162 -44q-12 44 -46.5 67.5t-74.5 23.5q-36 0 -57.5 -15.5t-21.5 -37.5q0 -10 3.5 -18t13 -15.5t17.5 -13t25 -12.5t27.5 -11t33.5 -12t35 -12q44 -16 78 -33.5t66.5 -43.5t50.5 -61.5t18 -78.5q0 -96 -75.5 -157.5
t-197.5 -61.5q-108 0 -184.5 56t-111.5 156l161 43q15 -44 52.5 -75t89.5 -31q43 0 65.5 17.5t22.5 44.5q0 16 -8 28.5t-28.5 23.5t-37 17.5t-52.5 18.5t-56 20q-39 15 -65 28.5t-55.5 37t-45 57.5t-15.5 78q0 84 75 146t187 62q99 0 173.5 -54t99.5 -138z" />
    <glyph glyph-name="Y.ss05" horiz-adv-x="723" 
d="M713 700l-236 -343h102v-137h-134v-220h-167v220h-132v137h100l-236 343h188l127 -187q34 -51 36 -51h1q2 0 36 51l127 187h188z" />
    <glyph glyph-name="Yacute.ss05" horiz-adv-x="723" 
d="M532 830l-248 -103l-48 88l239 128zM713 700l-236 -343h102v-137h-134v-220h-167v220h-132v137h100l-236 343h188l127 -187q34 -51 36 -51h1q2 0 36 51l127 187h188z" />
    <glyph glyph-name="Ycircumflex.ss05" horiz-adv-x="723" 
d="M357 822l-116 -96l-81 82l197 167l196 -167l-80 -82zM713 700l-236 -343h102v-137h-134v-220h-167v220h-132v137h100l-236 343h188l127 -187q34 -51 36 -51h1q2 0 36 51l127 187h188z" />
    <glyph glyph-name="Ydieresis.ss05" horiz-adv-x="723" 
d="M223 768q-32 0 -53.5 21t-21.5 52t22 52.5t53 21.5t52 -21.5t21 -52.5t-21 -52t-52 -21zM492 768q-31 0 -52.5 21t-21.5 52t21.5 52.5t52.5 21.5t52.5 -21.5t21.5 -52.5t-21.5 -52t-52.5 -21zM713 700l-236 -343h102v-137h-134v-220h-167v220h-132v137h100l-236 343h188
l127 -187q34 -51 36 -51h1q2 0 36 51l127 187h188z" />
    <glyph glyph-name="Ygrave.ss05" horiz-adv-x="723" 
d="M462 815l-48 -88l-248 103l57 113zM713 700l-236 -343h102v-137h-134v-220h-167v220h-132v137h100l-236 343h188l127 -187q34 -51 36 -51h1q2 0 36 51l127 187h188z" />
    <glyph glyph-name="Zacute.loclPLK" horiz-adv-x="712" 
d="M414 976l122 -68l-123 -181l-104 59zM652 700v-157l-298 -321q-13 -14 -30 -31t-26 -27l-9 -9l1 -1h3q3 0 8.5 0.5t13 1t17 0.5t20 0.5t23 0.5h24.5h253v-157h-592v157l312 328q11 12 27.5 27t26.5 24l11 9l-1 1h-8q-7 -1 -18.5 -1.5t-25 -0.5t-29.5 -0.5t-28 -0.5h-257
v157h582z" />
    <glyph glyph-name="cacute.loclPLK" horiz-adv-x="754" 
d="M445 976l122 -68l-123 -181l-104 59zM716 528l-171 -45q-24 30 -64.5 47.5t-82.5 17.5q-86 0 -137 -55t-51 -143q0 -89 52.5 -142.5t135.5 -53.5q50 0 94 23t66 59l170 -44q-44 -94 -132.5 -150t-197.5 -56q-152 0 -257.5 103.5t-105.5 260.5t105.5 260.5t257.5 103.5
q102 0 186.5 -50.5t131.5 -135.5z" />
    <glyph glyph-name="dotlessj.ss04" horiz-adv-x="679" 
d="M153 700h461v-389q0 -154 -86.5 -239.5t-228.5 -85.5q-99 0 -178 50t-111 129l165 44q38 -66 124 -66q69 0 108 43.5t39 118.5v238h-293v157z" />
    <glyph glyph-name="i.ss03" horiz-adv-x="518" 
d="M343 147h140v-147h-448v147h140v406h-136v147h440v-147h-136v-406z" />
    <glyph glyph-name="iacute.ss03" horiz-adv-x="518" 
d="M432 830l-248 -103l-48 88l239 128zM343 147h140v-147h-448v147h140v406h-136v147h440v-147h-136v-406z" />
    <glyph glyph-name="icircumflex.ss03" horiz-adv-x="518" 
d="M257 822l-116 -96l-81 82l197 167l196 -167l-80 -82zM343 147h140v-147h-448v147h140v406h-136v147h440v-147h-136v-406z" />
    <glyph glyph-name="idieresis.ss03" horiz-adv-x="518" 
d="M123 768q-32 0 -53.5 21t-21.5 52t22 52.5t53 21.5t52 -21.5t21 -52.5t-21 -52t-52 -21zM392 768q-31 0 -52.5 21t-21.5 52t21.5 52.5t52.5 21.5t52.5 -21.5t21.5 -52.5t-21.5 -52t-52.5 -21zM343 147h140v-147h-448v147h140v406h-136v147h440v-147h-136v-406z" />
    <glyph glyph-name="idotaccent.ss03" horiz-adv-x="518" 
d="M261 767q-31 0 -52.5 21.5t-21.5 52.5t21.5 52.5t52.5 21.5t52.5 -21.5t21.5 -52.5t-21.5 -52.5t-52.5 -21.5zM343 147h140v-147h-448v147h140v406h-136v147h440v-147h-136v-406z" />
    <glyph glyph-name="igrave.ss03" horiz-adv-x="518" 
d="M362 815l-48 -88l-248 103l57 113zM343 147h140v-147h-448v147h140v406h-136v147h440v-147h-136v-406z" />
    <glyph glyph-name="ij.ss03" horiz-adv-x="1182" 
d="M343 553v-406h140v-147h-448v147h140v406h-136v147h440v-147h-136zM949 700h168v-389q0 -154 -86.5 -239.5t-228.5 -85.5q-99 0 -178 50t-111 129l165 44q38 -66 124 -66q69 0 108 43.5t39 118.5v395z" />
    <glyph glyph-name="ij.ss03.ss04" horiz-adv-x="1177" 
d="M343 553v-406h140v-147h-448v147h140v406h-136v147h440v-147h-136zM651 700h461v-389q0 -154 -86.5 -239.5t-228.5 -85.5q-99 0 -178 50t-111 129l165 44q38 -66 124 -66q69 0 108 43.5t39 118.5v238h-293v157z" />
    <glyph glyph-name="ij.ss04" horiz-adv-x="983" 
d="M78 0v700h168v-700h-168zM457 700h461v-389q0 -154 -86.5 -239.5t-228.5 -85.5q-99 0 -178 50t-111 129l165 44q38 -66 124 -66q69 0 108 43.5t39 118.5v238h-293v157z" />
    <glyph glyph-name="imacron.ss03" horiz-adv-x="518" 
d="M479 895v-129h-440v129h440zM343 147h140v-147h-448v147h140v406h-136v147h440v-147h-136v-406z" />
    <glyph glyph-name="iogonek.ss03" horiz-adv-x="518" 
d="M483 0h-244q-42 0 -77 -21.5t-35 -61.5q0 -25 18 -42.5t51 -17.5q26 0 49.5 15.5t36.5 41.5l86 -57q-27 -50 -74 -77t-99 -27q-82 0 -134 43.5t-52 120.5q0 44 26 84v146h140v406h-136v147h440v-147h-136v-406h140v-147z" />
    <glyph glyph-name="j.ss04" horiz-adv-x="679" 
d="M153 700h461v-389q0 -154 -86.5 -239.5t-228.5 -85.5q-99 0 -178 50t-111 129l165 44q38 -66 124 -66q69 0 108 43.5t39 118.5v238h-293v157z" />
    <glyph glyph-name="jcircumflex.ss04" horiz-adv-x="679" 
d="M368 822l-116 -96l-81 82l197 167l196 -167l-80 -82zM153 700h461v-389q0 -154 -86.5 -239.5t-228.5 -85.5q-99 0 -178 50t-111 129l165 44q38 -66 124 -66q69 0 108 43.5t39 118.5v238h-293v157z" />
    <glyph glyph-name="n.ss02" horiz-adv-x="784" 
d="M538 700h168v-700h-168v227l-126 107q-33 29 -75.5 66.5t-67.5 59.5l-25 22h-1v-4q0 -4 0.5 -11.5t0.5 -17t0.5 -23t1 -27.5t0.5 -32v-35v-332h-168v700h158l110 -100q190 -172 193 -172h1v4q0 4 -0.5 10.5t-0.5 16v22t-0.5 26.5t-0.5 31.5v34.5v127z" />
    <glyph glyph-name="nacute.loclPLK" horiz-adv-x="784" 
d="M440 976l122 -68l-123 -181l-104 59zM538 700h168v-700h-158l-143 195q-27 37 -67.5 94t-65.5 92l-26 35h-1v-34t0.5 -91.5t0.5 -135.5v-155h-168v700h158l149 -200q19 -26 57.5 -79.5t67.5 -92.5l28 -39h1v36.5t-0.5 93t-0.5 121.5v160z" />
    <glyph glyph-name="nacute.loclPLK.ss02" horiz-adv-x="784" 
d="M440 976l122 -68l-123 -181l-104 59zM538 700h168v-700h-168v227l-126 107q-33 29 -75.5 66.5t-67.5 59.5l-25 22h-1v-4q0 -4 0.5 -11.5t0.5 -17t0.5 -23t1 -27.5t0.5 -32v-35v-332h-168v700h158l110 -100q190 -172 193 -172h1v4q0 4 -0.5 10.5t-0.5 16v22t-0.5 26.5
t-0.5 31.5v34.5v127z" />
    <glyph glyph-name="nacute.ss02" horiz-adv-x="784" 
d="M506 943l57 -113l-248 -103l-48 88zM538 700h168v-700h-168v227l-126 107q-33 29 -75.5 66.5t-67.5 59.5l-25 22h-1v-4q0 -4 0.5 -11.5t0.5 -17t0.5 -23t1 -27.5t0.5 -32v-35v-332h-168v700h158l110 -100q190 -172 193 -172h1v4q0 4 -0.5 10.5t-0.5 16v22t-0.5 26.5
t-0.5 31.5v34.5v127z" />
    <glyph glyph-name="ncaron.ss02" horiz-adv-x="784" 
d="M195 890l197 -167l196 167l-80 82l-116 -96l-116 96zM538 700h168v-700h-168v227l-126 107q-33 29 -75.5 66.5t-67.5 59.5l-25 22h-1v-4q0 -4 0.5 -11.5t0.5 -17t0.5 -23t1 -27.5t0.5 -32v-35v-332h-168v700h158l110 -100q190 -172 193 -172h1v4q0 4 -0.5 10.5t-0.5 16
v22t-0.5 26.5t-0.5 31.5v34.5v127z" />
    <glyph glyph-name="ncommaaccent.ss02" horiz-adv-x="784" 
d="M538 700h168v-700h-168v227l-126 107q-33 29 -75.5 66.5t-67.5 59.5l-25 22h-1v-4q0 -4 0.5 -11.5t0.5 -17t0.5 -23t1 -27.5t0.5 -32v-35v-332h-168v700h158l110 -100q190 -172 193 -172h1v4q0 4 -0.5 10.5t-0.5 16v22t-0.5 26.5t-0.5 31.5v34.5v127zM379 -180l14 4
l-14 2q-21 2 -37 19.5t-16 44.5q0 29 21 50t51 21t50.5 -22.5t20.5 -57.5q0 -42 -29.5 -89.5t-74.5 -82.5h-55q24 15 46.5 52t22.5 59z" />
    <glyph glyph-name="ntilde.ss02" horiz-adv-x="784" 
d="M507 896h130q0 -68 -44.5 -112t-113.5 -44q-32 0 -61 15.5t-53 31t-42 15.5q-19 0 -31.5 -12t-12.5 -31h-130q0 68 44.5 112t113.5 44q42 0 89.5 -31t66.5 -31t31.5 12t12.5 31zM538 700h168v-700h-168v227l-126 107q-33 29 -75.5 66.5t-67.5 59.5l-25 22h-1v-4
q0 -4 0.5 -11.5t0.5 -17t0.5 -23t1 -27.5t0.5 -32v-35v-332h-168v700h158l110 -100q190 -172 193 -172h1v4q0 4 -0.5 10.5t-0.5 16v22t-0.5 26.5t-0.5 31.5v34.5v127z" />
    <glyph glyph-name="oacute.loclPLK" horiz-adv-x="797" 
d="M451 976l122 -68l-123 -181l-104 59zM35 350q0 157 105.5 260.5t257.5 103.5q153 0 258.5 -103.5t105.5 -260.5t-105.5 -260.5t-258.5 -103.5q-152 0 -257.5 103.5t-105.5 260.5zM210 350q0 -88 52 -143t136 -55q85 0 137 55t52 143q0 89 -52 143.5t-137 54.5
t-136.5 -54.5t-51.5 -143.5z" />
    <glyph glyph-name="q.ss01" horiz-adv-x="827" 
d="M774 165h23v-165h-400q-152 0 -257 101.5t-105 255.5t105 256t257 102t257.5 -102t105.5 -256q0 -112 -58 -198l1 -1h3q2 1 7 2.5t12.5 2.5t20.5 1.5t28 0.5zM210 357q0 -87 53.5 -139t133.5 -52t134 52t54 139q0 86 -54 139t-134 53t-133.5 -52.5t-53.5 -139.5z" />
    <glyph glyph-name="sacute.loclPLK" horiz-adv-x="614" 
d="M369 976l122 -68l-123 -181l-104 59zM583 522l-162 -44q-12 44 -46.5 67.5t-74.5 23.5q-36 0 -57.5 -15.5t-21.5 -37.5q0 -10 3.5 -18t13 -15.5t17.5 -13t25 -12.5t27.5 -11t33.5 -12t35 -12q44 -16 78 -33.5t66.5 -43.5t50.5 -61.5t18 -78.5q0 -96 -75.5 -157.5
t-197.5 -61.5q-108 0 -184.5 56t-111.5 156l161 43q15 -44 52.5 -75t89.5 -31q43 0 65.5 17.5t22.5 44.5q0 16 -8 28.5t-28.5 23.5t-37 17.5t-52.5 18.5t-56 20q-39 15 -65 28.5t-55.5 37t-45 57.5t-15.5 78q0 84 75 146t187 62q99 0 173.5 -54t99.5 -138z" />
    <glyph glyph-name="y.ss05" horiz-adv-x="723" 
d="M713 700l-236 -343h102v-137h-134v-220h-167v220h-132v137h100l-236 343h188l127 -187q34 -51 36 -51h1q2 0 36 51l127 187h188z" />
    <glyph glyph-name="yacute.ss05" horiz-adv-x="723" 
d="M532 830l-248 -103l-48 88l239 128zM713 700l-236 -343h102v-137h-134v-220h-167v220h-132v137h100l-236 343h188l127 -187q34 -51 36 -51h1q2 0 36 51l127 187h188z" />
    <glyph glyph-name="ycircumflex.ss05" horiz-adv-x="723" 
d="M357 822l-116 -96l-81 82l197 167l196 -167l-80 -82zM713 700l-236 -343h102v-137h-134v-220h-167v220h-132v137h100l-236 343h188l127 -187q34 -51 36 -51h1q2 0 36 51l127 187h188z" />
    <glyph glyph-name="ydieresis.ss05" horiz-adv-x="723" 
d="M223 768q-32 0 -53.5 21t-21.5 52t22 52.5t53 21.5t52 -21.5t21 -52.5t-21 -52t-52 -21zM492 768q-31 0 -52.5 21t-21.5 52t21.5 52.5t52.5 21.5t52.5 -21.5t21.5 -52.5t-21.5 -52t-52.5 -21zM713 700l-236 -343h102v-137h-134v-220h-167v220h-132v137h100l-236 343h188
l127 -187q34 -51 36 -51h1q2 0 36 51l127 187h188z" />
    <glyph glyph-name="ygrave.ss05" horiz-adv-x="723" 
d="M462 815l-48 -88l-248 103l57 113zM713 700l-236 -343h102v-137h-134v-220h-167v220h-132v137h100l-236 343h188l127 -187q34 -51 36 -51h1q2 0 36 51l127 187h188z" />
    <glyph glyph-name="zacute.loclPLK" horiz-adv-x="712" 
d="M414 976l122 -68l-123 -181l-104 59zM652 700v-157l-298 -321q-13 -14 -30 -31t-26 -27l-9 -9l1 -1h3q3 0 8.5 0.5t13 1t17 0.5t20 0.5t23 0.5h24.5h253v-157h-592v157l312 328q11 12 27.5 27t26.5 24l11 9l-1 1h-8q-7 -1 -18.5 -1.5t-25 -0.5t-29.5 -0.5t-28 -0.5h-257
v157h582z" />
    <glyph glyph-name="fraction" unicode="&#x2044;" horiz-adv-x="130" 
d="M-240 0l502 700h108l-502 -700h-108z" />
    <glyph glyph-name="oneeighth" unicode="&#x215b;" horiz-adv-x="761" 
d="M159 700h76v-387h-107v178q0 10 0.5 21.5t1.5 20t2 16t2 11.5v4h-1q-1 0 -4.5 -5.5t-12.5 -15.5t-19 -19l-20 -18l-67 59zM65 0l502 700h108l-502 -700h-108zM676 206v-1q30 -10 52.5 -34.5t22.5 -61.5q0 -50 -42 -83t-106 -34q-64 1 -106 34t-42 83q0 37 22.5 61.5
t52.5 34.5v1q-20 5 -38.5 28.5t-18.5 56.5q0 45 36.5 74.5t93.5 29.5t93.5 -29.5t36.5 -74.5q0 -32 -19 -55.5t-38 -29.5zM556 289q0 -16 13.5 -26.5t33.5 -10.5q21 0 34 10.5t13 26.5t-13.5 26t-33.5 10t-33.5 -10.5t-13.5 -25.5zM548 112q0 -19 16 -32t39 -13
q24 0 39.5 13t15.5 32t-16 31.5t-39 12.5q-24 0 -39.5 -13t-15.5 -31z" />
    <glyph glyph-name="threeeighths" unicode="&#x215c;" horiz-adv-x="821" 
d="M115 570l-89 24q11 52 52 83t99 31q64 0 102.5 -33t38.5 -83q0 -36 -25.5 -58t-51.5 -22v-1q34 -1 59 -22t25 -59q0 -54 -42 -89.5t-106 -35.5q-57 0 -102 32t-55 81l91 25q11 -48 66 -48q21 0 34 10.5t13 27.5q0 19 -14 30t-36 11h-35v74h35q18 0 30.5 11t12.5 26
q0 14 -12 24t-29 10q-47 0 -61 -49zM125 0l502 700h108l-502 -700h-108zM736 206v-1q30 -10 52.5 -34.5t22.5 -61.5q0 -50 -42 -83t-106 -34q-64 1 -106 34t-42 83q0 37 22.5 61.5t52.5 34.5v1q-20 5 -38.5 28.5t-18.5 56.5q0 45 36.5 74.5t93.5 29.5t93.5 -29.5t36.5 -74.5
q0 -32 -19 -55.5t-38 -29.5zM616 289q0 -16 13.5 -26.5t33.5 -10.5q21 0 34 10.5t13 26.5t-13.5 26t-33.5 10t-33.5 -10.5t-13.5 -25.5zM608 112q0 -19 16 -32t39 -13q24 0 39.5 13t15.5 32t-16 31.5t-39 12.5q-24 0 -39.5 -13t-15.5 -31z" />
    <glyph glyph-name="fiveeighths" unicode="&#x215d;" horiz-adv-x="798" 
d="M125 556l1 -1q16 16 44 16q68 0 107.5 -35.5t39.5 -93.5t-42.5 -97.5t-104.5 -39.5q-59 0 -101 32.5t-49 75.5l94 26q11 -44 52 -44q24 0 39 13.5t15 34.5q0 22 -15 36t-39 14q-34 0 -48 -29l-87 24l38 212h225v-93h-151q-3 -12 -7.5 -24.5t-7.5 -19.5zM604 700h108
l-502 -700h-108zM713 206v-1q30 -10 52.5 -34.5t22.5 -61.5q0 -50 -42 -83t-106 -34q-64 1 -106 34t-42 83q0 37 22.5 61.5t52.5 34.5v1q-20 5 -38.5 28.5t-18.5 56.5q0 45 36.5 74.5t93.5 29.5t93.5 -29.5t36.5 -74.5q0 -32 -19 -55.5t-38 -29.5zM640 325
q-20 0 -33.5 -10.5t-13.5 -25.5q0 -16 13.5 -26.5t33.5 -10.5q21 0 34 10.5t13 26.5t-13.5 26t-33.5 10zM640 67q24 0 39.5 13t15.5 32t-16 31.5t-39 12.5q-24 0 -39.5 -13t-15.5 -31q0 -19 16 -32t39 -13z" />
    <glyph glyph-name="seveneighths" unicode="&#x215e;" horiz-adv-x="701" 
d="M5 0l502 700h108l-502 -700h-108zM10 700h300v-58l-180 -329h-105l124 227q7 13 14.5 25t13 19.5t10 13t7.5 8.5l2 3l-1 1h-4q-4 -1 -11 -1.5t-16 -0.5t-21 -0.5t-24 -0.5h-109v93zM616 206v-1q30 -10 52.5 -34.5t22.5 -61.5q0 -50 -42 -83t-106 -34q-64 1 -106 34
t-42 83q0 37 22.5 61.5t52.5 34.5v1q-20 5 -38.5 28.5t-18.5 56.5q0 45 36.5 74.5t93.5 29.5t93.5 -29.5t36.5 -74.5q0 -32 -19 -55.5t-38 -29.5zM496 289q0 -16 13.5 -26.5t33.5 -10.5q21 0 34 10.5t13 26.5t-13.5 26t-33.5 10t-33.5 -10.5t-13.5 -25.5zM488 112
q0 -19 16 -32t39 -13q24 0 39.5 13t15.5 32t-16 31.5t-39 12.5q-24 0 -39.5 -13t-15.5 -31z" />
    <glyph glyph-name="zero.slsh" horiz-adv-x="717" 
d="M358 714q147 0 235.5 -104.5t88.5 -259.5t-88.5 -259.5t-235.5 -104.5t-235 104.5t-88 259.5t88 259.5t235 104.5zM232 230l185 306q-25 12 -59 12q-75 0 -111.5 -54t-36.5 -144q0 -72 22 -120zM484 468l-184 -305q25 -11 58 -11q74 0 111.5 54.5t37.5 143.5
q0 72 -23 118z" />
    <glyph glyph-name="zero.sups" horiz-adv-x="375" 
d="M188 467q-79 0 -128.5 56.5t-49.5 144.5t49.5 145t128.5 57q78 0 127.5 -57t49.5 -145t-49.5 -144.5t-127.5 -56.5zM188 578q30 0 48.5 26t18.5 64q0 39 -18.5 65t-48.5 26t-49 -26.5t-19 -64.5t19 -64t49 -26z" />
    <glyph glyph-name="four.sups" horiz-adv-x="360" 
d="M335 629v-88h-41v-66h-95v66h-189v73l202 248h82v-233h41zM160 627h39v56q0 7 0.5 16t0.5 15v6h-1l-3 -3q-2 -3 -6 -8.5t-8 -9.5l-46 -53q-4 -4 -7 -7.5t-5 -6t-4 -4t-2 -2.5l-1 -1l1 -1h2q3 1 7 1.5t9 0.5t11.5 0.5t12.5 0.5z" />
    <glyph glyph-name="five.sups" horiz-adv-x="342" 
d="M125 718l1 -1q16 16 44 16q68 0 107.5 -35.5t39.5 -93.5t-42.5 -97.5t-104.5 -39.5q-59 0 -101 32.5t-49 75.5l94 26q11 -44 52 -44q24 0 39 13.5t15 34.5q0 22 -15 36t-39 14q-34 0 -48 -29l-87 24l38 212h225v-93h-151q-3 -12 -7.5 -24.5t-7.5 -19.5z" />
    <glyph glyph-name="six.sups" horiz-adv-x="339" 
d="M260 862l-100 -134l1 -1q6 6 20 6q59 0 96 -38.5t37 -94.5q0 -60 -42.5 -96.5t-107.5 -36.5q-64 0 -109 37.5t-45 99.5q0 43 16 78t49 79l76 101h109zM162 556q24 0 38.5 13t14.5 35t-14.5 35t-38.5 13t-38.5 -13t-14.5 -35t14.5 -35t38.5 -13z" />
    <glyph glyph-name="seven.sups" horiz-adv-x="315" 
d="M10 862h300v-58l-180 -329h-105l124 227q7 13 14.5 25t13 19.5t10 13t7.5 8.5l2 3l-1 1h-4q-4 -1 -11 -1.5t-16 -0.5t-21 -0.5t-24 -0.5h-109v93z" />
    <glyph glyph-name="eight.sups" horiz-adv-x="316" 
d="M231 681v-1q30 -10 52.5 -34.5t22.5 -61.5q0 -50 -42 -83t-106 -34q-64 1 -106 34t-42 83q0 37 22.5 61.5t52.5 34.5v1q-20 5 -38.5 28.5t-18.5 56.5q0 45 36.5 74.5t93.5 29.5t93.5 -29.5t36.5 -74.5q0 -32 -19 -55.5t-38 -29.5zM111 764q0 -16 13.5 -26.5t33.5 -10.5
q21 0 34 10.5t13 26.5t-13.5 26t-33.5 10t-33.5 -10.5t-13.5 -25.5zM103 587q0 -19 16 -32t39 -13q24 0 39.5 13t15.5 32t-16 31.5t-39 12.5q-24 0 -39.5 -13t-15.5 -31z" />
    <glyph glyph-name="nine.sups" horiz-adv-x="324" 
d="M51 475l116 134l-1 1q-9 -6 -23 -6q-59 0 -96 38.5t-37 94.5q0 60 42.5 96.5t107.5 36.5q64 0 109 -37.5t45 -99.5q0 -78 -65 -157l-83 -101h-115zM159 782q-24 0 -38.5 -13t-14.5 -35t14.5 -35t38.5 -13t38.5 13t14.5 35t-14.5 35t-38.5 13z" />
    <glyph glyph-name="zero.tf" 
d="M348 714q73 0 130.5 -31t92.5 -83.5t53 -116t18 -133.5t-18 -133.5t-53 -116t-92.5 -83.5t-130.5 -31t-130.5 31t-92 83.5t-52.5 116t-18 133.5t18 133.5t52.5 116t92 83.5t130.5 31zM348 548q-118 0 -118 -198t118 -198q36 0 61.5 20t37 52.5t16 62.5t4.5 63t-4.5 63
t-16 62.5t-37 52.5t-61.5 20z" />
    <glyph glyph-name="one.tf" 
d="M475 157h163v-157h-497v157h166v180q0 21 1 51t2 48v18h-1l-8 -9q-8 -9 -22 -25t-27 -29l-31 -31l-103 99l240 241h117v-543z" />
    <glyph glyph-name="two.tf" 
d="M232 478l-155 41q26 87 95 141t170 54q113 0 183.5 -65t70.5 -163q0 -47 -13.5 -84.5t-44.5 -70t-52.5 -49.5t-65.5 -48q-25 -18 -55 -38t-47 -32l-16 -11l1 -1h5q4 1 12 1t19 0.5t26 1.5t32 1t38 0.5t43 0.5h119v-157h-514v137q48 42 143.5 127t143.5 127q56 48 56 95
q0 33 -24.5 56.5t-64.5 23.5q-73 0 -105 -88z" />
    <glyph glyph-name="three.tf" 
d="M237 478l-150 40q23 90 94.5 143t173.5 53q116 0 184 -58.5t68 -148.5q0 -63 -44 -103t-90 -42v-1q59 0 103 -42t44 -111q0 -97 -74.5 -159.5t-190.5 -62.5q-100 0 -179 55t-100 139l152 42q13 -39 43.5 -62.5t76.5 -23.5q40 0 68.5 22t28.5 59q0 34 -27.5 55t-73.5 21
h-59v131h59q44 0 66.5 20t22.5 51q0 32 -24.5 51.5t-64.5 19.5q-76 0 -107 -88z" />
    <glyph glyph-name="four.tf" 
d="M635 272v-146h-75v-126h-158v126h-350v126l370 448h138v-428h75zM326 272h76v34v32t0.5 32.5t1 30.5t0.5 28t0.5 22.5t0.5 14.5v6h-1l-11 -14q-11 -15 -28 -37.5t-29 -36.5l-56 -66l-38 -46v-1q1 0 12.5 0.5t31.5 0.5h40z" />
    <glyph glyph-name="five.tf" 
d="M262 444l1 -1q26 16 79 16q112 0 187 -65t75 -165q0 -104 -75 -173.5t-187 -69.5q-101 0 -173.5 52t-92.5 125l154 41q28 -74 105 -74q43 0 71 28.5t28 72.5t-29 72t-70 28q-71 0 -90 -50l-145 40l63 379h398v-157h-277l-2 -10q-6 -29 -11 -51.5t-7 -29.5z" />
    <glyph glyph-name="six.tf" 
d="M515 700l-186 -248l1 -1q24 19 57 19q108 0 172 -71.5t64 -175.5q0 -105 -78.5 -171t-197.5 -66q-116 0 -195 67t-79 180q0 76 30.5 139t95.5 149l135 179h181zM353 133q49 0 79.5 28.5t30.5 71.5q0 45 -31 72.5t-79 27.5q-49 0 -79.5 -28t-30.5 -72q0 -45 31 -72.5
t79 -27.5z" />
    <glyph glyph-name="seven.tf" 
d="M110 700h536v-97l-338 -603h-180l213 375q21 36 47 78.5t42 66.5l16 24l-1 1h-7q-7 0 -18 -0.5t-24 -1t-27 -0.5h-24h-235v157z" />
    <glyph glyph-name="eight.tf" 
d="M479 373v-1q54 -13 96 -60t42 -113q0 -90 -76 -151.5t-192 -62.5q-116 1 -192 62.5t-76 151.5q0 67 42 113.5t96 59.5v1q-33 6 -69.5 49.5t-36.5 102.5q0 81 67 135t169 54t169 -54t67 -135q0 -59 -36.5 -102.5t-69.5 -49.5zM255 517q0 -32 26.5 -52.5t67.5 -20.5
t67.5 21t26.5 52q0 34 -26.5 55.5t-67.5 21.5q-42 0 -68 -22t-26 -55zM241 204q0 -39 30.5 -63.5t77.5 -24.5q48 0 78 25t30 63q0 39 -30.5 63.5t-77.5 24.5q-48 0 -78 -25t-30 -63z" />
    <glyph glyph-name="nine.tf" 
d="M126 0l216 246l-1 1q-14 -17 -54 -17q-115 0 -177 69.5t-62 174.5q0 108 78 174t198 66q117 0 196 -67t79 -180q0 -137 -117 -274l-165 -193h-191zM320 566q-49 0 -79.5 -28t-30.5 -72q0 -45 31 -72.5t79 -27.5q49 0 79.5 28.5t30.5 71.5q0 45 -31 72.5t-79 27.5z" />
    <glyph glyph-name="zero.slsh.tf" 
d="M348 714q73 0 130.5 -31t92.5 -83.5t53 -116t18 -133.5t-18 -133.5t-53 -116t-92.5 -83.5t-130.5 -31t-130.5 31t-92 83.5t-52.5 116t-18 133.5t18 133.5t52.5 116t92 83.5t130.5 31zM240 255l166 275q-25 18 -58 18q-118 0 -118 -198q0 -54 10 -95zM458 438l-164 -272
q23 -14 54 -14q36 0 61.5 20t37 52.5t16 62.5t4.5 63q0 48 -9 88z" />
    <glyph glyph-name="zero.slsh.numr" horiz-adv-x="375" 
d="M188 708q78 0 127.5 -57t49.5 -145t-49.5 -144.5t-127.5 -56.5q-79 0 -128.5 56.5t-49.5 144.5t49.5 145t128.5 57zM129 460l80 133q-8 4 -21 4q-30 0 -49 -26.5t-19 -64.5q0 -26 9 -46zM248 548l-78 -129q9 -3 18 -3q30 0 48.5 26t18.5 64q0 25 -7 42z" />
    <glyph glyph-name="zero.slsh.dnom" horiz-adv-x="375" 
d="M188 395q78 0 127.5 -57t49.5 -145t-49.5 -144.5t-127.5 -56.5q-79 0 -128.5 56.5t-49.5 144.5t49.5 145t128.5 57zM129 147l80 133q-8 4 -21 4q-30 0 -49 -26.5t-19 -64.5q0 -27 9 -46zM248 235l-78 -129q9 -3 18 -3q30 0 48.5 26t18.5 64q0 25 -7 42z" />
    <glyph glyph-name="zero.slsh.sups" horiz-adv-x="375" 
d="M188 870q78 0 127.5 -57t49.5 -145t-49.5 -144.5t-127.5 -56.5q-79 0 -128.5 56.5t-49.5 144.5t49.5 145t128.5 57zM129 622l80 133q-8 4 -21 4q-30 0 -49 -26.5t-19 -64.5q0 -26 9 -46zM248 710l-78 -129q9 -3 18 -3q30 0 48.5 26t18.5 64q0 25 -7 42z" />
    <glyph glyph-name="zero.dnom" horiz-adv-x="375" 
d="M188 -8q-79 0 -128.5 56.5t-49.5 144.5t49.5 145t128.5 57q78 0 127.5 -57t49.5 -145t-49.5 -144.5t-127.5 -56.5zM188 103q30 0 48.5 26t18.5 64q0 39 -18.5 65t-48.5 26t-49 -26.5t-19 -64.5t19 -64t49 -26z" />
    <glyph glyph-name="one.dnom" horiz-adv-x="265" 
d="M159 387h76v-387h-107v178q0 10 0.5 21.5t1.5 20t2 16t2 11.5v4h-1q-1 0 -4.5 -5.5t-12.5 -15.5t-19 -19l-20 -18l-67 59z" />
    <glyph glyph-name="two.dnom" horiz-adv-x="340" 
d="M161 86l1 -1l3 1q3 0 8 0.5t12 1.5t16.5 2t19.5 1.5t22.5 1t25.5 0.5h44v-93h-290v70l122 105q3 3 11.5 10t11.5 9.5t9.5 8.5t9.5 9.5t7.5 9t6.5 9.5l4.5 9t3.5 10t1 11q0 16 -11.5 26t-28.5 10q-18 0 -31 -12t-16.5 -20t-8.5 -24l-94 25q11 50 52.5 89.5t99.5 39.5
q62 0 102.5 -38.5t40.5 -95.5q0 -60 -59 -111q-17 -16 -40 -31q-12 -8 -26.5 -16.5t-21.5 -12.5z" />
    <glyph glyph-name="three.dnom" horiz-adv-x="335" 
d="M115 257l-89 24q11 52 52 83t99 31q64 0 102.5 -33t38.5 -83q0 -36 -25.5 -58t-51.5 -22v-1q34 -1 59 -22t25 -59q0 -54 -42 -89.5t-106 -35.5q-57 0 -102 32t-55 81l91 25q11 -48 66 -48q21 0 34 10.5t13 27.5q0 19 -14 30t-36 11h-35v74h35q18 0 30.5 11t12.5 26
q0 14 -12 24t-29 10q-47 0 -61 -49z" />
    <glyph glyph-name="four.dnom" horiz-adv-x="360" 
d="M335 154v-88h-41v-66h-95v66h-189v73l202 248h82v-233h41zM160 152h39v56q0 7 0.5 16t0.5 15v6h-1l-3 -3q-2 -3 -6 -8.5t-8 -9.5l-46 -53q-4 -4 -7 -7.5t-5 -6t-4 -4t-2 -2.5l-1 -1l1 -1l2 1h7t9 0.5t11.5 1t12.5 0.5z" />
    <glyph glyph-name="five.dnom" horiz-adv-x="342" 
d="M125 243l1 -1q16 16 44 16q68 0 107.5 -35.5t39.5 -93.5t-42.5 -97.5t-104.5 -39.5q-59 0 -101 32.5t-49 75.5l94 26q11 -44 52 -44q24 0 39 13.5t15 34.5q0 22 -15 36t-39 14q-34 0 -48 -29l-87 24l38 212h225v-93h-151q-3 -12 -7.5 -24.5t-7.5 -19.5z" />
    <glyph glyph-name="six.dnom" horiz-adv-x="339" 
d="M260 387l-100 -134l1 -1q6 6 20 6q59 0 96 -38.5t37 -94.5q0 -60 -42.5 -96.5t-107.5 -36.5q-64 0 -109 37.5t-45 99.5q0 43 16 78t49 79l76 101h109zM162 81q24 0 38.5 13t14.5 35t-14.5 35t-38.5 13t-38.5 -13t-14.5 -35t14.5 -35t38.5 -13z" />
    <glyph glyph-name="seven.dnom" horiz-adv-x="315" 
d="M10 387h300v-58l-180 -329h-105l124 227q7 13 14.5 25t13 19.5t10 13t7.5 8.5l2 3l-1 1l-4 -1h-11t-16 -0.5t-21 -1t-24 -0.5h-109v93z" />
    <glyph glyph-name="eight.dnom" horiz-adv-x="316" 
d="M231 206v-1q30 -10 52.5 -34.5t22.5 -61.5q0 -50 -42 -83t-106 -34q-64 1 -106 34t-42 83q0 37 22.5 61.5t52.5 34.5v1q-20 5 -38.5 28.5t-18.5 56.5q0 45 36.5 74.5t93.5 29.5t93.5 -29.5t36.5 -74.5q0 -32 -19 -55.5t-38 -29.5zM111 289q0 -16 13.5 -26.5t33.5 -10.5
q21 0 34 10.5t13 26.5t-13.5 26t-33.5 10t-33.5 -10.5t-13.5 -25.5zM103 112q0 -19 16 -32t39 -13q24 0 39.5 13t15.5 32t-16 31.5t-39 12.5q-24 0 -39.5 -13t-15.5 -31z" />
    <glyph glyph-name="nine.dnom" horiz-adv-x="324" 
d="M51 0l116 134l-1 1q-9 -6 -23 -6q-59 0 -96 38.5t-37 94.5q0 60 42.5 96.5t107.5 36.5q64 0 109 -37.5t45 -99.5q0 -78 -65 -157l-83 -101h-115zM159 307q-24 0 -38.5 -13t-14.5 -35t14.5 -35t38.5 -13t38.5 13t14.5 35t-14.5 35t-38.5 13z" />
    <glyph glyph-name="zero.numr" horiz-adv-x="375" 
d="M188 305q-79 0 -128.5 56.5t-49.5 144.5t49.5 145t128.5 57q78 0 127.5 -57t49.5 -145t-49.5 -144.5t-127.5 -56.5zM188 416q30 0 48.5 26t18.5 64q0 39 -18.5 65t-48.5 26t-49 -26.5t-19 -64.5t19 -64t49 -26z" />
    <glyph glyph-name="one.numr" horiz-adv-x="265" 
d="M159 700h76v-387h-107v178q0 10 0.5 21.5t1.5 20t2 16t2 11.5v4h-1q-1 0 -4.5 -5.5t-12.5 -15.5t-19 -19l-20 -18l-67 59z" />
    <glyph glyph-name="two.numr" horiz-adv-x="340" 
d="M161 399l1 -1h3q3 1 8 1.5t12 1.5t16.5 2t19.5 1.5t22.5 1t25.5 0.5h44v-93h-290v70l122 105q3 3 11.5 10t11.5 9.5t9.5 8.5t9.5 9.5t7.5 9t6.5 9.5l4.5 9t3.5 10t1 11q0 16 -11.5 26t-28.5 10q-18 0 -31 -12t-16.5 -20t-8.5 -24l-94 25q11 50 52.5 89.5t99.5 39.5
q62 0 102.5 -38.5t40.5 -95.5q0 -60 -59 -111q-17 -16 -40 -31q-12 -8 -26.5 -16.5t-21.5 -12.5z" />
    <glyph glyph-name="three.numr" horiz-adv-x="350" 
d="M115 570l-89 24q11 52 52 83t99 31q64 0 102.5 -33t38.5 -83q0 -36 -25.5 -58t-51.5 -22v-1q34 -1 59 -22t25 -59q0 -54 -42 -89.5t-106 -35.5q-57 0 -102 32t-55 81l91 25q11 -48 66 -48q21 0 34 10.5t13 27.5q0 19 -14 30t-36 11h-35v74h35q18 0 30.5 11t12.5 26
q0 14 -12 24t-29 10q-47 0 -61 -49z" />
    <glyph glyph-name="four.numr" horiz-adv-x="360" 
d="M335 467v-88h-41v-66h-95v66h-189v73l202 248h82v-233h41zM160 465h39v56q0 7 0.5 16t0.5 15v6h-1l-3 -3q-2 -3 -6 -8.5t-8 -9.5l-46 -53q-4 -4 -7 -7.5t-5 -6t-4 -4t-2 -2.5l-1 -1l1 -1h2q3 1 7 1.5t9 0.5t11.5 0.5t12.5 0.5z" />
    <glyph glyph-name="five.numr" horiz-adv-x="342" 
d="M125 556l1 -1q16 16 44 16q68 0 107.5 -35.5t39.5 -93.5t-42.5 -97.5t-104.5 -39.5q-59 0 -101 32.5t-49 75.5l94 26q11 -44 52 -44q24 0 39 13.5t15 34.5q0 22 -15 36t-39 14q-34 0 -48 -29l-87 24l38 212h225v-93h-151q-3 -12 -7.5 -24.5t-7.5 -19.5z" />
    <glyph glyph-name="six.numr" horiz-adv-x="339" 
d="M260 700l-100 -134l1 -1q6 6 20 6q59 0 96 -38.5t37 -94.5q0 -60 -42.5 -96.5t-107.5 -36.5q-64 0 -109 37.5t-45 99.5q0 43 16 78t49 79l76 101h109zM162 394q24 0 38.5 13t14.5 35t-14.5 35t-38.5 13t-38.5 -13t-14.5 -35t14.5 -35t38.5 -13z" />
    <glyph glyph-name="seven.numr" horiz-adv-x="315" 
d="M10 700h300v-58l-180 -329h-105l124 227q7 13 14.5 25t13 19.5t10 13t7.5 8.5l2 3l-1 1h-4q-4 -1 -11 -1.5t-16 -0.5t-21 -0.5t-24 -0.5h-109v93z" />
    <glyph glyph-name="eight.numr" horiz-adv-x="316" 
d="M231 519v-1q30 -10 52.5 -34.5t22.5 -61.5q0 -50 -42 -83t-106 -34q-64 1 -106 34t-42 83q0 37 22.5 61.5t52.5 34.5v1q-20 5 -38.5 28.5t-18.5 56.5q0 45 36.5 74.5t93.5 29.5t93.5 -29.5t36.5 -74.5q0 -32 -19 -55.5t-38 -29.5zM111 602q0 -16 13.5 -26.5t33.5 -10.5
q21 0 34 10.5t13 26.5t-13.5 26t-33.5 10t-33.5 -10.5t-13.5 -25.5zM103 425q0 -19 16 -32t39 -13q24 0 39.5 13t15.5 32t-16 31.5t-39 12.5q-24 0 -39.5 -13t-15.5 -31z" />
    <glyph glyph-name="nine.numr" horiz-adv-x="324" 
d="M51 313l116 134l-1 1q-9 -6 -23 -6q-59 0 -96 38.5t-37 94.5q0 60 42.5 96.5t107.5 36.5q64 0 109 -37.5t45 -99.5q0 -78 -65 -157l-83 -101h-115zM159 620q-24 0 -38.5 -13t-14.5 -35t14.5 -35t38.5 -13t38.5 13t14.5 35t-14.5 35t-38.5 13z" />
    <glyph glyph-name="dollar.tf" 
d="M623 522l-162 -44q-12 44 -46.5 67.5t-74.5 23.5q-36 0 -57.5 -15.5t-21.5 -37.5q0 -10 3.5 -18t13 -15.5t17.5 -13t25 -12.5t27.5 -11t33.5 -12t35 -12q44 -16 78 -33.5t66.5 -43.5t50.5 -61.5t18 -78.5q0 -78 -50.5 -134t-137.5 -76v-85h-168v86q-155 38 -213 202
l161 43q15 -44 52.5 -75t89.5 -31q43 0 65.5 17.5t22.5 44.5q0 16 -8 28.5t-28.5 23.5t-37 17.5t-52.5 18.5t-56 20q-39 15 -65 28.5t-55.5 37t-45 57.5t-15.5 78q0 68 51 123.5t134 75.5v85h168v-89q67 -21 115 -68.5t67 -110.5z" />
    <glyph glyph-name="percent.tf" 
d="M559 700l-143 -322q34 17 75 17q78 0 127.5 -57t49.5 -145t-49.5 -144.5t-127.5 -56.5q-70 0 -117 45t-58 117l-69 -154h-108l146 328q-38 -23 -87 -23q-79 0 -128.5 56.5t-49.5 144.5t49.5 145t128.5 57q73 0 121.5 -50.5t54.5 -129.5l77 172h108zM198 416q30 0 48.5 26
t18.5 64q0 39 -18.5 65t-48.5 26t-49 -26.5t-19 -64.5t19 -64t49 -26zM491 103q30 0 48.5 26t18.5 64q0 39 -18.5 65t-48.5 26t-49 -26.5t-19 -64.5t19 -64t49 -26z" />
    <glyph glyph-name="cent.tf" 
d="M463 283l147 -40q-23 -60 -73 -103t-114 -58v-96h-134v97q-87 23 -143.5 94.5t-56.5 167.5t56.5 167.5t143.5 94.5v107h134v-106q60 -14 107.5 -53t72.5 -94l-147 -38q-36 48 -98 48q-54 0 -84.5 -33.5t-30.5 -92.5t30.5 -92.5t84.5 -33.5q74 0 105 64z" />
    <glyph glyph-name="sterling.tf" 
d="M283 153l1 -1h4q4 1 11 1t16.5 0.5t23 1.5t28 1t32.5 0.5t37 0.5h186v-157h-534v157q40 7 53 29t8 70l-1 15h-60v131h47l-8 84q-9 90 63 158t170 70q48 1 99 -16t100 -64t66 -117l-141 -39q-32 92 -113 88q-38 -2 -59 -30t-17 -66l7 -68h188v-131h-176l1 -10
q7 -77 -32 -108z" />
    <glyph glyph-name="currency.tf" 
d="M499 566l68 68l82 -82l-69 -69q42 -65 42 -145q0 -81 -45 -150l66 -66l-82 -82l-67 67q-67 -43 -147 -43q-79 0 -144 42l-66 -66l-82 82l65 65q-45 71 -45 151q0 78 42 146l-68 68l82 82l68 -68q65 45 148 45q81 0 152 -45zM348 466q-51 0 -87 -35.5t-36 -89.5
q0 -56 35.5 -91t87.5 -35q53 0 89 35t36 91q0 55 -36 90t-89 35z" />
    <glyph glyph-name="yen.tf" 
d="M700 700l-156 -227h87v-108h-161l-21 -30h182v-108h-199v-227h-167v227h-198v108h181l-21 30h-160v108h86l-156 227h188l127 -187q34 -51 36 -51h1q2 0 36 51l127 187h188z" />
    <glyph glyph-name="Euro.tf" 
d="M519 233l159 -40q-40 -95 -121.5 -150t-192.5 -55q-113 0 -198 64.5t-118 174.5h-48v108h31v15v15h-30v108h47q33 110 118 174.5t198 64.5q105 0 182.5 -49t120.5 -136l-163 -40q-21 35 -59.5 53.5t-85.5 18.5q-99 0 -140 -86h163v-108h-186v-15v-15h185v-108h-161
q39 -84 139 -84q52 0 95.5 24t64.5 66z" />
    <glyph glyph-name="uni20B9.tf" 
d="M604 573h-124q11 -19 19 -45h105v-122h-104q-15 -60 -57 -102t-106 -62l173 -242h-191l-161 233v122h80q53 0 80 51h-210v122h210q-27 45 -80 45h-130v127h496v-127z" />
    <glyph glyph-name="colon.case" horiz-adv-x="277" 
d="M139 408q-33 0 -56 23t-23 56q0 32 23 55t56 23q32 0 55 -23t23 -55q0 -33 -23 -56t-55 -23zM139 118q-33 0 -56 23t-23 56q0 32 23 55t56 23q32 0 55 -23t23 -55q0 -33 -23 -56t-55 -23z" />
    <glyph glyph-name="semicolon.case" horiz-adv-x="295" 
d="M157 403q-33 0 -56 23t-23 56q0 32 23 55t56 23q32 0 55 -23t23 -55q0 -33 -23 -56t-55 -23zM136 116l15 4l-15 2q-23 3 -40.5 22.5t-17.5 48.5q0 32 23 55t56 23t55.5 -24.5t22.5 -63.5q0 -46 -32.5 -98.5t-81.5 -91.5h-61q26 16 51 57.5t25 65.5z" />
    <glyph glyph-name="uni2007" unicode="&#x2007;" 
 />
    <glyph glyph-name="uni200A" unicode="&#x200a;" horiz-adv-x="40" 
 />
    <glyph glyph-name="uni2009" unicode="&#x2009;" horiz-adv-x="120" 
 />
    <glyph glyph-name="uni20B9" unicode="&#x20b9;" horiz-adv-x="604" 
d="M574 573h-124q11 -19 19 -45h105v-122h-104q-15 -60 -57 -102t-106 -62l173 -242h-191l-161 233v122h80q53 0 80 51h-210v122h210q-27 45 -80 45h-130v127h496v-127z" />
    <glyph glyph-name="greaterequal" unicode="&#x2265;" 
d="M203 195l174 172l-249 244h190l264 -244l-184 -172h-195zM124 128h453v-137h-453v137z" />
    <glyph glyph-name="lessequal" unicode="&#x2264;" 
d="M495 195l-174 172l249 244h-190l-264 -244l184 -172h195zM574 128h-453v-137h453v137z" />
    <glyph glyph-name="minus" unicode="&#x2212;" 
d="M123 423h453v-137h-453v137z" />
    <glyph glyph-name="notequal" unicode="&#x2260;" 
d="M576 396h-128l-52 -103h180v-137h-249l-50 -98h-139l50 98h-65v137h136l52 103h-188v137h259l55 108h135l-55 -108h59v-137z" />
    <glyph glyph-name="lozenge" unicode="&#x25ca;" horiz-adv-x="728" 
d="M364 -14l-364 364l364 364l364 -364zM364 525l-175 -175l175 -175l175 175z" />
    <glyph glyph-name="afii61352" unicode="&#x2116;" horiz-adv-x="1107" 
d="M754 540q0 74 49.5 123t121.5 49t122 -49t50 -123q0 -73 -50 -122t-122 -49t-121.5 48.5t-49.5 122.5zM538 700h168v-700h-158l-143 195q-27 37 -67.5 94t-65.5 92l-26 35h-1v-34t0.5 -91.5t0.5 -135.5v-155h-168v700h158l149 -200q19 -26 57.5 -79.5t67.5 -92.5l28 -39
h1v36.5t-0.5 93t-0.5 121.5v160zM854 540q0 -33 20 -54t51 -21q32 0 52 21t20 54q0 34 -20 55t-52 21q-31 0 -51 -21t-20 -55zM764 313h323v-100h-323v100z" />
    <glyph glyph-name="commaaccentcomb" unicode="&#x326;" horiz-adv-x="0" 
d="M111 -180l14 4l-14 2q-21 2 -37 19.5t-16 44.5q0 29 21 50t51 21t50.5 -22.5t20.5 -57.5q0 -42 -29.5 -89.5t-74.5 -82.5h-55q24 15 46.5 52t22.5 59z" />
    <glyph glyph-name="breve" unicode="&#x2d8;" horiz-adv-x="346" 
d="M-43 898h122q7 -22 26.5 -37.5t47.5 -15.5q27 0 47 15.5t26 37.5h120q-16 -69 -69.5 -112.5t-123.5 -43.5q-75 0 -128 43.5t-68 112.5z" />
    <glyph glyph-name="caron" unicode="&#x2c7;" horiz-adv-x="377" 
d="M-25 890l197 -167l196 167l-80 82l-116 -96l-116 96z" />
    <glyph glyph-name="dotaccent" unicode="&#x2d9;" horiz-adv-x="173" 
d="M68 767q-31 0 -52.5 21.5t-21.5 52.5t21.5 52.5t52.5 21.5t52.5 -21.5t21.5 -52.5t-21.5 -52.5t-52.5 -21.5z" />
    <glyph glyph-name="hungarumlaut" unicode="&#x2dd;" horiz-adv-x="501" 
d="M472 830l-248 -103l-33 61l-147 -61l-48 88l239 128l38 -76l142 76z" />
    <glyph glyph-name="ogonek" unicode="&#x2db;" horiz-adv-x="600" 
d="M343 -86l86 -57q-27 -50 -74 -77t-99 -27q-82 0 -134 43.5t-52 120.5q0 62 43.5 106t77.5 44l109 -67q-42 0 -77 -21.5t-35 -61.5q0 -25 18 -42.5t51 -17.5q26 0 49.5 15.5t36.5 41.5z" />
    <glyph glyph-name="ring" unicode="&#x2da;" horiz-adv-x="292" 
d="M130 647q-62 0 -106.5 44.5t-44.5 105.5t44.5 105.5t106.5 44.5t106 -44t44 -106t-44 -106t-106 -44zM130 745q23 0 39 16t16 37q0 23 -16 39t-39 16q-21 0 -37 -16t-16 -39q0 -21 16 -37t37 -16z" />
    <glyph glyph-name="apple" horiz-adv-x="774" 
d="M652 82h44v45q0 91 -4.5 142t-8 61t-9.5 19l-25 29l-11 13l11 12l22 26q8 8 12 19t8.5 62t4.5 146v44h-44q-94 0 -145.5 -4.5t-62 -8.5t-19.5 -12l-20 -17l-17 -16l-18 16l-20 19q-8 7 -19 10.5t-63 8t-147 4.5h-43v-44q0 -93 4 -145t8 -62.5t11 -19.5l24 -27l10 -11
l-10 -12l-24 -27q-7 -8 -11 -18.5t-8 -62.5t-4 -146v-43h43q93 0 145 4t63 8t19 12l27 23l11 10l13 -10l27 -23q8 -8 18.5 -11.5t62 -8t145.5 -4.5zM386 256l-89 -79q-25 -5 -132 -7q4 111 7 132l79 89l-79 89q-3 20 -7 133q98 -2 133 -7l88 -81l91 81q35 5 132 7
q-4 -112 -7 -133l-81 -89l81 -91q4 -36 7 -130q-106 2 -133 7zM112 39l3 12q-5 3 -15 3q-21 0 -21 -17q0 -11 15 -16q9 -3 9 -6q0 -5 -7 -5q-2 0 -14 4l-4 -12q6 -3 16 -3q24 0 24 17q0 11 -14 16q-11 4 -11 7q0 4 7 4q4 0 12 -4zM557 40l4 12q-4 2 -14 2q-13 0 -21 -7.5
t-8 -21.5q0 -26 28 -26q8 0 14 2l-3 12q-3 -3 -9 -3q-15 0 -15 16q0 17 15 17q6 0 9 -3zM616 26q0 12 -7.5 20t-19.5 8t-19.5 -8t-7.5 -20q0 -27 27 -27t27 27zM136 20v-20h14v20l17 33h-16l-8 -23l-7 23h-17zM172 53v-53h13v35l19 -35h15v53h-13v-32l-16 32h-18zM224 42h14
v-42h13v42h14v11h-41v-11zM285 33v20h-15v-53h15v21h18v-21h14v53h-14v-20h-18zM322 53l17 -53h16l17 53h-15l-10 -39l-9 39h-16zM392 0v53h-15v-53h15zM415 21h19v11h-19v10h21v11h-36v-53h36v11h-21v10zM440 53l13 -53h15l7 35l6 -35h16l13 53h-14l-7 -36l-6 36h-15
l-6 -36l-7 36h-15zM667 40v-40h14l-2 53h-19l-9 -34l-8 34h-19l-4 -53h15v40l11 -39h10zM577 26q0 17 12 17q11 0 11 -17q0 -16 -11 -16q-12 0 -12 16zM511 -1q-6 0 -6 6t6 6t6 -6t-6 -6z" />
    </font>
</defs>
</svg>
